<?xml version="1.0" encoding="UTF-8"?>
<svg id="Layer_2" data-name="Layer 2" xmlns="http://www.w3.org/2000/svg" viewBox="0 0 32.87 33">
  <defs>
    <style>
      .cls-1 {
        fill: #ec6229;
        stroke-width: 0px;
      }
    </style>
  </defs>
  <g id="Layer_1-2" data-name="Layer 1">
    <g id="Layer_2-2" data-name="Layer 2">
      <g>
        <path class="cls-1" d="M32.82,20.02c0-.17-.07-.34-.13-.49-.69-1.78-3-2.27-4.5-.95-1.54,1.36-3.08,2.73-4.63,4.09-.23.21-.47.41-.74.65.62-2.12-.97-3.68-2.8-3.63-3.1.08-6.2.02-9.31.02-1.7,0-3.22.52-4.56,1.56-1.91,1.48-3.81,2.96-5.72,4.44-.3.23-.43.5-.43.88.01,1.82.01,3.65,0,5.47,0,.43.13.75.52.94h7.54c.13-.07.28-.09.41-.18,1.02-.73,2.06-1.44,3.08-2.17.26-.19.53-.28.86-.28,2.87,0,5.75.02,8.63,0,1.49,0,2.8-.56,3.92-1.55.28-.24.54-.49.81-.73,1.19-1.04,2.34-2.11,3.52-3.15.76-.68,1.52-1.36,2.27-2.04.62-.55,1.26-1.09,1.3-2.01v-.52c-.07-.1,0-.23-.05-.34h.01ZM31.02,21.35c-2.04,1.84-4.09,3.67-6.14,5.51-.28.26-.57.51-.86.77-.91.83-1.98,1.24-3.22,1.23h-8.92c-.29,0-.54.07-.77.25-1.09.78-2.19,1.54-3.29,2.31-.14.1-.27.15-.44.15H1.71c-.22,0-.29-.04-.28-.28v-4.32c0-.17.05-.29.19-.4,1.84-1.42,3.67-2.87,5.52-4.28,1.02-.78,2.18-1.17,3.47-1.18h9.73c.6,0,1.11.44,1.2,1.01.1.62-.23,1.21-.8,1.41-.21.07-.42.08-.63.08h-6.63c-.32.03-.58.28-.62.6s.14.63.43.75c.14.06.29.07.44.07h8.15c.77,0,1.44-.26,2.02-.78,1.73-1.54,3.47-3.07,5.2-4.62.36-.32.76-.48,1.24-.41.51.07.89.33,1.06.82.17.5.02.93-.36,1.28l-.02.03Z"/>
        <path class="cls-1" d="M32.87,20.36c-.1-.1-.07-.22-.05-.34.02,0,.04.01.05.02v.32Z"/>
        <path class="cls-1" d="M23.67,13.98c-.18-2.1-1.11-3.8-2.75-5.11-.53-.42-1.12-.74-1.75-1.02,2.17-1.86,2.12-4.79.39-6.55-1.69-1.73-4.55-1.73-6.24,0-1.72,1.75-1.79,4.69.4,6.56-.07.03-.11.05-.15.07-1.14.49-2.1,1.22-2.87,2.21-1.22,1.55-1.61,3.34-1.52,5.26.02.5.32.77.84.77h12.85c.55,0,.84-.28.84-.84,0-.45,0-.9-.03-1.35h-.01ZM13.47,4.39c0-1.65,1.33-2.98,2.99-2.97,1.63,0,2.95,1.34,2.94,2.99,0,1.65-1.32,2.95-2.97,2.95s-2.96-1.31-2.96-2.96h0ZM21.41,14.75h-10.46c-.29,0-.37-.09-.35-.37.11-3.04,2.48-5.32,5.18-5.57,1.82-.17,3.43.31,4.76,1.58.99.94,1.58,2.11,1.72,3.47.09.88.07.88-.83.88h-.02Z"/>
        <path class="cls-1" d="M21.41,14.75h-10.47c-.29,0-.37-.08-.36-.37.12-3.04,2.48-5.32,5.18-5.57,1.82-.17,3.42.31,4.75,1.58.99.94,1.58,2.11,1.72,3.47.09.88.07.88-.83.88h0Z"/>
      </g>
    </g>
  </g>
</svg>