<?xml version="1.0" encoding="UTF-8"?>
<svg id="Layer_2" data-name="Layer 2" xmlns="http://www.w3.org/2000/svg" viewBox="0 0 26.39 32.84">
  <defs>
    <style>
      .cls-1 {
        fill: #f36b34;
      }

      .cls-1, .cls-2 {
        stroke: #f36b34;
        stroke-linecap: round;
        stroke-linejoin: round;
        stroke-width: .5px;
      }

      .cls-2 {
        fill: none;
      }
    </style>
  </defs>
  <g id="Layer_1-2" data-name="Layer 1">
    <g>
      <path class="cls-1" d="M.31,2.53c0-.1.05-.21-.06-.29.06.11.03.23.03.34v27.71c0,.12.03.23-.03.34.11-.08.06-.19.06-.29,0-9.27,0-18.54,0-27.81Z"/>
      <path class="cls-1" d="M25.57,3.68c-.97-.97-1.94-1.95-2.92-2.92-.33-.33-.73-.51-1.22-.51-6.38,0-12.76,0-19.13,0-.6,0-1.1.21-1.51.65-.31.32-.46.71-.53,1.15v.19c.11.08.06.2.06.29,0,9.27,0,18.54,0,27.81,0,.1.05.21-.06.29v.19c.2.98.75,1.6,1.76,1.77h22.27c.41-.05.79-.15,1.11-.44.53-.48.75-1.06.75-1.76,0-8.42,0-16.84,0-25.26,0-.57-.17-1.04-.57-1.45ZM22.33,2.19c.62.62,1.23,1.23,1.83,1.83-1.08.14-2.01.04-1.83-1.83ZM25.02,7.1v23.15c0,.68-.29,1.1-.85,1.23-.12.03-.25.03-.37.03H2.56c-.79,0-1.22-.43-1.22-1.23V2.69c0-.93.39-1.33,1.32-1.33,6.08,0,12.17,0,18.25,0,.28,0,.37.06.36.36-.03.42-.01.84,0,1.26.02,1.2.93,2.13,2.13,2.16.48.01.95.01,1.42,0,.19,0,.23.06.23.23-.01.58,0,1.16,0,1.74Z"/>
      <path class="cls-1" d="M.31,30.34c0,.1.05.21-.06.29V2.24c.11.08.06.2.06.29,0,9.27,0,18.54,0,27.81Z"/>
      <path class="cls-2" d="M25.03,5.36c0-.17-.04-.24-.23-.23-.47.01-.94.01-1.42,0-1.21-.03-2.11-.96-2.13-2.16,0-.42-.02-.85,0-1.26.02-.29-.07-.36-.36-.36-6.08.01-12.17,0-18.25,0-.93,0-1.32.39-1.32,1.33v27.6c0,.8.43,1.23,1.22,1.23h21.25c.13,0,.25,0,.37-.03.56-.13.85-.55.85-1.23V7.1c0-.58,0-1.16,0-1.74ZM9.95,26.11c-.01.94-.71,1.61-1.65,1.62-.53,0-1.07,0-1.61,0s-1.03,0-1.54,0c-.94-.01-1.63-.64-1.66-1.58-.03-1.09-.03-2.19,0-3.28.02-.94.71-1.59,1.64-1.59,1.06,0,2.12,0,3.18,0,.93,0,1.61.68,1.63,1.61.02,1.07.01,2.15,0,3.21ZM3.49,15.37c.02-.95.7-1.62,1.65-1.63,1.05-.01,2.1-.01,3.15,0,.98.01,1.65.7,1.66,1.68,0,.51,0,1.03,0,1.54s0,1.05,0,1.58c-.01.96-.69,1.65-1.65,1.66-1.05.01-2.1.01-3.15,0-.95-.01-1.64-.67-1.66-1.62-.02-1.07-.02-2.14,0-3.21ZM11.32,6.66c-.4.41-.8.81-1.21,1.2-.12.12-.17.24-.17.41.01.88,0,1.76,0,2.64,0,1.07-.66,1.73-1.73,1.74-1.01,0-2.02,0-3.02,0-1.04,0-1.71-.67-1.72-1.72,0-1.01,0-2.02,0-3.03,0-1.04.68-1.7,1.72-1.71.97,0,1.93.01,2.9,0,.6-.01,1.11.15,1.52.66.31-.32.62-.65.93-.96.28-.28.6-.3.83-.07.23.23.21.55-.07.83ZM18.57,26.12c-.09.01-.19,0-.28,0h-4.31c-.23,0-.46,0-.69,0-.4,0-.64-.21-.64-.54s.24-.53.64-.53c.86,0,1.72,0,2.58,0,.51,0,1.02,0,1.53,0,.38,0,.77,0,1.15,0,.34,0,.55.22.56.52.01.29-.21.52-.53.55ZM22.41,23.43c-.09.01-.19,0-.28,0h-8.75c-.05,0-.11,0-.16,0-.34-.01-.57-.23-.57-.54s.23-.53.58-.53c.55,0,1.09,0,1.64,0h2.9c1.48,0,2.96,0,4.44,0,.21,0,.4.02.54.19.27.32.09.8-.32.88ZM13.03,14.85c.12-.03.25-.04.37-.04h8.7c.12,0,.25,0,.37.03.26.07.38.26.38.51,0,.27-.15.46-.42.51-.11.02-.23.02-.35.02h-8.67c-.12,0-.23,0-.35-.02-.26-.05-.41-.22-.43-.48-.02-.27.11-.47.38-.55ZM12.65,10.45c.03-.26.19-.43.45-.45.17-.02.36-.01.53-.01,1.62,0,3.23,0,4.85,0,.38,0,.61.21.62.52,0,.32-.24.54-.63.55-.06,0-.13,0-.19,0h-2.42c-.83,0-1.66,0-2.48,0-.13,0-.26,0-.37-.05-.26-.09-.38-.29-.35-.56ZM13.3,17.51h5.13c.41,0,.67.21.67.55,0,.33-.26.53-.67.53h-5.13c-.41,0-.64-.2-.65-.52-.01-.34.24-.55.65-.55ZM22.41,8.35c-.08.01-.17.01-.25.01h-8.82c-.05,0-.1,0-.16,0-.32-.02-.55-.24-.55-.54s.22-.52.55-.53c.26-.01.52,0,.79,0h8.13c.09,0,.19,0,.28,0,.28.03.48.26.48.53,0,.26-.19.49-.45.53Z"/>
      <path class="cls-2" d="M24.16,4.02c-1.08.14-2.01.04-1.83-1.83.62.62,1.23,1.23,1.83,1.83Z"/>
      <path class="cls-1" d="M11.39,5.83c-.23-.23-.55-.21-.83.07-.31.31-.61.64-.93.96-.41-.51-.92-.67-1.52-.66-.97.02-1.93,0-2.9,0-1.04,0-1.72.66-1.72,1.71,0,1.01,0,2.02,0,3.03,0,1.05.67,1.71,1.72,1.72,1.01,0,2.02,0,3.02,0,1.06,0,1.72-.67,1.73-1.74,0-.88,0-1.76,0-2.64,0-.17.05-.3.17-.41.41-.39.81-.8,1.21-1.2.28-.28.3-.6.07-.83ZM8.87,11.08c-.01.31-.23.5-.54.5-1.07,0-2.15,0-3.21,0-.32,0-.53-.19-.53-.5-.01-1.09-.01-2.19,0-3.28,0-.33.23-.51.56-.51,1.05,0,2.1,0,3.15,0,.12,0,.23.02.33.09.17.12.27.23.05.43-.42.39-.83.81-1.23,1.23-.16.17-.25.15-.39,0-.15-.18-.32-.34-.49-.49-.25-.22-.55-.22-.76,0-.2.21-.21.54.01.77.34.36.69.71,1.05,1.05.25.24.53.24.78,0,.33-.31.64-.64.96-.95.07-.07.12-.17.26-.19,0,.63.01,1.26,0,1.89Z"/>
      <path class="cls-1" d="M9.95,15.42c-.01-.98-.68-1.67-1.66-1.68-1.05-.01-2.1-.01-3.15,0-.95.01-1.63.67-1.65,1.63-.02,1.07-.02,2.15,0,3.21.02.95.71,1.61,1.66,1.62,1.05.01,2.1.01,3.15,0,.96-.01,1.64-.7,1.65-1.66,0-.53,0-1.05,0-1.58s0-1.03,0-1.54ZM8.88,18.44c0,.49-.19.69-.68.69-.5,0-1.01,0-1.51,0-.47,0-.94,0-1.42,0-.5,0-.7-.19-.7-.67,0-.99,0-1.97,0-2.96,0-.48.19-.67.66-.68.99,0,1.97,0,2.96,0,.5,0,.68.2.68.69,0,.97,0,1.95,0,2.93Z"/>
      <path class="cls-1" d="M9.95,22.9c-.01-.93-.7-1.6-1.63-1.61-1.06-.01-2.12-.01-3.18,0-.94,0-1.62.65-1.64,1.59-.03,1.09-.03,2.18,0,3.28.03.94.71,1.57,1.66,1.58.51,0,1.03,0,1.54,0s1.07,0,1.61,0c.94-.01,1.64-.68,1.65-1.62.01-1.07.01-2.14,0-3.21ZM8.88,26.05c0,.42-.21.61-.63.61-1.02,0-2.04,0-3.06,0-.42,0-.62-.19-.62-.61,0-1.03,0-2.06,0-3.09,0-.41.21-.59.61-.59.51,0,1.03,0,1.54,0s1.03,0,1.54,0c.4,0,.61.2.61.6,0,1.03,0,2.06,0,3.09Z"/>
      <path class="cls-1" d="M22.86,7.82c0,.26-.19.49-.45.53-.08.01-.17.01-.25.01h-8.82c-.05,0-.1,0-.16,0-.32-.02-.55-.24-.55-.54s.22-.52.55-.53c.26-.01.52,0,.79,0h8.13c.09,0,.19,0,.28,0,.28.03.48.26.48.53Z"/>
      <path class="cls-1" d="M22.41,23.43c-.09.01-.19,0-.28,0h-8.75c-.05,0-.11,0-.16,0-.34-.01-.57-.23-.57-.54s.23-.53.58-.53c.55,0,1.09,0,1.64,0h2.9c1.48,0,2.96,0,4.44,0,.21,0,.4.02.54.19.27.32.09.8-.32.88Z"/>
      <path class="cls-1" d="M22.86,15.36c0,.27-.15.46-.42.51-.11.02-.23.02-.35.02h-8.67c-.12,0-.23,0-.35-.02-.26-.05-.41-.22-.43-.48-.02-.27.11-.47.38-.55.12-.03.25-.04.37-.04h8.7c.12,0,.25,0,.37.03.26.07.38.26.38.51Z"/>
      <path class="cls-1" d="M19.1,18.05c0,.33-.26.53-.67.53h-5.13c-.41,0-.64-.2-.65-.52-.01-.34.24-.55.65-.55h5.13c.41,0,.67.21.67.55Z"/>
      <path class="cls-1" d="M19.1,10.5c0,.32-.24.54-.63.55-.06,0-.13,0-.19,0h-2.42c-.83,0-1.66,0-2.48,0-.13,0-.26,0-.37-.05-.26-.09-.38-.29-.35-.56.03-.26.19-.43.45-.45.17-.02.36-.01.53-.01,1.62,0,3.23,0,4.85,0,.38,0,.61.21.62.52Z"/>
      <path class="cls-1" d="M19.1,25.57c.01.29-.21.52-.53.55-.09.01-.19,0-.28,0h-4.31c-.23,0-.46,0-.69,0-.4,0-.64-.21-.64-.54s.24-.53.64-.53c.86,0,1.72,0,2.58,0,.51,0,1.02,0,1.53,0,.38,0,.77,0,1.15,0,.34,0,.55.22.56.52Z"/>
      <path class="cls-2" d="M8.87,11.08c-.01.31-.23.5-.54.5-1.07,0-2.15,0-3.21,0-.32,0-.53-.19-.53-.5-.01-1.09-.01-2.19,0-3.28,0-.33.23-.51.56-.51,1.05,0,2.1,0,3.15,0,.12,0,.23.02.33.09.17.12.27.23.05.43-.42.39-.83.81-1.23,1.23-.16.17-.25.15-.39,0-.15-.18-.32-.34-.49-.49-.25-.22-.55-.22-.76,0-.2.21-.21.54.01.77.34.36.69.71,1.05,1.05.25.24.53.24.78,0,.33-.31.64-.64.96-.95.07-.07.12-.17.26-.19,0,.63.01,1.26,0,1.89Z"/>
      <path class="cls-2" d="M8.88,15.51c0,.97,0,1.95,0,2.93,0,.49-.19.69-.68.69-.5,0-1.01,0-1.51,0-.47,0-.94,0-1.42,0-.5,0-.7-.19-.7-.67,0-.99,0-1.97,0-2.96,0-.48.19-.67.66-.68.99,0,1.97,0,2.96,0,.5,0,.68.2.68.69Z"/>
      <path class="cls-2" d="M8.88,22.96c0,1.03,0,2.06,0,3.09,0,.42-.21.61-.63.61-1.02,0-2.04,0-3.06,0-.42,0-.62-.19-.62-.61,0-1.03,0-2.06,0-3.09,0-.41.21-.59.61-.59.51,0,1.03,0,1.54,0s1.03,0,1.54,0c.4,0,.61.2.61.6Z"/>
    </g>
  </g>
</svg>