<?xml version="1.0" encoding="UTF-8"?>
<svg id="Layer_2" data-name="Layer 2" xmlns="http://www.w3.org/2000/svg" viewBox="0 0 30.7 33.3">
  <defs>
    <style>
      .cls-1 {
        fill: #f36b34;
        stroke-width: 0px;
      }
    </style>
  </defs>
  <g id="Layer_1-2" data-name="Layer 1">
    <g>
      <path class="cls-1" d="M7.12,0c.1.06.22.05.33.08.77.21,1.3.72,1.64,1.41.45.9.76,1.86,1.04,2.82.27.92.5,1.84.66,2.78.07.41.07.82-.03,1.23-.18.68-.67,1.09-1.24,1.43-.74.43-1.55.7-2.33,1.04-.21.09-.43.18-.64.27-.42.18-.58.53-.44.97.76,2.27,1.79,4.42,3.04,6.47,1.54,2.52,3.36,4.81,5.52,6.84.45.42.86.39,1.24-.09.58-.73,1.2-1.43,1.97-1.98.54-.38,1.12-.66,1.8-.65.35,0,.68.07.97.25,1.83,1.11,3.5,2.41,4.88,4.06.32.39.57.83.7,1.33.15.58.04,1.14-.24,1.66-.41.75-1,1.34-1.69,1.83-1.79,1.28-3.78,1.76-5.96,1.46-1.62-.23-3.06-.9-4.45-1.73-3.42-2.05-6.17-4.79-8.43-8.05-1.58-2.27-2.9-4.67-3.86-7.26-.65-1.76-1.14-3.57-1.4-5.44C.04,9.67-.04,8.59.02,7.52.17,5.27,1.1,3.41,2.76,1.91c.83-.74,1.76-1.32,2.81-1.7.27-.09.55-.13.83-.21h.71Z"/>
      <path class="cls-1" d="M30.67,15.9c-.04.86-.13,1.71-.31,2.56-.15.71-.75,1.21-1.46,1.21-.72,0-1.33-.48-1.49-1.2-.06-.25-.02-.51.03-.76.62-3.35-.03-6.44-1.97-9.23-1.82-2.62-4.33-4.25-7.45-4.93-.74-.16-1.27-.83-1.22-1.56.05-.78.65-1.38,1.42-1.42.4-.02.77.11,1.15.21,5.27,1.41,9.29,5.38,10.75,10.62.31,1.12.48,2.25.53,3.41,0,.04-.03.09.03.12v.07c-.04.09,0,.19-.02.28,0,.09,0,.17,0,.26,0,.06,0,.12,0,.17,0,.06.01.12-.01.17Z"/>
      <path class="cls-1" d="M30.67,15.29c0-.09-.05-.19.03-.27v.27s-.02.02-.03,0Z"/>
      <path class="cls-1" d="M30.67,15.29s.02,0,.03,0v.27s-.02.02-.03,0c0-.09,0-.18,0-.27Z"/>
      <path class="cls-1" d="M30.67,15.56s.02,0,.03,0v.17s-.02.02-.03,0v-.17Z"/>
      <path class="cls-1" d="M30.67,15.73s.02,0,.03,0v.17s-.02,0-.03,0c0-.06,0-.11,0-.17Z"/>
      <path class="cls-1" d="M25.68,15.86c0,.77-.06,1.53-.25,2.27-.19.78-.97,1.26-1.76,1.09-.77-.16-1.3-.9-1.17-1.69.1-.61.19-1.22.17-1.84-.08-2.26-.97-4.15-2.64-5.66-1.04-.94-2.26-1.51-3.63-1.81-.7-.15-1.18-.79-1.16-1.48.02-.73.53-1.33,1.25-1.46.37-.07.72.04,1.07.13,3.96.99,7.11,4.31,7.9,8.33.05.26.09.52.13.79.06.44.08.89.08,1.34Z"/>
      <path class="cls-1" d="M20.64,16.3c0,.48-.04.92-.14,1.36-.18.8-.96,1.31-1.74,1.15-.83-.17-1.36-.92-1.19-1.75.36-1.83-.71-3.42-2.15-3.96-.2-.08-.41-.12-.62-.18-.8-.22-1.28-1.02-1.08-1.81.21-.82.99-1.3,1.81-1.1,2.55.62,4.18,2.22,4.91,4.73.07.25.11.51.15.77.04.27.05.54.05.78Z"/>
    </g>
  </g>
</svg>