<?xml version="1.0" encoding="UTF-8"?>
<svg id="Layer_2" data-name="Layer 2" xmlns="http://www.w3.org/2000/svg" viewBox="0 0 47.28 28.71">
  <defs>
    <style>
      .cls-1 {
        fill: #ec6229;
        stroke-width: 0px;
      }
    </style>
  </defs>
  <g id="Layer_1-2" data-name="Layer 1">
    <g id="Layer_2-2" data-name="Layer 2">
      <g>
        <path class="cls-1" d="M3.9,20.23c-.11-.11-.21-.2-.31-.29-.57-.55-1.08-1.15-1.52-1.8-.35-.52-.65-1.06-.91-1.62-.16-.35-.3-.72-.44-1.09-.17-.44-.29-.89-.39-1.35-.08-.35-.14-.69-.19-1.04-.13-.88-.14-1.76-.06-2.65.04-.45.11-.89.21-1.33.12-.54.28-1.06.48-1.57.27-.68.6-1.34,1.01-1.96,1.15-1.77,2.7-3.09,4.59-4.02,1.13-.56,2.33-.94,3.57-1.18C11.02.12,12.11.02,13.21,0c1.02-.01,2.03.01,3.04.07,1.56.09,3.12.28,4.65.6,1.99.41,3.89,1.05,5.7,1.98.59.3,1.16.63,1.72.99.04.03.08.05.13.07.38-.19.76-.35,1.17-.48.87-.27,1.75-.39,2.66-.36.86.03,1.71.15,2.53.41.81.26,1.55.64,2.2,1.2.46.4.84.87,1.14,1.4.23.41.4.85.52,1.3.1.37.15.74.17,1.12v.1c0,.19.08.35.19.5.28.36.61.69.95,1,.86.78,1.77,1.48,2.71,2.16.88.63,1.79,1.23,2.69,1.83.62.41,1.11.95,1.46,1.6.16.3.27.62.35.95.07.29.09.59.09.88v1.39c0,.56-.13,1.09-.38,1.59-.44.91-1.14,1.56-2.03,2.03-.83.44-1.73.64-2.67.64H5.15c-.32,0-.63.05-.92.19-.35.17-.63.43-.77.8s-.12.75.1,1.1c.34.54.86.76,1.48.78h33.66c.27,0,.54.02.8.12.37.14.67.37.86.72.17.31.21.65.09.98-.2.56-.63.86-1.18,1-.16.04-.32.05-.48.05H5.03c-1.21,0-2.31-.34-3.29-1.06-.53-.39-.96-.86-1.27-1.44-.38-.69-.53-1.43-.44-2.21.08-.81.41-1.5.93-2.11.74-.86,1.69-1.37,2.78-1.64.04,0,.08-.02.14-.04l.02.02ZM26.12,5.84c-.15-.09-.28-.17-.42-.25-1.31-.77-2.7-1.37-4.17-1.78-.96-.27-1.93-.47-2.92-.6-.74-.1-1.48-.18-2.23-.23-.43-.03-.87-.05-1.3-.07-.99-.03-1.98-.05-2.97.04-.75.07-1.48.19-2.2.38-1.39.38-2.65,1-3.74,1.96-.48.43-.91.91-1.27,1.45-.23.34-.44.68-.61,1.05-.1.23-.2.46-.3.69-.15.34-.24.69-.33,1.05-.05.22-.09.45-.14.67-.09.45-.11.91-.1,1.37,0,.54.09,1.08.19,1.61.1.49.22.97.38,1.44s.35.93.58,1.37c.29.57.65,1.09,1.06,1.57.87,1,1.94,1.7,3.2,2.11.96.31,1.95.44,2.95.44h30.45c.36,0,.7-.09,1-.3.43-.28.67-.67.66-1.2v-1.32c0-.11,0-.22-.03-.33-.1-.36-.31-.64-.62-.85-1.02-.66-2.02-1.33-3-2.04-1-.73-1.97-1.48-2.86-2.34-.58-.55-1.13-1.13-1.54-1.82-.15-.26-.28-.52-.34-.82-.03-.14-.04-.28-.05-.43-.03-.41-.07-.82-.22-1.21-.13-.33-.31-.62-.56-.87-.36-.36-.8-.57-1.28-.69-.53-.14-1.07-.17-1.61-.15-.43.01-.84.1-1.24.26-.48.19-.91.47-1.23.88-.2.25-.33.53-.44.83-.09.23-.14.48-.15.73-.02.52.16.96.49,1.36.19.24.42.44.67.63.28.22.47.5.52.86.07.46-.09.84-.42,1.15-.62.59-1.67.65-2.36.13-.62-.46-1.16-1.01-1.57-1.67-.29-.46-.5-.96-.61-1.49-.09-.45-.13-.9-.07-1.36.04-.28.08-.56.16-.83.11-.38.25-.75.44-1.1.05-.1.1-.19.15-.3v.02Z"/>
        <path class="cls-1" d="M33.79,12.92c.49,0,.92.15,1.28.5.26.25.4.55.41.9,0,.37-.12.68-.38.94-.75.75-2.05.66-2.67-.06-.44-.51-.42-1.27.05-1.76.36-.36.8-.52,1.31-.53h0Z"/>
      </g>
    </g>
  </g>
</svg>