<?xml version="1.0" encoding="UTF-8"?>
<svg id="Layer_2" data-name="Layer 2" xmlns="http://www.w3.org/2000/svg" viewBox="0 0 38.91 30.44">
  <defs>
    <style>
      .cls-1 {
        fill: #f36b34;
      }

      .cls-1, .cls-2 {
        stroke: #f36b34;
        stroke-miterlimit: 10;
      }

      .cls-2 {
        fill: none;
      }
    </style>
  </defs>
  <g id="Layer_1-2" data-name="Layer 1">
    <g>
      <path class="cls-1" d="M38.17,14.64c-1.16-2.47-2.32-4.93-3.48-7.4-.92-1.96-1.84-3.92-2.76-5.88-.34-.72-.99-1.03-1.69-.77-.95.35-1.89.72-2.83,1.12-.67.29-.94,1.01-.67,1.69.09.22.18.43.3.63.12.2.04.29-.15.34-.65.16-1.3.22-1.96.12-1.09-.16-2.13-.53-3.18-.83-.9-.26-1.8-.44-2.71-.17-.99.29-1.96.61-2.94.93-.41.13-.78.34-1.12.6-.09.07-.16.18-.32.13-.77-.27-1.56-.25-2.36-.19,0-.21.13-.35.21-.51.43-.84.25-1.5-.56-1.99-.71-.44-1.43-.87-2.15-1.3-.94-.57-1.66-.37-2.17.61C5.33,6.1,3.05,10.45.78,14.8c-.09.17-.2.33-.21.53-.05.15-.01.31-.02.46,0,.02,0,.04,0,.06-.01.45.22.76.6.98.85.49,1.68.99,2.55,1.42.73.36,1.46.14,1.91-.53.13-.19.13-.56.41-.55.23,0,.4.26.59.42.01,0,.01.01.02.01h0s0,0,.01.01c.38.33.39.34.09.76-.46.63-.93,1.26-1.38,1.9-.53.76-.63,1.55-.19,2.36.44.82,1.15,1.28,2.1,1.29.31,0,.45.1.56.4.36,1.01,1.3,1.66,2.37,1.66.23,0,.33.07.41.29.36,1.05,1.23,1.67,2.33,1.69.25,0,.4.07.49.33.3.89.92,1.43,1.84,1.63h.83c.53-.17,1.02-.39,1.35-.86.18-.26.38-.5.55-.77.12-.2.21-.18.38-.04.33.28.68.56,1.03.82.63.46,1.33.59,2.07.37,1.08-.32,1.63-1.1,1.76-2.21.06.02.11.03.16.04,1.55.4,2.8-.37,3.11-1.95.06-.29.19-.21.36-.17,1.25.31,2.49-.36,2.88-1.57.06-.19.1-.39.15-.59,1.3.51,2.53.14,3.18-.95.63-1.06.36-2.25-.69-3.15-.18-.16-.36-.32-.57-.49.56-.36,1.01-.76,1.4-1.24.62.8,1.11.93,2.02.54.7-.3,1.41-.61,2.11-.91,1.07-.46,1.32-1.12.83-2.17ZM4.77,16.97c-.23.43-.33.46-.77.22-.71-.39-1.41-.79-2.12-1.19-.42-.24-.45-.32-.22-.75C3.94,10.89,6.22,6.53,8.51,2.17c.21-.41.32-.44.71-.21.74.44,1.48.89,2.22,1.34.14.09.29.17.29.37.01.13-.07.23-.13.34-2.27,4.32-4.55,8.64-6.82,12.95ZM8.26,22.34c-.24.33-.55.53-1.06.53-.44-.04-.85-.3-1.1-.76-.23-.43-.13-.84.15-1.23.88-1.21,1.75-2.42,2.63-3.63.48-.65,1.09-.74,1.74-.26.62.45.72,1.07.25,1.71-.87,1.22-1.75,2.42-2.62,3.64ZM11.08,24.37c-.24.33-.55.53-1.01.54-.47-.06-.87-.3-1.12-.74-.24-.42-.17-.85.12-1.24.65-.9,1.3-1.81,1.96-2.7.46-.62,1.08-.69,1.72-.22.62.45.72,1.05.27,1.68-.64.9-1.29,1.78-1.93,2.67ZM13.87,26.42c-.23.32-.53.51-1.07.5-.4-.03-.81-.3-1.06-.75-.23-.42-.14-.84.15-1.23.45-.62.89-1.25,1.35-1.86.46-.62,1.09-.69,1.72-.23.62.45.73,1.05.29,1.68-.45.64-.91,1.27-1.37,1.9ZM17.47,27.36c-.26.37-.52.74-.8,1.1-.45.59-1.06.66-1.69.2-.6-.44-.72-1.04-.31-1.64.27-.4.56-.78.84-1.17.23-.3.53-.47,1.09-.45.34.04.74.29.99.73.25.43.16.84-.12,1.23ZM31.85,19.77c.73.64.75,1.54.07,2.15-.55.49-1.31.49-1.91-.03-1.13-.96-2.25-1.94-3.38-2.9-.08-.07-.16-.15-.25-.22-.25-.19-.52-.22-.73.04-.21.26-.15.51.1.72.74.64,1.48,1.28,2.22,1.91.13.12.27.23.4.35.61.57.68,1.39.17,1.99-.51.6-1.39.65-2.03.11-.81-.68-1.6-1.38-2.41-2.07-.06-.05-.12-.11-.19-.16-.26-.21-.53-.26-.76.02-.22.26-.14.51.1.72.56.49,1.12.97,1.69,1.45.7.6.81,1.44.28,2.07-.53.63-1.4.66-2.09.07-.56-.47-1.11-.95-1.66-1.42-.26-.23-.52-.32-.8-.04-.22.22-.17.51.14.78.3.27.61.52.9.78.59.53.67,1.38.19,1.96-.48.59-1.32.68-1.96.22-.19-.14-.36-.3-.55-.43-.45-.32-.76-.61-.72-1.3.06-1.04-.9-1.97-1.99-2.12-.15-.02-.28,0-.24-.24.17-1.26-.64-2.35-1.89-2.57-.27-.05-.37-.09-.32-.42.16-1.09-.69-2.16-1.9-2.42-.22-.05-.31-.05-.24-.34.25-1.08-.32-2.07-1.41-2.55-.93-.41-1.95-.11-2.59.75q-.36.49-.81.11c-.2-.17-.39-.36-.61-.5-.28-.18-.24-.34-.11-.6,1.6-3.01,3.19-6.03,4.77-9.06.19-.37.42-.57.83-.6.29-.02.57-.06.81-.09.35.03.76-.08.92.12.16.2-.18.48-.29.73-.79,1.87-1.49,3.77-2.08,5.71-.13.42-.05.6.35.78,2.46,1.14,5.21-.38,5.58-3.09.04-.26.1-.51.2-.75.34-.78.71-.92,1.52-.73.9.21,1.62.66,2.27,1.32,1.71,1.73,3.47,3.41,5.19,5.14,1.64,1.65,3.44,3.11,5.19,4.64ZM32.57,16.38c-.35.49-.78.88-1.28,1.2-.2.12-.33.12-.53-.04-2.05-1.68-3.86-3.6-5.75-5.44-1.05-1.03-2.12-2.04-3.14-3.1-.86-.9-1.97-1.22-3.12-1.44-.6-.11-1.12.21-1.51.68-.42.51-.67,1.09-.75,1.75-.21,1.79-1.86,2.96-3.58,2.55-.25-.06-.32-.12-.24-.41.53-1.7,1.17-3.36,1.86-5,.38-.9,1.03-1.51,1.96-1.81.89-.29,1.77-.57,2.66-.84.61-.18,1.21-.15,1.83,0,1.27.33,2.51.8,3.82.98.85.12,1.7.08,2.52-.23.32-.12.32.11.39.26,1.35,2.85,2.7,5.7,4.04,8.54.28.59.56,1.19.84,1.78.04.09.08.17.13.28-.05.08-.1.18-.16.26ZM36.96,15.89c-.74.32-1.49.63-2.23.96-.33.15-.52.07-.68-.26-2.1-4.46-4.22-8.91-6.32-13.37-.19-.41-.15-.53.26-.69.8-.32,1.6-.64,2.41-.95.09-.03.18-.06.25-.08.28.02.35.22.44.41.82,1.75,1.64,3.49,2.46,5.24,1.24,2.64,2.48,5.28,3.72,7.92.25.53.22.6-.31.83Z"/>
      <path class="cls-1" d="M.57,15.85s-.04-.01-.07-.02c0-.17,0-.33,0-.5l.03-.03h.04c0,.19,0,.36,0,.54Z"/>
      <path class="cls-2" d="M31.91,21.92c-.55.49-1.31.49-1.91-.03-1.13-.96-2.25-1.94-3.38-2.9-.08-.07-.16-.15-.25-.22-.25-.19-.52-.22-.73.04-.21.26-.15.51.1.72.74.64,1.48,1.28,2.22,1.91.13.12.27.23.4.35.61.57.68,1.39.17,1.99-.51.6-1.39.65-2.03.11-.81-.68-1.6-1.38-2.41-2.07-.06-.05-.12-.11-.19-.16-.26-.21-.53-.26-.76.02-.22.26-.14.51.1.72.56.49,1.12.97,1.69,1.45.7.6.81,1.44.28,2.07-.53.63-1.4.66-2.09.07-.56-.47-1.11-.95-1.66-1.42-.26-.23-.52-.32-.8-.04-.22.22-.17.51.14.78.3.27.61.52.9.78.59.53.67,1.38.19,1.96-.48.59-1.32.68-1.96.22-.19-.14-.36-.3-.55-.43-.45-.32-.76-.61-.72-1.3.06-1.04-.9-1.97-1.99-2.12-.15-.02-.28,0-.24-.24.17-1.26-.64-2.35-1.89-2.57-.27-.05-.37-.09-.32-.42.16-1.09-.69-2.16-1.9-2.42-.22-.05-.31-.05-.24-.34.25-1.08-.32-2.07-1.41-2.55-.93-.41-1.95-.11-2.59.75q-.36.49-.81.11c-.2-.17-.39-.36-.61-.5-.28-.18-.24-.34-.11-.6,1.6-3.01,3.19-6.03,4.77-9.06.19-.37.42-.57.83-.6.29-.02.57-.06.81-.09.35.03.76-.08.92.12.16.2-.18.48-.29.73-.79,1.87-1.49,3.77-2.08,5.71-.13.42-.05.6.35.78,2.46,1.14,5.21-.38,5.58-3.09.04-.26.1-.51.2-.75.34-.78.71-.92,1.52-.73.9.21,1.62.66,2.27,1.32,1.71,1.73,3.47,3.41,5.19,5.14,1.64,1.65,3.44,3.11,5.19,4.64.73.64.75,1.54.07,2.15Z"/>
      <path class="cls-2" d="M32.73,16.11c-.05.08-.1.18-.16.26-.35.49-.78.88-1.28,1.2-.2.12-.33.12-.53-.04-2.05-1.68-3.86-3.6-5.75-5.44-1.05-1.03-2.12-2.04-3.14-3.1-.86-.9-1.97-1.22-3.12-1.44-.6-.11-1.12.21-1.51.68-.42.51-.67,1.09-.75,1.75-.21,1.79-1.86,2.96-3.58,2.55-.25-.06-.32-.12-.24-.41.53-1.7,1.17-3.36,1.86-5,.38-.9,1.03-1.51,1.96-1.81.89-.29,1.77-.57,2.66-.84.61-.18,1.21-.15,1.83,0,1.27.33,2.51.8,3.82.98.85.12,1.7.08,2.52-.23.32-.12.32.11.39.26,1.35,2.85,2.7,5.7,4.04,8.54.28.59.56,1.19.84,1.78.04.09.08.17.13.28Z"/>
      <path class="cls-2" d="M11.6,4.02c-2.27,4.32-4.55,8.64-6.82,12.95-.23.43-.33.46-.77.22-.71-.39-1.41-.79-2.12-1.19-.42-.24-.45-.32-.22-.75C3.94,10.89,6.22,6.53,8.51,2.17c.21-.41.32-.44.71-.21.74.44,1.48.89,2.22,1.34.14.09.29.17.29.37.01.13-.07.23-.13.34Z"/>
      <path class="cls-2" d="M36.96,15.89c-.74.32-1.49.63-2.23.96-.33.15-.52.07-.68-.26-2.1-4.46-4.22-8.91-6.32-13.37-.19-.41-.15-.53.26-.69.8-.32,1.6-.64,2.41-.95.09-.03.18-.06.25-.08.28.02.35.22.44.41.82,1.75,1.64,3.49,2.46,5.24,1.24,2.64,2.48,5.28,3.72,7.92.25.53.22.6-.31.83Z"/>
      <path class="cls-2" d="M10.89,18.71c-.87,1.22-1.75,2.42-2.62,3.64-.24.33-.55.53-1.06.53-.44-.04-.85-.3-1.1-.76-.23-.43-.13-.84.15-1.23.88-1.21,1.75-2.42,2.63-3.63.48-.65,1.09-.74,1.74-.26.62.45.72,1.07.25,1.71Z"/>
      <path class="cls-2" d="M13.01,21.7c-.64.9-1.29,1.78-1.93,2.67-.24.33-.55.53-1.01.54-.47-.06-.87-.3-1.12-.74-.24-.42-.17-.85.12-1.24.65-.9,1.3-1.81,1.96-2.7.46-.62,1.08-.69,1.72-.22.62.45.72,1.05.27,1.68Z"/>
      <path class="cls-2" d="M15.24,24.52c-.45.64-.91,1.27-1.37,1.9-.23.32-.53.51-1.07.5-.4-.03-.81-.3-1.06-.75-.23-.42-.14-.84.15-1.23.45-.62.89-1.25,1.35-1.86.46-.62,1.09-.69,1.72-.23.62.45.73,1.05.29,1.68Z"/>
      <path class="cls-2" d="M17.47,27.36c-.26.37-.52.74-.8,1.1-.45.59-1.06.66-1.69.2-.6-.44-.72-1.04-.31-1.64.27-.4.56-.78.84-1.17.23-.3.53-.47,1.09-.45.34.04.74.29.99.73.25.43.16.84-.12,1.23Z"/>
    </g>
  </g>
</svg>