<?xml version="1.0" encoding="UTF-8"?>
<svg id="Layer_2" data-name="Layer 2" xmlns="http://www.w3.org/2000/svg" viewBox="0 0 23.62 23.62">
  <defs>
    <style>
      .cls-1 {
        fill: #ec6229;
        stroke-width: 0px;
      }
    </style>
  </defs>
  <g id="Camada_1" data-name="Camada 1">
    <g>
      <path class="cls-1" d="M23.55,10.23c-.33-2.42-1.33-4.54-2.96-6.35-1.24-1.38-2.72-2.41-4.44-3.09C15.02.35,13.85.05,12.63.02c-.89-.02-1.78-.05-2.66.09-1.92.29-3.66,1.03-5.22,2.18-1.2.88-2.2,1.96-2.99,3.22-.72,1.15-1.24,2.38-1.54,3.7-.12.54-.17,1.09-.23,1.63v.18s.02.05.02.08c0,0,0,0,0,.01s0,0,0,.01v.11s0,0,0,.01c0,0,0,.01,0,.02,0,.03,0,.06-.02.08v.92s.02.07.02.11v.11s0,.08-.02.11v.18c.05.23.03.47.06.7.45,3.02,1.87,5.51,4.2,7.47,1.63,1.36,3.51,2.21,5.61,2.56.32.05.64.04.95.1h.18s.07-.02.1-.02c.04,0,.09-.01.13.02h.18c.09-.04.18-.04.28,0h.18c.08-.04.15-.04.23,0h.23s.09-.02.13-.02c.04,0,.07,0,.1.02h.14c.23-.04.47-.02.7-.05,1-.13,1.97-.39,2.9-.79,1.74-.73,3.23-1.81,4.47-3.25.8-.93,1.44-1.95,1.91-3.08.51-1.22.85-2.48.89-3.81.02-.81.06-1.61-.05-2.41ZM19.4,15.6c0,.95-.62,1.57-1.57,1.58-2.01,0-4.02,0-6.04,0s-3.98-.02-5.97,0c-1,.02-1.66-.73-1.65-1.65.03-2.51,0-5.02.01-7.53,0-.75.43-1.31,1.12-1.5.15-.04.3-.04.46-.04,4.02,0,8.03,0,12.05,0,.96,0,1.58.62,1.58,1.59,0,2.52,0,5.04,0,7.56Z"/>
      <path class="cls-1" d="M18.17,7.99v.53c0,2.23,0,4.45,0,6.68,0,.4-.05.45-.45.45H5.86c-.4,0-.45-.05-.45-.45,0-2.32,0-4.64,0-6.96,0-.07-.02-.15.03-.24.53.42,1.06.84,1.58,1.25,1.43,1.14,2.86,2.27,4.29,3.41.35.28.6.28.95,0,1.92-1.52,3.83-3.04,5.75-4.57.04-.03.08-.06.16-.12Z"/>
      <path class="cls-1" d="M16.98,7.99c-.72.58-1.42,1.13-2.11,1.68-.97.77-1.95,1.54-2.92,2.32-.11.09-.18.09-.29,0-1.64-1.31-3.29-2.62-4.94-3.92-.02-.02-.04-.04-.08-.08h10.34Z"/>
    </g>
  </g>
</svg>