<?xml version="1.0" encoding="UTF-8"?>
<svg id="Layer_2" data-name="Layer 2" xmlns="http://www.w3.org/2000/svg" viewBox="0 0 23.77 23.72">
  <defs>
    <style>
      .cls-1 {
        fill: #ec6229;
        stroke-width: 0px;
      }
    </style>
  </defs>
  <g id="Camada_1" data-name="Camada 1">
    <path class="cls-1" d="M11.12,0h.56c.12.07.25.07.37,0h.37c.85.11,1.71.09,2.55.33,3.5,1.01,6.06,3.14,7.7,6.4,1,2.01,1.2,4.12,1.07,6.31-.18,2.99-1.47,5.47-3.57,7.51-1.74,1.7-3.84,2.79-6.28,3.14-.56.08-.66,0-.67-.57,0-2.75,0-5.5,0-8.25,0-.53.1-.62.63-.63.56-.01,1.11-.01,1.67,0,.37,0,.57-.11.61-.51.07-.69.18-1.38.25-2.07.05-.47.02-.49-.47-.49-.68,0-1.36,0-2.04,0-.55,0-.64-.1-.65-.66,0-.62-.02-1.24,0-1.85.03-.78.41-1.22,1.17-1.39.55-.12,1.11-.07,1.66-.07.35,0,.51-.12.5-.49-.01-.59,0-1.17,0-1.76,0-.3-.11-.45-.42-.48-1.03-.1-2.07-.18-3.09.05-1.82.4-2.98,1.88-2.99,3.74,0,.76,0,1.51,0,2.27,0,.53-.1.62-.62.63-.59.01-1.17.02-1.76,0-.37-.01-.49.14-.49.5.01.7.02,1.39,0,2.09-.01.39.16.51.53.5.56-.02,1.11-.01,1.67,0,.54.01.68.14.68.71,0,2.7,0,5.41,0,8.11,0,.56-.18.69-.78.56-1.85-.42-3.52-1.22-5-2.43-2.02-1.66-3.34-3.78-4.03-6.29-.16-.57-.11-1.16-.24-1.73v-1.76c.06-.06.06-.12,0-.19v-.65c.12-.99.29-1.97.67-2.91C2.03,4.29,4.38,1.94,7.79.65c1.08-.41,2.2-.56,3.33-.65Z"/>
  </g>
</svg>