<?xml version="1.0" encoding="UTF-8"?>
<svg id="Layer_2" data-name="Layer 2" xmlns="http://www.w3.org/2000/svg" viewBox="0 0 18.6 18.6">
  <defs>
    <style>
      .cls-1 {
        fill: #ec6229;
        stroke-width: 0px;
      }
    </style>
  </defs>
  <g id="Camada_1" data-name="Camada 1">
    <path class="cls-1" d="M9.58,18.6c-.18-.1-.39-.11-.59-.19-.38-.17-.68-.42-.9-.76-.39-.59-.3-1.28.09-1.8.37-.49.89-.71,1.47-.8.81-.12,1.5.11,2.08.69.14.14.23.31.31.49.03.07.07.1.16.1.35,0,.7,0,1.05,0,.21,0,.37-.13.53-.25.84-.59,1.44-1.39,1.87-2.31.22-.47.35-.98.48-1.48.02-.08,0-.12-.11-.11-.22.01-.45.05-.67-.07-.24-.13-.38-.34-.38-.61,0-1.68,0-3.36,0-5.05,0-.27.11-.52.39-.63.11-.04.11-.09.07-.2-.24-.57-.56-1.1-.94-1.57-.33-.41-.7-.8-1.13-1.12-.43-.34-.89-.63-1.38-.87-.52-.24-1.07-.4-1.63-.51-.35-.07-.71-.09-1.06-.09-.37,0-.76.02-1.13.09-.67.14-1.32.34-1.93.67-.76.42-1.43.96-2,1.63-.4.46-.72.97-.99,1.51,0,.02-.01.03-.02.05-.05.1-.13.2-.13.3,0,.14.17.11.25.19.14.15.25.32.25.53,0,1.7.01,3.4,0,5.1,0,.38-.27.64-.62.66-.82.05-1.53-.21-2.11-.82-.49-.52-.74-1.13-.82-1.83,0-.01-.02-.02-.03-.03,0-.36,0-.73,0-1.09.03-.32.09-.64.22-.95.22-.52.54-.96,1-1.28.11-.08.19-.18.23-.31.31-.96.77-1.86,1.39-2.66.89-1.15,2-2.04,3.35-2.61.68-.29,1.39-.49,2.13-.56.52-.05,1.05-.04,1.57-.02.73.02,1.42.19,2.11.43,1.05.37,1.97.96,2.79,1.72.56.52,1.04,1.1,1.44,1.74.38.62.69,1.27.91,1.97.04.12.1.21.21.29.84.62,1.24,1.46,1.25,2.49,0,.29.01.58-.01.87-.08.86-.45,1.57-1.11,2.13-.12.1-.18.21-.19.35-.11.84-.34,1.65-.72,2.41-.35.71-.8,1.35-1.37,1.9-.32.31-.66.6-1.05.83-.27.16-.54.25-.86.24-.33-.01-.67,0-1,0-.11,0-.19.04-.24.15-.34.62-.86.98-1.56,1.06-.01,0-.02,0-.03.02h-.87Z"/>
  </g>
</svg>