<?xml version="1.0" encoding="UTF-8"?>
<svg id="Layer_2" data-name="Layer 2" xmlns="http://www.w3.org/2000/svg" viewBox="0 0 31.63 34.57">
  <defs>
    <style>
      .cls-1 {
        fill: #ec6229;
        stroke-width: 0px;
      }
    </style>
  </defs>
  <g id="Layer_1-2" data-name="Layer 1">
    <g id="Layer_2-2" data-name="Layer 2">
      <path class="cls-1" d="M31.63,3.01c0-.51,0-1.01,0-1.52-.02-.9-.61-1.48-1.52-1.49h-6.65c-.29,0-.6,0-.8.21-.33.33-.72.29-1.12.29h-.94c-1.91.04-3.45.8-4.58,2.35-.19.26-.25.16-.38-.02-.89-1.21-2.07-1.96-3.56-2.23-.8-.14-1.61-.08-2.42-.1-.15,0-.28,0-.41-.11-.29-.29-.65-.39-1.04-.39H1.53C.7,0,.14.52.03,1.34c-.05.47,0,.94-.02,1.41C0,3.09,0,3.19.17,3.24q.11.03,0,0c.05.03.12.05.22.06h.06c.12.75.5,1.33,1.16,1.71,1.12.64,2.31.7,3.51.33.95-.3,1.69-.83,1.85-1.91.02-.17.13-.15.24-.15h1.65c.28,0,.62.12.82-.05.17-.15.04-.49.05-.74,0-.1,0-.2.15-.2.73.03,1.46-.07,2.18.12,1.76.47,2.88,1.96,2.88,3.84v25.74c0,.31-.08.37-.37.36-.7-.02-1.39,0-2.09,0-.19,0-.25.05-.24.24,0,.66,0,1.33,0,1.99h7.15c0-.66,0-1.33,0-1.99,0-.19-.05-.24-.24-.24-.69,0-1.37,0-2.06,0-.32,0-.4-.06-.4-.4,0-8.51,0-17.03,0-25.54v-.47c.1-1.33.7-2.37,1.84-3.09.82-.52,1.72-.58,2.66-.56.7.02.71,0,.71.71,0,.25.09.29.31.29.73,0,1.46,0,2.19,0,.18,0,.25.05.28.23.09.68.49,1.15,1.05,1.48,1.3.75,2.66.77,4.01.18.73-.32,1.3-.85,1.39-1.72.02-.15.1-.19.23-.17.22.03.26-.07.25-.27h.02ZM6.12,3.61c-.1.25-.27.44-.48.59-1.02.77-2.84.76-3.85-.03-.09-.07-.17-.15-.24-.23-.15-.17-.32-.39-.24-.6.07-.17.34-.06.52-.07.64,0,1.28,0,1.92,0,.72,0,1.44,0,2.15,0,.3,0,.31.11.22.34h0ZM30.27,3.68c-.27.53-.76.78-1.29.93-.93.27-1.84.21-2.71-.24-.33-.17-.61-.42-.75-.78-.08-.21-.08-.33.21-.32.73.02,1.46,0,2.19,0h2.12c.38,0,.41.05.23.4h0Z"/>
    </g>
  </g>
</svg>