<?xml version="1.0" encoding="UTF-8"?>
<svg id="Layer_2" data-name="Layer 2" xmlns="http://www.w3.org/2000/svg" viewBox="0 0 23.61 23.67">
  <defs>
    <style>
      .cls-1 {
        fill: #ec6229;
        stroke-width: 0px;
      }
    </style>
  </defs>
  <g id="Camada_1" data-name="Camada 1">
    <g>
      <path class="cls-1" d="M23.53,10.56C22.6,1.67,12.48-3.05,5,2.18c-1.63,1.14-2.84,2.64-3.79,4.38-.08.04-.05.15-.1.21C.49,8.22.08,9.71.01,11.3c-.08,1.95.33,3.79,1.1,5.57.05.06.02.16.1.21.07.11.14.22.2.33,1.26,2.27,3.02,4.04,5.4,5.09,4.14,1.84,8.16,1.54,11.84-1.1,3.67-2.63,5.36-6.33,4.88-10.84ZM19.48,9.14c-.05,1.93,0,3.87-.01,5.8,0,2.69-1.89,4.58-4.59,4.59-1.95,0-3.9,0-5.85,0-2.69,0-4.25-1.23-4.87-3.85,0,0,0,0,0-.01-.08-.22-.03-.45-.03-.67,0-2.27,0-4.54,0-6.82,0-.08,0-.16.04-.24.21-.85.5-1.67,1.16-2.3.31-.38.68-.69,1.13-.88.64-.42,1.37-.56,2.11-.57,2.15-.01,4.29,0,6.44,0,.93,0,1.78.3,2.57.77.16.13.33.27.49.4,1.03,1.05,1.45,2.31,1.41,3.78Z"/>
      <path class="cls-1" d="M18.06,8.37c-.34-1.78-1.37-2.76-2.95-2.78-2.23-.02-4.46-.02-6.69,0-1.52.01-2.82,1.23-2.85,2.74-.05,2.33-.04,4.66,0,6.99.02,1.38,1.15,2.54,2.46,2.68.13.1.28.07.43.07,2.23,0,4.46,0,6.69,0,.06,0,.13,0,.19,0,.01,0,.02,0,.03,0,.05,0,.09-.01.14-.03,0,0,0,0,0,0,.02-.01.04-.02.06-.04.04,0,.07,0,.11,0,.02,0,.04,0,.06,0,.04,0,.07,0,.11-.01.02,0,.04,0,.07-.02,1.37-.45,2.04-1.44,2.15-2.84,0-2.25,0-4.5,0-6.75ZM15.26,17.95s0,0,.01,0c.03,0,.05,0,.08,0-.03,0-.06,0-.1,0ZM15.26,13.78c-1.06,1.93-3.49,2.6-5.4,1.54-1.93-1.08-2.61-3.51-1.53-5.44,1.06-1.9,3.49-2.57,5.41-1.5.14.08.28.17.43.25.27.26.53.51.8.77.93,1.41,1.12,2.88.29,4.39ZM15.91,8.65c-.49,0-.92-.41-.94-.9-.02-.53.39-.96.92-.96.49,0,.93.4.94.89.02.51-.42.96-.92.97Z"/>
      <path class="cls-1" d="M13.67,10.1c-.85-.91-2.18-1.07-3.24-.38-.14.05-.25.13-.33.26-1.05.94-1.14,2.2-.27,3.58.13.13.27.25.4.38.16.09.31.18.48.26,1.12.53,2.45.19,3.17-.82.73-1.01.64-2.36-.22-3.27ZM11.01,9.79h0s0,0,0,0Z"/>
    </g>
  </g>
</svg>