<?xml version="1.0" encoding="UTF-8"?>
<svg id="Layer_2" data-name="Layer 2" xmlns="http://www.w3.org/2000/svg" viewBox="0 0 45.12 37.66">
  <defs>
    <style>
      .cls-1 {
        fill: #ec6229;
      }

      .cls-1, .cls-2 {
        stroke-width: 0px;
      }

      .cls-2 {
        fill: none;
      }
    </style>
  </defs>
  <g id="Camada_1" data-name="Camada 1">
    <g>
      <path class="cls-1" d="M44.04,15.1c.57.19.86.04,1.08-.48v-4.32c-.11-.21-.24-.4-.43-.55-3.89-3.06-7.77-6.12-11.66-9.17-.99-.78-2.02-.76-3.03,0-.67.52-1.34,1.05-2.01,1.58-.77.6-1.53,1.2-2.36,1.86,0-.43,0-.78,0-1.13,0-.71-.26-.96-.95-.97-.9,0-1.79,0-2.69,0-.7,0-.94.25-.94.96,0,1.44,0,2.88,0,4.32,0,.31-.08.51-.33.7-.77.58-1.52,1.2-2.29,1.78-.36.27-.52.6-.52,1.05.01,1.12,0,2.23,0,3.35,0,.36.03.72.4.91.37.19.68.04.96-.2.04-.04.08-.09.15-.06v6.98c-.13-.1-.2-.16-.29-.22-2.11-1.66-4.22-3.32-6.33-4.98-1.01-.79-2.07-.84-3.03-.09-3.15,2.46-6.27,4.93-9.41,7.4-.22.17-.39.38-.39.66,0,1.32-.02,2.64,0,3.96.01.56.61.82,1.11.55.14-.07.22-.23.44-.24v.43c0,2.04,0,4.08,0,6.12,0,.29.12.64-.05.85-.15.19-.5.04-.75.07-.39.04-.68.23-.73.64-.05.37.11.65.5.77.25,0,.5,0,.75,0h42.82c.15,0,.29.01.44.02,0,.01,0,.02,0,.04.31,0,.51-.15.59-.49v-.44c-.13-.53-.54-.66-1.01-.66-.32,0-.46-.14-.44-.46,0-.13,0-.26,0-.4V15.71c0-.12,0-.24,0-.35,0-.28.08-.35.37-.26ZM22.76,3.39c.46.04.92-.07,1.38.06,0,.55.01,1.11.02,1.66,0,.1-.09.15-.15.2-.47.37-.94.74-1.5,1.18,0-1.02,0-1.94,0-2.85,0-.19.07-.27.26-.25ZM1.47,26.85c0-.69,0-1.29,0-1.88,0-.16.11-.23.21-.31,2.98-2.35,5.97-4.7,8.95-7.05.47-.37.78-.37,1.27.01,2.46,1.93,4.91,3.86,7.36,5.8.1.08.23.13.22.3,0,.61,0,1.22,0,1.91-1.21-.96-2.36-1.86-3.51-2.76-1.35-1.06-2.69-2.12-4.04-3.18-.57-.45-.78-.45-1.35,0-2.94,2.32-5.87,4.63-8.81,6.95-.07.05-.14.1-.3.22ZM14.74,36.12c-.2.27-.79.07-1.21.08-.76.01-1.53,0-2.29,0-1.06,0-2.11,0-3.17,0-.27,0-.4-.04-.38-.35.03-.33.02-.68,0-1.01-.01-.24.08-.3.31-.3,2.17,0,4.34,0,6.52,0,.23,0,.31.06.3.29-.02.44.14.99-.07,1.28ZM14.74,33.02c-.23.28-.82.08-1.26.08-1.8,0-3.61,0-5.41.01-.28,0-.4-.06-.37-.36.04-.42-.17-.97.08-1.23s.8-.07,1.22-.08c.75-.01,1.5,0,2.24,0,1.09,0,2.17,0,3.26,0,.24,0,.34.04.32.31-.03.44.14,1.01-.08,1.28ZM14.73,29.91c-.23.21-.78.06-1.19.06-1.82,0-3.64,0-5.46,0-.31,0-.42-.08-.39-.39.03-.31.02-.62,0-.92-.02-.28.08-.35.35-.34,1.07.01,2.14,0,3.21,0s2.14.01,3.21,0c.3,0,.38.09.35.37-.04.42.18.98-.09,1.22ZM19.49,35.88c0,.27-.06.35-.34.34-.82-.02-1.64-.02-2.46,0-.33,0-.42-.07-.41-.4.02-2.61,0-5.23,0-7.84,0-.9-.22-1.11-1.12-1.11h-7.8c-.93,0-1.12.19-1.12,1.14,0,2.6,0,5.2,0,7.8,0,.31-.05.43-.4.42-.82-.03-1.64-.02-2.47,0-.27,0-.38-.04-.38-.35.01-2.69,0-5.37,0-8.06,0-.21.06-.35.23-.48,2.6-2.04,5.19-4.08,7.78-6.13.19-.15.3-.14.48,0,2.58,2.04,5.16,4.07,7.75,6.1.18.14.24.29.24.52,0,2.69,0,5.37,0,8.06ZM28.84,30.38c0,.22,0,.38-.28.44-.32.07-.47.34-.47.66,0,.32.15.58.47.67.22.06.29.16.29.39-.01,1.12-.01,2.23,0,3.34,0,.24-.04.33-.31.33-.87-.02-1.73-.02-2.6,0-.26,0-.31-.09-.31-.32.01-1.47,0-2.93,0-4.4s0-2.87,0-4.31c0-.31.04-.43.4-.42.82.03,1.64.02,2.46,0,.3,0,.36.09.36.37-.02,1.09,0,2.17,0,3.26ZM41.71,36.22c-3.67-.01-7.34-.01-11.01,0-.36,0-.39-.12-.39-.42,0-3.14,0-6.28,0-9.43,0-.84-.23-1.07-1.07-1.07-1.35,0-2.7,0-4.05,0-.77,0-1.02.26-1.03,1.03,0,3.16,0,6.31,0,9.47,0,.31-.05.43-.4.42-.81-.03-1.62-.03-2.42,0-.35.01-.4-.11-.4-.42.01-3.66,0-7.31,0-10.97s0-7.31,0-10.97c0-.3.09-.48.32-.66,3.33-2.61,6.65-5.22,9.96-7.84.23-.18.37-.17.59,0,3.34,2.64,6.68,5.28,10.03,7.9.2.16.26.31.26.55,0,7.33,0,14.65,0,21.98,0,.32-.07.42-.4.42ZM43.65,12.74c-.19,0-.28-.13-.39-.21-3.65-2.88-7.3-5.75-10.96-8.63-.7-.55-.86-.55-1.57,0-3.69,2.9-7.37,5.81-11.06,8.71-.07.05-.14.11-.29.22,0-.69,0-1.29,0-1.88,0-.16.11-.23.21-.31,3.78-2.98,7.56-5.96,11.34-8.93.46-.36.78-.32,1.34.12,3.23,2.54,6.45,5.08,9.68,7.63.48.38.96.77,1.46,1.14.18.14.26.29.25.51-.01.54,0,1.08,0,1.63Z"/>
      <path class="cls-2" d="M42.11,13.82c0-.24-.06-.4-.26-.55-3.35-2.62-6.69-5.26-10.03-7.9-.22-.18-.35-.19-.59,0-3.31,2.62-6.63,5.24-9.96,7.84-.23.18-.32.36-.32.66.01,3.66,0,7.31,0,10.97s0,7.31,0,10.97c0,.31.04.43.4.42.81-.03,1.62-.03,2.42,0,.35.01.4-.11.4-.42-.01-3.16,0-6.31,0-9.47,0-.78.26-1.03,1.03-1.03,1.35,0,2.7,0,4.05,0,.84,0,1.07.23,1.07,1.07,0,3.14,0,6.28,0,9.43,0,.3.03.42.39.42,3.67-.02,7.34-.02,11.01,0,.34,0,.4-.1.4-.42,0-7.33,0-14.65,0-21.98ZM30.31,21.16c0,.66-.27.93-.94.93-1.42,0-2.85,0-4.27,0-.66,0-.93-.28-.94-.94,0-1.94,0-3.87,0-5.81,0-.67.26-.95.92-.95,1.44,0,2.88,0,4.31,0,.66,0,.91.27.91.96,0,.97,0,1.94,0,2.9s0,1.94,0,2.9ZM38.88,29.15c0,.97,0,1.94,0,2.9,0,.68-.26.95-.92.95-1.44,0-2.88,0-4.31,0-.62,0-.89-.27-.89-.88,0-1.98,0-3.96,0-5.94,0-.61.27-.88.9-.88,1.44,0,2.88,0,4.31,0,.66,0,.91.27.92.95,0,.97,0,1.94,0,2.9ZM38.88,21.21c0,.62-.27.88-.89.88-1.45,0-2.9,0-4.36,0-.6,0-.87-.27-.88-.86,0-1.99,0-3.99,0-5.98,0-.59.26-.85.87-.86,1.47-.01,2.93-.01,4.4,0,.6,0,.85.27.85.87,0,1,0,1.99,0,2.99s0,1.96,0,2.95Z"/>
      <path class="cls-2" d="M19.49,35.88c0,.27-.06.35-.34.34-.82-.02-1.64-.02-2.46,0-.33,0-.42-.07-.41-.4.02-2.61,0-5.23,0-7.84,0-.9-.22-1.11-1.12-1.11h-7.8c-.93,0-1.12.19-1.12,1.14,0,2.6,0,5.2,0,7.8,0,.31-.05.43-.4.42-.82-.03-1.64-.02-2.47,0-.27,0-.38-.04-.38-.35.01-2.69,0-5.37,0-8.06,0-.21.06-.35.23-.48,2.6-2.04,5.19-4.08,7.78-6.13.19-.15.3-.14.48,0,2.58,2.04,5.16,4.07,7.75,6.1.18.14.24.29.24.52,0,2.69,0,5.37,0,8.06Z"/>
      <path class="cls-2" d="M43.65,12.74c-.19,0-.28-.13-.39-.21-3.65-2.88-7.3-5.75-10.96-8.63-.7-.55-.86-.55-1.57,0-3.69,2.9-7.37,5.81-11.06,8.71-.07.05-.14.11-.29.22,0-.69,0-1.29,0-1.88,0-.16.11-.23.21-.31,3.78-2.98,7.56-5.96,11.34-8.93.46-.36.78-.32,1.34.12,3.23,2.54,6.45,5.08,9.68,7.63.48.38.96.77,1.46,1.14.18.14.26.29.25.51-.01.54,0,1.08,0,1.63Z"/>
      <path class="cls-2" d="M19.49,25.63c-1.21-.96-2.36-1.86-3.51-2.76-1.35-1.06-2.69-2.12-4.04-3.18-.57-.45-.78-.45-1.35,0-2.94,2.32-5.87,4.63-8.81,6.95-.07.05-.14.1-.3.22,0-.69,0-1.29,0-1.88,0-.16.11-.23.21-.31,2.98-2.35,5.97-4.7,8.95-7.05.47-.37.78-.37,1.27.01,2.46,1.93,4.91,3.86,7.36,5.8.1.08.23.13.22.3,0,.61,0,1.22,0,1.91Z"/>
      <path class="cls-2" d="M28.85,32.54c-.01,1.12-.01,2.23,0,3.34,0,.24-.04.33-.31.33-.87-.02-1.73-.02-2.6,0-.26,0-.31-.09-.31-.32.01-1.47,0-2.93,0-4.4s0-2.87,0-4.31c0-.31.04-.43.4-.42.82.03,1.64.02,2.46,0,.3,0,.36.09.36.37-.02,1.09,0,2.17,0,3.26,0,.22,0,.38-.28.44-.32.07-.47.34-.47.66,0,.32.15.58.47.67.22.06.29.16.29.39Z"/>
      <path class="cls-2" d="M14.74,33.02c-.23.28-.82.08-1.26.08-1.8,0-3.61,0-5.41.01-.28,0-.4-.06-.37-.36.04-.42-.17-.97.08-1.23s.8-.07,1.22-.08c.75-.01,1.5,0,2.24,0,1.09,0,2.17,0,3.26,0,.24,0,.34.04.32.31-.03.44.14,1.01-.08,1.28Z"/>
      <path class="cls-2" d="M14.74,36.12c-.2.27-.79.07-1.21.08-.76.01-1.53,0-2.29,0-1.06,0-2.11,0-3.17,0-.27,0-.4-.04-.38-.35.03-.33.02-.68,0-1.01-.01-.24.08-.3.31-.3,2.17,0,4.34,0,6.52,0,.23,0,.31.06.3.29-.02.44.14.99-.07,1.28Z"/>
      <path class="cls-2" d="M14.73,29.91c-.23.21-.78.06-1.19.06-1.82,0-3.64,0-5.46,0-.31,0-.42-.08-.39-.39.03-.31.02-.62,0-.92-.02-.28.08-.35.35-.34,1.07.01,2.14,0,3.21,0s2.14.01,3.21,0c.3,0,.38.09.35.37-.04.42.18.98-.09,1.22Z"/>
      <path class="cls-2" d="M24.16,5.11c0,.1-.09.15-.15.2-.47.37-.94.74-1.5,1.18,0-1.02,0-1.94,0-2.85,0-.19.07-.27.26-.25.46.04.92-.07,1.38.06,0,.55.01,1.11.02,1.66Z"/>
      <path class="cls-1" d="M30.31,15.35c0-.68-.25-.95-.91-.96-1.44-.01-2.88,0-4.31,0-.66,0-.92.28-.92.95,0,1.94,0,3.87,0,5.81,0,.66.28.94.94.94,1.42,0,2.85,0,4.27,0,.67,0,.94-.27.94-.93,0-.97,0-1.94,0-2.9s0-1.94,0-2.9ZM28.84,20.34c0,.2-.03.29-.26.29-.89-.01-1.79-.01-2.68,0-.22,0-.27-.07-.26-.27.01-.63.01-1.26,0-1.89,0-.22.08-.27.28-.26.44.01.88,0,1.32,0s.88.01,1.32,0c.24-.01.3.07.29.3-.01.62-.01,1.23,0,1.85ZM28.55,16.74c-.45-.03-.91,0-1.36,0-.38,0-.76,0-1.14,0-.13,0-.35.09-.39-.08-.05-.24-.03-.5,0-.74.02-.1.18-.05.28-.05.86,0,1.73.02,2.6-.01.38-.01.31.22.29.42-.02.19.15.5-.28.47Z"/>
      <path class="cls-1" d="M38.88,15.27c0-.6-.25-.87-.85-.87-1.47-.01-2.93-.01-4.4,0-.61,0-.87.26-.87.86,0,2,0,3.99,0,5.98,0,.59.28.86.88.86,1.45,0,2.9,0,4.36,0,.62,0,.89-.27.89-.88,0-.98,0-1.96,0-2.95s0-2,0-2.99ZM37.43,20.35c0,.21-.06.28-.28.28-.9-.01-1.79-.01-2.68,0-.21,0-.28-.07-.27-.28.01-.62.01-1.23,0-1.85,0-.22.05-.31.29-.3.44.02.88,0,1.32,0s.88.01,1.32,0c.23,0,.31.07.3.3-.02.62-.01,1.23,0,1.85ZM37.42,16.34c.02.19.08.42-.27.4-.45-.03-.91,0-1.36,0s-.88-.02-1.32,0c-.4.02-.26-.26-.26-.44,0-.18-.13-.45.27-.44.89.02,1.78.02,2.68,0,.44,0,.24.3.27.49Z"/>
      <path class="cls-1" d="M37.96,25.3c-1.44,0-2.88,0-4.31,0-.62,0-.89.27-.9.88,0,1.98,0,3.96,0,5.94,0,.61.28.88.89.88,1.44,0,2.88,0,4.31,0,.66,0,.91-.27.92-.95,0-.97,0-1.94,0-2.9s0-1.94,0-2.9c0-.68-.25-.95-.92-.95ZM37.43,31.27c0,.22-.07.28-.28.27-.46-.01-.91,0-1.36,0s-.88-.01-1.32,0c-.21,0-.28-.06-.28-.27.01-.63.01-1.26,0-1.89,0-.21.06-.28.27-.28.89,0,1.79,0,2.68,0,.21,0,.28.07.28.28-.01.63-.01,1.26,0,1.89ZM37.17,27.65c-.45,0-.91,0-1.36,0s-.91,0-1.36,0c-.41.01-.23-.29-.24-.46-.01-.16-.14-.43.24-.42.91.02,1.81.02,2.72,0,.37,0,.26.25.25.42-.01.18.16.48-.25.46Z"/>
      <path class="cls-2" d="M28.84,20.34c0,.2-.03.29-.26.29-.89-.01-1.79-.01-2.68,0-.22,0-.27-.07-.26-.27.01-.63.01-1.26,0-1.89,0-.22.08-.27.28-.26.44.01.88,0,1.32,0s.88.01,1.32,0c.24-.01.3.07.29.3-.01.62-.01,1.23,0,1.85Z"/>
      <path class="cls-2" d="M28.55,16.74c-.45-.03-.91,0-1.36,0-.38,0-.76,0-1.14,0-.13,0-.35.09-.39-.08-.05-.24-.03-.5,0-.74.02-.1.18-.05.28-.05.86,0,1.73.02,2.6-.01.38-.01.31.22.29.42-.02.19.15.5-.28.47Z"/>
      <path class="cls-2" d="M37.43,20.35c0,.21-.06.28-.28.28-.9-.01-1.79-.01-2.68,0-.21,0-.28-.07-.27-.28.01-.62.01-1.23,0-1.85,0-.22.05-.31.29-.3.44.02.88,0,1.32,0s.88.01,1.32,0c.23,0,.31.07.3.3-.02.62-.01,1.23,0,1.85Z"/>
      <path class="cls-2" d="M37.42,16.34c.02.19.08.42-.27.4-.45-.03-.91,0-1.36,0s-.88-.02-1.32,0c-.4.02-.26-.26-.26-.44,0-.18-.13-.45.27-.44.89.02,1.78.02,2.68,0,.44,0,.24.3.27.49Z"/>
      <path class="cls-2" d="M37.43,31.27c0,.22-.07.28-.28.27-.46-.01-.91,0-1.36,0s-.88-.01-1.32,0c-.21,0-.28-.06-.28-.27.01-.63.01-1.26,0-1.89,0-.21.06-.28.27-.28.89,0,1.79,0,2.68,0,.21,0,.28.07.28.28-.01.63-.01,1.26,0,1.89Z"/>
      <path class="cls-2" d="M37.17,27.65c-.45,0-.91,0-1.36,0s-.91,0-1.36,0c-.41.01-.23-.29-.24-.46-.01-.16-.14-.43.24-.42.91.02,1.81.02,2.72,0,.37,0,.26.25.25.42-.01.18.16.48-.25.46Z"/>
    </g>
  </g>
</svg>