<?xml version="1.0" encoding="UTF-8"?>
<svg id="Layer_2" data-name="Layer 2" xmlns="http://www.w3.org/2000/svg" viewBox="0 0 25.56 33.79">
  <defs>
    <style>
      .cls-1 {
        fill: #ec6229;
        stroke-width: 0px;
      }
    </style>
  </defs>
  <g id="Layer_1-2" data-name="Layer 1">
    <g id="Layer_2-2" data-name="Layer 2">
      <g>
        <path class="cls-1" d="M25.56,1.26c-.28.56-.39,1.17-.6,1.76-.04.11.04.16.1.22.28.26.38.57.23.92-.15.35-.44.53-.83.53h-2.54c-.24,0-.29.07-.29.29v4.42c0,.21.04.29.28.32.53.07.9.4,1.06.91.16.5.05.96-.33,1.33-.22.21-.47.4-.72.57-.21.14-.29.31-.29.57v16.78c0,.15,0,.31-.03.46-.05.3-.33.53-.63.53-.28,0-.56-.21-.62-.49-.03-.16-.04-.33-.04-.49v-15.69c0-.13.03-.26-.04-.41-.61.46-1.21.91-1.82,1.36-.36.27-.74.42-1.2.32-.66-.15-1.05-.66-1.06-1.4,0-1.38,0-2.77-.03-4.15,0-.23.08-.57-.27-.57s-.27.34-.27.56v22.02c0,.59-.12,1.11-.6,1.49-.5.39-1.06.48-1.64.22-.57-.25-.91-.71-.95-1.35,0-.14,0-.29,0-.43v-12.2c0-.11.07-.29-.06-.32-.19-.05-.39-.02-.59,0-.06,0-.05.09-.05.14v12.56c0,.9-.48,1.53-1.29,1.71-.59.13-1.29-.15-1.62-.64-.08-.12-.13-.18.06-.25.81-.32,1.18-.94,1.18-1.8v-.73c-.02-.84-.44-1.46-1.22-1.74-.29-.1-.34-.24-.34-.52V9.94c0-.21.11-.54-.24-.54-.37,0-.26.34-.27.56-.02,1.4-.02,2.79-.03,4.19,0,1.02-.52,1.53-1.54,1.53s-1.93,0-2.9,0c-.27,0-.32.08-.32.33v11.61c0,.26.09.36.32.44,1.56.57,3.12,1.15,4.68,1.72.48.18.53.25.53.77v.49c0,.45-.15.59-.59.6H2.2c-.65,0-.73-.08-.73-.72v-14.84c0-.3-.06-.41-.38-.44C.47,15.58-.02,14.94,0,14.31c.02-.68.54-1.25,1.21-1.3.19,0,.32,0,.34-.27.03-.44.39-.76.8-.77.4,0,.79.31.83.74.02.27.13.29.34.28.5,0,1.01,0,1.52,0,.21,0,.26-.06.26-.26,0-.98,0-1.96,0-2.93,0-2,1.35-3.34,3.36-3.34h6.82c2,0,3.34,1.34,3.35,3.35v1.61c.25-.05.38-.26.58-.36.75-.37.95-.95.91-1.78-.08-1.42-.03-2.86-.02-4.28,0-.23-.04-.32-.3-.31-.79.02-1.58,0-2.37,0-.41,0-.74-.12-.92-.51-.16-.36-.08-.69.21-.95.12-.1.05-.2.02-.3-.16-.5-.32-1-.48-1.5-.16-.5,0-.74.53-.74h5.8c.24,0,.27.09.26.29,0,.37,0,.74,0,1.22.21-.44.3-.83.4-1.21.07-.24.18-.31.41-.29.32.02.64,0,.95,0,.32,0,.57.06.71.38v.2l.03-.03Z"/>
        <path class="cls-1" d="M12.45,0c.73.17,1.37.48,1.84,1.09.78.99.76,2.44-.07,3.46-.79.97-2.23,1.29-3.33.72-1.13-.58-1.72-1.71-1.53-2.97.17-1.14,1.1-2.04,2.34-2.26.03,0,.06-.03.09-.04h.66Z"/>
      </g>
    </g>
  </g>
</svg>