<?xml version="1.0" encoding="UTF-8"?>
<svg id="Layer_2" data-name="Layer 2" xmlns="http://www.w3.org/2000/svg" viewBox="0 0 9.19 9.2">
  <defs>
    <style>
      .cls-1 {
        fill: #fff;
        stroke-width: 0px;
      }
    </style>
  </defs>
  <g id="Camada_1" data-name="Camada 1">
    <g>
      <path class="cls-1" d="M7.99,2.03s-.07.08-.1.11c-.98.99-1.97,1.97-2.96,2.96-.23.23-.5.27-.75.13-.3-.17-.38-.59-.17-.87.03-.04.07-.08.11-.12.99-.99,1.98-1.98,2.97-2.97.02-.02.05-.04.08-.07-.04-.04-.07-.02-.1-.02-.58,0-1.16,0-1.74,0-.37,0-.63-.28-.61-.64.02-.25.21-.47.46-.52C5.24,0,5.31,0,5.37,0c1.05,0,2.1,0,3.15,0,.43,0,.66.24.66.67,0,1.06,0,2.11,0,3.17,0,.3-.15.53-.41.61-.36.11-.74-.14-.76-.52,0-.04,0-.07,0-.11,0-.56,0-1.12,0-1.68,0-.03,0-.06,0-.09,0,0-.02,0-.02,0Z"/>
      <path class="cls-1" d="M0,1.81c.05-.13.11-.25.24-.33.09-.05.18-.08.28-.08,1.94,0,3.88,0,5.82,0,.01.03-.01.04-.03.05-.3.3-.61.61-.91.91-.04.04-.08.05-.13.05-1.38,0-2.77,0-4.15,0-.08,0-.11.02-.11.1,0,1.86,0,3.72,0,5.57,0,.08.02.1.1.1,1.86,0,3.72,0,5.57,0,.09,0,.1-.03.1-.11,0-1.38,0-2.76,0-4.14,0-.07.02-.11.07-.16.29-.29.58-.58.87-.86.02-.02.04-.04.08-.07v.11c0,1.86,0,3.73,0,5.59,0,.32-.09.55-.41.65H.41c-.24-.04-.37-.18-.41-.41V1.81Z"/>
    </g>
  </g>
</svg>