<?xml version="1.0" encoding="UTF-8"?>
<svg id="Layer_2" data-name="Layer 2" xmlns="http://www.w3.org/2000/svg" viewBox="0 0 109.1 38.35">
  <defs>
    <style>
      .cls-1 {
        fill: #ec6229;
      }

      .cls-1, .cls-2, .cls-3, .cls-4 {
        stroke-width: 0px;
      }

      .cls-2 {
        fill: #010101;
      }

      .cls-3 {
        fill: #242751;
      }

      .cls-4 {
        fill: #fff;
      }
    </style>
  </defs>
  <g id="Camada_1" data-name="Camada 1">
    <g>
      <g>
        <g>
          <path class="cls-3" d="M31.64,33.61h0s-.02,0-.07,0c-.5-.08-3.8-.52-10,.74-6.76,1.37-6.92,1.47-6.92,1.47,0,0-4.41,1.23-9.2.68C.67,35.93,0,35.15,0,35.15V0s31.62.06,31.62.06l.02,33.55Z"/>
          <path class="cls-1" d="M109.1,29.1v7.7H36.31c-2.15,0-4.3-.05-6.45-.12-4.3-.14-9.09.6-9.09.6,0,0-4.5.97-12.47,1.07-4.09.05-8.28-1.63-8.28-1.63,5.76,1.73,8.44,1.14,10.79.77,2.36-.37,6.8-1.6,6.8-1.6,0,0,.68-.27,6.03-1.6,2.96-.74,7.28-.7,7.93-.69.05,0,.07.01.07.01h0s0,0,0,0v-4.51h77.45Z"/>
          <path class="cls-1" d="M31.64,33.61h0s-.02,0-.07,0c.03,0,.05,0,.07,0Z"/>
        </g>
        <g>
          <g>
            <path class="cls-3" d="M36.07,19.39v4.78h-1.63v-8.58l5.22,5.2v-4.77h1.62v8.58l-5.2-5.22Z"/>
            <path class="cls-3" d="M41.38,24.86l-5.2-5.22v4.64h-1.84v-8.93l5.22,5.2v-4.62h1.83v8.93ZM35.97,19.14l5.2,5.22v-8.22h-1.41v4.92l-5.22-5.2v8.22h1.42v-4.93Z"/>
          </g>
          <g>
            <path class="cls-3" d="M41.86,20.1c0-2.38,1.88-4.24,4.28-4.24s4.29,1.86,4.29,4.24-1.88,4.25-4.29,4.25-4.28-1.86-4.28-4.25ZM48.78,20.1c0-1.5-1.15-2.68-2.64-2.68s-2.63,1.17-2.63,2.68,1.15,2.69,2.63,2.69,2.64-1.17,2.64-2.69Z"/>
            <path class="cls-3" d="M46.14,24.45c-2.46,0-4.39-1.91-4.39-4.35s1.93-4.34,4.39-4.34,4.4,1.91,4.4,4.34-1.93,4.35-4.4,4.35ZM46.14,15.97c-2.34,0-4.18,1.82-4.18,4.13s1.84,4.14,4.18,4.14,4.19-1.82,4.19-4.14-1.84-4.13-4.19-4.13ZM46.14,22.89c-1.53,0-2.74-1.23-2.74-2.79s1.2-2.78,2.74-2.78,2.75,1.22,2.75,2.78-1.21,2.79-2.75,2.79ZM46.14,17.53c-1.42,0-2.53,1.13-2.53,2.57s1.11,2.58,2.53,2.58,2.54-1.13,2.54-2.58-1.11-2.57-2.54-2.57Z"/>
          </g>
          <g>
            <path class="cls-3" d="M49.73,16.03h1.79l1.61,4.5,1.59-4.5h1.62l-3.3,8.58-3.3-8.58Z"/>
            <path class="cls-3" d="M53.03,24.9l-3.46-8.97h2.01l1.53,4.29,1.52-4.29h1.84l-3.46,8.97ZM49.88,16.14l3.15,8.18,3.15-8.18h-1.39l-1.67,4.71-1.68-4.71h-1.56Z"/>
          </g>
          <g>
            <path class="cls-3" d="M60.08,22.51h-3.17l-.75,1.66h-1.75l4.16-8.58,4.16,8.58h-1.91l-.73-1.66ZM59.48,21.12l-.96-2.18-.98,2.18h1.94Z"/>
            <path class="cls-3" d="M62.89,24.28h-2.15l-.73-1.66h-3.03l-.75,1.66h-1.99l4.32-8.92,4.32,8.92ZM60.88,24.07h1.68l-3.99-8.23-3.99,8.23h1.52l.75-1.66h3.3l.73,1.66ZM59.64,21.23h-2.26l1.14-2.54,1.12,2.54ZM57.7,21.02h1.61l-.8-1.81-.82,1.81Z"/>
          </g>
          <g>
            <path class="cls-3" d="M65.88,16.03h1.65v8.14h-1.65v-8.14Z"/>
            <path class="cls-3" d="M67.63,24.28h-1.86v-8.35h1.86v8.35ZM65.98,24.07h1.44v-7.93h-1.44v7.93Z"/>
          </g>
          <g>
            <path class="cls-3" d="M76.58,20.16c0,2.36-1.69,4.19-4.07,4.19s-4.29-1.86-4.29-4.25,1.88-4.24,4.35-4.24c1.23,0,2.3.44,3.05,1.17l-1.08,1.16c-.48-.47-1.17-.77-1.97-.77-1.55,0-2.7,1.17-2.7,2.68s1.15,2.69,2.64,2.69c1.18,0,2.03-.68,2.36-1.66h-3.62v-1.42h5.31s.02.25.02.46Z"/>
            <path class="cls-3" d="M72.52,24.45c-2.47,0-4.4-1.91-4.4-4.35,0-1.18.45-2.28,1.28-3.09.83-.81,1.96-1.26,3.18-1.26s2.33.43,3.13,1.2l.07.07-1.22,1.32-.08-.07c-.49-.48-1.17-.74-1.9-.74-1.48,0-2.59,1.11-2.59,2.57s1.11,2.58,2.54,2.58c1.03,0,1.84-.54,2.21-1.45h-3.58v-1.63h5.51v.1s.03.26.03.47c0,1.18-.42,2.26-1.17,3.05-.77.8-1.83,1.24-3,1.24ZM72.57,15.97c-1.16,0-2.24.42-3.03,1.2-.78.77-1.22,1.81-1.22,2.94,0,2.32,1.84,4.14,4.19,4.14,1.11,0,2.12-.42,2.85-1.18.72-.75,1.11-1.78,1.11-2.91,0-.12,0-.26-.01-.35h-5.11v1.21h3.66l-.05.14c-.37,1.09-1.28,1.73-2.46,1.73-1.54,0-2.75-1.23-2.75-2.79s1.21-2.78,2.8-2.78c.75,0,1.44.26,1.97.73l.94-1.01c-.75-.69-1.78-1.07-2.9-1.07Z"/>
          </g>
          <g>
            <path class="cls-3" d="M77.1,21.26v-5.23h1.65v5.18c0,.91.5,1.48,1.33,1.48s1.34-.57,1.34-1.48v-5.18h1.65v5.23c0,1.89-1.18,3.09-3,3.09s-2.98-1.2-2.98-3.09Z"/>
            <path class="cls-3" d="M80.08,24.45c-1.88,0-3.09-1.25-3.09-3.19v-5.33h1.86v5.29c0,.86.46,1.38,1.23,1.38s1.24-.51,1.24-1.38v-5.29h1.86v5.33c0,1.94-1.22,3.19-3.1,3.19ZM77.2,16.14v5.12c0,1.81,1.13,2.98,2.88,2.98s2.89-1.17,2.89-2.98v-5.12h-1.44v5.08c0,.98-.56,1.59-1.45,1.59s-1.44-.61-1.44-1.59v-5.08h-1.44Z"/>
          </g>
          <g>
            <path class="cls-3" d="M88.54,22.51h-3.17l-.75,1.66h-1.75l4.16-8.58,4.16,8.58h-1.91l-.73-1.66ZM87.94,21.12l-.96-2.18-.98,2.18h1.94Z"/>
            <path class="cls-3" d="M91.35,24.28h-2.15l-.73-1.66h-3.03l-.75,1.66h-1.99l4.32-8.92,4.32,8.92ZM89.34,24.07h1.68l-3.99-8.23-3.99,8.23h1.52l.75-1.66h3.3l.73,1.66ZM88.1,21.23h-2.26l1.14-2.54,1.12,2.54ZM86.16,21.02h1.61l-.8-1.81-.82,1.81Z"/>
          </g>
          <g>
            <path class="cls-3" d="M94.74,26.04c.02.13.08.23.18.31.1.08.22.11.35.11.15,0,.28-.05.38-.15.1-.1.15-.23.15-.39s-.05-.28-.15-.4c-.1-.11-.23-.17-.38-.17-.08,0-.17.02-.26.05-.09.03-.17.1-.23.2l-.56-.22.48-1.1c-.52-.09-1.01-.27-1.46-.53-.45-.26-.84-.59-1.17-.97s-.59-.82-.77-1.31c-.19-.49-.28-1-.28-1.54,0-.58.11-1.13.34-1.66.22-.53.53-.99.93-1.39.39-.4.86-.72,1.39-.95.53-.24,1.1-.35,1.71-.35.35,0,.72.05,1.1.14.38.1.75.24,1.11.45.36.2.69.47,1,.8.31.33.56.72.77,1.18h-1.78c-.3-.35-.64-.62-1-.82-.36-.2-.78-.3-1.25-.3-.34,0-.68.07-1.01.22-.33.14-.62.35-.88.61-.25.26-.46.57-.62.93-.16.36-.24.74-.24,1.16,0,.39.08.77.23,1.13.15.36.36.67.62.93.26.27.56.48.89.64.34.16.69.24,1.06.24.28,0,.53-.04.75-.11.22-.07.42-.16.59-.27.17-.11.32-.23.45-.35.13-.12.24-.23.33-.33h1.81c-.17.39-.39.74-.66,1.05-.27.31-.58.58-.93.79-.35.22-.72.38-1.11.5-.39.12-.79.18-1.2.18-.06,0-.11,0-.14-.01l-.2.47s.08-.01.13-.02c.05,0,.1,0,.16,0,.27,0,.52.1.73.29.22.19.32.48.32.85s-.11.64-.34.83c-.22.19-.49.28-.8.28-.2,0-.37-.04-.51-.11-.14-.07-.26-.16-.35-.26s-.16-.21-.2-.32c-.05-.11-.07-.21-.07-.3h.6Z"/>
            <path class="cls-3" d="M95.27,27.14c-.21,0-.4-.04-.56-.12-.16-.08-.28-.17-.38-.29-.1-.11-.17-.23-.22-.36-.05-.13-.08-.24-.08-.34v-.1h.8l.02.09c.02.1.06.18.14.24.08.06.18.09.29.09.12,0,.22-.04.3-.12.08-.08.12-.19.12-.32s-.04-.23-.13-.33c-.08-.09-.18-.14-.3-.14-.07,0-.15.01-.23.04-.07.02-.12.07-.17.16l-.04.08-.74-.29.47-1.08c-.49-.1-.94-.27-1.36-.52-.46-.27-.86-.6-1.19-1-.34-.39-.6-.85-.79-1.34-.19-.5-.29-1.03-.29-1.57,0-.59.12-1.16.34-1.7.23-.54.55-1.02.95-1.42.4-.41.88-.73,1.42-.97.54-.24,1.13-.36,1.75-.36.36,0,.73.05,1.12.15.39.1.77.25,1.14.46.36.21.71.48,1.02.82.31.33.58.74.79,1.21l.07.15h-1.99l-.03-.04c-.29-.34-.62-.61-.97-.8-.35-.19-.75-.28-1.2-.28-.33,0-.65.07-.97.21-.32.14-.6.34-.84.59-.24.25-.45.55-.6.9-.15.34-.23.72-.23,1.12,0,.38.07.74.22,1.09.15.34.35.65.59.9.25.26.54.46.86.62.32.15.67.23,1.02.23.27,0,.51-.03.72-.1.21-.07.4-.16.56-.26.16-.11.31-.22.43-.34.13-.12.24-.23.33-.32l.03-.03h2.02l-.06.15c-.17.4-.4.76-.68,1.08-.28.32-.6.59-.95.81-.35.22-.73.39-1.14.51-.4.12-.82.18-1.23.18-.03,0-.05,0-.07,0l-.1.23s.07,0,.12,0c.3,0,.57.11.8.32.24.21.36.53.36.93s-.13.7-.37.91c-.24.21-.54.31-.87.31ZM94.25,26.15s.03.1.05.15c.04.1.1.2.19.29.08.09.19.17.32.24.13.06.29.1.47.1.29,0,.53-.09.74-.26.2-.17.3-.42.3-.75s-.09-.6-.29-.77c-.2-.18-.42-.26-.66-.26-.06,0-.11,0-.15,0-.04,0-.08,0-.11.02l-.2.04.32-.73.09.02s.04,0,.11,0c.39,0,.78-.06,1.17-.17.38-.11.75-.28,1.08-.49.34-.21.64-.47.91-.77.23-.26.42-.56.58-.87h-1.6c-.09.09-.19.19-.3.3-.13.13-.29.25-.46.36-.18.11-.38.21-.61.28-.23.08-.49.11-.78.11-.39,0-.76-.08-1.11-.25-.35-.16-.66-.39-.92-.66-.27-.27-.48-.6-.64-.97-.16-.37-.24-.76-.24-1.17,0-.43.08-.84.25-1.2.16-.37.38-.69.64-.96.26-.27.57-.48.91-.63.34-.15.7-.23,1.05-.23.49,0,.92.1,1.3.31.36.2.7.47,1,.81h1.57c-.19-.39-.42-.73-.68-1.01-.3-.32-.63-.58-.97-.78-.35-.2-.71-.35-1.08-.44-.37-.09-.73-.14-1.07-.14-.59,0-1.15.12-1.67.34-.52.23-.97.54-1.36.93-.38.39-.69.84-.91,1.36-.22.51-.33,1.06-.33,1.62,0,.52.09,1.03.27,1.5.18.47.44.9.76,1.28.32.38.71.7,1.14.95.43.25.91.43,1.42.52l.13.02-.49,1.13.38.15c.07-.09.14-.15.24-.18.1-.03.2-.05.29-.05.18,0,.34.07.46.21.12.13.18.29.18.47,0,.19-.06.34-.18.47-.12.12-.27.19-.45.19-.16,0-.3-.05-.42-.14-.1-.07-.16-.17-.2-.29h-.4Z"/>
          </g>
          <g>
            <path class="cls-3" d="M99.83,21.26v-5.23h1.65v5.18c0,.91.5,1.48,1.33,1.48s1.34-.57,1.34-1.48v-5.18h1.65v5.23c0,1.89-1.18,3.09-3,3.09s-2.98-1.2-2.98-3.09Z"/>
            <path class="cls-3" d="M102.82,24.45c-1.88,0-3.09-1.25-3.09-3.19v-5.33h1.86v5.29c0,.86.46,1.38,1.23,1.38s1.24-.51,1.24-1.38v-5.29h1.86v5.33c0,1.94-1.22,3.19-3.1,3.19ZM99.94,16.14v5.12c0,1.81,1.13,2.98,2.88,2.98s2.89-1.17,2.89-2.98v-5.12h-1.44v5.08c0,.98-.56,1.59-1.45,1.59s-1.44-.61-1.44-1.59v-5.08h-1.44Z"/>
          </g>
        </g>
        <g>
          <path class="cls-3" d="M37.16,9.77c0,.78-.59,1.42-1.51,1.42h-.57v2h-.75v-4.84h1.32c.92,0,1.51.64,1.51,1.43ZM36.43,9.77c0-.44-.33-.78-.85-.78h-.5v1.55h.5c.52,0,.85-.33.85-.77Z"/>
          <path class="cls-3" d="M42.81,11.15h-.25v2.03h-.75v-4.84h1.33c.91,0,1.5.63,1.5,1.41,0,.63-.39,1.17-1.03,1.34l1.58,2.09h-.89l-1.48-2.03ZM42.56,10.58h.48c.53,0,.87-.34.87-.79s-.34-.79-.87-.79h-.48v1.58Z"/>
          <path class="cls-3" d="M52.35,12.49v.7h-2.8v-4.84h2.59v.69h-1.84v1.32h2.01v.64h-2.01v1.5h2.05Z"/>
          <path class="cls-3" d="M59.8,10.99h-2.01v2.2h-.75v-4.84h2.59v.69h-1.84v1.32h2.01v.64Z"/>
          <path class="cls-3" d="M67.24,12.49v.7h-2.8v-4.84h2.59v.69h-1.84v1.32h2.01v.64h-2.01v1.5h2.05Z"/>
          <path class="cls-3" d="M71.99,8.34h.75v4.84h-.75v-4.84Z"/>
          <path class="cls-3" d="M80.63,9.05h-1.3v4.13h-.75v-4.13h-1.3v-.71h3.34v.71Z"/>
          <path class="cls-3" d="M85.05,11.46v-3.12h.75v3.1c0,.67.39,1.1.99,1.1s.99-.43.99-1.1v-3.1h.75v3.12c0,1.12-.71,1.83-1.74,1.83s-1.74-.71-1.74-1.83Z"/>
          <path class="cls-3" d="M94.4,11.15h-.25v2.03h-.75v-4.84h1.33c.91,0,1.5.63,1.5,1.41,0,.63-.39,1.17-1.03,1.34l1.58,2.09h-.89l-1.48-2.03ZM94.15,10.58h.48c.53,0,.87-.34.87-.79s-.34-.79-.87-.79h-.48v1.58Z"/>
          <path class="cls-3" d="M104.11,11.84h-2.02l-.62,1.34h-.8l2.46-5.08,2.46,5.08h-.87l-.61-1.34ZM103.82,11.2l-.71-1.57-.72,1.57h1.43Z"/>
        </g>
      </g>
      <g>
        <g>
          <path class="cls-4" d="M9.86,9.85l-.88-1.81-.3-.05-.72-1.18.6-.32.22.38.34-.18-.21-.38.47-.23.6,1.23-.21.1.12.28.34-.15.16.36.35-.14-.16-.35.41-.18-.12-.28-.17.07-.57-1.25.79-.29.16.42.38-.11-.15-.45.95-.26.11.47.39-.1-.08-.47.56-.1.22,1.46-.22.03.03.22.44-.03.04.38.56-.02-.03-.4.44-.02v-.31s-.3,0-.3,0l-.09-1.48.76-.06.02.53h.09s.27-.54.27-.54h.78s.29.5.29.5h.21v-.48s.64.05.64.05l-.09,1.41h-.27s0,.29,0,.29h.41s0,.43,0,.43l.47.02v-.45l.44.02v-.25s-.34-.02-.34-.02l.26-1.32.73.14-.11.53.5.09.11-.51.79.23-.12.49.43.12.14-.49.51.2-.38,1.24-.3-.1-.07.25.38.15-.16.41.5.24.26-.42.22.12.12-.21-.24-.13.67-1.16.56.24-.28.46.31.19.32-.48.48.26-.74,1.19-.25.03-.93,1.82s-2.67-1.36-5.9-1.25c-3.24.1-5.94,1.38-5.94,1.38Z"/>
          <path class="cls-4" d="M9.86,9.86l-.88-1.81-.3-.05h0s-.72-1.19-.72-1.19h0s.6-.33.6-.33l.22.38.32-.17-.21-.38.49-.23.61,1.25-.21.1.12.26.34-.15.16.36.33-.14-.16-.35.41-.18-.11-.26-.17.07h0s-.58-1.27-.58-1.27l.81-.3.16.42.36-.1-.15-.45.97-.26.11.47.38-.1-.08-.47.58-.11h0s.22,1.48.22,1.48l-.22.03.02.2.44-.03.04.38.54-.02-.03-.4.44-.02v-.29s-.3,0-.3,0h0s-.09-1.49-.09-1.49h0s.77-.06.77-.06l.02.53h.08s.27-.54.27-.54h0s.78,0,.78,0l.29.5h.19v-.48s.02,0,.02,0l.64.05h0s-.1,1.42-.1,1.42h-.27s0,.27,0,.27h.41s0,0,0,0v.42l.45.02v-.45l.44.02v-.23s-.34-.02-.34-.02l.27-1.34.75.14h0s-.11.53-.11.53l.48.09.11-.51.8.24-.12.49.41.12.14-.49.53.21h0s-.38,1.26-.38,1.26l-.3-.1-.07.23.38.15-.16.41.48.23.27-.42.22.12.11-.19-.24-.13.68-1.18h0s.57.25.57.25l-.28.46.29.17.32-.48.49.27h0s-.75,1.2-.75,1.2l-.25.03-.93,1.82h0s-2.7-1.36-5.9-1.26c-3.2.1-5.91,1.36-5.93,1.37h0ZM8.69,7.98l.3.05h0s.88,1.8.88,1.8c.18-.08,2.82-1.27,5.93-1.37,1.67-.05,3.19.29,4.17.59.99.3,1.65.62,1.73.66l.92-1.81.25-.03.74-1.17-.46-.25-.32.48-.32-.2.28-.46-.54-.24-.66,1.15.24.13-.13.23-.22-.12-.26.42-.51-.25h0s.15-.41.15-.41l-.38-.15.08-.27.3.1.37-1.23-.49-.2-.14.49-.45-.13.12-.49-.77-.22-.11.51-.52-.09.11-.53-.71-.14-.26,1.3.34.02v.27s-.44-.02-.44-.02v.45l-.49-.02v-.43s-.41,0-.41,0v-.3s.28,0,.28,0l.09-1.39-.61-.05v.48h-.23l-.29-.5h-.77s-.27.52-.27.52l-.11.02-.02-.53-.74.06.08,1.46h.29s.01.32.01.32l-.44.02.03.4-.58.02-.04-.38-.44.03-.03-.24.22-.03-.22-1.44-.54.1.08.47-.41.11-.11-.47-.93.25.15.45-.4.11-.16-.42-.77.28.56,1.23.17-.07.13.3-.41.18.16.35-.37.15-.16-.36-.34.15-.13-.3.21-.1-.59-1.21-.46.22.21.38-.35.19-.22-.38-.58.31.71,1.16Z"/>
        </g>
        <path class="cls-4" d="M5.66,13.89l.53-.92v-1.06c-.01-.14.03-.27.11-.38.01-.02.03-.03.04-.05.09-.09.08-.44.08-.44h0c-.02-.17-.02-.33,0-.5.02-.15.03-.32-.01-.39-.07-.13-.13-.08-.16-.33s.01-.42.01-.42c0,0,.06-.36-.31-.4s-.41.23-.44.44-.06.56-.06.56c0,0,0,.25-.2.57-.06.1-.08.21-.08.31,0,.21.1.4.25.54.11.1.25.27.25.49,0,.37-.01,1.97-.01,1.97Z"/>
        <polyline class="cls-4" points="5.67 20.82 5.67 20.31 6.22 20.29 6.26 20.92"/>
        <path class="cls-2" d="M6.58,21.35c0,.12,0,.24,0,.36-.01.11-.04.22-.04.34,0,.08.12.08.12,0,0-.11.03-.22.04-.34.01-.12.01-.24,0-.36,0-.08-.13-.08-.12,0h0Z"/>
        <g>
          <path class="cls-4" d="M24.95,11.12s0-.06,0-.16c-.01-.6-.42-1.13-1-1.29-.12-.03-.23-.06-.3-.08-.17-.03-.36-.2-.31.08s.09.26.09.43.3,1.15,1.51,1.01Z"/>
          <path class="cls-3" d="M24.72,11.15c-.36,0-.66-.11-.89-.31-.3-.27-.39-.62-.39-.72,0-.09-.01-.13-.03-.18-.02-.05-.04-.12-.06-.25-.02-.09,0-.14.02-.16.04-.03.1,0,.17.02.04.02.09.03.13.04.06.01.16.04.3.08.58.17,1,.7,1.01,1.3,0,.1,0,.16,0,.16h0s0,0,0,0c-.08,0-.16.01-.24.01ZM23.4,9.53s-.02,0-.03,0c-.02.02-.03.07-.01.14.02.13.04.2.06.25.02.06.03.1.03.19s.09.44.39.7c.28.25.65.35,1.1.3,0-.02,0-.07,0-.15-.01-.59-.42-1.12-1-1.28-.14-.04-.24-.07-.3-.08-.04,0-.09-.03-.13-.04-.05-.02-.09-.04-.12-.04Z"/>
        </g>
        <g>
          <path class="cls-4" d="M25.11,11.6s-.15-1.17.46-1.87c0,0,.23-.19.31-.44.05-.13.06-.49.17-.19s.25.99.1,1.55-.88,1.04-1.04.94Z"/>
          <path class="cls-3" d="M25.17,11.62s-.05,0-.06-.01h0s0,0,0,0c0-.01-.14-1.18.46-1.88,0,0,.23-.19.31-.43.01-.03.02-.08.03-.13.02-.11.04-.18.08-.19,0,0,0,0,0,0,.03,0,.05.04.08.13.12.33.24,1.02.1,1.56-.11.43-.57.81-.85.93-.06.02-.1.03-.14.03ZM25.12,11.59s.1.01.18-.02c.28-.11.73-.49.84-.91.14-.54.02-1.22-.1-1.55-.04-.1-.06-.11-.06-.11,0,0,0,0,0,0-.02,0-.04.1-.06.17,0,.05-.02.09-.03.13-.09.25-.31.44-.31.44-.58.67-.46,1.78-.46,1.86Z"/>
        </g>
        <g>
          <path class="cls-4" d="M24.97,14.37s.23-.92.67-1.15c.32-.17.75-.71.9-.92.03-.04.06-.08.08-.12.03-.05.09-.13.12.04.04.23-.16,1.53-.37,1.81-.17.22-.67.83-1.41.35Z"/>
          <path class="cls-3" d="M25.52,14.56c-.18,0-.36-.06-.55-.18h0s0-.01,0-.01c0,0,.06-.23.17-.49.1-.24.28-.55.51-.67.32-.17.73-.7.9-.92.03-.03.05-.07.08-.12.03-.05.06-.07.08-.07.03,0,.04.04.06.11.04.23-.17,1.54-.37,1.82-.1.13-.26.33-.49.44-.12.06-.25.09-.38.09ZM24.98,14.36c.5.32.97.21,1.39-.35.21-.27.41-1.57.37-1.8-.01-.07-.03-.09-.04-.09-.02,0-.04.02-.06.06-.03.05-.06.09-.08.12-.17.22-.58.75-.91.92-.41.22-.64,1.05-.67,1.14Z"/>
        </g>
        <g>
          <path class="cls-4" d="M24.78,16.65s.1-.72-.41-1.14c-.35-.29-.71-.4-.9-.43-.09-.02-.18-.06-.25-.12l-.08-.06s-.1-.04-.07.1c.01.06.03.09.05.12.04.05.06.11.08.18.05.22.17.65.3.85.18.28.68.59,1.28.52Z"/>
          <path class="cls-3" d="M24.61,16.67c-.27,0-.49-.07-.64-.14-.21-.1-.39-.24-.48-.39-.13-.2-.24-.62-.3-.85-.02-.07-.04-.13-.07-.17-.02-.03-.04-.07-.05-.12-.01-.05,0-.09.01-.11.03-.02.07,0,.07,0h0s.08.07.08.07c.07.06.16.1.25.12.18.04.55.14.9.44.51.42.41,1.14.41,1.15h0s0,0,0,0c-.06,0-.11,0-.17,0ZM23.11,14.89s-.01,0-.02,0c-.01,0-.02.03,0,.09.01.05.03.09.04.11.03.05.06.11.08.18.06.23.17.65.3.84.19.3.7.58,1.27.52,0-.08.06-.73-.41-1.12-.35-.29-.71-.4-.89-.43-.09-.02-.18-.06-.26-.12l-.08-.06s-.01,0-.03,0Z"/>
        </g>
        <g>
          <path class="cls-4" d="M25.48,19.33s.13-.98.53-1.32c.31-.26.48-.43.96-.55.05-.01.1,0,.09.06l-.05.49c-.04.45-.27.87-.64,1.13-.24.18-.55.29-.9.18Z"/>
          <path class="cls-3" d="M25.76,19.39c-.09,0-.18-.01-.27-.04h0s0,0,0-.01c-.02-.08.15-1,.54-1.33.03-.02.05-.04.08-.06.26-.22.45-.38.89-.49.03,0,.07,0,.09.01.02.01.02.03.02.05l-.05.49c-.04.46-.28.88-.64,1.14-.21.15-.42.23-.64.23ZM25.49,19.33c.3.09.6.03.89-.18.36-.26.59-.67.63-1.13l.05-.49s0-.03-.01-.04c-.01-.01-.04-.02-.07-.01-.43.1-.62.26-.88.48-.02.02-.05.04-.08.06-.39.32-.54,1.23-.53,1.3Z"/>
        </g>
        <path class="cls-4" d="M25.5,20.96s0,0,0,0c-.07,0-.13-.06-.13-.13,0-.01.03-1.4-.42-2.92-.4-1.36-.13-3.92-.12-4.06,0-.1.16-2.49.04-3.27-.01-.07.04-.14.11-.15.07-.01.14.04.15.11.12.82-.03,3.23-.04,3.33,0,0,0,0,0,0,0,.03-.28,2.64.11,3.96.46,1.55.43,2.94.43,3,0,.07-.06.13-.13.13Z"/>
        <g>
          <path class="cls-4" d="M26.69,21.53c-.09.07-.19.12-.29.18-.07.04,0,.14.06.1.1-.06.2-.12.29-.18.06-.04,0-.15-.06-.1h0Z"/>
          <path class="cls-4" d="M26.17,21.32v.66c.12-.02.24-.03.36-.05-.05-.15-.09-.3-.15-.45-.07-.2-.33-.15-.36.05-.03.24-.04.47-.05.71h.36c0-.3,0-.6-.03-.89-.02-.23-.36-.24-.36,0,0,.19-.03.37-.06.55l.36.05c-.02-.28-.05-.56-.12-.84-.05-.19-.37-.16-.36.05.03.33.03.65,0,.98h.36c-.03-.33-.08-.66-.16-.99-.05-.19-.38-.16-.36.05.03.3.03.6,0,.9l.36-.05c-.05-.27-.12-.54-.22-.8-.07-.18-.37-.17-.36.05.03.3.05.6.08.91l.36-.05c-.08-.27-.2-.53-.32-.79-.07-.16-.36-.09-.34.09.03.27.05.53.06.8h.36c-.03-.3-.11-.57-.21-.85-.08-.22-.4-.13-.35.1.07.34.08.68.09,1.02l.36-.05c-.04-.2-.09-.4-.15-.6s-.15-.4-.18-.61c-.03-.23-.34-.23-.36,0s-.05.47-.07.7h.36l-.07-.68-.36.05c.04.15.02.29.03.44.01.13.04.24.09.36.09.21.4.03.31-.18s-.02-.48-.09-.71c-.05-.19-.38-.16-.36.05l.07.68c.02.23.34.23.36,0s.05-.47.07-.7h-.36c.05.45.25.87.34,1.31.04.2.36.15.36-.05-.01-.38-.03-.75-.11-1.12l-.35.1c.09.25.17.49.2.75.02.23.37.24.36,0,0-.27-.03-.53-.06-.8l-.34.09c.11.23.21.46.28.7.06.19.37.16.36-.05l-.08-.91-.36.05c.1.26.17.53.22.8.04.21.34.14.36-.05.03-.3.03-.6,0-.9l-.36.05c.07.29.12.59.15.89.02.23.34.23.36,0,.03-.33.03-.65,0-.98l-.36.05c.06.24.08.49.11.74.02.19.32.26.36.05s.08-.43.08-.64h-.36c.02.3.03.59.03.89,0,.23.36.23.36,0s.02-.48.05-.71l-.36.05c.05.15.1.3.15.45.06.19.36.16.36-.05v-.66c0-.23-.36-.23-.36,0h0Z"/>
          <g>
            <g>
              <path class="cls-4" d="M26.34,21.89l.04-.74s-.01-.02-.02-.01c-.1.09-.53.4-1.34.16-.59-.17-.34-.31-.08-.39.18-.06.37-.08.56-.08.36,0,1.02.03,1.38.26.28.18.13.39-.05.55-.17.15-.37.24-.59.29-.32.06-.91.15-1.72.09-1.26-.09-1.64.57-1.64.57l-1.21,2.14s0,.05.03.05c.45.02,3.49.17,4.32.03.42-.07.66-.19.81-.29s.23-.29.21-.48c0-.1-.03-.23-.08-.37-.11-.3-.11-.52-.11-.59,0-.02,0-.05,0-.07,0-.23.02-1.24.1-1.49"/>
              <path class="cls-3" d="M24.76,24.91c-1.17,0-2.66-.07-3.06-.09-.03,0-.05-.02-.06-.04-.01-.02-.01-.05,0-.08l1.21-2.14s.41-.68,1.68-.59c.81.06,1.42-.03,1.71-.09.02,0,.04,0,.06-.01l.04-.67c-.17.12-.59.34-1.33.13-.27-.08-.39-.16-.39-.25,0-.09.1-.15.31-.22.18-.05.37-.08.57-.08h0c.37,0,1.04.04,1.4.27.11.07.17.15.17.24,0,.08-.02.16-.09.24-.07.29-.09,1.26-.09,1.46,0,.02,0,.05,0,.07,0,.07,0,.28.1.57.05.13.07.26.09.38.02.2-.07.4-.23.52-.19.14-.47.24-.83.3-.26.04-.73.06-1.27.06ZM21.72,24.73c.4.02,3.47.17,4.3.03.34-.06.61-.15.79-.29.14-.1.21-.27.19-.45-.01-.12-.04-.24-.08-.36-.11-.31-.11-.52-.11-.6,0-.02,0-.05,0-.07,0-.24.02-.98.07-1.35,0,0-.02.02-.03.02-.17.15-.38.25-.61.3-.29.06-.9.15-1.73.09-.63-.05-1.04.11-1.26.24-.24.15-.34.3-.34.31l-1.2,2.13ZM26.37,21.09s.02,0,.02,0c.02,0,.03.03.03.05l-.04.7c.16-.05.3-.13.42-.24.04-.04.08-.08.11-.11,0,0,0,0,0,0h0c.05-.07.08-.13.08-.19,0-.07-.05-.13-.13-.18-.35-.22-1-.25-1.36-.25h0c-.19,0-.38.03-.55.08-.25.07-.25.13-.25.14,0,.01.02.08.33.17.78.23,1.19-.06,1.3-.15.01,0,.02-.01.04-.01Z"/>
            </g>
            <rect class="cls-3" x="24.63" y="21.08" width=".08" height=".97" transform="translate(-.45 .53) rotate(-1.21)"/>
          </g>
        </g>
        <g>
          <path class="cls-4" d="M4.62,21.67c.09.07.19.12.29.18.07.04.13-.06.06-.1-.1-.06-.2-.12-.29-.18-.06-.05-.12.06-.06.1h0Z"/>
          <path class="cls-4" d="M4.89,21.31v.69c0,.14.2.17.25.03.05-.16.1-.31.15-.46l-.25-.03c.03.25.04.49.05.74,0,.16.25.16.25,0,0-.31,0-.62.03-.92h-.25c0,.22.04.43.08.65.03.15.23.1.25-.03.02-.26.05-.52.11-.78l-.25-.03c-.03.34-.03.67,0,1.01.02.16.24.16.25,0,.03-.32.08-.63.16-.94l-.25-.03c-.03.31-.03.62,0,.93.01.13.22.18.25.03.05-.28.12-.56.23-.83l-.25-.03-.08.94c-.01.14.21.16.25.03.08-.26.19-.5.3-.74l-.23-.06c-.03.27-.05.55-.06.83,0,.16.24.16.25,0,.02-.28.11-.54.2-.8l-.24-.07c-.08.38-.1.76-.11,1.14,0,.14.22.17.25.03.09-.45.3-.88.35-1.34h-.25c.02.24.05.48.07.72.02.16.23.16.25,0l.07-.7c.01-.14-.21-.17-.25-.03-.07.25,0,.51-.1.75-.06.15.15.27.22.13.12-.27.05-.53.12-.81l-.25-.03-.07.7h.25c-.02-.24-.05-.48-.07-.72-.02-.16-.23-.16-.25,0-.03.23-.12.44-.18.65s-.12.41-.16.62l.25.03c.01-.36.03-.72.1-1.07.03-.16-.19-.22-.24-.07-.1.28-.19.56-.21.86h.25c0-.28.03-.55.06-.83.01-.12-.18-.17-.23-.06-.12.26-.24.52-.33.8l.25.03.08-.94c.01-.15-.2-.15-.25-.03-.1.27-.17.55-.23.83l.25.03c-.03-.31-.03-.62,0-.93.01-.14-.21-.17-.25-.03-.08.33-.14.67-.16,1.01h.25c-.03-.34-.04-.67,0-1.01.01-.14-.21-.17-.25-.03-.07.28-.1.56-.12.85l.25-.03c-.04-.19-.07-.39-.07-.58,0-.16-.24-.16-.25,0-.02.31-.03.61-.03.92h.25c0-.25-.02-.49-.05-.74-.02-.14-.2-.17-.25-.03-.05.15-.1.31-.15.46l.25.03c0-.23,0-.46,0-.69,0-.16-.25-.16-.25,0h0Z"/>
          <g>
            <rect class="cls-3" x="6.21" y="21.55" width=".97" height=".08" transform="translate(-15.04 27.82) rotate(-88.76)"/>
            <g>
              <path class="cls-4" d="M5.03,21.92l-.04-.74s.01-.02.02-.01c.1.09.53.4,1.34.16.59-.17.34-.31.08-.39-.18-.06-.37-.08-.56-.08-.36,0-1.02.03-1.38.26-.28.18-.13.39.05.55.17.15.37.24.59.29.32.06.91.15,1.72.09,1.26-.09,1.64.57,1.64.57l1.21,2.14s0,.05-.03.05c-.45.02-3.49.17-4.32.03-.42-.07-.66-.19-.81-.29s-.23-.29-.21-.48c0-.1.03-.23.08-.37.11-.3.11-.52.11-.59,0-.02,0-.05,0-.07,0-.23-.02-1.24-.1-1.49"/>
              <path class="cls-3" d="M6.61,24.94c-.54,0-1.01-.02-1.27-.06-.36-.06-.63-.16-.83-.3-.16-.12-.25-.32-.23-.52.01-.12.04-.25.09-.38.1-.29.11-.5.1-.57,0-.02,0-.05,0-.07,0-.2-.02-1.17-.09-1.46-.06-.08-.09-.16-.09-.24,0-.09.06-.17.17-.24.36-.23,1.03-.27,1.4-.27h0c.2,0,.39.03.57.08.21.06.31.13.31.22,0,.09-.12.17-.39.25-.73.21-1.16,0-1.33-.13l.04.67s.04,0,.06.01c.29.06.89.15,1.7.09,1.27-.09,1.66.56,1.68.59l1.21,2.14s.01.05,0,.07c-.01.02-.04.04-.06.04-.4.02-1.89.09-3.06.09ZM4.48,21.68c.05.37.07,1.1.07,1.35,0,.02,0,.05,0,.07,0,.08,0,.3-.11.6-.04.12-.07.25-.08.36-.02.18.06.35.19.45.18.13.45.23.79.29.82.13,3.9-.01,4.3-.03l-1.21-2.13s-.39-.63-1.6-.55c-.82.06-1.44-.03-1.73-.09-.23-.05-.44-.15-.61-.3,0,0-.02-.02-.03-.02ZM4.45,21.53s.07.07.11.11c.12.11.27.19.42.24l-.04-.7s.01-.04.03-.05c.02,0,.04,0,.06,0,.11.09.51.38,1.3.15.32-.09.33-.16.33-.17,0,0,0-.07-.25-.14-.17-.05-.36-.08-.55-.08h0c-.36,0-1.01.03-1.36.25-.08.05-.13.11-.13.18,0,.06.02.12.08.19h0s0,0,0,0Z"/>
            </g>
          </g>
        </g>
        <g>
          <path class="cls-4" d="M9.88,25.52s1.61,2.22,5.17,2.53c4.33.38,6.4-2.62,6.4-2.62l1.23.82.52.94c.07.06,0,.21-.06.28-.66.61-2.91,3.06-7.39,3.13-4.31.07-7.15-2.43-7.65-3.18-.5-.76,1.77-1.91,1.77-1.91Z"/>
          <path class="cls-3" d="M15.58,30.66c-2.24,0-4-.7-5.1-1.29-.58-.32-1.14-.69-1.6-1.08-.36-.3-.66-.61-.81-.83-.08-.12-.1-.25-.06-.4.08-.31.42-.66,1-1.06.43-.29.84-.51.85-.51l.03-.02.02.03s.41.56,1.25,1.14c.77.54,2.07,1.21,3.9,1.38,2.23.2,3.84-.52,4.8-1.16,1.04-.69,1.56-1.43,1.57-1.44l.02-.03,1.27.85.52.94s.04.06.04.1c0,.09-.05.18-.1.23-.04.04-.09.09-.15.14-.84.8-3.06,2.93-7.26,3-.06,0-.12,0-.18,0ZM9.87,25.58c-.22.12-1.61.87-1.78,1.5-.03.12-.02.23.05.33.25.37,1.08,1.19,2.38,1.89,1.09.59,2.83,1.28,5.06,1.28.06,0,.12,0,.17,0,4.17-.07,6.38-2.18,7.21-2.98.06-.06.11-.1.15-.15.04-.03.08-.11.08-.17,0-.02,0-.04-.02-.05h0s-.52-.94-.52-.94l-1.19-.8c-.11.15-.63.81-1.56,1.43-.86.57-2.24,1.2-4.1,1.2-.24,0-.49-.01-.75-.03-1.85-.16-3.16-.85-3.94-1.39-.74-.52-1.15-1.01-1.24-1.13Z"/>
        </g>
        <g>
          <path class="cls-3" d="M9.24,23.22c.98,2.46,2.9,3.51,4.45,3.95,1.56.45,3.22.37,4.72-.23,4.3-1.72,4.23-6.46,4.23-6.46v-9.31h-13.98l.04,9.29c0,.94.18,1.88.53,2.76Z"/>
          <path class="cls-4" d="M15.71,27.6c-.69,0-1.39-.1-2.06-.29-1.51-.43-3.53-1.49-4.55-4.04-.35-.88-.53-1.83-.54-2.81l-.04-9.43h14.27v9.45s.01,1.22-.51,2.63c-.48,1.3-1.54,3.05-3.81,3.96-.88.35-1.81.53-2.76.53ZM9.37,23.17c.98,2.44,2.91,3.45,4.36,3.87,1.52.44,3.17.36,4.63-.23.96-.38,1.77-.95,2.42-1.69.52-.59.93-1.3,1.23-2.09.51-1.36.5-2.53.5-2.54v-9.17h-13.7l.04,9.15c0,.94.18,1.85.52,2.7Z"/>
        </g>
        <rect class="cls-4" x="8.85" y="21.86" width="13.59" height=".28"/>
        <rect class="cls-4" x="8.82" y="16.44" width="13.85" height=".28"/>
        <rect class="cls-4" x="9.02" y="11.49" width="13.33" height="4.77"/>
        <path class="cls-3" d="M14.22,12.73h.02c.36,0,.72,0,1.07,0,.01,0,.02,0,.02-.02.11-.34.22-.68.33-1.02,0,0,0,0,0-.01.01.04.03.09.04.13.1.3.2.61.3.91,0,.01,0,.01.02.01.36,0,.72,0,1.08,0h.02s0,0,0,.01c-.29.21-.58.42-.87.63-.01,0-.01.02,0,.03.11.34.22.68.33,1.02,0,0,0,0,0,.01-.03-.02-.06-.05-.1-.07-.26-.19-.52-.38-.79-.57,0,0-.01,0-.02,0-.29.21-.58.42-.87.63,0,0-.01.01-.02.01.06-.2.13-.39.19-.59.05-.15.1-.3.15-.45,0-.01,0-.02,0-.02-.29-.21-.58-.42-.87-.63,0,0,0,0-.02-.01Z"/>
        <path class="cls-3" d="M14.93,15.16h.01c.18,0,.36,0,.54,0,0,0,0,0,.01,0,.06-.17.11-.34.17-.51,0,0,0,0,0,0,0,.02.01.04.02.06.05.15.1.31.15.46,0,0,0,0,0,0,.18,0,.36,0,.54,0h0s0,0,0,0c-.15.11-.29.21-.44.32,0,0,0,0,0,.01.06.17.11.34.17.51,0,0,0,0,0,0-.02-.01-.03-.02-.05-.04-.13-.1-.26-.19-.4-.29,0,0,0,0,0,0-.14.11-.29.21-.44.32,0,0,0,0,0,0,.03-.1.06-.2.1-.3.02-.07.05-.15.07-.22,0,0,0,0,0-.01-.15-.11-.29-.21-.44-.32,0,0,0,0,0,0Z"/>
        <path class="cls-3" d="M17.26,15.16h.01c.18,0,.36,0,.54,0,0,0,0,0,.01,0,.06-.17.11-.34.17-.51,0,0,0,0,0,0,0,.02.01.04.02.06.05.15.1.31.15.46,0,0,0,0,0,0,.18,0,.36,0,.54,0h0s0,0,0,0c-.15.11-.29.21-.44.32,0,0,0,0,0,.01.06.17.11.34.17.51,0,0,0,0,0,0-.02-.01-.03-.02-.05-.04-.13-.1-.26-.19-.4-.29,0,0,0,0,0,0-.14.11-.29.21-.44.32,0,0,0,0,0,0,.03-.1.06-.2.1-.3.02-.07.05-.15.07-.22,0,0,0,0,0-.01-.15-.11-.29-.21-.44-.32,0,0,0,0,0,0Z"/>
        <path class="cls-3" d="M19.64,15.16h.01c.18,0,.36,0,.54,0,0,0,0,0,.01,0,.06-.17.11-.34.17-.51,0,0,0,0,0,0,0,.02.01.04.02.06.05.15.1.31.15.46,0,0,0,0,0,0,.18,0,.36,0,.54,0h0s0,0,0,0c-.15.11-.29.21-.44.32,0,0,0,0,0,.01.06.17.11.34.17.51,0,0,0,0,0,0-.02-.01-.03-.02-.05-.04-.13-.1-.26-.19-.4-.29,0,0,0,0,0,0-.14.11-.29.21-.44.32,0,0,0,0,0,0,.03-.1.06-.2.1-.3.02-.07.05-.15.07-.22,0,0,0,0,0-.01-.15-.11-.29-.21-.44-.32,0,0,0,0,0,0Z"/>
        <path class="cls-3" d="M12.57,15.16h.01c.18,0,.36,0,.54,0,0,0,0,0,.01,0,.06-.17.11-.34.17-.51,0,0,0,0,0,0,0,.02.01.04.02.06.05.15.1.31.15.46,0,0,0,0,0,0,.18,0,.36,0,.54,0h0s0,0,0,0c-.15.11-.29.21-.44.32,0,0,0,0,0,.01.06.17.11.34.17.51,0,0,0,0,0,0-.02-.01-.03-.02-.05-.04-.13-.1-.26-.19-.4-.29,0,0,0,0,0,0-.14.11-.29.21-.44.32,0,0,0,0,0,0,.03-.1.06-.2.1-.3.02-.07.05-.15.07-.22,0,0,0,0,0-.01-.15-.11-.29-.21-.44-.32,0,0,0,0,0,0Z"/>
        <path class="cls-3" d="M10.25,15.16h.01c.18,0,.36,0,.54,0,0,0,0,0,.01,0,.06-.17.11-.34.17-.51,0,0,0,0,0,0,0,.02.01.04.02.06.05.15.1.31.15.46,0,0,0,0,0,0,.18,0,.36,0,.54,0h0s0,0,0,0c-.15.11-.29.21-.44.32,0,0,0,0,0,.01.06.17.11.34.17.51,0,0,0,0,0,0-.02-.01-.03-.02-.05-.04-.13-.1-.26-.19-.4-.29,0,0,0,0,0,0-.14.11-.29.21-.44.32,0,0,0,0,0,0,.03-.1.06-.2.1-.3.02-.07.05-.15.07-.22,0,0,0,0,0-.01-.15-.11-.29-.21-.44-.32,0,0,0,0,0,0Z"/>
        <path class="cls-4" d="M12.39,20.99c-.9,0-1.63-.73-1.63-1.63s.73-1.63,1.63-1.63,1.63.73,1.63,1.63-.73,1.63-1.63,1.63ZM12.39,18.34c-.56,0-1.02.46-1.02,1.02s.46,1.02,1.02,1.02,1.02-.46,1.02-1.02-.46-1.02-1.02-1.02Z"/>
        <rect class="cls-4" x="12.11" y="17.24" width=".62" height=".67"/>
        <rect class="cls-4" x="13.45" y="17.85" width=".62" height=".67" transform="translate(19.26 -3.94) rotate(51.07)"/>
        <rect class="cls-4" x="13.88" y="19.05" width=".62" height=".67" transform="translate(33.57 5.19) rotate(90)"/>
        <rect class="cls-4" x="13.39" y="20.3" width=".62" height=".67" transform="translate(37.47 27.57) rotate(139.82)"/>
        <rect class="cls-4" x="12.1" y="20.84" width=".62" height=".67"/>
        <rect class="cls-4" x="10.77" y="17.76" width=".62" height=".67" transform="translate(31.97 21.73) rotate(131.34)"/>
        <rect class="cls-4" x="10.3" y="19.04" width=".62" height=".67" transform="translate(29.98 8.77) rotate(90)"/>
        <rect class="cls-4" x="10.79" y="20.3" width=".62" height=".67" transform="translate(15.93 -2.29) rotate(40.18)"/>
        <rect class="cls-4" x="15.61" y="16.56" width=".28" height="5.41"/>
        <g>
          <path class="cls-4" d="M19.54,25.97c.06-.1.14-.19.24-.24.06-.03.13-.06.19-.09.02-.03.05-.05.07-.07.03-.03.06-.05.1-.08,0,0,0,0,.01,0,.03-.05.06-.09.1-.12.04-.06.08-.11.14-.15-.22,0-.4.06-.52.11-.2.08-.41.14-.63.17-.29.04-.64.04-.82-.12-.16-.14-.37-.17-.56-.16-.16,0-.32.05-.46.12-.25.11-.89.37-1.23.08-.21-.17-.43-.2-.61-.19-.14.01-.28.06-.41.14-.17.1-.68.35-1.17.01-.61-.41-1.13.01-1.13.01,0,0-.3.27-1.05-.02-.36-.14-.64-.14-.82-.1.01.01.03.03.04.04.01.02.03.03.05.05.1.06.21.12.3.19.14.1.27.21.41.32.04.03.09.06.13.09.08.05.14.11.19.18.07-.04.16-.06.26-.03.27.09.53.23.76.29.18.05.42-.12.51-.19.08-.06.16-.11.26-.12.13-.03.3-.02.5.1.33.19.46.2.5.2.01,0,.03,0,.04,0,.08,0,.32-.03.6-.27.23-.2.54-.02.72.12.23.18.55.19.78,0,0,0,.02-.01.02-.02.33-.28.79-.04.91.04.01,0,.03.02.04.03.06.04.42.26.99-.11.24-.15.42-.2.55-.2Z"/>
          <path class="cls-4" d="M13.2,26.45s-.06,0-.08-.01c-.12-.03-.24-.09-.38-.14-.12-.05-.25-.11-.38-.15-.08-.02-.15-.02-.23.02l-.03.02-.02-.03c-.05-.07-.11-.12-.18-.17-.04-.03-.09-.06-.13-.09-.04-.03-.07-.06-.1-.08-.1-.08-.2-.17-.31-.24-.06-.04-.12-.07-.17-.11-.04-.02-.09-.05-.13-.08h0s-.03-.04-.05-.05c-.01-.01-.02-.02-.04-.04l-.06-.05.08-.02c.25-.05.53-.02.84.1.71.28,1.01.03,1.01.03,0,0,.55-.44,1.17-.02.47.32.95.1,1.13-.01.13-.08.28-.13.42-.14.24-.02.46.04.64.19.33.28.94.04,1.19-.08.15-.07.32-.11.48-.12.25-.02.44.04.58.17.13.12.4.16.79.11.2-.03.41-.08.62-.17.12-.05.31-.11.54-.11h.12s-.09.07-.09.07c-.05.04-.09.09-.13.14h0s-.06.07-.1.12h0s-.02.02-.02.02c-.03.02-.07.05-.1.07-.03.02-.05.04-.07.07h0s0,0,0,0c-.03.01-.05.03-.08.04-.04.02-.07.03-.11.05-.08.05-.16.12-.22.22v.02s-.03,0-.03,0c-.15,0-.33.06-.53.19-.58.37-.96.16-1.03.11-.01,0-.02-.02-.04-.02-.12-.08-.55-.3-.86-.04,0,0-.02.01-.03.02-.24.19-.58.19-.83,0-.16-.12-.46-.31-.67-.12-.28.25-.53.28-.63.28,0,0-.02,0-.03,0h-.01c-.06,0-.2-.02-.52-.21-.16-.09-.32-.12-.47-.09-.08.02-.17.06-.24.12-.08.07-.28.21-.46.21ZM12.27,26.05s.08,0,.11.02c.13.04.26.1.39.15.13.06.25.11.37.14.17.05.4-.13.47-.18.08-.07.18-.11.27-.13.17-.03.35,0,.53.1.33.19.45.2.48.2h0s.02,0,.03,0c.07,0,.3-.03.58-.26.19-.16.46-.12.77.12.22.17.52.17.73,0,0,0,.02-.01.02-.02.35-.29.82-.05.96.04.01,0,.03.02.04.03.06.04.4.24.94-.11.2-.13.39-.2.55-.2.07-.1.15-.18.24-.23.04-.02.08-.04.11-.05.02-.01.05-.02.07-.03.02-.02.05-.05.07-.07.03-.03.07-.06.11-.08,0,0,0,0,0,0,.03-.05.06-.08.09-.12.02-.03.04-.05.06-.08-.17.02-.31.06-.4.1-.21.09-.43.15-.64.17-.41.05-.7.01-.85-.13-.12-.11-.3-.16-.53-.15-.15,0-.3.05-.45.12-.26.12-.91.38-1.28.07-.16-.14-.36-.2-.58-.18-.13.01-.27.06-.39.13-.2.12-.71.35-1.22,0-.58-.39-1.06,0-1.08.01-.01.01-.33.28-1.09-.02-.27-.1-.51-.14-.72-.11,0,0,.02.02.03.03.04.03.08.05.12.07.06.03.12.07.18.11.11.08.21.16.31.24.03.03.07.06.1.08.04.03.09.06.13.09.07.05.13.1.18.16.05-.02.1-.03.15-.03Z"/>
        </g>
        <g>
          <path class="cls-4" d="M9.26,22.29h12.79s-1.14,4.88-6.29,4.8c-5.54-.09-6.5-4.8-6.5-4.8Z"/>
          <path class="cls-3" d="M15.88,27.14s-.08,0-.12,0c-1.27-.02-2.41-.29-3.38-.79-.78-.4-1.44-.96-1.99-1.66-.93-1.18-1.18-2.38-1.18-2.39v-.06s.05,0,.05,0h12.85s-.01.07-.01.07c0,.01-.3,1.24-1.22,2.44-.54.71-1.2,1.27-1.94,1.66-.89.48-1.92.72-3.06.72ZM9.32,22.34c.06.25.35,1.27,1.15,2.29.54.68,1.2,1.23,1.96,1.63.95.5,2.07.76,3.33.78,1.17.02,2.22-.22,3.13-.71.73-.39,1.37-.94,1.91-1.63.8-1.03,1.12-2.08,1.19-2.34h-12.66Z"/>
        </g>
        <polygon class="cls-3" points="20.11 23.98 19.22 22.97 18.36 23.93 17.44 22.97 16.64 23.96 15.83 22.98 14.97 23.94 14.11 22.95 13.26 23.92 12.35 22.99 11.53 23.93 10.66 22.96 9.9 23.81 9.83 23.74 10.66 22.81 11.53 23.78 12.34 22.84 13.25 23.77 14.11 22.8 14.97 23.79 15.84 22.82 16.64 23.8 17.44 22.81 18.36 23.78 19.23 22.81 20.11 23.82 20.97 22.81 21.61 23.48 21.53 23.55 20.98 22.96 20.11 23.98"/>
        <g>
          <path class="cls-3" d="M19.51,25.98s.27-.21.27-.21c0,0,.17-.13.17-.13.02-.03.06-.05.08-.07.03-.03.06-.03.1-.06,0,0,0-.03,0-.03,0,0,.12-.12.12-.12,0,0,.12-.12.16-.16-.22,0-.39.07-.51.12-.2.08-.41.14-.63.17-.3.04-.65.04-.83-.12-.16-.14-.38-.17-.56-.16-.16,0-.32.05-.47.12-.25.11-.89.37-1.24.08-.21-.17-.44-.2-.62-.19-.14.01-.28.06-.41.14-.17.1-.68.35-1.18.01-.62-.41-1.14.01-1.14.01,0,0-.3.27-1.06-.02-.37-.14-.6-.16-.79-.12.02.02.03.04.03.04,0,0,.05.05.07.06,0,0,.27.24.27.24,0,0,.31.24.31.24.04.03.2.14.24.17.08.05.2.13.2.12.07-.04.13-.04.23,0,.27.09.53.23.76.29.18.05.43-.12.51-.19.08-.06.16-.11.26-.12.13-.03.3-.02.5.1.33.19.46.2.5.2.01,0,.03,0,.04,0,.08,0,.32-.03.61-.27.23-.2.55-.02.72.12.23.18.56.19.79,0,0,0,.02-.01.02-.02.34-.28.79-.04.92.04.01,0,.03.02.04.03.06.04.42.26.99-.11.24-.15.38-.19.51-.19Z"/>
          <path class="cls-3" d="M13.17,26.45s-.06,0-.08-.01c-.12-.03-.25-.09-.38-.14-.12-.05-.25-.11-.39-.15-.09-.03-.14-.03-.2,0h0s-.02.01-.2-.1l-.04-.03s-.2-.13-.25-.17h0s-.11-.08-.31-.24c-.18-.16-.25-.22-.28-.24h0q-.07-.07-.08-.07s-.01-.02-.02-.03l-.06-.05.08-.02c.22-.05.48,0,.81.13.72.28,1.02.03,1.02.03,0,0,.55-.44,1.18-.02.47.32.96.1,1.14-.01.14-.08.28-.13.43-.14.24-.02.47.04.65.19.33.28.95.04,1.2-.08.16-.07.32-.11.48-.12.25-.02.45.04.59.17.13.12.41.16.79.11.2-.03.41-.08.62-.17.14-.06.31-.11.53-.12h.1s-.07.07-.07.07c-.03.04-.14.14-.16.16h0s-.03.03-.06.06c-.02.02-.04.04-.05.05,0,.01,0,.04-.02.05-.02.01-.03.02-.05.03-.02,0-.03.01-.04.03,0,0-.02.01-.02.02-.02.01-.04.03-.05.04h0s-.11.11-.17.14h0s-.02.01-.03.03c-.23.19-.24.19-.26.19h0c-.12,0-.24.03-.48.18-.59.37-.97.16-1.04.11-.01,0-.02-.02-.04-.02-.12-.08-.56-.3-.87-.04,0,0-.02.01-.03.02-.24.19-.59.19-.84,0-.16-.12-.46-.31-.67-.12-.29.25-.54.28-.63.28,0,0-.02,0-.03,0h-.01c-.06,0-.2-.02-.53-.21-.16-.09-.32-.12-.47-.09-.08.02-.17.06-.24.12-.09.07-.28.21-.47.21ZM12.21,26.04s.08,0,.13.02c.14.04.27.1.39.15.13.06.26.11.37.14.17.05.41-.13.48-.18.08-.07.18-.11.28-.13.17-.03.36,0,.53.1.33.19.45.2.48.2h.01s.02,0,.03,0c.07,0,.31-.03.58-.26.19-.16.47-.12.78.12.22.17.52.17.74,0,0,0,.02-.01.02-.02.36-.29.83-.05.96.04.01,0,.03.02.04.03.06.04.4.24.95-.11.25-.16.39-.2.52-.2.04-.02.17-.13.21-.17.02-.02.04-.03.05-.03.02-.02.13-.1.15-.12h0s.04-.04.07-.06c0,0,.01-.01.02-.02.02-.02.04-.03.06-.04,0,0,.01,0,.02,0,0-.01,0-.03.02-.04.01-.01.06-.06.09-.08h0s.03-.03.03-.03c.01-.01.05-.05.08-.08-.16.02-.28.06-.39.11-.22.09-.43.15-.64.17-.42.05-.71.01-.86-.13-.12-.11-.3-.16-.53-.15-.15,0-.31.05-.45.12-.27.12-.92.38-1.29.07-.17-.14-.36-.2-.59-.18-.14.01-.27.06-.39.13-.2.12-.71.35-1.23,0-.58-.39-1.07,0-1.09.01-.01.01-.33.28-1.1-.02-.28-.11-.51-.15-.69-.13.02.02.04.04.05.05h.01s.17.16.26.24c.09.07.24.18.29.22h0s.02.01.02.01c.04.03.2.14.24.16l.04.03s.11.07.14.09c.04-.02.07-.03.11-.03Z"/>
        </g>
        <g>
          <g>
            <path class="cls-4" d="M18.36,19.08c.16.04.3.17.35.32.04.11.04.24.03.36s-.01.24.02.36.12.22.24.25c.02,0,.05,0,.06.03,0,.01,0,.03,0,.04v.26c-.16,0-.31-.07-.44-.15-.09-.05-.17-.12-.23-.2-.12-.18-.07-.42-.08-.64,0-.06-.01-.13-.05-.18-.04-.07-.12-.1-.19-.12s-.15-.03-.23-.04c-.19-.04-.36-.16-.47-.31-.03-.04-.05-.08-.06-.12-.01-.05-.02-.1,0-.16.03-.2.18-.39.38-.45.14-.04.3-.03.44-.03.15,0,.31.01.46.05.1.02.2.06.25.17.02.04.01.09-.01.13,0,0-.01.02-.02.02-.02,0-.04,0-.06,0-.05-.03-.1-.07-.15-.06s-.09.08-.06.13c.02.03.06.05.1.06.05.02.1.07.09.13-.01.04-.05.06-.08.06-.06,0-.11-.02-.16-.05-.09-.06-.18-.11-.28-.17-.07-.04-.14-.09-.23-.08-.03,0-.06.02-.08.04-.07.06-.04.15.02.2.04.03.09.05.13.07l.33.11Z"/>
            <path class="cls-4" d="M18.34,19.14c.44.14.29.57.34.91.02.12.07.23.16.31.03.03.08.04.11.06.07.06.05.19.04.28l.06-.06c-.16-.01-.3-.08-.43-.16-.18-.12-.25-.26-.26-.47,0-.19.05-.44-.11-.58-.17-.15-.44-.1-.63-.22-.13-.08-.28-.22-.27-.38s.12-.33.26-.41.31-.07.47-.07.33,0,.49.05c.04.01.09.02.12.05.01.01.06.09.01.11,0,0-.06-.03-.08-.04-.07-.01-.14,0-.17.08-.02.05-.01.1.02.14.01.01.07.04.07.06,0,0-.03.05-.06.05-.03,0-.09-.05-.11-.07-.14-.09-.38-.28-.55-.13-.28.27.36.43.51.48.07.02.11-.09.03-.12l-.18-.06s-.08-.02-.11-.04c-.08-.03-.16,0-.04-.1.09-.07.07-.06.15,0,.04.02.07.04.11.07.06.04.13.09.2.12.08.03.18.05.24-.02.05-.05.05-.13.01-.18s-.19-.14-.02-.08.21-.17.13-.28c-.14-.2-.51-.2-.73-.2-.27,0-.54,0-.74.22-.4.47.1.9.56.99.11.02.22.04.28.14.05.09.04.21.04.31,0,.15,0,.3.06.44.12.26.47.41.75.44.03,0,.06-.03.06-.06,0-.12.05-.29-.06-.37-.05-.04-.08,0-.15-.07-.04-.04-.07-.1-.09-.15-.04-.12-.02-.25-.02-.37,0-.32-.09-.61-.43-.71-.07-.02-.11.09-.03.12Z"/>
          </g>
          <g>
            <path class="cls-4" d="M20.16,19.09c-.16.04-.3.17-.35.32-.04.11-.04.24-.03.36s.01.24-.02.36-.12.22-.24.25c-.02,0-.05,0-.06.03,0,.01,0,.03,0,.04v.26c.16,0,.31-.07.44-.15.09-.05.17-.12.23-.2.12-.18.07-.42.08-.64,0-.06.01-.13.05-.18.04-.07.12-.1.19-.12s.15-.03.23-.04c.19-.04.36-.16.47-.31.03-.04.05-.08.06-.12.01-.05.02-.1,0-.16-.03-.2-.18-.39-.38-.45-.14-.04-.3-.03-.44-.03-.15,0-.31.01-.46.05-.1.02-.2.06-.25.17-.02.04-.01.09.01.13,0,0,.01.02.02.02.02,0,.04,0,.06,0,.05-.03.1-.07.15-.06s.09.08.06.13c-.02.03-.06.05-.1.06-.05.02-.1.07-.09.13.01.04.05.06.08.06.06,0,.11-.02.16-.05.09-.06.18-.11.28-.17.07-.04.14-.09.23-.08.03,0,.06.02.08.04.07.06.04.15-.02.2-.04.03-.09.05-.13.07l-.33.11Z"/>
            <path class="cls-4" d="M20.14,19.03c-.33.1-.44.39-.43.71,0,.11.02.23-.01.34-.02.06-.05.13-.1.18-.04.04-.1.04-.15.07-.12.08-.07.25-.07.38,0,.03.03.06.06.06.24-.02.53-.14.68-.34.08-.09.11-.21.12-.33.01-.16-.06-.44.07-.57.11-.12.33-.09.47-.14.11-.04.21-.1.3-.18.18-.17.25-.38.14-.61s-.33-.35-.58-.37c-.27-.02-.62-.03-.86.1-.11.06-.27.3-.08.38.03.01.05,0,.08,0,.03,0,.12-.08.09,0,0,0-.08.05-.09.06-.03.04-.04.07-.03.12.04.29.46-.01.56-.07,0,0,.09-.06.11-.06.16.06.19.1.1.13-.01,0-.03.01-.04.02-.03.01-.06.02-.1.03l-.23.08c-.07.02-.04.14.03.12.16-.06.62-.13.56-.39-.04-.18-.25-.16-.38-.09-.07.03-.13.08-.19.11-.03.02-.21.15-.22.04,0,0,.11-.08.12-.13,0-.05-.02-.1-.05-.13-.07-.06-.12,0-.18,0h-.03s-.03-.08.01-.1c.02-.03.07-.04.1-.05.05-.02.11-.03.17-.04.17-.03.36-.03.53-.02s.32.05.43.19.15.33.05.48c-.09.12-.22.22-.36.26-.12.04-.25.04-.37.08-.23.09-.23.31-.23.52,0,.2,0,.39-.16.53-.14.12-.34.21-.52.22l.06.06c0-.07-.03-.22.02-.27.02-.02.09-.04.12-.06.1-.08.16-.2.18-.32.05-.34-.09-.77.34-.91.07-.02.04-.14-.03-.12Z"/>
          </g>
          <path class="cls-4" d="M19.03,17.91v2.91s-.27.11-.4.39-.03.31-.03.31c0,0,.32-.32.48-.46,0,0,.04-.04.04.06s.07.43.07.43c0,0,.07.11.13-.03s.05-.46.05-.46c0,0,.16.01.37.3s.11-.16.11-.16c0,0-.02-.2-.35-.41l-.03-2.88h-.44Z"/>
          <path class="cls-4" d="M19.47,18.33l.56-.15c-.05-.84-.42-1.1-.42-1.1,0,0-.24-.35-.65-.01s-.43,1.13-.43,1.13l.51.15"/>
          <path class="cls-2" d="M20.05,17.97c-.79-.32-1.53,0-1.54,0l-.02-.04s.77-.33,1.58,0l-.02.04Z"/>
          <path class="cls-2" d="M20.05,17.57c-.79-.32-1.53,0-1.54,0l-.02-.04s.77-.33,1.58,0l-.02.04Z"/>
          <g>
            <polyline class="cls-4" points="19.47 18.32 19.47 17.83 19.04 17.82 19.04 18.33"/>
            <polygon class="cls-2" points="19.05 18.33 19.03 18.33 19.03 17.81 19.04 17.81 19.48 17.82 19.48 18.32 19.46 18.32 19.46 17.84 19.05 17.83 19.05 18.33"/>
          </g>
        </g>
        <path class="cls-4" d="M19.88,17.62h.31s.18,0,.04-.12-.11-.28-.11-.28c0,0,.06-.14.28-.1s1.33.11,1.73.04.06.38.06.38c0,0-.37.45-.93.5s-.38-.2-.38-.2l-.11.08s-.29.16-.6-.07l-.25-.02-.05-.19Z"/>
        <path class="cls-4" d="M18.67,17.62h-.31s-.18,0-.04-.12.11-.28.11-.28c0,0-.06-.14-.28-.1s-1.33.11-1.73.04-.06.38-.06.38c0,0,.37.45.93.5s.38-.2.38-.2l.11.08s.29.16.6-.07l.25-.02.05-.19Z"/>
        <g>
          <path class="cls-3" d="M5.34,23.23h-.14v-.2h.35v1.15h-.21v-.95Z"/>
          <path class="cls-3" d="M6.07,23.54s-.02-.02-.03-.03c-.01-.01-.02-.03-.03-.05-.01-.02-.02-.04-.03-.06,0-.02-.01-.05-.01-.08,0-.04,0-.08.02-.11.01-.04.03-.07.06-.1.03-.03.06-.05.1-.07.04-.02.08-.03.13-.03s.09,0,.13.03c.04.02.07.04.1.07.03.03.05.06.06.1.01.04.02.08.02.11,0,.03,0,.05-.01.08,0,.02-.02.04-.03.06-.01.02-.02.03-.03.05-.01.01-.02.02-.03.03.01,0,.03.02.05.03.02.01.04.03.06.05.02.02.03.05.05.08.01.03.02.07.02.12,0,.05-.01.1-.03.15-.02.05-.05.08-.08.12-.04.03-.08.06-.12.08s-.09.03-.14.03-.1,0-.14-.03c-.05-.02-.09-.04-.12-.08-.04-.03-.06-.07-.08-.12-.02-.05-.03-.09-.03-.15,0-.05,0-.09.02-.12.01-.03.03-.06.05-.08.02-.02.04-.04.06-.05.02-.01.03-.02.05-.03ZM6.46,23.83s0-.05-.01-.07c0-.02-.02-.04-.04-.06-.02-.02-.03-.03-.06-.04-.02,0-.04-.01-.07-.01s-.05,0-.07.01c-.02,0-.04.02-.06.04s-.03.03-.04.06c0,.02-.01.04-.01.07s0,.05.01.07c0,.02.02.04.04.06.02.02.03.03.06.04.02,0,.04.01.07.01s.05,0,.07-.01c.02,0,.04-.02.06-.04.02-.02.03-.03.04-.06,0-.02.01-.04.01-.07ZM6.4,23.33s-.01-.06-.04-.09c-.02-.02-.05-.04-.09-.04s-.06.01-.09.04c-.02.02-.04.05-.04.09s.01.06.04.09c.02.02.05.04.09.04s.06-.01.09-.04c.02-.02.04-.05.04-.09Z"/>
          <path class="cls-3" d="M7.07,23.44h.04s.04,0,.05,0c.02,0,.03-.01.05-.02.01,0,.02-.02.03-.04,0-.02.01-.03.01-.06,0-.04-.01-.07-.03-.09-.02-.02-.04-.02-.07-.02-.02,0-.03,0-.05.01-.01,0-.02.02-.03.03,0,.01-.01.02-.02.03,0,.01,0,.02,0,.03h-.21c0-.07.02-.12.05-.16.03-.04.05-.07.09-.09.03-.02.06-.03.1-.04.03,0,.06-.01.07-.01.04,0,.09,0,.12.03.04.02.07.04.1.07.03.03.05.06.07.1.02.04.02.08.02.12,0,.03,0,.06-.01.08,0,.02-.02.04-.03.06-.01.02-.02.03-.03.04-.01,0-.02.02-.03.02.05.02.08.04.1.07.02.03.04.06.05.09.01.03.02.06.02.08,0,.02,0,.04,0,.05,0,.06-.01.11-.03.16-.02.05-.05.09-.09.12-.04.03-.08.06-.13.08-.05.02-.1.03-.15.03s-.09,0-.14-.02c-.04-.02-.09-.04-.12-.07-.04-.03-.07-.07-.09-.12-.02-.05-.04-.1-.04-.15h.21s.01.06.02.08c.01.02.03.04.05.05.02.01.04.02.06.03.02,0,.04.01.06.01.02,0,.04,0,.07-.01.02,0,.04-.02.06-.04.02-.02.03-.04.04-.06.01-.02.02-.05.02-.08,0-.02,0-.05-.01-.07,0-.02-.02-.04-.04-.06-.02-.02-.04-.03-.07-.04-.03-.01-.06-.02-.11-.02h-.03v-.2Z"/>
          <path class="cls-3" d="M7.94,23.44h.04s.04,0,.05,0c.02,0,.03-.01.05-.02.01,0,.02-.02.03-.04,0-.02.01-.03.01-.06,0-.04-.01-.07-.03-.09-.02-.02-.04-.02-.07-.02-.02,0-.03,0-.05.01-.01,0-.02.02-.03.03,0,.01-.01.02-.02.03,0,.01,0,.02,0,.03h-.21c0-.07.02-.12.05-.16.03-.04.05-.07.09-.09.03-.02.06-.03.1-.04.03,0,.06-.01.07-.01.04,0,.09,0,.12.03.04.02.07.04.1.07.03.03.05.06.07.1.02.04.02.08.02.12,0,.03,0,.06-.01.08,0,.02-.02.04-.03.06-.01.02-.02.03-.03.04-.01,0-.02.02-.03.02.05.02.08.04.1.07.02.03.04.06.05.09.01.03.02.06.02.08,0,.02,0,.04,0,.05,0,.06-.01.11-.03.16-.02.05-.05.09-.09.12-.04.03-.08.06-.13.08-.05.02-.1.03-.15.03s-.09,0-.14-.02c-.04-.02-.09-.04-.12-.07-.04-.03-.07-.07-.09-.12-.02-.05-.04-.1-.04-.15h.21s.01.06.02.08c.01.02.03.04.05.05.02.01.04.02.06.03.02,0,.04.01.06.01.02,0,.04,0,.07-.01.02,0,.04-.02.06-.04.02-.02.03-.04.04-.06.01-.02.02-.05.02-.08,0-.02,0-.05-.01-.07,0-.02-.02-.04-.04-.06-.02-.02-.04-.03-.07-.04-.03-.01-.06-.02-.11-.02h-.03v-.2Z"/>
        </g>
        <g>
          <path class="cls-3" d="M23.28,23.25h-.15v-.2h.35v1.16h-.21v-.96Z"/>
          <path class="cls-3" d="M24.02,23.56s-.02-.02-.03-.03c-.01-.01-.02-.03-.03-.05-.01-.02-.02-.04-.03-.06,0-.02-.01-.05-.01-.08,0-.04,0-.08.02-.12.01-.04.03-.07.06-.1.03-.03.06-.05.1-.07.04-.02.08-.03.13-.03s.09,0,.13.03c.04.02.07.04.1.07.03.03.05.06.06.1.01.04.02.08.02.12,0,.03,0,.06-.01.08,0,.02-.02.04-.03.06-.01.02-.02.03-.03.05-.01.01-.02.02-.03.03.01,0,.03.02.05.03.02.01.04.03.06.05.02.02.03.05.05.09.01.03.02.07.02.12,0,.05-.01.1-.03.15-.02.05-.05.09-.09.12-.04.03-.08.06-.12.08-.05.02-.1.03-.15.03s-.1,0-.15-.03c-.05-.02-.09-.05-.12-.08-.04-.03-.06-.07-.09-.12-.02-.05-.03-.1-.03-.15,0-.05,0-.09.02-.12.01-.03.03-.06.05-.09.02-.02.04-.04.06-.05.02-.01.03-.02.05-.03ZM24.41,23.86s0-.05-.01-.07c0-.02-.02-.04-.04-.06-.02-.02-.03-.03-.06-.04-.02,0-.04-.01-.07-.01s-.05,0-.07.01c-.02,0-.04.02-.06.04-.02.02-.03.03-.04.06,0,.02-.01.04-.01.07s0,.05.01.07c0,.02.02.04.04.06.02.02.03.03.06.04.02,0,.04.01.07.01s.05,0,.07-.01c.02,0,.04-.02.06-.04.02-.02.03-.03.04-.06,0-.02.01-.04.01-.07ZM24.36,23.35s-.01-.06-.04-.09c-.02-.02-.05-.04-.09-.04s-.06.01-.09.04c-.02.02-.04.05-.04.09s.01.06.04.09c.02.02.05.04.09.04s.06-.01.09-.04c.02-.02.04-.05.04-.09Z"/>
          <path class="cls-3" d="M24.85,24.21l.26-.39s-.02,0-.03,0c0,0-.02,0-.03,0-.04,0-.08,0-.12-.03-.04-.02-.08-.04-.11-.08-.03-.03-.06-.07-.08-.12-.02-.05-.03-.1-.03-.16,0-.06.01-.12.03-.17.02-.05.05-.09.09-.13.04-.04.08-.06.13-.09.05-.02.1-.03.15-.03s.1,0,.15.03c.05.02.09.05.13.08.04.04.07.08.09.13.02.05.03.11.03.17,0,.02,0,.04,0,.07,0,.02-.01.05-.02.08,0,.02-.02.05-.03.07-.01.02-.02.04-.04.06l-.32.49h-.24ZM25.31,23.43s0-.06-.01-.08c0-.03-.02-.05-.04-.07-.02-.02-.04-.03-.06-.04-.02-.01-.05-.02-.08-.02-.03,0-.06,0-.08.02-.02.01-.04.03-.06.05-.02.02-.03.04-.04.06,0,.02-.01.05-.01.07,0,.03,0,.06.01.08,0,.03.02.05.04.06.02.02.04.03.06.04.02.01.05.02.08.02.03,0,.06,0,.08-.02.02-.01.04-.03.06-.05.02-.02.03-.04.04-.06,0-.02.01-.05.01-.07Z"/>
          <path class="cls-3" d="M25.91,23.25h-.15v-.2h.35v1.16h-.21v-.96Z"/>
        </g>
        <g>
          <path class="cls-4" d="M9.68,24.82s.31.48.15.79-1.51.88-1.65,1.59-.22-.72,0-1.19.05-1.13.05-1.13l1.46-.06Z"/>
          <path class="cls-3" d="M8.1,27.44s-.03,0-.04-.02c-.1-.11-.09-1.06.08-1.42.2-.45.05-1.1.05-1.11v-.05s1.52-.07,1.52-.07v.02s.33.51.16.83c-.06.12-.27.26-.54.45-.45.31-1.02.7-1.11,1.14-.04.18-.06.22-.1.23,0,0,0,0-.01,0ZM8.27,24.92c.03.16.12.7-.06,1.11-.15.33-.15,1.09-.1,1.29,0-.03.02-.06.03-.13.1-.47.68-.87,1.14-1.19.25-.17.46-.31.51-.42.13-.25-.08-.64-.13-.73l-1.39.06Z"/>
        </g>
        <g>
          <path class="cls-4" d="M21.66,24.78s-.31.48-.15.79,1.51.88,1.65,1.59.22-.72,0-1.19-.05-1.13-.05-1.13l-1.46-.06Z"/>
          <path class="cls-3" d="M23.24,27.4s0,0-.01,0c-.04,0-.07-.05-.1-.23-.09-.44-.65-.83-1.11-1.14-.27-.18-.48-.33-.54-.45-.17-.33.13-.81.15-.83v-.02s1.55.07,1.55.07v.05s-.17.66.03,1.11c.16.36.17,1.31.08,1.42-.01.01-.03.02-.04.02ZM21.68,24.82c-.05.09-.26.48-.13.73.05.1.27.25.51.42.47.32,1.05.71,1.14,1.19.01.06.02.1.03.13.04-.2.04-.96-.1-1.29-.18-.41-.1-.95-.06-1.11l-1.39-.06Z"/>
        </g>
        <g>
          <path class="cls-2" d="M25.62,24.89s.03.71-.21,1.72"/>
          <path class="cls-4" d="M25.54,26.63l-.25-.06c.23-.97.2-1.67.2-1.68h.26s.03.73-.21,1.74Z"/>
        </g>
        <g>
          <circle class="cls-4" cx="24.46" cy="13.07" r=".85"/>
          <path class="cls-3" d="M24.46,13.93c-.48,0-.86-.39-.86-.86s.39-.86.86-.86.86.39.86.86-.39.86-.86.86ZM24.46,12.23c-.47,0-.84.38-.84.84s.38.84.84.84.84-.38.84-.84-.38-.84-.84-.84Z"/>
        </g>
        <g>
          <circle class="cls-4" cx="25.63" cy="16.37" r=".85"/>
          <path class="cls-3" d="M25.63,17.24c-.48,0-.86-.39-.86-.86s.39-.86.86-.86.86.39.86.86-.39.86-.86.86ZM25.63,15.53c-.47,0-.84.38-.84.84s.38.84.84.84.84-.38.84-.84-.38-.84-.84-.84Z"/>
        </g>
        <g>
          <circle class="cls-4" cx="24.46" cy="19.47" r=".85"/>
          <path class="cls-3" d="M24.46,20.33c-.48,0-.86-.39-.86-.86s.39-.86.86-.86.86.39.86.86-.39.86-.86.86ZM24.46,18.63c-.47,0-.84.38-.84.84s.38.84.84.84.84-.38.84-.84-.38-.84-.84-.84Z"/>
        </g>
        <path class="cls-4" d="M24.89,15.31c.17.08.32.19.35.38.01.09.12.13.2.11.09-.03.13-.11.11-.2-.04-.27-.26-.47-.5-.58-.08-.04-.17-.02-.22.06-.04.07-.02.18.06.22h0Z"/>
        <path class="cls-4" d="M24.85,18.79c.05-.17.17-.3.33-.38.13-.06.02-.25-.11-.19-.21.1-.37.29-.43.51-.04.14.17.2.21.06h0Z"/>
        <path class="cls-4" d="M24.76,12.41c.06-.11.16-.19.29-.22.14-.04.08-.25-.06-.21-.18.05-.33.16-.42.32-.07.12.12.24.19.11h0Z"/>
        <g>
          <path class="cls-3" d="M11.43,27.72c-.1-.04-.14-.04-.19.03-.04.06-.08.11-.17.25-.13.21-.26.42-.39.63-.03-.02-.06-.04-.09-.06-.06-.41-.1-.82-.11-1.22-.09.11-.17.22-.26.34-.1.13-.14.19-.17.24-.04.07-.04.13.08.22-.01.02-.03.04-.04.06-.13-.1-.26-.2-.39-.3.01-.02.03-.04.04-.05.09.06.15.07.21.01.05-.05.09-.1.19-.23.09-.12.18-.23.27-.35.04-.05.06-.08.06-.14,0-.06-.02-.09-.08-.14.01-.02.03-.04.04-.05.09.07.18.14.26.21,0,.35.04.71.09,1.07.06-.09.12-.19.18-.28.09-.14.12-.19.15-.25.04-.07.04-.12-.08-.21.01-.02.03-.04.04-.06.12.08.23.15.35.23-.01.02-.02.04-.04.06Z"/>
          <path class="cls-3" d="M12.1,27.97c.27.13.41.46.28.8-.14.37-.5.5-.84.34-.35-.17-.46-.55-.28-.86.16-.28.5-.44.83-.28ZM12.04,28.03c-.15-.07-.35.03-.51.32-.15.28-.16.58.07.7.16.08.36-.02.5-.34.15-.34.11-.59-.06-.68Z"/>
          <path class="cls-3" d="M13.72,28.65c-.11-.01-.14,0-.25.15-.08.13-.38.53-.62.82-.03-.01-.07-.02-.1-.03-.01-.16-.03-.84-.03-1.05,0-.15-.01-.19-.11-.24,0-.02.02-.04.03-.06.16.06.31.12.47.17,0,.02-.02.04-.02.07-.12-.02-.13,0-.12.08,0,.17,0,.57.02.75.18-.22.34-.45.41-.55.07-.11.07-.14-.06-.2,0-.02.01-.04.02-.07.13.04.25.07.38.1,0,.02-.01.04-.02.07Z"/>
          <path class="cls-3" d="M13.93,29.86s0-.05.01-.07c.12,0,.12-.02.11-.1,0-.06-.02-.15-.04-.22-.11-.02-.23-.04-.34-.07-.03.05-.07.12-.1.17-.06.11-.02.13.12.18,0,.02,0,.05-.01.07-.15-.03-.3-.07-.45-.11,0-.02.01-.04.02-.07.12.02.15,0,.25-.13.2-.28.38-.57.55-.87.03,0,.05,0,.08,0,.04.34.11.69.18,1.01.04.18.06.2.18.23,0,.02,0,.05,0,.07-.18-.02-.36-.05-.54-.08ZM13.94,28.96c-.07.12-.15.24-.22.36.09.02.18.04.28.06-.02-.14-.04-.28-.06-.41Z"/>
          <path class="cls-3" d="M14.9,29.99s0-.05,0-.07c.14,0,.16-.01.17-.17.01-.24.02-.47.04-.71,0-.16,0-.17-.13-.19,0-.02,0-.05,0-.07.17.01.33.02.5.02,0,.02,0,.05,0,.07-.12.01-.14.02-.14.18,0,.24-.01.47-.02.71,0,.15.01.17.15.18,0,.02,0,.05,0,.07-.19,0-.38-.01-.58-.02Z"/>
          <path class="cls-3" d="M16.81,29.41c-.1.03-.11.04-.09.17,0,.05.01.1.02.14,0,.07.02.13.04.18-.09.03-.29.1-.44.11-.44.03-.7-.24-.7-.61,0-.42.29-.63.63-.66.13-.01.28,0,.33,0,.01.08.05.22.07.32-.02,0-.04.01-.06.02-.06-.15-.13-.23-.23-.25-.04-.01-.1-.01-.14,0-.19.02-.33.22-.32.54.01.33.14.59.44.56.04,0,.08-.01.12-.04.03-.02.04-.05.03-.11,0-.05-.01-.11-.02-.16-.01-.13-.04-.14-.19-.15,0-.02,0-.05,0-.07.17-.01.35-.03.52-.06,0,.02,0,.05.01.07Z"/>
          <path class="cls-3" d="M17.9,28.52c-.1.04-.11.08-.1.15.01.06.02.12.06.24.02.08.05.16.07.24.04.15.07.32,0,.45-.06.11-.18.18-.31.21-.12.03-.25.03-.35-.03-.12-.06-.19-.17-.23-.37-.03-.16-.05-.31-.08-.47-.03-.17-.05-.18-.17-.17,0-.02,0-.05-.01-.07.16-.02.33-.06.49-.09,0,.02,0,.05.01.07-.12.04-.13.05-.1.22.03.16.07.32.1.49.04.2.17.32.36.28.22-.05.26-.24.19-.51-.02-.08-.04-.15-.06-.23-.03-.12-.06-.19-.07-.24-.03-.08-.08-.09-.19-.07,0-.02-.01-.04-.02-.07.13-.03.26-.07.39-.11,0,.02.01.04.02.07Z"/>
          <path class="cls-3" d="M18.85,29.41s-.02-.04-.03-.06c.1-.06.1-.08.04-.14-.04-.05-.1-.11-.15-.17-.11.04-.22.08-.33.12,0,.06,0,.14,0,.2,0,.12.05.12.19.09,0,.02.02.04.02.07-.15.05-.29.1-.44.14,0-.02-.01-.04-.02-.07.11-.05.13-.07.14-.24.02-.34.03-.69.02-1.03.02-.01.04-.03.07-.04.21.27.45.53.68.77.13.13.15.14.27.1,0,.02.02.04.03.06-.17.08-.33.15-.5.21ZM18.39,28.63c0,.14,0,.28,0,.42.09-.03.18-.06.27-.1-.09-.11-.18-.22-.26-.32Z"/>
          <path class="cls-3" d="M20.27,28.34c.03.09.06.24.07.31-.04.04-.15.15-.28.22-.45.25-.79.03-.91-.23-.16-.35-.03-.69.31-.88.12-.07.25-.1.29-.12.05.07.14.18.19.24-.02.02-.03.03-.05.05-.11-.11-.19-.14-.28-.13-.04,0-.1.03-.14.05-.21.12-.22.37-.09.63.15.31.42.44.64.31.14-.08.19-.2.16-.43.02,0,.05,0,.07-.01ZM20.08,28.86s-.02.09-.02.1c0,.01.02.02.06.01.12-.02.17,0,.19.05.05.09,0,.22-.18.34-.01-.01-.03-.03-.04-.04.1-.08.13-.13.11-.16-.01-.02-.04-.02-.11-.01-.07,0-.11,0-.13-.04-.02-.03,0-.1.03-.2.02-.01.05-.03.07-.04Z"/>
          <path class="cls-3" d="M20.87,26.87c-.08.08-.07.13-.04.18.03.05.07.1.16.2.05.06.11.12.16.19.1.12.19.26.18.42-.01.13-.1.24-.21.33-.1.08-.22.13-.34.13-.14,0-.25-.07-.36-.24-.09-.13-.18-.26-.27-.39-.1-.14-.12-.14-.23-.09-.01-.02-.03-.04-.04-.06.14-.09.29-.19.42-.29.01.02.03.04.04.06-.09.09-.1.1,0,.24.1.13.19.27.29.4.12.17.29.22.45.1.18-.14.15-.33-.03-.55-.05-.06-.1-.12-.15-.18-.08-.1-.13-.15-.17-.19-.06-.06-.11-.04-.21.02-.01-.02-.03-.04-.04-.05.11-.09.22-.18.32-.27.02.02.03.03.05.05Z"/>
        </g>
        <polygon class="cls-4" points="5.73 24.92 5.73 26.39 6.34 26.68 6.32 24.94 5.73 24.92"/>
        <path class="cls-4" d="M6.22,20.26l.93-1.34c0,.41.39,1.56.49,1.73s.14.04.14.04c0,0-.01-1.54-.23-2.14s-.62-.04-.62-.04l-1.26,1.77.54-.02Z"/>
        <polygon class="cls-4" points="5.67 20.26 6.24 19.46 6.24 18.62 5.62 18.62 5.67 20.26"/>
        <path class="cls-4" d="M5.43,20.85l-.35-1.02s-.19-.29-.54.02-.99,2.29-.99,2.29c0,0-.02.2.1.07s1.13-1.95,1.13-1.95c0,0,.07.44.24.65l.42-.06Z"/>
        <path class="cls-3" d="M4.77,20.28s0,0,0,0c-.02-.13.02-.19.02-.19,0,0,0,0,0,0s0,0,0,0c0,0-.04.07-.02.19,0,0,0,0,0,0,0,0,0,0,0,0Z"/>
        <path class="cls-3" d="M7.15,18.94s0,0,0,0c0-.2-.05-.21-.05-.21,0,0,0,0,0,0s0,0,0,0c0,0,.05.01.06.22,0,0,0,0,0,0h0Z"/>
        <path class="cls-4" d="M5.62,18.6h.62s-.86-2.12-.86-2.12c-.06-.15-.22-.24-.38-.22,0,0-.01,0-.02,0-.18.03-.31.18-.34.36l-.32,2.03s-.01.13.11.07.7-1.21.71-1.5.48,1.37.48,1.37Z"/>
        <path class="cls-3" d="M5.15,17.22s0,0,0,0c-.02-.29-.13-.34-.13-.34,0,0,0,0,0,0,0,0,0,0,0,0,0,0,.12.06.14.35,0,0,0,0,0,0h0Z"/>
        <polygon class="cls-4" points="6.24 18.55 6.25 17.2 5.69 17.19 6.24 18.55"/>
        <path class="cls-4" d="M5.69,17.17h.56s.36-.43.7-1.19c0,0,.09-.12.12.24.02.31.43,1.11.53,1.3.01.02.02.04.03.07.02.04.06.1.08-.03.03-.17-.21-1.84-.37-2.11-.14-.23-.5-.35-.78.14s-.87,1.58-.87,1.58Z"/>
        <path class="cls-3" d="M7,15.96s0,0,0,0c-.05-.16-.11-.19-.11-.19,0,0,0,0,0,0,0,0,0,0,0,0,0,0,.07.03.12.19,0,0,0,0,0,0,0,0,0,0,0,0Z"/>
        <polygon class="cls-4" points="5.69 17.12 5.65 15.63 6.24 15.63 6.25 16.11 5.69 17.12"/>
        <path class="cls-4" d="M5.65,15.6h.6s-1.17-2.42-1.17-2.42c-.03-.07-.08-.12-.15-.16-.11-.06-.28-.07-.49.18-.33.41-.09,1.98-.06,2.17,0,.02.01.04.02.06.03.04.08.07.15-.09.11-.24.49-.88.37-1.46-.01-.06-.02-.09-.02-.1,0-.1.47,1.55.73,1.81Z"/>
        <path class="cls-3" d="M4.93,13.8s0,0,0,0c-.02-.14.02-.21.02-.22,0,0,0,0,0,0,0,0,0,0,0,0,0,0-.04.08-.02.21,0,0,0,0,0,0,0,0,0,0,0,0Z"/>
        <polygon class="cls-4" points="5.66 14.33 5.67 13.99 6.29 14.01 6.26 15.56 5.66 14.33"/>
        <path class="cls-4" d="M5.67,13.95l.62.02s.59-.74.95-1.52c.02-.05.05-.09.1-.12.05-.03.12-.04.13.11,0,.26.14,1.04.51,1.67,0,0,.15.26.1,0s-.2-.93-.18-1.73c0,0,.01-.31-.27-.47s-.52-.07-.61,0c-.31.22-1.26,1.83-1.35,2.05Z"/>
        <path class="cls-3" d="M7.45,12.38s0,0,0,0c0-.1-.04-.15-.06-.17-.03-.02-.05-.03-.05-.03,0,0,0,0,0,0,0,0,0,0,0,0h0s.11,0,.12.21c0,0,0,0,0,0h0Z"/>
        <path class="cls-3" d="M5.78,12.26h0s0,0,0,0c0-.02.17-2.2.12-2.64-.02-.18-.01-.18,0-.18,0,0,.01,0,.03.07.03.13.04.26.04.39,0,.36,0,1.22.05,1.35.06.16.06.28.06.28,0,0,0,0,0,0s0,0,0,0c0,0,0-.11-.06-.28-.05-.13-.05-.99-.05-1.35,0-.13-.01-.27-.04-.39,0-.03-.01-.04-.01-.05,0,.02,0,.06.01.16.04.44-.12,2.62-.12,2.64,0,0,0,0,0,0Z"/>
        <path class="cls-3" d="M15.83,8.21c-.51,0-.91-.77-.91-1.74s.4-1.74.91-1.74.91.77.91,1.74-.4,1.74-.91,1.74ZM15.83,4.82c-.45,0-.82.74-.82,1.65s.37,1.65.82,1.65.82-.74.82-1.65-.37-1.65-.82-1.65Z"/>
        <rect class="cls-3" x="16.23" y="5.54" width=".06" height="2.37" transform="translate(-.06 .14) rotate(-.48)"/>
        <ellipse class="cls-3" cx="16.13" cy="5.38" rx=".1" ry=".35" transform="translate(-.87 5.84) rotate(-19.99)"/>
        <ellipse class="cls-3" cx="16.36" cy="5.56" rx=".35" ry=".1" transform="translate(6.27 19.58) rotate(-73.05)"/>
        <ellipse class="cls-3" cx="15.86" cy="5.89" rx=".1" ry=".35" transform="translate(-1.06 5.78) rotate(-19.99)"/>
        <ellipse class="cls-3" cx="15.85" cy="6.15" rx=".15" ry=".35" transform="translate(1.51 15.3) rotate(-53.74)"/>
        <rect class="cls-3" x="16.14" y="6.27" width=".04" height=".21" transform="translate(1.31 15.4) rotate(-52.82)"/>
        <ellipse class="cls-3" cx="16.47" cy="6.22" rx=".27" ry=".15" transform="translate(-.41 11.22) rotate(-37.2)"/>
        <ellipse class="cls-3" cx="15.65" cy="6.66" rx=".17" ry=".35" transform="translate(-1.32 5.49) rotate(-19.11)"/>
        <ellipse class="cls-3" cx="15.54" cy="6.99" rx=".35" ry=".17" transform="translate(-.34 .8) rotate(-2.92)"/>
        <ellipse class="cls-3" cx="15.95" cy="6.88" rx=".35" ry=".17" transform="translate(-1.4 7.83) rotate(-26.48)"/>
        <ellipse class="cls-3" cx="15.59" cy="7.25" rx=".35" ry=".17" transform="translate(2.39 18.27) rotate(-64.79)"/>
        <ellipse class="cls-3" cx="15.87" cy="7.22" rx=".17" ry=".35" transform="translate(-.95 11.8) rotate(-39.71)"/>
        <path class="cls-3" d="M9.32,8.63s.29-.23.45.11.45.85.45.85l-.36.16-.54-1.13Z"/>
        <path class="cls-3" d="M12.38,8.89l-.27-.96s-.1-.33.25-.41c.16-.03.34,0,.42.23s.28.98.28.98l-.68.17Z"/>
        <path class="cls-3" d="M18.7,8.65l.21-.98s.07-.34.41-.24c.15.04.31.15.27.4s-.21.99-.21.99l-.68-.17Z"/>
        <path class="cls-3" d="M22.19,8.42s-.28-.24-.45.1-.47.84-.47.84l.35.17.57-1.11Z"/>
        <path class="cls-4" d="M9.79,10.13s-.1-.03-.12-.07c-.04-.07-.01-.15.06-.19.06-.03,1.51-.81,3.73-1.22,1.3-.24,2.6-.31,3.85-.19,1.57.15,3.07.58,4.47,1.29.07.04.1.12.06.19-.04.07-.12.1-.19.06-1.37-.69-2.84-1.11-4.37-1.26-1.23-.12-2.5-.05-3.77.18-2.18.4-3.63,1.19-3.65,1.2-.02.01-.04.02-.07.02Z"/>
        <path class="cls-4" d="M10.33,11.22s-.09-.02-.12-.06c-.04-.06-.03-.15.04-.2.05-.03,1.23-.82,3.18-1.25,1.14-.25,2.31-.32,3.48-.2,1.45.14,2.9.58,4.3,1.28.07.04.1.12.06.19s-.12.1-.19.06c-1.36-.69-2.77-1.11-4.19-1.25-1.13-.11-2.27-.05-3.38.19-1.9.41-3.08,1.2-3.1,1.21-.02.02-.05.02-.08.02Z"/>
        <g>
          <polygon class="cls-4" points="10.48 10.98 9.93 9.96 10.4 9.7 10.96 9.47 11.71 9.23 12.26 9.06 12.7 8.94 13.19 8.86 13.68 8.74 14.28 8.66 14.79 8.61 15.12 8.6 15.64 8.58 16.11 8.58 16.63 8.6 17.14 8.62 17.83 8.7 18.56 8.82 19.14 8.95 20.05 9.21 21.08 9.62 21.59 9.9 21.04 10.92 20.71 10.72 20.03 10.44 19.39 10.2 18.75 10.02 18.2 9.88 17.61 9.76 17.02 9.71 16.26 9.6 15.52 9.63 14.89 9.64 14.19 9.74 12.84 9.99 12.27 10.23 11.78 10.38 11.33 10.58 10.48 10.98"/>
          <path class="cls-4" d="M10.45,11.04l-.59-1.11.52-.29.56-.22.75-.24.55-.17.45-.12.49-.08.5-.12.6-.07.51-.06h.34s.51-.03.51-.03h.48s.52.02.52.02l.5.03.69.07.73.12.59.13.91.26,1.04.41.54.3-.59,1.11-.37-.22-.68-.29-.64-.23-.63-.19-.55-.14-.58-.11-.59-.06-.75-.1-.73.03h-.63s-.7.11-.7.11l-1.35.24-.57.24-.48.15-.45.19-.9.42ZM10,9.98l.5.93.81-.38.45-.2.48-.15.58-.24,1.35-.24.71-.1h.63s.74-.04.74-.04h0s.76.1.76.1l.6.06.59.11.55.14.64.19.65.23.69.29.28.17.5-.93-.45-.25-1.03-.41-.9-.26-.58-.13-.73-.12-.69-.07-.5-.03-.52-.02h-.47s-.51.02-.51.02h-.33s-.5.07-.5.07l-.59.07-.49.12-.49.08-.45.12-.55.17-.75.24-.55.22-.42.23Z"/>
        </g>
        <path class="cls-3" d="M10.17,10.02s-.01,0-.02-.01c0,0,0-.02,0-.03.01,0,1.4-.75,3.46-1.13,1.21-.22,2.41-.28,3.58-.17,1.45.14,2.85.54,4.15,1.19,0,0,.01.02,0,.03,0,0-.02.01-.03,0-1.29-.65-2.68-1.05-4.13-1.18-1.16-.11-2.36-.05-3.57.17-2.05.38-3.43,1.12-3.45,1.12,0,0,0,0,0,0Z"/>
        <path class="cls-3" d="M10.56,10.85s-.01,0-.02,0c0,0,0-.02,0-.03,0,0,.29-.19.81-.43.48-.22,1.25-.52,2.22-.73,1.09-.23,2.21-.29,3.32-.18,1.39.14,2.78.55,4.13,1.22,0,0,.01.02,0,.03,0,0-.02.01-.03,0-1.34-.67-2.73-1.08-4.11-1.22-1.11-.11-2.22-.05-3.31.18-.97.2-1.74.51-2.21.73-.51.24-.8.43-.8.43,0,0,0,0-.01,0Z"/>
      </g>
    </g>
  </g>
</svg>