<?xml version="1.0" encoding="UTF-8"?>
<svg id="Layer_2" data-name="Layer 2" xmlns="http://www.w3.org/2000/svg" viewBox="0 0 15.7 15.71">
  <defs>
    <style>
      .cls-1 {
        fill: #fff;
        stroke-width: 0px;
      }
    </style>
  </defs>
  <g id="Camada_1" data-name="Camada 1">
    <path class="cls-1" d="M15.7,14.42c0-.4-.13-.73-.44-1.02-.77-.75-1.55-1.51-2.32-2.27-.36-.36-.7-.73-1.09-1.06-.25-.21-.26-.26-.09-.55.26-.45.49-.92.63-1.42.23-.79.3-1.59.23-2.41-.08-.81-.29-1.57-.67-2.29-.54-1.05-1.32-1.89-2.32-2.51-.68-.42-1.4-.73-2.21-.83-.24-.03-.47-.02-.71-.05-.08,0-.16-.01-.24-.01h0c-.13,0-.22,0-.33.01h-.18c-.44.02-.88.02-1.3.13-1.41.39-2.57,1.17-3.45,2.35C.5,3.45.04,4.52.02,5.74c-.01.61-.05,1.23.07,1.83.24,1.25.84,2.32,1.73,3.21.57.57,1.23,1.02,1.97,1.34,1.18.51,2.4.64,3.66.42.74-.13,1.43-.41,2.08-.79.28-.17.31-.17.55.07.21.21.41.41.62.62.98.98,1.96,1.96,2.94,2.94.13.13.27.26.47.29.29.04.59.05.88,0,.39-.07.67-.27.68-.69,0-.11.02-.23.02-.34v-.11s0-.07,0-.1ZM6.38,10.99c-2.59-.04-4.71-2.13-4.7-4.71,0-2.58,2.12-4.69,4.7-4.69,2.59,0,4.67,2.13,4.7,4.73.03,2.47-2.31,4.71-4.7,4.67Z"/>
  </g>
</svg>