<?xml version="1.0" encoding="UTF-8"?>
<svg id="Layer_2" data-name="Layer 2" xmlns="http://www.w3.org/2000/svg" viewBox="0 0 33.17 34.67">
  <defs>
    <style>
      .cls-1 {
        fill: #ec6229;
        stroke-width: 0px;
      }
    </style>
  </defs>
  <g id="Layer_1-2" data-name="Layer 1">
    <g id="Layer_2-2" data-name="Layer 2">
      <g>
        <path class="cls-1" d="M0,15.98c.27-1.07,1.05-1.65,1.99-2.07.65-.29,1.33-.49,2.03-.63,2.33-.46,4.66-.49,6.99-.02.06,0,.13,0,.3.02-.21-.13-.33-.23-.47-.28-.68-.28-.9-.77-.84-1.5.06-.76,0-1.53.02-2.3,0-.21-.06-.35-.21-.5-1.03-1.05-2.05-2.1-3.07-3.16-.15-.15-.3-.3-.32-.54-.03-.28.07-.49.3-.63.22-.14.45-.14.67,0,.1.07.2.15.28.24,1.11,1.14,2.21,2.29,3.32,3.43.22.22.32.47.32.79-.01.89,0,1.78,0,2.68,0,.18.05.28.21.37.87.52,1.74,1.05,2.6,1.58.18.11.27.11.36-.09.11-.25.4-.43.44-.66.04-.23-.31-.37-.45-.59-.93-1.44-.35-3.23,1.26-3.82.22-.08.22-.2.22-.38V.94c0-.16,0-.32.05-.47.08-.31.32-.47.63-.47s.52.16.59.46c.04.15.05.31.05.47v6.98c0,.23.06.34.29.44,1.62.66,2.07,2.79.86,4.05-.18.19-.2.31,0,.48.09.08.16.19.23.29q.26.41.68.15c.79-.48,1.57-.97,2.37-1.44.16-.1.23-.2.23-.4-.01-.89,0-1.78,0-2.68,0-.3.09-.54.3-.76,1.12-1.15,2.23-2.3,3.35-3.45.09-.09.18-.18.28-.24.28-.17.54-.12.78.09.22.2.26.55.09.8-.07.11-.17.21-.26.31-1.01,1.05-2.02,2.1-3.04,3.14-.14.14-.2.27-.2.47.01.93,0,1.85,0,2.78,0,.38-.14.64-.47.82-.25.14-.5.3-.73.5.48-.07.96-.15,1.44-.21,1.96-.24,3.92-.17,5.85.25,1.12.24,2.2.58,3.1,1.34,1.01.86,1,2.12,0,2.97-.89.75-1.96,1.09-3.07,1.33-2.07.45-4.16.48-6.26.21-.67-.09-1.33-.22-1.98-.44-.06-.02-.13-.04-.2,0,.61.51,1.2,1.02,1.82,1.51.29.23.42.5.41.87-.02.87,0,1.74,0,2.61,0,.2.06.33.2.47,1.02,1.04,2.03,2.08,3.05,3.13.1.1.2.22.27.34.15.27.08.54-.13.74-.21.21-.48.25-.75.1-.12-.06-.22-.16-.31-.26-1.1-1.13-2.2-2.27-3.31-3.39-.22-.22-.32-.47-.32-.78.01-.87,0-1.74,0-2.61,0-.19-.05-.31-.2-.43-.86-.71-1.72-1.42-2.57-2.15-.17-.15-.24-.12-.34.06-.28.48-.29.47.15.84.68.56,1.35,1.13,2.03,1.69.28.22.4.49.4.85v5.25c0,.21.05.38.19.55,1.47,1.76,2.94,3.52,4.4,5.28.46.55.43.86-.12,1.28h-.34c-.32-.04-.52-.26-.7-.48-1.51-1.83-3.03-3.65-4.54-5.47-.19-.23-.27-.48-.27-.78,0-1.61-.01-3.23.01-4.84,0-.43-.07-.77-.46-1-.1-.06-.18-.16-.32-.24.29,1,.39,2,.39,3,0,1.37-.16,2.73-.68,4.02-.23.56-.51,1.08-.96,1.5-.75.71-1.81.71-2.56,0-.45-.42-.74-.94-.96-1.5-.4-1.03-.57-2.1-.64-3.21-.08-1.28.06-2.54.33-3.8-.22.15-.39.33-.58.47-.18.14-.17.33-.17.53v4.94c0,.41-.11.74-.37,1.05-1.49,1.76-2.95,3.53-4.42,5.31-.19.23-.39.47-.72.51h-.34c-.55-.22-.68-.74-.28-1.22,1.02-1.23,2.05-2.46,3.08-3.69.46-.55.92-1.11,1.39-1.66.17-.2.2-.42.2-.66,0-1.65.01-3.3,0-4.94,0-.51.15-.88.55-1.2.67-.53,1.32-1.09,1.98-1.64.09-.07.19-.14.22-.25.04-.15-.05-.26-.15-.35-.12-.1-.21,0-.29.07-.78.64-1.55,1.28-2.32,1.93-.17.15-.21.33-.21.54v2.3c0,.4-.1.72-.36,1.02-.26.29-.53.56-.8.82-.82.79-1.58,1.64-2.38,2.45-.12.12-.24.24-.38.33-.32.2-.67.17-.92-.09-.26-.27-.29-.66-.04-.96.24-.28.48-.57.74-.83.82-.83,1.65-1.63,2.43-2.5.17-.19.25-.38.25-.64v-2.51c0-.29.08-.52.29-.72.57-.51,1.17-.99,1.76-1.48.03-.03.08-.05.07-.05-.48.17-1.02.3-1.56.39-1.79.31-3.58.34-5.39.13-1.16-.14-2.29-.37-3.37-.85-.47-.21-.9-.48-1.28-.82-.4-.36-.62-.82-.66-1.36v-.27l-.05.02Z"/>
        <path class="cls-1" d="M7.61,14.22c1.69.04,3.39.2,4.99.89.32.14.63.31.89.54.36.32.36.63,0,.94-.43.38-.95.61-1.49.78-2.07.66-4.2.77-6.35.54-1.09-.12-2.16-.34-3.17-.79-.32-.14-.63-.31-.88-.55-.33-.31-.34-.58,0-.89.47-.43,1.05-.65,1.64-.84,1.41-.46,2.86-.59,4.37-.62Z"/>
        <path class="cls-1" d="M25.68,14.22c1.67.04,3.37.2,4.97.89.31.13.61.29.87.52.41.36.42.66,0,1.01-.45.37-.98.6-1.53.77-2.09.65-4.23.75-6.39.5-1.05-.12-2.06-.34-3.03-.77-.31-.14-.61-.3-.86-.52-.37-.33-.37-.64,0-.97.47-.4,1.04-.63,1.62-.81,1.4-.45,2.84-.58,4.35-.61h0Z"/>
        <path class="cls-1" d="M18.1,24.93c-.01,1.29-.15,2.56-.72,3.75-.08.17-.19.34-.3.49-.33.44-.63.44-.97,0s-.55-.96-.68-1.49c-.5-2.01-.49-4.02.16-6,.12-.36.29-.71.53-1.01.34-.43.61-.43.95,0,.38.49.58,1.06.74,1.65.22.86.31,1.73.3,2.61h-.01Z"/>
        <path class="cls-1" d="M18.1,16.13c0,.82-.14,1.61-.63,2.31-.53.77-1.2.78-1.74.02-.48-.68-.63-1.45-.65-2.27-.01-.71.11-1.39.42-2.03.23-.45.51-.91,1.07-.92.58,0,.86.46,1.1.93.31.62.43,1.28.42,1.96h0Z"/>
        <path class="cls-1" d="M16.53,11.91c-.68,0-1.24-.58-1.22-1.27.02-.67.58-1.21,1.25-1.2.67,0,1.22.56,1.22,1.23s-.57,1.25-1.25,1.24Z"/>
      </g>
    </g>
  </g>
</svg>