<?xml version="1.0" encoding="UTF-8"?>
<svg id="Layer_2" data-name="Layer 2" xmlns="http://www.w3.org/2000/svg" viewBox="0 0 36.78 28.27">
  <defs>
    <style>
      .cls-1 {
        fill: #000;
      }

      .cls-1, .cls-2, .cls-3, .cls-4 {
        stroke-width: 0px;
      }

      .cls-2 {
        fill: none;
      }

      .cls-3 {
        fill: #f26c33;
      }

      .cls-4 {
        fill: #f36b34;
      }
    </style>
  </defs>
  <g id="Layer_1-2" data-name="Layer 1">
    <g>
      <path class="cls-4" d="M36.5,8.1c-.63-1.05-1.55-1.6-2.77-1.64-.58-.02-1.09.47-1.19,1.05-.08.51.27,1.08.79,1.27.16.06.33.08.49.12.41.1.58.31.62.73.01.14,0,.29,0,.43v13.55c0,.14,0,.29,0,.43-.1,1.36-1.61,2.24-2.83,1.65-.82-.39-1.18-1.06-1.18-1.97,0-6.62,0-13.24,0-19.86,0-.36-.02-.71-.06-1.07C30.17,1.14,28.91.01,27.26.01,19.19.01,11.11.03,3.04,0,1.65,0,0,1.17,0,3.01c.02,7.42,0,14.84.01,22.26,0,.38.02.76.19,1.12.56,1.18,1.45,1.83,2.78,1.83,0,0,0-.02,0-.02.07,0,.14-.01.21-.01h29.14c.07,0,.14,0,.21.01,0,0,0,.02,0,.03.72.01,1.41-.12,2.04-.5,1.25-.75,2.05-1.79,2.19-3.27v-15.2c-.07-.39-.06-.8-.28-1.17ZM28.2,26c-8.26,0-16.52,0-24.79,0-.9,0-1.16-.25-1.16-1.14,0-7.15,0-14.29,0-21.44,0-.14,0-.29.02-.43.05-.37.31-.63.68-.68.15-.02.31-.02.46-.02,7.83,0,15.66,0,23.49,0,.94,0,1.18.25,1.18,1.19,0,6.51,0,13.02,0,19.54,0,1.01,0,2.01.58,2.98h-.47Z"/>
      <path class="cls-1" d="M32.55,28.21s0,.02,0,.03c-.04,0-.08,0-.12,0H2.98s0-.02,0-.02c.07,0,.14-.01.21-.01h29.14c.07,0,.14,0,.21.01Z"/>
      <path class="cls-3" d="M32.55,28.21s0,.02,0,.03c0,.01,0,.02,0,.03H2.98s0-.02,0-.04c0,0,0-.02,0-.02.07,0,.14-.01.21-.01h29.14c.07,0,.14,0,.21.01Z"/>
      <path class="cls-2" d="M28.09,23.01c0-6.51,0-13.02,0-19.54,0-.94-.25-1.19-1.18-1.19-7.83,0-15.66,0-23.49,0-.16,0-.31,0-.46.02-.37.05-.63.32-.68.68-.02.14-.02.29-.02.43,0,7.15,0,14.29,0,21.44,0,.89.26,1.14,1.16,1.14,8.26,0,16.52,0,24.79,0h.47c-.57-.98-.58-1.97-.58-2.98ZM15.13,9.98c.21-.46.59-.66,1.09-.66,1.22,0,2.44,0,3.66,0,1.06,0,2.13,0,3.19.01.53.01.95.43,1.01.94.06.53-.24,1.01-.73,1.18-.18.06-.38.06-.57.06-1.08,0-2.15,0-3.23,0-1.12,0-2.25.01-3.37,0-.85-.01-1.38-.8-1.05-1.53ZM7.01,9.37c.17-.06.35-.05.53-.05.93,0,1.86-.01,2.8,0,.26,0,.32-.08.31-.32-.01-1.02-.01-2.03,0-3.05,0-.46.34-.86.76-.98.45-.13.93.03,1.21.41.15.2.21.43.21.67,0,1.44,0,2.89,0,4.34,0,.69-.44,1.11-1.13,1.12-.73.01-1.46,0-2.19,0h0c-.75,0-1.51,0-2.26-.02-.54-.02-.93-.43-.99-.96-.06-.53.24-1,.74-1.17ZM7.64,14.79c1.33-.01,2.65,0,3.98,0h3.66c2.52,0,5.05,0,7.57,0,.69,0,1.18.39,1.24.99.05.58-.32,1.08-.9,1.19-.13.03-.26.03-.39.03-5.01,0-10.02,0-15.03,0-.67,0-1.11-.28-1.25-.8-.21-.74.32-1.4,1.13-1.41ZM24.07,21.55c-.08.51-.5.9-1.04.91-1.08.01-2.15,0-3.23,0-1.52,0-3.04,0-4.55,0-2.53,0-5.07,0-7.6,0-.78,0-1.28-.57-1.16-1.29.08-.46.44-.82.91-.88.14-.02.29-.02.43-.02,4.97,0,9.94,0,14.92,0,.21,0,.43,0,.64.07.49.19.78.68.7,1.2Z"/>
      <path class="cls-4" d="M23.18,16.97c-.13.03-.26.03-.39.03-5.01,0-10.02,0-15.03,0-.67,0-1.11-.28-1.25-.8-.21-.74.32-1.4,1.13-1.41,1.33-.01,2.65,0,3.98,0h3.66c2.52,0,5.05,0,7.57,0,.69,0,1.18.39,1.24.99.05.58-.32,1.08-.9,1.19Z"/>
      <path class="cls-4" d="M24.07,21.55c-.08.51-.5.9-1.04.91-1.08.01-2.15,0-3.23,0-1.52,0-3.04,0-4.55,0-2.53,0-5.07,0-7.6,0-.78,0-1.28-.57-1.16-1.29.08-.46.44-.82.91-.88.14-.02.29-.02.43-.02,4.97,0,9.94,0,14.92,0,.21,0,.43,0,.64.07.49.19.78.68.7,1.2Z"/>
      <path class="cls-4" d="M12.83,10.39c0,.69-.44,1.11-1.13,1.12-.73.01-1.46,0-2.19,0h0c-.75,0-1.51,0-2.26-.02-.54-.02-.93-.43-.99-.96-.06-.53.24-1,.74-1.17.17-.06.35-.05.53-.05.93,0,1.86-.01,2.8,0,.26,0,.32-.08.31-.32-.01-1.02-.01-2.03,0-3.05,0-.46.34-.86.76-.98.45-.13.93.03,1.21.41.15.2.21.43.21.67,0,1.44,0,2.89,0,4.34Z"/>
      <path class="cls-4" d="M23.34,11.45c-.18.06-.38.06-.57.06-1.08,0-2.15,0-3.23,0-1.12,0-2.25.01-3.37,0-.85-.01-1.38-.8-1.05-1.53.21-.46.59-.66,1.09-.66,1.22,0,2.44,0,3.66,0,1.06,0,2.13,0,3.19.01.53.01.95.43,1.01.94.06.53-.24,1.01-.73,1.18Z"/>
    </g>
  </g>
</svg>