<?xml version="1.0" encoding="UTF-8"?>
<svg id="Layer_2" data-name="Layer 2" xmlns="http://www.w3.org/2000/svg" viewBox="0 0 24.31 24.3">
  <defs>
    <style>
      .cls-1 {
        fill: #010101;
      }

      .cls-1, .cls-2, .cls-3, .cls-4, .cls-5 {
        stroke-width: 0px;
      }

      .cls-2 {
        fill: #626161;
      }

      .cls-3 {
        fill: #8c8c8d;
      }

      .cls-4 {
        fill: #fff;
      }

      .cls-5 {
        fill: #464545;
      }
    </style>
  </defs>
  <g id="Layer_1-2" data-name="Layer 1">
    <g id="Layer_2-2" data-name="Layer 2">
      <g>
        <path class="cls-1" d="M12.87.03h-.13c-.06,0-.12.02-.18-.02.05.07.12.04.19.04h.1s.08.02.09-.04c-.02.02-.05.02-.08.02h0ZM11.54.03h-.11s-.07,0-.09-.02c0,.06.05.04.09.04h.1c.07,0,.14.03.19-.04-.05.05-.12.02-.18.02h0ZM.05,11.53v-.1s.02-.08-.04-.09c.03.03.02.06.02.09v.11c0,.06.02.12-.02.18.07-.05.04-.12.04-.19ZM.01,12.57c.05.05.02.12.02.18v.11H.03s0,.07-.02.09c.06,0,.05-.05.04-.09v-.1c0-.07.03-.14-.04-.19Z"/>
        <path class="cls-4" d="M24.28,11.3c-.04-1.31-.36-2.56-.85-3.77-.77-1.88-1.94-3.47-3.5-4.76-1.66-1.38-3.55-2.25-5.67-2.64-.4-.07-.81-.07-1.22-.12h-.1c0,.06-.05.05-.09.04h-.1c-.07,0-.14.03-.19-.04h-.85c-.05.07-.12.04-.19.04h-.1s-.08.02-.09-.04h-.14c-.25.04-.5.03-.75.06-1.56.21-3.02.73-4.39,1.51-1.27.72-2.37,1.66-3.3,2.78C1.38,6.02.5,7.91.12,10.03c-.07.37-.07.75-.12,1.12v.19c.06,0,.04.05.04.09v.1c0,.07.03.14-.04.19v.85c.07.05.04.12.04.19v.1s.02.08-.04.09v.19c.05.23.03.47.06.7.13,1.01.4,1.98.79,2.92.77,1.87,1.94,3.46,3.5,4.77,1.02.86,2.16,1.51,3.4,1.99,1.16.45,2.35.73,3.6.77,1.31.04,2.6,0,3.88-.33,2.4-.65,4.44-1.89,6.08-3.76,1.44-1.63,2.36-3.52,2.8-5.65.22-1.08.21-2.16.18-3.25h0ZM18.32,12.88c-.25.41-.63.6-1.11.6h-3.6c-.19,0-.25.04-.25.24,0,.63,0,1.26,0,2.03-.02.57.04,1.27-.03,1.97-.06.62-.58,1.07-1.2,1.08-.62,0-1.14-.44-1.23-1.05-.03-.2-.02-.41-.02-.61v-3.44c0-.18-.04-.22-.22-.22-1.2,0-2.4.02-3.6,0-.97,0-1.54-1.05-1.03-1.87.25-.41.63-.6,1.11-.6h3.51c.18,0,.24-.04.24-.23v-3.29c0-.7.41-1.22,1.01-1.32.81-.14,1.46.44,1.47,1.31v3.29c0,.2.06.24.25.24,1.22,0,2.45-.02,3.67,0,.97,0,1.54,1.05,1.04,1.87h-.01Z"/>
        <path class="cls-5" d="M11.72.01c-.05.07-.12.04-.19.04,0,0,0,0-.02-.02h0s0,0,.02,0h.19Z"/>
        <path class="cls-5" d="M12.78.03h0s0,0,0,0c-.07,0-.14.03-.19-.04h.19l.02.02h-.01Z"/>
        <path class="cls-5" d="M.01,11.72v-.19l.02-.02s0,0,.02,0c0,.07.03.14-.04.19h0Z"/>
        <path class="cls-5" d="M.05,12.76s0,0-.02,0c0,0-.02,0-.02-.02v-.19c.07.05.04.12.04.19h0Z"/>
        <path class="cls-3" d="M11.45.03h0s0,0-.02,0c-.04,0-.08.02-.09-.04h.09l.02.02h0Z"/>
        <path class="cls-2" d="M11.53.01v.04h-.1V.01h.1Z"/>
        <path class="cls-2" d="M12.87.03h0s0,0,0,0h-.1v-.04h.09l.02.02h0Z"/>
        <path class="cls-3" d="M12.95.01c0,.06-.05.05-.09.04V.01h.1-.01Z"/>
        <path class="cls-3" d="M.05,11.43s0,.02-.02.02c0,0-.02,0-.02-.02v-.1c.06,0,.04.05.04.09h0Z"/>
        <path class="cls-2" d="M.05,11.53H.01v-.09h.04v.1H.05Z"/>
        <path class="cls-2" d="M.05,12.76v.1s0,0-.02,0c0,0-.02,0-.02-.02v-.1h.04Z"/>
        <path class="cls-3" d="M.01,12.95v-.1h.04s.02.08-.04.09h0Z"/>
      </g>
    </g>
  </g>
</svg>