<?xml version="1.0" encoding="UTF-8"?>
<svg id="Layer_2" data-name="Layer 2" xmlns="http://www.w3.org/2000/svg" viewBox="0 0 24.53 24.53">
  <defs>
    <style>
      .cls-1 {
        fill: #fff;
        stroke-width: 0px;
      }
    </style>
  </defs>
  <g id="Layer_1-2" data-name="Layer 1">
    <g id="Layer_2-2" data-name="Layer 2">
      <path class="cls-1" d="M24.53,11.38c-.05-.09-.02-.19-.02-.28-.02-.23-.04-.46-.25-.61-.17-.12-.36-.21-.57-.22-.21,0-.41-.05-.61-.09-1.47-.3-2.39-1.87-1.96-3.3.15-.5.45-.89.78-1.27.25-.29.27-.66.05-.95-.55-.72-1.19-1.35-1.89-1.93-.38-.31-.76-.28-1.12.05-.04.04-.08.08-.12.12-.79.74-2.1.92-3.03.41-.96-.53-1.41-1.37-1.42-2.44,0-.5-.31-.83-.88-.85-.79-.03-1.58-.03-2.37,0-.48.02-.75.25-.83.72-.02.12-.03.24-.04.36-.04,1.18-1.02,2.26-2.2,2.39-.9.11-1.68-.16-2.35-.78-.39-.36-.73-.36-1.15-.03-.64.5-1.2,1.08-1.72,1.69-.43.5-.43.87.04,1.34,1.23,1.23.95,3.59-1,4.28-.38.14-.78.16-1.17.21-.24.03-.43.13-.54.34-.1.19-.12.39-.13.6C-.01,11.89,0,12.64.03,13.39c.02.47.16.68.6.84.15.05.3.06.45.06,1.49.05,2.69,1.52,2.46,3-.1.65-.42,1.16-.84,1.63-.3.34-.3.69-.02,1.04.51.64,1.08,1.21,1.7,1.75.52.45.85.43,1.35-.03,1.45-1.31,3.71-.81,4.34,1.12.11.32.13.66.14.99.02.41.26.66.67.7.13.01.27,0,.4.04h.24c.06-.05.13-.02.19-.02h.02c.06,0,.12-.02.17.02h.86c.06-.04.13-.04.19,0h.19c.06-.05.14-.02.21-.02.63,0,.84-.19.94-.81,0-.07,0-.14.02-.21.06-1.44,1.38-2.75,3.14-2.4.56.11,1.02.39,1.44.77.35.32.71.32,1.08.04.68-.53,1.28-1.15,1.84-1.81.34-.4.32-.81-.06-1.19-.54-.54-.8-1.19-.79-1.96.02-1.03.52-1.75,1.38-2.25.45-.26.95-.32,1.45-.34.4,0,.66-.28.7-.67,0-.15,0-.3.04-.45v-.29s-.02-.1-.02-.14c0-.05-.02-.1.02-.14v-.77s-.02-.08-.02-.11v-.15s0-.08.02-.11v-.14h0ZM18.35,15.88c-.07,0-.1-.07-.14-.11-.94-.94-1.87-1.88-2.81-2.81-.12-.12-.12-.2-.07-.35,1.03-2.82-1.03-5.79-4.03-5.82-.38,0-.76.05-1.14.14-.41.11-.52.53-.21.85.61.63,1.23,1.25,1.86,1.86.15.15.2.31.18.51-.06.42-.11.84-.19,1.25-.03.15-.1.22-.25.25-.41.08-.82.13-1.23.19-.23.04-.39-.04-.55-.2-.59-.6-1.19-1.18-1.78-1.78-.16-.16-.33-.31-.58-.23s-.31.29-.36.51c-.47,2.07.63,4.12,2.47,4.92,1.06.46,2.15.49,3.24.1.09-.03.17-.11.28,0,1.01,1.01,2.02,2.02,3.05,3.05-2.98,1.93-7.05,1.28-9.28-1.48-2.29-2.83-2.08-6.93.49-9.47,2.58-2.56,6.68-2.76,9.47-.46,2.85,2.35,3.28,6.29,1.59,9.05v.03Z"/>
    </g>
  </g>
</svg>