<?xml version="1.0" encoding="UTF-8"?>
<svg id="Layer_2" data-name="Layer 2" xmlns="http://www.w3.org/2000/svg" viewBox="0 0 33.02 25.33">
  <defs>
    <style>
      .cls-1 {
        fill: none;
      }

      .cls-1, .cls-2 {
        stroke-width: 0px;
      }

      .cls-2 {
        fill: #fff;
      }
    </style>
  </defs>
  <g id="Layer_1-2" data-name="Layer 1">
    <g>
      <path class="cls-2" d="M33.01,8.51c0-.63-.16-1.21-.58-1.69-.54-.62-1.21-.97-2.04-1.03-.59-.04-1.1.34-1.21.93-.09.5.28,1.04.81,1.19.12.04.25.05.38.08.31.09.47.27.5.59.02.14.01.28.01.42v12.16c0,.14,0,.28,0,.42-.11,1.28-1.55,2.04-2.67,1.41-.66-.38-.93-.96-.93-1.71,0-5.95,0-11.91,0-17.86,0-.37-.03-.73-.08-1.09C27.01,1.03,25.86,0,24.55,0,17.22,0,9.89,0,2.56,0,2.19,0,1.83.08,1.5.26.61.72.07,1.42,0,2.45v20.47c.08.25.04.52.16.77.53,1.08,1.37,1.66,2.6,1.64h26.39c2.07.15,3.88-1.78,3.87-3.65-.02-4.39,0-8.77,0-13.16ZM25.64,23.32h-.32c-7.44,0-14.88,0-22.32,0-.27,0-.54,0-.76-.19-.21-.19-.26-.43-.26-.7,0-1.21,0-2.42,0-3.64V3.06c0-.79.23-1.02,1.01-1.02h21.16c.79,0,1.03.24,1.03,1.04,0,5.98,0,11.97,0,17.95,0,.76.08,1.49.45,2.18.01.02,0,.06,0,.12Z"/>
      <path class="cls-1" d="M25.63,23.2c-.37-.68-.45-1.41-.45-2.18,0-5.98,0-11.97,0-17.95,0-.8-.24-1.04-1.03-1.04H2.99c-.78,0-1.01.24-1.01,1.02v15.73c0,1.21,0,2.42,0,3.64,0,.27.05.51.26.7.22.2.49.19.76.19,7.44,0,14.88,0,22.32,0h.32c0-.06,0-.09,0-.12ZM6.26,8.4c.16-.05.32-.05.48-.05.83,0,1.65-.01,2.48,0,.27,0,.32-.08.31-.32-.01-.9-.01-1.8,0-2.7,0-.43.32-.79.71-.89.42-.11.86.06,1.09.42.13.2.15.42.15.65,0,.62,0,1.24,0,1.87h0c0,.64.01,1.29,0,1.93-.01.61-.38,1-.98,1-1.32.01-2.64.01-3.96,0-.51,0-.89-.36-.95-.83-.07-.49.2-.92.67-1.08ZM20.71,20.15c-.36.02-.73.01-1.09.01h-5.92c-2.29,0-4.57,0-6.86,0-.71,0-1.16-.5-1.05-1.15.07-.42.39-.74.81-.8.15-.02.3-.02.45-.02,4.42,0,8.84,0,13.26,0,.15,0,.3,0,.45.02.49.07.83.49.82.99,0,.49-.38.91-.87.95ZM20.58,15.24c-.53.01-1.07,0-1.61,0h-5.28c-2.26,0-4.53,0-6.79,0-.68,0-1.14-.41-1.13-1,0-.49.37-.89.87-.97.09-.01.19-.01.29-.01h13.52c.65,0,1.09.35,1.14.89.05.6-.37,1.07-1,1.09ZM20.95,10.25c-.09.03-.19.06-.28.06-2.1,0-4.21.01-6.31,0-.48,0-.85-.39-.89-.86-.05-.47.22-.89.67-1.05.16-.05.32-.05.48-.05.97,0,1.93,0,2.9,0h0c1.04,0,2.08,0,3.12,0,.49,0,.87.36.94.81.07.47-.18.91-.62,1.08Z"/>
      <path class="cls-2" d="M20.58,15.24c-.53.01-1.07,0-1.61,0h-5.28c-2.26,0-4.53,0-6.79,0-.68,0-1.14-.41-1.13-1,0-.49.37-.89.87-.97.09-.01.19-.01.29-.01h13.52c.65,0,1.09.35,1.14.89.05.6-.37,1.07-1,1.09Z"/>
      <path class="cls-2" d="M21.58,19.2c0,.49-.38.91-.87.95-.36.02-.73.01-1.09.01h-5.92c-2.29,0-4.57,0-6.86,0-.71,0-1.16-.5-1.05-1.15.07-.42.39-.74.81-.8.15-.02.3-.02.45-.02,4.42,0,8.84,0,13.26,0,.15,0,.3,0,.45.02.49.07.83.49.82.99Z"/>
      <path class="cls-2" d="M11.48,9.31c-.01.61-.38,1-.98,1-1.32.01-2.64.01-3.96,0-.51,0-.89-.36-.95-.83-.07-.49.2-.92.67-1.08.16-.05.32-.05.48-.05.83,0,1.65-.01,2.48,0,.27,0,.32-.08.31-.32-.01-.9-.01-1.8,0-2.7,0-.43.32-.79.71-.89.42-.11.86.06,1.09.42.13.2.15.42.15.65,0,.62,0,1.24,0,1.87h0c0,.64.01,1.29,0,1.93Z"/>
      <path class="cls-2" d="M20.95,10.25c-.09.03-.19.06-.28.06-2.1,0-4.21.01-6.31,0-.48,0-.85-.39-.89-.86-.05-.47.22-.89.67-1.05.16-.05.32-.05.48-.05.97,0,1.93,0,2.9,0h0c1.04,0,2.08,0,3.12,0,.49,0,.87.36.94.81.07.47-.18.91-.62,1.08Z"/>
    </g>
  </g>
</svg>