<?xml version="1.0" encoding="UTF-8"?>
<svg id="Layer_2" data-name="Layer 2" xmlns="http://www.w3.org/2000/svg" viewBox="0 0 32.97 32.96">
  <defs>
    <style>
      .cls-1 {
        fill: #fff;
        stroke-width: 0px;
      }
    </style>
  </defs>
  <g id="Layer_1-2" data-name="Layer 1">
    <g>
      <g>
        <path class="cls-1" d="M30.71,8.35h-2.56c.03-.12.05-.21.07-.3.22-.87.18-1.72-.15-2.56-.13-.32-.37-.44-.64-.34-.25.1-.34.35-.25.65.01.04.03.08.04.12.3.85.25,1.69-.16,2.5-.28.56-.1.86.53.86,1.07,0,2.14,0,3.21,0,.67,0,.84.17.84.83v13.02c0,.09,0,.19,0,.28-.03.25-.17.42-.4.51-.15.06-.23.04-.22-.16.01-.32,0-.65,0-.97,0-1.31-1.11-2.13-2.35-1.73-.21.07-.22,0-.22-.16,0-1.01,0-2.01,0-3.02,0-.18,0-.36-.04-.53-.19-.87-1.17-1.68-2.39-1.16-.16-.72-.56-1.24-1.3-1.42-.74-.17-1.34.08-1.78.69-.03.04-.07.12-.11.09-.19-.16-.49-.12-.61-.43-.8-2.01-2.92-3.02-4.99-2.37-.2.06-.27.06-.27-.18.01-1.02.01-2.03,0-3.05,0-.22.07-.25.27-.25,1.26,0,2.52,0,3.77,0,.64,0,.81-.3.53-.88-.49-1.02-.47-2.03.11-3,.87-1.47,2.72-1.94,4.22-1.1.16.09.31.19.5.14.2-.06.33-.19.35-.4.03-.26-.12-.4-.32-.52-1.38-.84-3.17-.75-4.49.23-1.34,1-1.94,2.69-1.5,4.3.08.27.02.31-.24.3-1.53,0-3.06-.01-4.59,0-.28,0-.36-.07-.34-.35.09-1.4-.5-2.43-1.71-3.14-.68-.4-1.18-1-1.54-1.7-.08-.16-.12-.33-.12-.51,0-.57,0-1.13,0-1.7,0-.41-.17-.58-.57-.58-2.34,0-4.68,0-7.01,0-.38,0-.55.17-.55.56,0,.13,0,.25,0,.38.09,1-.04,1.96-.52,2.85-.04.08-.07.17-.11.26-.11.32-.01.57.25.67.27.1.49-.02.63-.35.15-.36.29-.72.43-1.08.05-.12.1-.21.26-.21,2.08,0,4.15,0,6.23,0,.12,0,.19.03.25.14.49.97,1.24,1.7,2.17,2.26.55.33.91.85.95,1.48.05.99.03,1.99.01,2.99,0,.39-.37.69-.76.7-.39.02-.74-.25-.81-.64-.02-.12-.03-.25-.03-.38,0-.56,0-1.11,0-1.67,0-.32-.17-.49-.44-.5-.28-.01-.47.17-.49.49,0,.08,0,.17,0,.25,0,2.11,0,4.21,0,6.32,0,.14,0,.27-.02.41-.04.27-.19.46-.44.58-.51.24-1.03-.14-1.03-.75,0-1.31,0-2.62,0-3.93,0-.12,0-.25-.04-.37-.07-.23-.25-.34-.48-.32-.23.02-.39.15-.42.4-.01.1,0,.21,0,.31,0,1.68,0,3.35,0,5.03,0,.63-.28,1-.75,1-.48,0-.75-.35-.75-.99,0-1.73,0-3.46,0-5.19,0-.36-.19-.58-.48-.57-.28,0-.46.22-.46.56,0,.67,0,1.34,0,2.01,0,.93,0,1.87,0,2.8,0,.59-.5.96-1.01.77-.31-.11-.48-.39-.49-.8,0-1.65,0-3.29,0-4.94,0-.09,0-.19,0-.28-.03-.25-.19-.4-.44-.42-.25-.02-.42.12-.49.36-.03.1-.02.21-.02.31,0,1.31,0,2.62,0,3.93,0,.5-.3.83-.74.83-.43,0-.75-.32-.75-.8,0-1.61-.04-3.23.02-4.84.04-1.02.17-2.02.39-3.02,0-.01,0-.02,0-.03.06-.36-.06-.6-.35-.67-.27-.06-.51.12-.58.48-.09.46-.17.93-.25,1.39-.02.12-.05.17-.19.18-1.1.11-1.59.66-1.59,1.77,0,4.34.02,8.68-.01,13.02,0,.98.65,1.84,1.8,1.78.89-.04,1.78,0,2.71,0-.31.93-.35,1.85-.04,2.76.32.93.89,1.66,1.74,2.15,1.48.85,2.99.83,4.38-.15,1.66-1.17,2.09-2.82,1.53-4.76,1.77,0,3.53,0,5.29,0,.18,0,.2.09.22.23.18,1.18.42,2.36.92,3.45.5,1.09.68,2.2.59,3.37-.02.28.09.48.32.63h1.76c.16-.16.33-.32.26-.58-.06-.23-.22-.35-.45-.36-.24,0-.48,0-.72,0-.15,0-.23-.01-.22-.2.02-.27.02-.55,0-.82,0-.17.06-.2.22-.2,1.94,0,3.88,0,5.81,0,.18,0,.23.06.22.23-.01.25-.02.5,0,.75.02.21-.07.24-.25.24-.89,0-1.78,0-2.67,0-.27,0-.51.02-.62.31-.11.28.06.47.25.64h3.9c.31-.07.4-.29.4-.58,0-.48.02-.96,0-1.44-.02-.39.1-.72.3-1.03.41-.66.97-1.14,1.62-1.55.97-.61,1.45-1.51,1.48-2.65,0-.21.07-.31.28-.37.64-.17,1.1-.55,1.21-1.24v-14.09c-.38-1-.78-1.27-1.88-1.27ZM10.92,2.24c.02.23-.04.3-.29.3-.95-.02-1.9,0-2.86,0s-1.9,0-2.86,0c-.2,0-.28-.04-.26-.25.02-.23.02-.46,0-.69-.02-.22.04-.28.27-.28,1.69.01,3.39,0,5.09,0,.29,0,.69-.1.85.05.18.17.03.57.06.87ZM17.66,23.98c-.7.03-.7.04-.7-.67v-1.13c0-.49,0-.98,0-1.48,0-.2,0-.31.26-.21.53.19.54.17.53.74,0,.85,0,1.7.07,2.54.01.14,0,.2-.17.2ZM17.76,18.13c0,.44-.01.88,0,1.32,0,.19-.07.21-.22.16-.24-.08-.47-.18-.69-.31-.5-.29-.83-.09-.84.49,0,1.29-.01,2.58,0,3.87,0,.27-.08.32-.33.32-1.27-.01-2.54,0-3.81,0-.6,0-.79.32-.51.85.61,1.15.57,2.29-.19,3.34-.75,1.05-1.82,1.48-3.08,1.24-1.3-.25-2.13-1.07-2.45-2.36-.19-.77-.07-1.52.32-2.21.3-.54.11-.86-.52-.86-1.07,0-2.14,0-3.21,0-.75,0-.91-.15-.91-.89v-6.48c0-2.19,0-4.38,0-6.57,0-.33.09-.58.41-.7.18-.07.31-.07.29.21-.1,1.76-.04,3.52-.05,5.28,0,1.07.78,1.84,1.8,1.78.14,0,.3-.03.43-.09.2-.09.28-.08.38.14.38.88,1.4,1.24,2.27.82.16-.08.24-.1.37.07.42.55.98.77,1.66.63.66-.14,1.09-.56,1.28-1.2.06-.2.1-.22.3-.16,1.05.34,2.15-.38,2.2-1.49.04-1.08.02-2.16.01-3.24,0-.21,0-.29.26-.21,1.16.39,2.28-.43,2.3-1.66,0-.25,0-.5,0-.76,0-.14.05-.17.18-.18.6-.04.6-.04.6.57,0,1.18,0,2.37,0,3.55,0,.67.31.84.89.51,1.52-.86,3.47-.3,4.28,1.23.08.16.12.25-.09.35-.37.17-.63.48-.78.87-.05.14-.09.16-.24.11-1.21-.43-2.32.35-2.33,1.64ZM30.03,25.72c-.07.58-.39,1.04-.89,1.35-.94.58-1.72,1.3-2.21,2.3-.06.12-.14.13-.26.13-2.07,0-4.13,0-6.2,0-.2,0-.24-.11-.3-.25-.95-2.14-1.43-4.39-1.47-6.73-.02-1.45,0-2.89,0-4.34,0-.53.29-.87.74-.87.46,0,.76.34.76.88,0,1.33,0,2.66,0,3.99,0,.25.07.46.33.54.34.11.61-.13.61-.54,0-1.19,0-2.39,0-3.59,0-.5,0-1.01,0-1.51,0-.49.31-.84.75-.83.44,0,.75.34.75.83,0,1.54,0,3.08,0,4.62,0,.51.15.74.48.73.32,0,.47-.24.47-.75,0-1.73,0-3.46,0-5.19,0-.48.31-.81.73-.81.33,0,.66.25.72.58.03.14.03.29.03.44,0,1.67,0,3.33,0,5,0,.1,0,.21.01.31.04.27.21.42.47.41.24,0,.41-.15.45-.4.02-.1.01-.21.01-.31,0-1.26,0-2.52,0-3.77,0-.17,0-.34.06-.5.13-.31.47-.5.79-.45.36.06.63.36.63.75.01.76,0,1.53,0,2.3,0,.38,0,.75,0,1.13,0,1.11,0,2.22,0,3.33,0,.25.05.46.3.57.31.13.63-.09.64-.46.01-.61,0-1.22,0-1.82,0-.52.37-.89.83-.87.37,0,.76.29.77.66.03,1.05.09,2.1-.03,3.14Z"/>
        <path class="cls-1" d="M23.41,32.96h-.14l-.11-.1c-.15-.14-.56-.5-.35-1.05.21-.55.75-.55.98-.55h1.18c.45,0,.9,0,1.35,0,0-.16,0-.31,0-.47-1.84,0-3.67,0-5.49,0,0,.16,0,.31,0,.46.2,0,.39,0,.57,0,.41.01.7.25.8.64.12.46-.16.75-.33.92l-.11.11-.18.02h-1.87l-.09-.06c-.36-.22-.53-.56-.5-.97.09-1.14-.09-2.18-.55-3.19-.52-1.14-.77-2.38-.93-3.45-1.3,0-2.59,0-3.89,0h-.78c.41,1.96-.2,3.57-1.79,4.69-1.49,1.05-3.14,1.11-4.78.17-.91-.52-1.55-1.31-1.91-2.35-.28-.81-.32-1.64-.11-2.51-.12,0-.24,0-.36,0-.62,0-1.23-.01-1.83.02-.61.03-1.15-.16-1.55-.54C.22,24.36,0,23.79,0,23.14c.02-3.18.02-6.36.02-9.53v-3.49c0-1.27.59-1.97,1.8-2.13.07-.44.15-.87.23-1.29.06-.29.2-.52.41-.66.18-.12.4-.16.62-.11.48.11.73.54.63,1.1-.23,1.01-.35,2.01-.39,3-.04,1.11-.03,2.24-.03,3.34,0,.5,0,1,0,1.49,0,.14.04.25.11.32.06.06.17.09.26.1.33,0,.37-.32.37-.46v-3.93c0-.16,0-.28.03-.41.12-.42.45-.66.87-.63.43.03.73.31.78.74.01.08.01.17,0,.26v1.92s0,3.09,0,3.09c0,.36.17.43.24.45.12.04.24.03.33-.03.11-.08.18-.22.18-.39,0-.65,0-1.3,0-1.95v-1.39s0-1.47,0-1.47c0-.55.33-.92.82-.93.22,0,.44.08.59.23.18.17.27.43.28.72v3.69s0,1.5,0,1.5c0,.25.05.45.15.54.03.03.09.07.22.07.31,0,.38-.34.38-.63v-5.03c0-.15,0-.26.01-.36.05-.41.34-.69.75-.73.42-.04.76.19.87.59.05.17.05.33.05.48v1.49c0,.81,0,1.62,0,2.43,0,.18.07.33.19.4.09.06.2.06.31,0,.17-.08.21-.2.22-.29.02-.12.01-.24.01-.36v-6.32c0-.14,0-.21,0-.28.04-.52.39-.86.88-.84.48.02.8.36.81.87,0,.34,0,.68,0,1.02v.65c0,.1,0,.21.02.31.04.2.22.35.43.34.21,0,.4-.17.4-.34v-.14c.02-.93.04-1.89-.01-2.82-.03-.61-.44-.98-.77-1.18-1.03-.62-1.78-1.39-2.27-2.34-2.04,0-4.07,0-6.1,0-.15.37-.29.71-.42,1.05-.21.51-.64.73-1.11.56-.46-.17-.66-.64-.48-1.15.04-.12.08-.22.13-.32.41-.75.57-1.62.48-2.64,0-.11,0-.23,0-.34C3.36.33,3.69,0,4.28,0,6.62,0,8.95,0,11.29,0c.61,0,.94.33.94.95,0,.57,0,1.14,0,1.71,0,.12.02.23.08.33.36.71.82,1.21,1.4,1.55,1.34.78,1.98,1.94,1.9,3.43,1.51-.01,2.95,0,4.38,0-.38-1.75.27-3.47,1.68-4.52,1.43-1.07,3.4-1.17,4.91-.25.14.08.56.34.5.89-.04.35-.26.61-.61.72-.33.1-.58-.04-.75-.14-1.36-.77-2.99-.34-3.75.94-.51.85-.54,1.72-.1,2.65.2.42.22.76.05,1.03-.16.26-.47.39-.93.39h-.58c-1.03,0-2.06,0-3.08,0,0,.91,0,1.8,0,2.69,2.21-.54,4.4.57,5.22,2.65.01.03.02.04.15.09.01,0,.03,0,.04.01.56-.65,1.26-.88,2.05-.69.7.17,1.2.62,1.46,1.31.5-.12,1-.06,1.44.16.54.28.94.8,1.07,1.39.05.21.05.42.05.61,0,.92,0,1.84,0,2.76.62-.12,1.22,0,1.69.34.36.26.62.63.76,1.06v-11.93c0-.44,0-.45-.47-.45h-3.21c-.45,0-.76-.14-.92-.4-.16-.26-.14-.6.06-1.01.36-.72.4-1.44.14-2.2l-.05-.12c-.16-.49.03-.95.47-1.12.47-.18.92.04,1.12.55.34.84.41,1.72.21,2.62h2.08c1.26,0,1.8.37,2.23,1.52l.02.13v14.09c-.09.61-.42,1.32-1.49,1.6-.04,1.31-.6,2.3-1.66,2.97-.69.44-1.16.89-1.5,1.43-.18.29-.26.55-.25.82.01.29.01.58,0,.88,0,.19,0,.38,0,.58.01.68-.43.89-.69.95h-3.99ZM23.56,32.21h3.75s.03-.02.02-.2c0-.2,0-.4,0-.6,0-.28,0-.56,0-.84-.02-.43.09-.83.36-1.25.4-.64.95-1.17,1.73-1.67.85-.54,1.28-1.3,1.31-2.34.01-.39.19-.62.56-.72.56-.15.86-.45.94-.94v-13.96c-.31-.79-.6-.97-1.51-.97h-3.04l.19-.76c.21-.81.16-1.57-.14-2.32-.07-.16-.12-.14-.16-.13-.06.02-.05.12-.02.19l-.31.23.35-.12c.33.96.27,1.89-.18,2.79-.09.18-.09.27-.09.29.01,0,.08.03.28.04h3.21c.88,0,1.22.34,1.22,1.2v13.02c0,.15,0,.24,0,.33-.05.39-.27.68-.64.82-.21.08-.39.07-.53-.03-.1-.07-.21-.21-.2-.49,0-.24,0-.49,0-.74v-.22c0-.51-.21-.95-.57-1.21-.36-.26-.82-.31-1.29-.16-.1.03-.32.1-.52-.04-.19-.14-.19-.35-.19-.48,0-1.01,0-2.01,0-3.02,0-.15,0-.31-.04-.45-.08-.37-.34-.71-.69-.89-.36-.18-.77-.19-1.2,0l-.41.17-.1-.44c-.14-.63-.47-1.01-1.02-1.14-.57-.13-1.03.05-1.4.55-.05.07-.15.22-.34.25l-.16.02-.15-.11s-.08-.04-.13-.06c-.17-.06-.45-.17-.59-.52-.72-1.81-2.66-2.73-4.53-2.15-.12.04-.35.11-.55-.04-.2-.15-.2-.4-.2-.5.01-1.01.01-2.03,0-3.04,0-.08,0-.3.16-.47.16-.16.39-.16.48-.16,1.06,0,2.13,0,3.19,0h.58c.21,0,.28-.04.3-.05,0,0,0-.09-.1-.3-.55-1.15-.51-2.28.13-3.35.97-1.64,3.05-2.18,4.72-1.24.1.06.18.1.2.1.08-.03.08-.05.09-.09,0-.04,0-.07-.14-.16-1.25-.76-2.88-.67-4.07.21-1.23.91-1.76,2.44-1.36,3.9.03.12.1.37-.06.58-.16.2-.41.2-.54.2-1.53,0-3.06-.01-4.59,0-.18,0-.4-.02-.56-.19-.16-.17-.17-.39-.16-.56.08-1.23-.42-2.15-1.53-2.8-.69-.41-1.26-1.03-1.69-1.86-.11-.22-.16-.44-.16-.69,0-.56,0-1.13,0-1.69,0-.14-.03-.18-.03-.18h0s-.04-.02-.17-.02c-2.34,0-4.68,0-7.01,0-.12,0-.15.02-.15.02h0s-.03.04-.03.17c0,.17,0,.25,0,.34.1,1.17-.08,2.17-.57,3.06-.03.06-.05.12-.07.19-.06.18,0,.2.03.22.06,0,.1-.03.15-.14.15-.36.29-.71.43-1.07.04-.11.18-.44.61-.44,2.08,0,4.15,0,6.23,0,.27,0,.47.12.58.35.43.85,1.09,1.54,2.03,2.11.69.41,1.09,1.05,1.13,1.78.05.96.04,1.93.02,2.88v.14c-.01.56-.51,1.04-1.12,1.07-.57.02-1.09-.38-1.2-.95-.03-.14-.04-.3-.04-.44v-.66c0-.33,0-.67,0-1,0-.13-.03-.13-.08-.13-.05,0-.09,0-.1.15,0,.05,0,.1,0,.15v6.4c0,.15,0,.31-.02.46-.05.39-.28.69-.65.87-.34.16-.72.14-1.03-.05-.33-.21-.53-.6-.54-1.03,0-.81,0-1.63,0-2.44v-1.49c0-.09,0-.19-.02-.27-.01-.05-.02-.06-.08-.05-.07,0-.07.02-.08.07,0,.07,0,.14,0,.21v5.09c0,.83-.44,1.37-1.12,1.38-.3,0-.56-.1-.76-.29-.24-.24-.37-.61-.37-1.07v-1.5s0-3.69,0-3.69c0-.1-.03-.16-.05-.19-.08-.01-.14-.01-.14.17v1.46s0,1.39,0,1.39c0,.65,0,1.31,0,1.96,0,.42-.19.78-.5,1-.3.2-.67.25-1.02.12-.46-.17-.73-.59-.73-1.15v-4.94c0-.13,0-.18,0-.23-.01-.09-.03-.09-.09-.09-.05,0-.07,0-.1.09,0,.02,0,.09,0,.14v1.48s0,2.53,0,2.53c0,.71-.46,1.2-1.12,1.21-.3,0-.58-.11-.79-.32-.22-.22-.33-.52-.33-.86,0-.5,0-.99,0-1.49,0-1.1-.01-2.24.03-3.37.04-1.04.17-2.08.4-3.09.04-.23-.03-.24-.06-.25-.07.02-.11.08-.13.18-.09.46-.17.92-.25,1.38-.05.3-.22.47-.52.5-.9.09-1.25.48-1.25,1.4v3.49c0,3.18,0,6.36-.01,9.54,0,.43.15.82.41,1.07.25.24.59.35.99.33.62-.03,1.24-.02,1.88-.02.28,0,.56,0,.85,0h.52l-.17.49c-.3.9-.31,1.72-.04,2.52.3.86.83,1.52,1.58,1.95,1.39.8,2.73.75,3.98-.13,1.47-1.04,1.93-2.46,1.38-4.35l-.14-.48h1.76c1.34,0,2.68,0,4.02,0,.22-.02.53.09.6.55.16,1.04.39,2.25.89,3.34.52,1.12.72,2.29.62,3.56,0,.1,0,.17.07.22h1.48c.06-.07.06-.09.06-.11-.02-.07-.03-.08-.11-.08-.23,0-.47,0-.7,0-.09,0-.31,0-.47-.15-.1-.11-.15-.26-.14-.44.02-.26.01-.52,0-.77-.01-.18.04-.33.14-.44.15-.16.36-.16.45-.16,1.94,0,3.87,0,5.81,0,.08,0,.3,0,.46.17.16.17.15.39.14.46-.01.23-.02.47,0,.7,0,.07.03.3-.14.47-.16.17-.38.17-.49.17-.5,0-.99,0-1.48,0h-1.19c-.25,0-.25.02-.27.07-.01.03-.02.05.05.13ZM20.48,29.87c-.43,0-.57-.32-.63-.45-.97-2.19-1.47-4.5-1.51-6.9-.02-1.07-.01-2.14,0-3.21v-1.14c0-.73.46-1.24,1.11-1.25.31,0,.58.1.78.3.23.23.36.56.36.95,0,1.33,0,2.66,0,3.99,0,.16.03.17.07.18.09,0,.12-.06.12-.18v-2.48s0-1.53,0-1.53c0-.36,0-.72,0-1.09,0-.7.5-1.18,1.12-1.21.65,0,1.12.51,1.12,1.21,0,1.05,0,2.1,0,3.15v1.47c0,.29.06.36.06.36.07,0,.13-.08.13-.38v-1.28c0-1.3,0-2.61,0-3.91,0-.68.46-1.18,1.1-1.19.51,0,.99.37,1.1.88.04.18.04.35.04.51v5c0,.12,0,.19.01.26.01.09.03.09.09.09.06,0,.07,0,.08-.08.01-.08.01-.16.01-.24v-3.8c0-.2,0-.42.09-.64.19-.47.71-.76,1.2-.68.54.09.94.56.95,1.12,0,.55,0,1.1,0,1.65v.65s0,.76,0,.76v.38s0,.92,0,.92v2.42c0,.19.03.21.07.22.1-.02.12-.07.12-.12,0-.3,0-.6,0-.91,0-.31,0-.61,0-.92,0-.36.14-.69.38-.92.22-.21.51-.33.83-.32.53.01,1.11.41,1.13,1.02v.37c.04.92.08,1.88-.03,2.83h0c-.08.67-.45,1.25-1.06,1.62-.98.6-1.65,1.3-2.07,2.15-.17.34-.49.34-.59.34-2.07,0-4.13,0-6.19,0h0ZM19.45,17.67s0,0,0,0c-.32,0-.37.31-.37.5v1.14c0,1.06-.01,2.13,0,3.19.04,2.29.52,4.51,1.44,6.59,0,.01,0,.02,0,.02,2.04,0,4.07,0,6.11,0,.48-.94,1.24-1.72,2.31-2.37.41-.25.66-.62.71-1.07.1-.89.07-1.82.04-2.72v-.37c-.02-.15-.21-.29-.41-.3-.12,0-.22.04-.29.11-.1.09-.15.23-.15.4,0,.3,0,.6,0,.91,0,.31,0,.61,0,.92,0,.31-.15.58-.39.74-.23.15-.51.17-.77.06-.35-.15-.53-.46-.53-.92v-2.41s0-.92,0-.92v-.38s0-.75,0-.75v-.65c0-.55,0-1.09,0-1.64,0-.2-.14-.36-.32-.39-.14-.02-.32.08-.38.22-.03.08-.03.19-.03.32v3.8c0,.14,0,.25-.02.37-.06.43-.38.72-.81.72-.45,0-.79-.28-.85-.74-.01-.11-.02-.21-.01-.32v-5.04c0-.13,0-.25-.03-.36-.03-.16-.17-.29-.35-.29-.22,0-.36.18-.36.44,0,1.3,0,2.61,0,3.91v1.28c0,.96-.52,1.12-.83,1.13-.29,0-.47-.11-.58-.21-.19-.19-.28-.47-.28-.9v-1.47c0-1.05,0-2.1,0-3.15,0-.22-.1-.46-.38-.46h0c-.27,0-.37.24-.37.46,0,.36,0,.72,0,1.08v1.53s0,2.48,0,2.48c0,.34-.13.62-.36.79-.21.15-.47.19-.74.11-.27-.09-.6-.31-.59-.9,0-1.33,0-2.66,0-3.99,0-.19-.05-.34-.13-.42-.06-.06-.14-.09-.24-.09ZM8.75,29.84c-.23,0-.47-.02-.72-.07-1.43-.27-2.38-1.18-2.75-2.63-.21-.84-.09-1.68.35-2.49.09-.17.09-.25.09-.27,0,0-.08-.04-.28-.04h-2.14s-1.07,0-1.07,0c-.96,0-1.28-.32-1.28-1.27v-8.05c0-1.67,0-3.34,0-5,0-.53.22-.89.65-1.05.09-.03.36-.14.59.03.15.11.23.3.21.55-.07,1.24-.06,2.5-.06,3.73,0,.51,0,1.02,0,1.54,0,.43.15.8.42,1.06.26.24.61.36.98.34.06,0,.21-.01.29-.05.09-.04.3-.14.52-.06.2.07.3.25.36.39.14.33.4.57.73.69.33.12.7.1,1.03-.06.15-.07.51-.24.83.18.34.44.76.6,1.29.49.52-.11.84-.41,1-.94.03-.1.09-.3.28-.4.19-.1.39-.04.49,0,.4.13.82.07,1.16-.17.33-.23.52-.59.54-.99.03-.84.03-1.67.02-2.51v-.71c0-.15,0-.38.19-.53.21-.15.45-.07.56-.03.43.14.88.08,1.23-.17.36-.26.57-.67.58-1.15,0-.24,0-.49,0-.74,0-.13.02-.54.53-.57.38-.02.62-.04.81.14.19.18.19.42.19.8v1.03s0,2.52,0,2.52c0,.21.03.29.05.31,0,0,.1-.02.29-.12.83-.47,1.8-.58,2.72-.31.91.27,1.64.87,2.08,1.69.05.1.16.3.08.52-.07.22-.28.32-.35.35-.27.13-.47.35-.58.66-.12.33-.38.45-.72.33-.46-.17-.91-.12-1.26.12-.35.25-.56.67-.56,1.17v.17c0,.38,0,.76,0,1.13,0,.22-.06.38-.2.48-.21.15-.44.07-.52.05-.28-.09-.52-.2-.75-.33-.14-.08-.22-.09-.24-.08,0,0-.04.08-.04.24v.4c0,1.15,0,2.31,0,3.46,0,.16-.02.37-.17.53-.18.18-.42.17-.54.17-1.01-.01-2.02,0-3.03,0h-.77c-.19,0-.26.04-.27.05,0,0,0,.08.09.25.68,1.3.61,2.59-.22,3.74-.69.96-1.65,1.46-2.74,1.46ZM3.31,23.6h2.14c.57,0,.82.23.93.41.11.19.18.51-.09,1-.35.64-.45,1.29-.28,1.94.29,1.16,1.02,1.86,2.16,2.08,1.12.21,2.03-.15,2.71-1.09.66-.91.71-1.91.17-2.95-.25-.48-.17-.8-.06-.99.11-.19.36-.41.91-.41h.77c1,0,1.99,0,2.99,0,0-1.18,0-2.3,0-3.41v-.4c0-.54.23-.78.42-.89.19-.11.51-.18.98.08.11.06.22.12.34.17,0-.29,0-.57,0-.85v-.17c0-.74.33-1.39.88-1.78.5-.35,1.14-.45,1.78-.27.17-.37.43-.65.76-.84-.37-.62-.92-1.03-1.57-1.23-.72-.21-1.48-.13-2.14.24-.42.24-.77.27-1.04.11-.27-.16-.41-.48-.41-.95v-2.53s0-1.03,0-1.03c0-.07,0-.15,0-.21,0,0-.02,0-.03,0,0,.19,0,.39,0,.58-.01.71-.34,1.35-.89,1.75-.48.34-1.08.46-1.67.33v.49c0,.85.02,1.7-.02,2.55-.03.64-.34,1.21-.86,1.57-.5.35-1.11.45-1.69.3-.27.73-.79,1.18-1.52,1.33-.78.16-1.49-.09-1.99-.71-.54.23-1.08.25-1.57.07-.49-.18-.89-.54-1.12-1.02-.18.06-.35.08-.48.09-.58.03-1.13-.16-1.54-.55-.26-.25-.45-.55-.55-.9v7.55q0,.52.53.52h1.07ZM17.35,24.36c-.24,0-.41-.03-.56-.17-.2-.19-.2-.45-.2-.88v-1.57c0-.35,0-.69,0-1.04,0-.16,0-.39.2-.54.21-.16.47-.07.56-.03.69.24.79.39.79,1.1,0,.74,0,1.62.07,2.51,0,.09.02.28-.12.44-.14.16-.34.17-.41.17l-.02-.37v.38c-.12,0-.22,0-.31,0ZM17.64,23.61l.02.37v-.38s-.01,0-.02,0ZM17.34,20.92c0,.3,0,.57,0,.83v1.56c0,.11,0,.22,0,.3.03,0,.06,0,.1,0-.06-.87-.06-1.69-.06-2.38,0-.11,0-.28-.01-.32,0,.01-.01.02-.03.01ZM10.66,2.91s-.02,0-.02,0c-.69-.01-1.39-.01-2.08,0h-.77s-.74,0-.74,0c-.7,0-1.41,0-2.11,0-.1,0-.33,0-.5-.18-.17-.18-.14-.41-.14-.49.02-.21.02-.42,0-.62-.01-.14-.01-.34.14-.5.17-.18.41-.18.51-.18,1.14,0,2.28,0,3.42,0h1.66c.07,0,.15,0,.23-.01.3-.03.63-.05.87.17.26.24.22.58.19.84-.01.1-.02.2-.01.26.02.15.02.36-.14.53-.15.16-.35.19-.5.19ZM9.32,2.15c.41,0,.82,0,1.23,0,0-.11.01-.21.02-.3,0-.06.01-.13.02-.19-.08,0-.19,0-.27.01-.1,0-.21.02-.3.02h-1.66c-1.1,0-2.21,0-3.31,0,0,.16,0,.32,0,.47.69,0,1.34,0,1.99,0h.74s.77,0,.77,0c.26,0,.51,0,.77,0Z"/>
      </g>
      <path class="cls-1" d="M24.39,32.96h-3.7l.63-.64c.17-.17.17-.19.16-.22-.02-.07-.03-.08-.11-.08-.23,0-.47,0-.7,0-.09,0-.31,0-.47-.15-.1-.11-.15-.26-.14-.44.02-.26.01-.52,0-.77-.01-.18.04-.33.14-.44.15-.16.36-.16.45-.16,1.94,0,3.87,0,5.81,0,.08,0,.3,0,.46.17.16.17.15.39.14.46-.01.23-.02.47,0,.7,0,.07.03.3-.14.47-.16.17-.38.17-.49.17h0c-.49,0-.99,0-1.48,0h-1.19c-.25,0-.25.02-.27.07-.01.04-.03.07.15.22l.73.65ZM22.23,32.21h.52c-.01-.12,0-.25.05-.4.21-.55.75-.55.98-.55h1.18c.45,0,.9,0,1.35,0,0-.16,0-.31,0-.47-1.84,0-3.67,0-5.49,0,0,.16,0,.31,0,.46.2,0,.39,0,.57,0,.41.01.7.25.8.64.03.11.04.21.03.31Z"/>
      <path class="cls-1" d="M8.75,29.84c-.23,0-.47-.02-.72-.07-1.43-.27-2.38-1.18-2.75-2.63-.21-.84-.09-1.68.35-2.49.09-.17.09-.25.09-.27,0,0-.08-.04-.28-.04h-2.14s-1.07,0-1.07,0c-.96,0-1.28-.32-1.28-1.27v-8.05c0-1.67,0-3.34,0-5,0-.53.22-.89.65-1.05.09-.03.36-.14.59.03.15.11.23.3.21.55-.07,1.24-.06,2.5-.06,3.73,0,.51,0,1.02,0,1.54,0,.43.15.8.42,1.06.26.24.61.36.98.34.06,0,.21-.01.29-.05.09-.04.3-.14.52-.06.2.07.3.25.36.39.14.33.4.57.73.69.33.12.7.1,1.03-.06.15-.07.51-.24.83.18.34.44.76.6,1.29.49.52-.11.84-.41,1-.94.03-.1.09-.3.28-.4.19-.1.39-.04.49,0,.4.13.82.07,1.16-.17.33-.23.52-.59.54-.99.03-.84.03-1.67.02-2.51v-.71c0-.15,0-.38.19-.53.21-.15.45-.07.56-.03.43.14.88.08,1.23-.17.36-.26.57-.67.58-1.15,0-.24,0-.49,0-.74,0-.13.02-.54.53-.57.38-.02.62-.04.81.14.19.18.19.42.19.8v1.03s0,2.52,0,2.52c0,.21.03.29.05.31,0,0,.1-.02.29-.12.83-.47,1.8-.58,2.72-.31.91.27,1.64.87,2.08,1.69.05.1.16.3.08.52-.07.22-.28.32-.35.35-.27.13-.47.35-.58.66-.12.33-.38.45-.72.33-.46-.17-.91-.12-1.26.12-.35.25-.56.67-.56,1.17v.17c0,.38,0,.76,0,1.13,0,.22-.06.38-.2.48-.21.15-.44.07-.52.05-.28-.09-.52-.2-.75-.33-.14-.08-.22-.09-.24-.08,0,0-.04.08-.04.24v.4c0,1.15,0,2.31,0,3.46,0,.16-.02.37-.17.53-.18.18-.42.17-.54.17-1.01-.01-2.02,0-3.03,0h-.77c-.19,0-.26.04-.27.05,0,0,0,.08.09.25.68,1.3.61,2.59-.22,3.74-.69.96-1.65,1.46-2.74,1.46ZM3.31,23.6h2.14c.57,0,.82.23.93.41.11.19.18.51-.09,1-.35.64-.45,1.29-.28,1.94.29,1.16,1.02,1.86,2.16,2.08,1.12.21,2.03-.15,2.71-1.09.66-.91.71-1.91.17-2.95-.25-.48-.17-.8-.06-.99.11-.19.36-.41.91-.41h.77c1,0,1.99,0,2.99,0,0-1.18,0-2.3,0-3.41v-.4c0-.54.23-.78.42-.89.19-.11.51-.18.98.08.11.06.22.12.34.17,0-.29,0-.57,0-.85v-.17c0-.74.33-1.39.88-1.78.5-.35,1.14-.45,1.78-.27.17-.37.43-.65.76-.84-.37-.62-.92-1.03-1.57-1.23-.72-.21-1.48-.13-2.14.24-.42.24-.77.27-1.04.11-.27-.16-.41-.48-.41-.95v-2.53s0-1.03,0-1.03c0-.07,0-.15,0-.21,0,0-.02,0-.03,0,0,.19,0,.39,0,.58-.01.71-.34,1.35-.89,1.75-.48.34-1.08.46-1.67.33v.49c0,.85.02,1.7-.02,2.55-.03.64-.34,1.21-.86,1.57-.5.35-1.11.45-1.69.3-.27.73-.79,1.18-1.52,1.33-.78.16-1.49-.09-1.99-.71-.54.23-1.08.25-1.57.07-.49-.18-.89-.54-1.12-1.02-.18.06-.35.08-.48.09-.58.03-1.13-.16-1.54-.55-.26-.25-.45-.55-.55-.9v7.55q0,.52.53.52h1.07ZM20.95,15.18l.16.33-.14-.35s-.01.01-.02.02Z"/>
      <path class="cls-1" d="M20.48,29.87c-.43,0-.57-.32-.63-.45-.97-2.19-1.47-4.5-1.51-6.9-.02-1.07-.01-2.14,0-3.21v-1.14c0-.73.46-1.24,1.11-1.25.31,0,.58.1.78.3.23.23.36.56.36.95,0,1.33,0,2.66,0,3.99,0,.16.03.17.07.18.09,0,.12-.06.12-.18v-2.48s0-1.53,0-1.53c0-.36,0-.72,0-1.09,0-.7.5-1.18,1.12-1.21.65,0,1.12.51,1.12,1.21,0,1.05,0,2.1,0,3.15v1.47c0,.29.06.36.06.36.07,0,.13-.08.13-.38v-1.28c0-1.3,0-2.61,0-3.91,0-.68.46-1.18,1.1-1.19.51,0,.99.37,1.1.88.04.18.04.35.04.51v5c0,.12,0,.19.01.26.01.09.03.09.09.09.06,0,.07,0,.08-.08.01-.08.01-.16.01-.24v-3.8c0-.2,0-.42.09-.64.19-.47.71-.76,1.2-.68.54.09.94.56.95,1.12,0,.55,0,1.1,0,1.65v.65s0,.76,0,.76v.38s0,.92,0,.92v2.42c0,.19.03.21.07.22.1-.02.12-.07.12-.12,0-.3,0-.6,0-.91,0-.31,0-.61,0-.92,0-.36.14-.69.38-.92.22-.21.52-.33.83-.32.53.01,1.11.41,1.13,1.02v.37c.04.92.08,1.88-.03,2.83h0c-.08.67-.45,1.25-1.06,1.62-.98.6-1.65,1.3-2.07,2.15-.17.34-.49.34-.59.34-2.07,0-4.13,0-6.19,0h0ZM19.45,17.67s0,0,0,0c-.32,0-.37.31-.37.5v1.14c0,1.06-.01,2.13,0,3.19.04,2.29.52,4.51,1.44,6.59,0,.01,0,.02,0,.02,2.04,0,4.07,0,6.11,0,.48-.94,1.24-1.72,2.31-2.37.41-.25.66-.62.71-1.07h0c.1-.89.07-1.82.04-2.72v-.37c-.02-.15-.21-.29-.41-.3-.12,0-.22.04-.29.11-.1.09-.15.23-.15.4,0,.3,0,.6,0,.91,0,.31,0,.61,0,.92,0,.31-.15.58-.39.74-.23.15-.51.17-.77.06-.35-.15-.53-.46-.53-.92v-2.41s0-.92,0-.92v-.38s0-.75,0-.75v-.65c0-.55,0-1.09,0-1.64,0-.2-.14-.36-.32-.39-.14-.02-.32.08-.38.22-.03.08-.03.19-.03.32v3.8c0,.14,0,.25-.02.37-.06.43-.38.72-.81.72-.45,0-.79-.28-.85-.74-.01-.11-.02-.21-.01-.32v-5.04c0-.13,0-.25-.03-.36-.03-.16-.17-.29-.35-.29-.22,0-.36.18-.36.44,0,1.3,0,2.61,0,3.91v1.28c0,.96-.52,1.12-.83,1.13-.29,0-.47-.11-.58-.21-.19-.19-.28-.47-.28-.9v-1.47c0-1.05,0-2.1,0-3.15,0-.22-.1-.46-.38-.46h0c-.27,0-.37.24-.37.46,0,.36,0,.72,0,1.08v1.53s0,2.48,0,2.48c0,.34-.13.62-.36.79-.21.15-.47.19-.74.11-.27-.09-.6-.31-.59-.9,0-1.33,0-2.66,0-3.99,0-.19-.05-.34-.13-.42-.06-.06-.14-.09-.24-.09Z"/>
      <path class="cls-1" d="M10.66,2.91s-.02,0-.02,0c-.69-.01-1.39-.01-2.08,0h-.77s-.74,0-.74,0c-.7,0-1.41,0-2.11,0-.1,0-.33,0-.5-.18-.17-.18-.14-.41-.14-.49.02-.21.02-.42,0-.62-.01-.14-.01-.34.14-.5.17-.18.41-.18.51-.18,1.14,0,2.28,0,3.42,0h1.66c.06,0,.15,0,.23-.01.3-.03.63-.05.87.17.26.24.22.58.19.84-.01.1-.02.2-.01.26.02.15.02.36-.14.53-.15.16-.35.19-.5.19ZM9.32,2.15c.41,0,.82,0,1.23,0,0-.11.01-.21.02-.3,0-.06.01-.13.02-.19-.08,0-.19,0-.27.01-.1,0-.2.01-.3.02h-1.66c-1.1,0-2.21,0-3.31,0,0,.16,0,.32,0,.47.69,0,1.34,0,1.99,0h.74s.77,0,.77,0c.26,0,.51,0,.77,0Z"/>
      <path class="cls-1" d="M17.35,24.36c-.24,0-.41-.03-.56-.17-.2-.19-.2-.45-.2-.88v-1.57c0-.35,0-.69,0-1.04,0-.16,0-.39.2-.54.21-.16.47-.07.56-.03.69.24.79.39.79,1.1,0,.74,0,1.62.07,2.51,0,.09.02.28-.12.44-.14.16-.34.17-.41.17l-.02-.37v.38c-.12,0-.22,0-.31,0ZM17.64,23.61l.02.37v-.38s-.01,0-.02,0ZM17.34,20.92c0,.3,0,.57,0,.83v1.56c0,.11,0,.22,0,.3.03,0,.06,0,.1,0-.06-.87-.06-1.69-.06-2.38,0-.11,0-.28-.01-.32,0,.01-.01.02-.03.01Z"/>
    </g>
  </g>
</svg>