<?xml version="1.0" encoding="UTF-8"?>
<svg id="Layer_2" data-name="Layer 2" xmlns="http://www.w3.org/2000/svg" viewBox="0 0 27.12 25.94">
  <defs>
    <style>
      .cls-1 {
        fill: none;
      }

      .cls-1, .cls-2 {
        stroke-width: 0px;
      }

      .cls-2 {
        fill: #fff;
      }
    </style>
  </defs>
  <g id="Layer_1-2" data-name="Layer 1">
    <g>
      <path class="cls-2" d="M26.48,1.29c-.15,0-.3,0-.45,0-.6,0-1.2,0-1.8,0-.28,0-.3-.03-.31-.3,0-.13,0-.26,0-.4-.03-.4-.22-.59-.62-.59C22.6,0,21.9,0,21.21,0c-.36,0-.55.17-.61.53-.03.17-.02.34-.02.5,0,.17-.06.26-.25.26-.64,0-1.29,0-1.93,0-.18,0-.25-.09-.25-.26,0-.18.01-.35-.03-.53-.08-.34-.26-.5-.61-.5C16.82,0,16.12,0,15.43,0c-.38,0-.58.2-.61.58-.01.16,0,.32,0,.48,0,.15-.06.23-.22.23-.68,0-1.36,0-2.04,0-.16,0-.22-.08-.22-.23,0-.16,0-.32,0-.48-.03-.38-.23-.58-.61-.58-.69,0-1.38,0-2.06,0-.4,0-.59.18-.65.57-.02.16-.01.32-.02.48,0,.17-.08.24-.24.24-.64,0-1.29,0-1.93,0-.18,0-.25-.09-.25-.26,0-.17.01-.34-.02-.5C6.49.18,6.3,0,5.94,0c-.71,0-1.41,0-2.12,0-.37,0-.57.2-.6.56,0,.07,0,.14,0,.21,0,.53.04.52-.52.52-.66,0-1.32,0-1.98,0C.16,1.3,0,1.46,0,2H0v23.24c0,.06,0,.12,0,.19.02.34.12.44.47.48,3.5,0,6.99,0,10.49,0,.1,0,.19.01.29-.01.33-.09.5-.3.47-.57-.03-.29-.25-.47-.59-.48-.07,0-.14,0-.21,0-3.18,0-6.37,0-9.55,0-.23,0-.29-.05-.29-.28,0-5.87,0-11.75,0-17.62,0-.24.07-.28.29-.28,8.14,0,16.28,0,24.41,0,.23,0,.29.05.28.28,0,5.87,0,11.75,0,17.62,0,.24-.07.28-.29.28-3.24,0-6.47,0-9.71,0-.36,0-.58.16-.64.43-.05.27.09.49.41.62.09.04.19.02.29.02,3.48,0,6.95,0,10.43,0,.39,0,.44-.04.56-.4V1.75c-.13-.38-.22-.44-.64-.45ZM21.9,1.1c.24,0,.48.01.71,0,.15,0,.17.05.17.18,0,.34,0,.69,0,1.03s0,.67,0,1c0,.14-.03.19-.18.18-.24-.01-.48-.01-.71,0-.14,0-.18-.05-.17-.18,0-.68,0-1.36,0-2.03,0-.14.04-.18.18-.18ZM15.94,1.25c0-.11.02-.16.14-.16.25,0,.51,0,.77,0,.14,0,.16.06.15.18,0,.33,0,.67,0,1s0,.67,0,1c0,.16-.03.22-.2.21-.24-.01-.48,0-.71,0-.12,0-.15-.04-.15-.15,0-.7,0-1.39,0-2.09ZM10.32,1.1c.24,0,.48,0,.71,0,.14,0,.18.04.18.18,0,.34,0,.69,0,1.03,0,.33,0,.65,0,.98,0,.15-.02.23-.2.21-.24-.02-.47,0-.71,0-.11,0-.15-.03-.15-.15,0-.7,0-1.39,0-2.09,0-.14.06-.16.17-.16ZM4.36,3.29c.01-.33,0-.67,0-1s0-.67,0-1c0-.15.05-.19.19-.19.23.01.46,0,.69,0,.13,0,.19.02.19.17,0,.69,0,1.37,0,2.06,0,.13-.05.17-.17.16-.23,0-.46-.01-.69,0-.16,0-.22-.03-.21-.2ZM26.06,5.44c0,.13-.04.18-.16.16-.05,0-.11,0-.16,0h-12.17c-4.06,0-8.13,0-12.19,0-.24,0-.3-.06-.3-.3.02-.89.01-1.78,0-2.67,0-.18.05-.22.22-.22.6.01,1.2,0,1.8,0,.16,0,.21.03.21.2-.01.44,0,.88,0,1.32,0,.38.2.59.59.59.66,0,1.32,0,1.98,0,.39,0,.6-.22.6-.61,0-.43,0-.86,0-1.3,0-.15.02-.22.19-.21.74.01,1.48.01,2.22,0,.17,0,.2.05.2.21-.01.42,0,.85,0,1.27,0,.44.21.64.65.64.63,0,1.25,0,1.88,0,.45,0,.64-.19.64-.64,0-.43,0-.86,0-1.3,0-.14.04-.18.18-.18.76,0,1.52,0,2.28,0,.14,0,.18.04.18.18,0,.45,0,.9,0,1.35,0,.38.2.59.59.59.66,0,1.32,0,1.98,0,.39,0,.6-.22.6-.61,0-.43,0-.86,0-1.3,0-.15.03-.21.2-.21.74.01,1.48.01,2.22,0,.18,0,.2.06.2.21,0,.43,0,.86,0,1.3,0,.4.21.61.6.61.66,0,1.32,0,1.98,0,.38,0,.58-.21.59-.59,0-.44,0-.88,0-1.32,0-.13.01-.21.18-.2.63,0,1.25,0,1.88,0,.12,0,.17.03.16.16,0,.95,0,1.91,0,2.86Z"/>
      <path class="cls-2" d="M14.1,25.36c0,.27-.16.46-.45.53-.04,0-.07.01-.08.05h-.11c0-.07-.08-.07-.12-.09-.26-.15-.36-.39-.28-.64.08-.25.33-.4.58-.36.26.04.44.25.45.51Z"/>
      <path class="cls-2" d="M19.37,20.08c-.23,0-.45,0-.68,0,2.08-2.9,2.07-5.77,0-8.65.24,0,.47,0,.7,0,.37-.01.57-.22.58-.58,0-.67,0-1.34,0-2.01,0-.38-.2-.58-.59-.58-.66,0-1.32,0-1.98,0-.4,0-.59.2-.6.6,0,.34,0,.68,0,1.05-2.16-1.1-4.3-1.09-6.46,0,0-.37,0-.72,0-1.06,0-.39-.2-.59-.58-.59-.67,0-1.34,0-2.01,0-.38,0-.58.2-.58.6,0,.65,0,1.31,0,1.96,0,.41.2.61.62.62.22,0,.44,0,.66,0-2.08,2.9-2.07,5.76,0,8.65-.22,0-.44,0-.66,0-.42,0-.62.21-.62.62,0,.64,0,1.29,0,1.93,0,.43.19.62.61.62.65,0,1.3,0,1.96,0,.42,0,.61-.2.61-.62,0-.34,0-.68,0-1.03,2.16,1.1,4.3,1.1,6.46,0,0,.36,0,.7,0,1.04,0,.41.19.61.59.61.66,0,1.32,0,1.98,0,.4,0,.59-.2.6-.61,0-.65,0-1.31,0-1.96,0-.4-.2-.6-.6-.61ZM18.41,9.31q.5,0,.5.5t-.55.56-.5-.5.55-.55ZM8.23,9.85q0-.54.55-.54.51,0,.51.52,0,.54-.55.54-.51,0-.51-.52ZM8.78,22.19q-.55,0-.55-.54,0-.52.51-.52.55,0,.55.54,0,.52-.51.52ZM13.58,21.36c-3.09,0-5.61-2.52-5.61-5.61,0-3.1,2.52-5.61,5.62-5.6,3.09,0,5.59,2.51,5.6,5.6,0,3.09-2.51,5.62-5.61,5.62ZM18.39,22.19q-.53,0-.53-.53,0-.53.53-.53.53,0,.53.53,0,.53-.53.53Z"/>
      <path class="cls-2" d="M5.85,20.65c0-.35-.2-.57-.55-.58-.69-.01-1.37-.01-2.06,0-.35,0-.56.22-.56.57,0,.68,0,1.36,0,2.03,0,.36.2.56.55.57.69,0,1.37,0,2.06,0,.37,0,.56-.21.56-.59,0-.33,0-.65,0-.98,0-.34,0-.69,0-1.03ZM4.24,22.19q-.51,0-.51-.52t.55-.54.51.52-.55.54Z"/>
      <path class="cls-2" d="M24.47,21.67c0-.33,0-.67,0-1,0-.37-.2-.58-.56-.59-.68,0-1.36,0-2.03,0-.37,0-.57.22-.57.58,0,.67,0,1.34,0,2.01,0,.37.2.58.56.58.68,0,1.36,0,2.03,0,.37,0,.57-.2.57-.57,0-.33,0-.67,0-1ZM22.88,22.19q-.52,0-.52-.53t.53-.53.52.54-.53.52Z"/>
      <path class="cls-2" d="M5.85,8.82c0-.35-.21-.56-.56-.56-.34,0-.69,0-1.03,0-.33,0-.67,0-1,0-.37,0-.58.2-.58.57,0,.68,0,1.36,0,2.03,0,.35.21.57.56.57.69,0,1.37,0,2.06,0,.35,0,.55-.22.55-.57,0-.68,0-1.36,0-2.04ZM4.25,10.37q-.52,0-.52-.52t.54-.54.52.51-.54.55Z"/>
      <path class="cls-2" d="M24.47,8.8c0-.33-.21-.54-.55-.54-.33,0-.67,0-1,0-.36,0-.72,0-1.08,0-.32,0-.53.21-.53.53,0,.7,0,1.39,0,2.09,0,.32.21.54.52.55.7.01,1.41.01,2.11,0,.33,0,.53-.23.53-.56,0-.69,0-1.37,0-2.06ZM22.89,10.37q-.54,0-.54-.55t.52-.51.54.55-.52.51Z"/>
      <path class="cls-2" d="M5.85,15.77c0-.33,0-.67,0-1,0-.39-.19-.6-.57-.6-.68,0-1.36,0-2.03,0-.37,0-.56.21-.57.58,0,.67,0,1.34,0,2.01,0,.36.19.57.55.58.7.01,1.39.01,2.09,0,.34,0,.53-.22.54-.56,0-.33,0-.67,0-1ZM4.25,16.28q-.52,0-.52-.52t.54-.54.52.51-.54.55Z"/>
      <path class="cls-2" d="M24.47,14.76c0-.38-.19-.59-.56-.59-.69-.01-1.37-.01-2.06,0-.37,0-.55.21-.56.59,0,.33,0,.65,0,.98s0,.67,0,1c0,.39.2.59.58.59.67,0,1.34,0,2.01,0,.38,0,.58-.21.58-.6,0-.66,0-1.32,0-1.98ZM22.88,16.28q-.52,0-.52-.52t.54-.54.52.51-.54.55Z"/>
      <path class="cls-1" d="M26.06,5.44c0,.13-.04.18-.16.16-.05,0-.11,0-.16,0h-12.17c-4.06,0-8.13,0-12.19,0-.24,0-.3-.06-.3-.3.02-.89.01-1.78,0-2.67,0-.18.05-.22.22-.22.6.01,1.2,0,1.8,0,.16,0,.21.03.21.2-.01.44,0,.88,0,1.32,0,.38.2.59.59.59.66,0,1.32,0,1.98,0,.39,0,.6-.22.6-.61,0-.43,0-.86,0-1.3,0-.15.02-.22.19-.21.74.01,1.48.01,2.22,0,.17,0,.2.05.2.21-.01.42,0,.85,0,1.27,0,.44.21.64.65.64.63,0,1.25,0,1.88,0,.45,0,.64-.19.64-.64,0-.43,0-.86,0-1.3,0-.14.04-.18.18-.18.76,0,1.52,0,2.28,0,.14,0,.18.04.18.18,0,.45,0,.9,0,1.35,0,.38.2.59.59.59.66,0,1.32,0,1.98,0,.39,0,.6-.22.6-.61,0-.43,0-.86,0-1.3,0-.15.03-.21.2-.21.74.01,1.48.01,2.22,0,.18,0,.2.06.2.21,0,.43,0,.86,0,1.3,0,.4.21.61.6.61.66,0,1.32,0,1.98,0,.38,0,.58-.21.59-.59,0-.44,0-.88,0-1.32,0-.13.01-.21.18-.2.63,0,1.25,0,1.88,0,.12,0,.17.03.16.16,0,.95,0,1.91,0,2.86Z"/>
      <path class="cls-1" d="M16.8,3.49c-.24-.01-.48,0-.71,0-.12,0-.15-.04-.15-.15,0-.7,0-1.39,0-2.09,0-.11.02-.16.14-.16.25,0,.51,0,.77,0,.14,0,.16.06.15.18,0,.33,0,.67,0,1s0,.67,0,1c0,.16-.03.22-.2.21Z"/>
      <path class="cls-1" d="M11.01,3.49c-.24-.02-.47,0-.71,0-.11,0-.15-.03-.15-.15,0-.7,0-1.39,0-2.09,0-.14.06-.16.17-.16.24,0,.48,0,.71,0,.14,0,.18.04.18.18,0,.34,0,.69,0,1.03,0,.33,0,.65,0,.98,0,.15-.02.23-.2.21Z"/>
      <path class="cls-1" d="M22.79,3.31c0,.14-.03.19-.18.18-.24-.01-.48-.01-.71,0-.14,0-.18-.05-.17-.18,0-.68,0-1.36,0-2.03,0-.14.04-.18.18-.18.24,0,.48.01.71,0,.15,0,.17.05.17.18,0,.34,0,.69,0,1.03s0,.67,0,1Z"/>
      <path class="cls-1" d="M5.42,3.33c0,.13-.05.17-.17.16-.23,0-.46-.01-.69,0-.16,0-.22-.03-.21-.2.01-.33,0-.67,0-1s0-.67,0-1c0-.15.05-.19.19-.19.23.01.46,0,.69,0,.13,0,.19.02.19.17,0,.69,0,1.37,0,2.06Z"/>
      <path class="cls-1" d="M13.58,10.14c-3.1,0-5.62,2.51-5.62,5.6,0,3.09,2.52,5.62,5.61,5.61,3.09,0,5.61-2.53,5.61-5.62,0-3.09-2.51-5.59-5.6-5.6ZM14.31,19.07c-.17.07-.24.14-.22.32.02.13,0,.26,0,.4-.02.3-.25.51-.54.51-.28,0-.54-.22-.51-.5.06-.47-.09-.73-.54-.9-.3-.11-.5-.39-.66-.66-.18-.31-.13-.62.13-.79.27-.17.56-.08.76.23.36.54,1,.65,1.45.25.21-.19.3-.43.32-.67,0-.51-.36-.91-.84-.96-.26-.03-.52-.04-.78-.13-.78-.29-1.3-1-1.33-1.83-.02-.82.47-1.58,1.24-1.89.19-.07.26-.16.24-.36-.02-.13-.01-.26,0-.4.02-.28.24-.47.51-.48.28,0,.57.19.53.47-.07.51.14.76.59.95.3.12.5.41.65.71.15.28.06.59-.19.73-.25.14-.53.06-.71-.2-.33-.47-.72-.63-1.16-.48-.4.14-.67.55-.63.97.04.43.36.78.78.84.21.03.42.04.63.08.87.21,1.47.94,1.53,1.83.05.83-.46,1.64-1.26,1.95Z"/>
      <path class="cls-1" d="M9.29,9.83q0,.54-.55.54t-.51-.52.55-.54.51.52Z"/>
      <path class="cls-1" d="M18.92,9.81q0,.56-.55.56t-.5-.5.55-.55.5.5Z"/>
      <path class="cls-1" d="M9.29,21.67q0,.52-.51.52t-.55-.54.51-.52.55.54Z"/>
      <path class="cls-1" d="M18.92,21.67q0,.53-.53.53t-.53-.53.53-.53.53.53Z"/>
      <path class="cls-1" d="M4.79,21.66q0,.54-.55.54t-.51-.52.55-.54.51.52Z"/>
      <path class="cls-1" d="M23.41,21.67q0,.52-.53.52t-.52-.53.53-.53.52.54Z"/>
      <path class="cls-1" d="M4.79,9.82q0,.55-.54.55t-.52-.52.54-.54.52.51Z"/>
      <path class="cls-1" d="M23.41,9.86q0,.51-.52.51t-.54-.55.52-.51.54.55Z"/>
      <path class="cls-1" d="M4.79,15.73q0,.55-.54.55t-.52-.52.54-.54.52.51Z"/>
      <path class="cls-1" d="M23.41,15.73q0,.55-.54.55t-.52-.52.54-.54.52.51Z"/>
      <path class="cls-2" d="M14.31,19.07c-.17.07-.24.14-.22.32.02.13,0,.26,0,.4-.02.3-.25.51-.54.51-.28,0-.54-.22-.51-.5.06-.47-.09-.73-.54-.9-.3-.11-.5-.39-.66-.66-.18-.31-.13-.62.13-.79.27-.17.56-.08.76.23.36.54,1,.65,1.45.25.21-.19.3-.43.32-.67,0-.51-.36-.91-.84-.96-.26-.03-.52-.04-.78-.13-.78-.29-1.3-1-1.33-1.83-.02-.82.47-1.58,1.24-1.89.19-.07.26-.16.24-.36-.02-.13-.01-.26,0-.4.02-.28.24-.47.51-.48.28,0,.57.19.53.47-.07.51.14.76.59.95.3.12.5.41.65.71.15.28.06.59-.19.73-.25.14-.53.06-.71-.2-.33-.47-.72-.63-1.16-.48-.4.14-.67.55-.63.97.04.43.36.78.78.84.21.03.42.04.63.08.87.21,1.47.94,1.53,1.83.05.83-.46,1.64-1.26,1.95Z"/>
    </g>
  </g>
</svg>