<?xml version="1.0" encoding="UTF-8"?>
<svg id="Layer_2" data-name="Layer 2" xmlns="http://www.w3.org/2000/svg" viewBox="0 0 31.68 31.68">
  <defs>
    <style>
      .cls-1 {
        fill: #000;
      }

      .cls-1, .cls-2, .cls-3, .cls-4 {
        stroke-width: 0px;
      }

      .cls-2 {
        fill: #a0a3a4;
      }

      .cls-5 {
        fill: none;
      }

      .cls-5, .cls-6 {
        stroke: #fff;
        stroke-miterlimit: 10;
        stroke-width: .5px;
      }

      .cls-3 {
        fill: #a3a7a7;
      }

      .cls-4, .cls-6 {
        fill: #fff;
      }
    </style>
  </defs>
  <g id="Layer_1-2" data-name="Layer 1">
    <g>
      <g>
        <path class="cls-1" d="M10.07,9.38c.06.02.12.04.18.05.05-.02.12-.02.16-.09-.13-.03-.24-.03-.35.04ZM10.26,13.12s-.04.04-.06.06c.07.05.14.06.24.02-.07-.03-.13-.05-.18-.07ZM10.07,9.38c.06.02.12.04.18.05.05-.02.12-.02.16-.09-.13-.03-.24-.03-.35.04ZM10.26,13.12s-.04.04-.06.06c.07.05.14.06.24.02-.07-.03-.13-.05-.18-.07ZM10.07,9.38c.06.02.12.04.18.05.05-.02.12-.02.16-.09-.13-.03-.24-.03-.35.04ZM10.26,13.12s-.04.04-.06.06c.07.05.14.06.24.02-.07-.03-.13-.05-.18-.07ZM10.07,9.38c.06.02.12.04.18.05.05-.02.12-.02.16-.09-.13-.03-.24-.03-.35.04ZM10.26,13.12s-.04.04-.06.06c.07.05.14.06.24.02-.07-.03-.13-.05-.18-.07ZM10.07,9.38c.06.02.12.04.18.05.05-.02.12-.02.16-.09-.13-.03-.24-.03-.35.04ZM10.26,13.12s-.04.04-.06.06c.07.05.14.06.24.02-.07-.03-.13-.05-.18-.07ZM10.07,9.38c.06.02.12.04.18.05.05-.02.12-.02.16-.09-.13-.03-.24-.03-.35.04ZM10.26,13.12s-.04.04-.06.06c.07.05.14.06.24.02-.07-.03-.13-.05-.18-.07ZM10.26,13.12s-.04.04-.06.06c.07.05.14.06.24.02-.07-.03-.13-.05-.18-.07ZM10.07,9.38c.06.02.12.04.18.05.05-.02.12-.02.16-.09-.13-.03-.24-.03-.35.04ZM10.42,9.34c-.13-.03-.24-.03-.35.04.06.02.12.04.18.05.05-.02.12-.02.16-.09ZM10.26,13.12s-.04.04-.06.06c.07.05.14.06.24.02-.07-.03-.13-.05-.18-.07ZM10.42,9.34c-.13-.03-.24-.03-.35.04.06.02.12.04.18.05.05-.02.12-.02.16-.09ZM10.26,13.12s-.04.04-.06.06c.07.05.14.06.24.02-.07-.03-.13-.05-.18-.07ZM10.26,13.12s-.04.04-.06.06c.07.05.14.06.24.02-.07-.03-.13-.05-.18-.07ZM10.07,9.38c.06.02.12.04.18.05.05-.02.12-.02.16-.09-.13-.03-.24-.03-.35.04ZM10.07,9.38c.06.02.12.04.18.05.05-.02.12-.02.16-.09-.13-.03-.24-.03-.35.04ZM10.26,13.12s-.04.04-.06.06c.07.05.14.06.24.02-.07-.03-.13-.05-.18-.07ZM10.07,9.38c.06.02.12.04.18.05.05-.02.12-.02.16-.09-.13-.03-.24-.03-.35.04ZM10.26,13.12s-.04.04-.06.06c.07.05.14.06.24.02-.07-.03-.13-.05-.18-.07ZM10.07,9.38c.06.02.12.04.18.05.05-.02.12-.02.16-.09-.13-.03-.24-.03-.35.04ZM10.26,13.12s-.04.04-.06.06c.07.05.14.06.24.02-.07-.03-.13-.05-.18-.07ZM10.07,9.38c.06.02.12.04.18.05.05-.02.12-.02.16-.09-.13-.03-.24-.03-.35.04ZM10.26,13.12s-.04.04-.06.06c.07.05.14.06.24.02-.07-.03-.13-.05-.18-.07ZM10.07,9.38c.06.02.12.04.18.05.05-.02.12-.02.16-.09-.13-.03-.24-.03-.35.04ZM10.26,13.12s-.04.04-.06.06c.07.05.14.06.24.02-.07-.03-.13-.05-.18-.07ZM10.07,9.38c.06.02.12.04.18.05.05-.02.12-.02.16-.09-.13-.03-.24-.03-.35.04ZM10.26,13.12s-.04.04-.06.06c.07.05.14.06.24.02-.07-.03-.13-.05-.18-.07ZM10.07,9.38c.06.02.12.04.18.05.05-.02.12-.02.16-.09-.13-.03-.24-.03-.35.04ZM10.26,13.12s-.04.04-.06.06c.07.05.14.06.24.02-.07-.03-.13-.05-.18-.07ZM10.07,9.38c.06.02.12.04.18.05.05-.02.12-.02.16-.09-.13-.03-.24-.03-.35.04ZM10.26,13.12s-.04.04-.06.06c.07.05.14.06.24.02-.07-.03-.13-.05-.18-.07ZM10.07,9.38c.06.02.12.04.18.05.05-.02.12-.02.16-.09-.13-.03-.24-.03-.35.04ZM10.26,13.12s-.04.04-.06.06c.07.05.14.06.24.02-.07-.03-.13-.05-.18-.07ZM10.07,9.38c.06.02.12.04.18.05.05-.02.12-.02.16-.09-.13-.03-.24-.03-.35.04ZM10.26,13.12s-.04.04-.06.06c.07.05.14.06.24.02-.07-.03-.13-.05-.18-.07ZM10.07,9.38c.06.02.12.04.18.05.05-.02.12-.02.16-.09-.13-.03-.24-.03-.35.04ZM10.26,13.12s-.04.04-.06.06c.07.05.14.06.24.02-.07-.03-.13-.05-.18-.07ZM10.07,9.38c.06.02.12.04.18.05.05-.02.12-.02.16-.09-.13-.03-.24-.03-.35.04ZM10.26,13.12s-.04.04-.06.06c.07.05.14.06.24.02-.07-.03-.13-.05-.18-.07ZM10.07,9.38c.06.02.12.04.18.05.05-.02.12-.02.16-.09-.13-.03-.24-.03-.35.04ZM10.26,13.12s-.04.04-.06.06c.07.05.14.06.24.02-.07-.03-.13-.05-.18-.07ZM10.26,13.12s-.04.04-.06.06c.07.05.14.06.24.02-.07-.03-.13-.05-.18-.07ZM10.07,9.38c.06.02.12.04.18.05.05-.02.12-.02.16-.09-.13-.03-.24-.03-.35.04ZM10.42,9.34c-.13-.03-.24-.03-.35.04.06.02.12.04.18.05.05-.02.12-.02.16-.09ZM10.26,13.12s-.04.04-.06.06c.07.05.14.06.24.02-.07-.03-.13-.05-.18-.07ZM10.42,9.34c-.13-.03-.24-.03-.35.04.06.02.12.04.18.05.05-.02.12-.02.16-.09ZM10.26,13.12s-.04.04-.06.06c.07.05.14.06.24.02-.07-.03-.13-.05-.18-.07ZM10.26,13.12s-.04.04-.06.06c.07.05.14.06.24.02-.07-.03-.13-.05-.18-.07ZM10.07,9.38c.06.02.12.04.18.05.05-.02.12-.02.16-.09-.13-.03-.24-.03-.35.04ZM10.07,9.38c.06.02.12.04.18.05.05-.02.12-.02.16-.09-.13-.03-.24-.03-.35.04ZM10.26,13.12s-.04.04-.06.06c.07.05.14.06.24.02-.07-.03-.13-.05-.18-.07ZM10.07,9.38c.06.02.12.04.18.05.05-.02.12-.02.16-.09-.13-.03-.24-.03-.35.04ZM10.26,13.12s-.04.04-.06.06c.07.05.14.06.24.02-.07-.03-.13-.05-.18-.07ZM10.07,9.38c.06.02.12.04.18.05.05-.02.12-.02.16-.09-.13-.03-.24-.03-.35.04ZM10.26,13.12s-.04.04-.06.06c.07.05.14.06.24.02-.07-.03-.13-.05-.18-.07ZM10.07,9.38c.06.02.12.04.18.05.05-.02.12-.02.16-.09-.13-.03-.24-.03-.35.04ZM10.26,13.12s-.04.04-.06.06c.07.05.14.06.24.02-.07-.03-.13-.05-.18-.07ZM10.07,9.38c.06.02.12.04.18.05.05-.02.12-.02.16-.09-.13-.03-.24-.03-.35.04ZM10.26,13.12s-.04.04-.06.06c.07.05.14.06.24.02-.07-.03-.13-.05-.18-.07ZM10.07,9.38c.06.02.12.04.18.05.05-.02.12-.02.16-.09-.13-.03-.24-.03-.35.04ZM10.26,13.12s-.04.04-.06.06c.07.05.14.06.24.02-.07-.03-.13-.05-.18-.07ZM10.07,9.38c.06.02.12.04.18.05.05-.02.12-.02.16-.09-.13-.03-.24-.03-.35.04ZM10.26,13.12s-.04.04-.06.06c.07.05.14.06.24.02-.07-.03-.13-.05-.18-.07ZM10.07,9.38c.06.02.12.04.18.05.05-.02.12-.02.16-.09-.13-.03-.24-.03-.35.04ZM10.26,13.12s-.04.04-.06.06c.07.05.14.06.24.02-.07-.03-.13-.05-.18-.07ZM10.07,9.38c.06.02.12.04.18.05.05-.02.12-.02.16-.09-.13-.03-.24-.03-.35.04ZM10.26,13.12s-.04.04-.06.06c.07.05.14.06.24.02-.07-.03-.13-.05-.18-.07ZM10.07,9.38c.06.02.12.04.18.05.05-.02.12-.02.16-.09-.13-.03-.24-.03-.35.04ZM10.26,13.12s-.04.04-.06.06c.07.05.14.06.24.02-.07-.03-.13-.05-.18-.07ZM10.07,9.38c.06.02.12.04.18.05.05-.02.12-.02.16-.09-.13-.03-.24-.03-.35.04ZM10.26,13.12s-.04.04-.06.06c.07.05.14.06.24.02-.07-.03-.13-.05-.18-.07ZM10.07,9.38c.06.02.12.04.18.05.05-.02.12-.02.16-.09-.13-.03-.24-.03-.35.04ZM10.26,13.12s-.04.04-.06.06c.07.05.14.06.24.02-.07-.03-.13-.05-.18-.07ZM10.07,9.38c.06.02.12.04.18.05.05-.02.12-.02.16-.09-.13-.03-.24-.03-.35.04ZM10.26,13.12s-.04.04-.06.06c.07.05.14.06.24.02-.07-.03-.13-.05-.18-.07ZM10.26,13.12s-.04.04-.06.06c.07.05.14.06.24.02-.07-.03-.13-.05-.18-.07ZM10.07,9.38c.06.02.12.04.18.05.05-.02.12-.02.16-.09-.13-.03-.24-.03-.35.04ZM10.42,9.34c-.13-.03-.24-.03-.35.04.06.02.12.04.18.05.05-.02.12-.02.16-.09ZM10.26,13.12s-.04.04-.06.06c.07.05.14.06.24.02-.07-.03-.13-.05-.18-.07ZM10.42,9.34c-.13-.03-.24-.03-.35.04.06.02.12.04.18.05.05-.02.12-.02.16-.09ZM10.26,13.12s-.04.04-.06.06c.07.05.14.06.24.02-.07-.03-.13-.05-.18-.07ZM10.26,13.12s-.04.04-.06.06c.07.05.14.06.24.02-.07-.03-.13-.05-.18-.07ZM10.07,9.38c.06.02.12.04.18.05.05-.02.12-.02.16-.09-.13-.03-.24-.03-.35.04ZM10.07,9.38c.06.02.12.04.18.05.05-.02.12-.02.16-.09-.13-.03-.24-.03-.35.04ZM10.26,13.12s-.04.04-.06.06c.07.05.14.06.24.02-.07-.03-.13-.05-.18-.07ZM10.07,9.38c.06.02.12.04.18.05.05-.02.12-.02.16-.09-.13-.03-.24-.03-.35.04ZM10.26,13.12s-.04.04-.06.06c.07.05.14.06.24.02-.07-.03-.13-.05-.18-.07ZM10.07,9.38c.06.02.12.04.18.05.05-.02.12-.02.16-.09-.13-.03-.24-.03-.35.04ZM10.26,13.12s-.04.04-.06.06c.07.05.14.06.24.02-.07-.03-.13-.05-.18-.07ZM10.07,9.38c.06.02.12.04.18.05.05-.02.12-.02.16-.09-.13-.03-.24-.03-.35.04ZM10.26,13.12s-.04.04-.06.06c.07.05.14.06.24.02-.07-.03-.13-.05-.18-.07ZM10.07,9.38c.06.02.12.04.18.05.05-.02.12-.02.16-.09-.13-.03-.24-.03-.35.04ZM10.26,13.12s-.04.04-.06.06c.07.05.14.06.24.02-.07-.03-.13-.05-.18-.07ZM10.07,9.38c.06.02.12.04.18.05.05-.02.12-.02.16-.09-.13-.03-.24-.03-.35.04ZM10.26,13.12s-.04.04-.06.06c.07.05.14.06.24.02-.07-.03-.13-.05-.18-.07ZM10.07,9.38c.06.02.12.04.18.05.05-.02.12-.02.16-.09-.13-.03-.24-.03-.35.04ZM10.26,13.12s-.04.04-.06.06c.07.05.14.06.24.02-.07-.03-.13-.05-.18-.07ZM10.07,9.38c.06.02.12.04.18.05.05-.02.12-.02.16-.09-.13-.03-.24-.03-.35.04ZM10.26,13.12s-.04.04-.06.06c.07.05.14.06.24.02-.07-.03-.13-.05-.18-.07ZM10.07,9.38c.06.02.12.04.18.05.05-.02.12-.02.16-.09-.13-.03-.24-.03-.35.04ZM10.26,13.12s-.04.04-.06.06c.07.05.14.06.24.02-.07-.03-.13-.05-.18-.07ZM10.26,13.12s-.04.04-.06.06c.07.05.14.06.24.02-.07-.03-.13-.05-.18-.07ZM10.07,9.38c.06.02.12.04.18.05.05-.02.12-.02.16-.09-.13-.03-.24-.03-.35.04ZM10.42,9.34c-.13-.03-.24-.03-.35.04.06.02.12.04.18.05.05-.02.12-.02.16-.09ZM10.26,13.12s-.04.04-.06.06c.07.05.14.06.24.02-.07-.03-.13-.05-.18-.07ZM10.42,9.34c-.13-.03-.24-.03-.35.04.06.02.12.04.18.05.05-.02.12-.02.16-.09ZM10.26,13.12s-.04.04-.06.06c.07.05.14.06.24.02-.07-.03-.13-.05-.18-.07ZM10.26,13.12s-.04.04-.06.06c.07.05.14.06.24.02-.07-.03-.13-.05-.18-.07ZM10.07,9.38c.06.02.12.04.18.05.05-.02.12-.02.16-.09-.13-.03-.24-.03-.35.04ZM10.07,9.38c.06.02.12.04.18.05.05-.02.12-.02.16-.09-.13-.03-.24-.03-.35.04ZM10.26,13.12s-.04.04-.06.06c.07.05.14.06.24.02-.07-.03-.13-.05-.18-.07ZM10.07,9.38c.06.02.12.04.18.05.05-.02.12-.02.16-.09-.13-.03-.24-.03-.35.04ZM10.26,13.12s-.04.04-.06.06c.07.05.14.06.24.02-.07-.03-.13-.05-.18-.07ZM10.07,9.38c.06.02.12.04.18.05.05-.02.12-.02.16-.09-.13-.03-.24-.03-.35.04ZM10.26,13.12s-.04.04-.06.06c.07.05.14.06.24.02-.07-.03-.13-.05-.18-.07ZM10.07,9.38c.06.02.12.04.18.05.05-.02.12-.02.16-.09-.13-.03-.24-.03-.35.04ZM10.26,13.12s-.04.04-.06.06c.07.05.14.06.24.02-.07-.03-.13-.05-.18-.07ZM10.07,9.38c.06.02.12.04.18.05.05-.02.12-.02.16-.09-.13-.03-.24-.03-.35.04ZM10.26,13.12s-.04.04-.06.06c.07.05.14.06.24.02-.07-.03-.13-.05-.18-.07ZM10.07,9.38c.06.02.12.04.18.05.05-.02.12-.02.16-.09-.13-.03-.24-.03-.35.04ZM10.26,13.12s-.04.04-.06.06c.07.05.14.06.24.02-.07-.03-.13-.05-.18-.07ZM10.07,9.38c.06.02.12.04.18.05.05-.02.12-.02.16-.09-.13-.03-.24-.03-.35.04ZM10.26,13.12s-.04.04-.06.06c.07.05.14.06.24.02-.07-.03-.13-.05-.18-.07ZM10.07,9.38c.06.02.12.04.18.05.05-.02.12-.02.16-.09-.13-.03-.24-.03-.35.04ZM10.26,13.12s-.04.04-.06.06c.07.05.14.06.24.02-.07-.03-.13-.05-.18-.07ZM10.07,9.38c.06.02.12.04.18.05.05-.02.12-.02.16-.09-.13-.03-.24-.03-.35.04ZM10.26,13.12s-.04.04-.06.06c.07.05.14.06.24.02-.07-.03-.13-.05-.18-.07ZM10.26,13.12s-.04.04-.06.06c.07.05.14.06.24.02-.07-.03-.13-.05-.18-.07ZM10.07,9.38c.06.02.12.04.18.05.05-.02.12-.02.16-.09-.13-.03-.24-.03-.35.04ZM10.42,9.34c-.13-.03-.24-.03-.35.04.06.02.12.04.18.05.05-.02.12-.02.16-.09ZM10.26,13.12s-.04.04-.06.06c.07.05.14.06.24.02-.07-.03-.13-.05-.18-.07ZM10.42,9.34c-.13-.03-.24-.03-.35.04.06.02.12.04.18.05.05-.02.12-.02.16-.09ZM10.26,13.12s-.04.04-.06.06c.07.05.14.06.24.02-.07-.03-.13-.05-.18-.07ZM10.26,13.12s-.04.04-.06.06c.07.05.14.06.24.02-.07-.03-.13-.05-.18-.07ZM10.07,9.38c.06.02.12.04.18.05.05-.02.12-.02.16-.09-.13-.03-.24-.03-.35.04ZM10.07,9.38c.06.02.12.04.18.05.05-.02.12-.02.16-.09-.13-.03-.24-.03-.35.04ZM10.26,13.12s-.04.04-.06.06c.07.05.14.06.24.02-.07-.03-.13-.05-.18-.07ZM10.07,9.38c.06.02.12.04.18.05.05-.02.12-.02.16-.09-.13-.03-.24-.03-.35.04ZM10.26,13.12s-.04.04-.06.06c.07.05.14.06.24.02-.07-.03-.13-.05-.18-.07ZM10.07,9.38c.06.02.12.04.18.05.05-.02.12-.02.16-.09-.13-.03-.24-.03-.35.04ZM10.26,13.12s-.04.04-.06.06c.07.05.14.06.24.02-.07-.03-.13-.05-.18-.07ZM10.07,9.38c.06.02.12.04.18.05.05-.02.12-.02.16-.09-.13-.03-.24-.03-.35.04ZM10.26,13.12s-.04.04-.06.06c.07.05.14.06.24.02-.07-.03-.13-.05-.18-.07ZM10.07,9.38c.06.02.12.04.18.05.05-.02.12-.02.16-.09-.13-.03-.24-.03-.35.04ZM10.26,13.12s-.04.04-.06.06c.07.05.14.06.24.02-.07-.03-.13-.05-.18-.07ZM10.26,13.12s-.04.04-.06.06c.07.05.14.06.24.02-.07-.03-.13-.05-.18-.07ZM10.07,9.38c.06.02.12.04.18.05.05-.02.12-.02.16-.09-.13-.03-.24-.03-.35.04ZM10.42,9.34c-.13-.03-.24-.03-.35.04.06.02.12.04.18.05.05-.02.12-.02.16-.09ZM10.26,13.12s-.04.04-.06.06c.07.05.14.06.24.02-.07-.03-.13-.05-.18-.07ZM10.42,9.34c-.13-.03-.24-.03-.35.04.06.02.12.04.18.05.05-.02.12-.02.16-.09ZM10.26,13.12s-.04.04-.06.06c.07.05.14.06.24.02-.07-.03-.13-.05-.18-.07ZM10.26,13.12s-.04.04-.06.06c.07.05.14.06.24.02-.07-.03-.13-.05-.18-.07ZM10.07,9.38c.06.02.12.04.18.05.05-.02.12-.02.16-.09-.13-.03-.24-.03-.35.04ZM10.07,9.38c.06.02.12.04.18.05.05-.02.12-.02.16-.09-.13-.03-.24-.03-.35.04ZM10.26,13.12s-.04.04-.06.06c.07.05.14.06.24.02-.07-.03-.13-.05-.18-.07ZM10.07,9.38c.06.02.12.04.18.05.05-.02.12-.02.16-.09-.13-.03-.24-.03-.35.04ZM10.26,13.12s-.04.04-.06.06c.07.05.14.06.24.02-.07-.03-.13-.05-.18-.07ZM10.07,9.38c.06.02.12.04.18.05.05-.02.12-.02.16-.09-.13-.03-.24-.03-.35.04ZM10.26,13.12s-.04.04-.06.06c.07.05.14.06.24.02-.07-.03-.13-.05-.18-.07ZM10.07,9.38c.06.02.12.04.18.05.05-.02.12-.02.16-.09-.13-.03-.24-.03-.35.04ZM10.26,13.12s-.04.04-.06.06c.07.05.14.06.24.02-.07-.03-.13-.05-.18-.07ZM10.07,9.38c.06.02.12.04.18.05.05-.02.12-.02.16-.09-.13-.03-.24-.03-.35.04ZM10.26,13.12s-.04.04-.06.06c.07.05.14.06.24.02-.07-.03-.13-.05-.18-.07ZM10.26,13.12s-.04.04-.06.06c.07.05.14.06.24.02-.07-.03-.13-.05-.18-.07ZM10.07,9.38c.06.02.12.04.18.05.05-.02.12-.02.16-.09-.13-.03-.24-.03-.35.04ZM10.42,9.34c-.13-.03-.24-.03-.35.04.06.02.12.04.18.05.05-.02.12-.02.16-.09ZM10.26,13.12s-.04.04-.06.06c.07.05.14.06.24.02-.07-.03-.13-.05-.18-.07ZM10.42,9.34c-.13-.03-.24-.03-.35.04.06.02.12.04.18.05.05-.02.12-.02.16-.09ZM10.26,13.12s-.04.04-.06.06c.07.05.14.06.24.02-.07-.03-.13-.05-.18-.07ZM10.26,13.12s-.04.04-.06.06c.07.05.14.06.24.02-.07-.03-.13-.05-.18-.07ZM10.07,9.38c.06.02.12.04.18.05.05-.02.12-.02.16-.09-.13-.03-.24-.03-.35.04ZM10.07,9.38c.06.02.12.04.18.05.05-.02.12-.02.16-.09-.13-.03-.24-.03-.35.04ZM10.26,13.12s-.04.04-.06.06c.07.05.14.06.24.02-.07-.03-.13-.05-.18-.07ZM10.07,9.38c.06.02.12.04.18.05.05-.02.12-.02.16-.09-.13-.03-.24-.03-.35.04ZM10.26,13.12s-.04.04-.06.06c.07.05.14.06.24.02-.07-.03-.13-.05-.18-.07ZM10.07,9.38c.06.02.12.04.18.05.05-.02.12-.02.16-.09-.13-.03-.24-.03-.35.04ZM10.26,13.12s-.04.04-.06.06c.07.05.14.06.24.02-.07-.03-.13-.05-.18-.07ZM10.07,9.38c.06.02.12.04.18.05.05-.02.12-.02.16-.09-.13-.03-.24-.03-.35.04ZM10.26,13.12s-.04.04-.06.06c.07.05.14.06.24.02-.07-.03-.13-.05-.18-.07ZM10.07,9.38c.06.02.12.04.18.05.05-.02.12-.02.16-.09-.13-.03-.24-.03-.35.04ZM10.26,13.12s-.04.04-.06.06c.07.05.14.06.24.02-.07-.03-.13-.05-.18-.07ZM10.07,9.38c.06.02.12.04.18.05.05-.02.12-.02.16-.09-.13-.03-.24-.03-.35.04ZM10.26,13.12s-.04.04-.06.06c.07.05.14.06.24.02-.07-.03-.13-.05-.18-.07ZM10.07,9.38c.06.02.12.04.18.05.05-.02.12-.02.16-.09-.13-.03-.24-.03-.35.04ZM10.26,13.12s-.04.04-.06.06c.07.05.14.06.24.02-.07-.03-.13-.05-.18-.07ZM10.26,13.12s-.04.04-.06.06c.07.05.14.06.24.02-.07-.03-.13-.05-.18-.07ZM10.07,9.38c.06.02.12.04.18.05.05-.02.12-.02.16-.09-.13-.03-.24-.03-.35.04ZM10.42,9.34c-.13-.03-.24-.03-.35.04.06.02.12.04.18.05.05-.02.12-.02.16-.09ZM10.26,13.12s-.04.04-.06.06c.07.05.14.06.24.02-.07-.03-.13-.05-.18-.07ZM10.42,9.34c-.13-.03-.24-.03-.35.04.06.02.12.04.18.05.05-.02.12-.02.16-.09ZM10.26,13.12s-.04.04-.06.06c.07.05.14.06.24.02-.07-.03-.13-.05-.18-.07ZM10.26,13.12s-.04.04-.06.06c.07.05.14.06.24.02-.07-.03-.13-.05-.18-.07ZM10.07,9.38c.06.02.12.04.18.05.05-.02.12-.02.16-.09-.13-.03-.24-.03-.35.04ZM10.07,9.38c.06.02.12.04.18.05.05-.02.12-.02.16-.09-.13-.03-.24-.03-.35.04ZM10.26,13.12s-.04.04-.06.06c.07.05.14.06.24.02-.07-.03-.13-.05-.18-.07ZM10.07,9.38c.06.02.12.04.18.05.05-.02.12-.02.16-.09-.13-.03-.24-.03-.35.04ZM10.26,13.12s-.04.04-.06.06c.07.05.14.06.24.02-.07-.03-.13-.05-.18-.07ZM10.07,9.38c.06.02.12.04.18.05.05-.02.12-.02.16-.09-.13-.03-.24-.03-.35.04ZM10.26,13.12s-.04.04-.06.06c.07.05.14.06.24.02-.07-.03-.13-.05-.18-.07ZM10.07,9.38c.06.02.12.04.18.05.05-.02.12-.02.16-.09-.13-.03-.24-.03-.35.04ZM10.26,13.12s-.04.04-.06.06c.07.05.14.06.24.02-.07-.03-.13-.05-.18-.07ZM10.07,9.38c.06.02.12.04.18.05.05-.02.12-.02.16-.09-.13-.03-.24-.03-.35.04ZM10.26,13.12s-.04.04-.06.06c.07.05.14.06.24.02-.07-.03-.13-.05-.18-.07ZM10.07,9.38c.06.02.12.04.18.05.05-.02.12-.02.16-.09-.13-.03-.24-.03-.35.04ZM10.26,13.12s-.04.04-.06.06c.07.05.14.06.24.02-.07-.03-.13-.05-.18-.07ZM10.07,9.38c.06.02.12.04.18.05.05-.02.12-.02.16-.09-.13-.03-.24-.03-.35.04ZM10.26,13.12s-.04.04-.06.06c.07.05.14.06.24.02-.07-.03-.13-.05-.18-.07ZM10.26,13.12s-.04.04-.06.06c.07.05.14.06.24.02-.07-.03-.13-.05-.18-.07ZM10.07,9.38c.06.02.12.04.18.05.05-.02.12-.02.16-.09-.13-.03-.24-.03-.35.04ZM10.42,9.34c-.13-.03-.24-.03-.35.04.06.02.12.04.18.05.05-.02.12-.02.16-.09ZM10.26,13.12s-.04.04-.06.06c.07.05.14.06.24.02-.07-.03-.13-.05-.18-.07ZM10.42,9.34c-.13-.03-.24-.03-.35.04.06.02.12.04.18.05.05-.02.12-.02.16-.09ZM10.26,13.12s-.04.04-.06.06c.07.05.14.06.24.02-.07-.03-.13-.05-.18-.07ZM10.26,13.12s-.04.04-.06.06c.07.05.14.06.24.02-.07-.03-.13-.05-.18-.07ZM10.07,9.38c.06.02.12.04.18.05.05-.02.12-.02.16-.09-.13-.03-.24-.03-.35.04ZM10.07,9.38c.06.02.12.04.18.05.05-.02.12-.02.16-.09-.13-.03-.24-.03-.35.04ZM10.26,13.12s-.04.04-.06.06c.07.05.14.06.24.02-.07-.03-.13-.05-.18-.07ZM10.07,9.38c.06.02.12.04.18.05.05-.02.12-.02.16-.09-.13-.03-.24-.03-.35.04ZM10.26,13.12s-.04.04-.06.06c.07.05.14.06.24.02-.07-.03-.13-.05-.18-.07ZM10.07,9.38c.06.02.12.04.18.05.05-.02.12-.02.16-.09-.13-.03-.24-.03-.35.04ZM10.26,13.12s-.04.04-.06.06c.07.05.14.06.24.02-.07-.03-.13-.05-.18-.07ZM10.07,9.38c.06.02.12.04.18.05.05-.02.12-.02.16-.09-.13-.03-.24-.03-.35.04ZM10.26,13.12s-.04.04-.06.06c.07.05.14.06.24.02-.07-.03-.13-.05-.18-.07ZM10.07,9.38c.06.02.12.04.18.05.05-.02.12-.02.16-.09-.13-.03-.24-.03-.35.04ZM10.26,13.12s-.04.04-.06.06c.07.05.14.06.24.02-.07-.03-.13-.05-.18-.07ZM10.07,9.38c.06.02.12.04.18.05.05-.02.12-.02.16-.09-.13-.03-.24-.03-.35.04ZM10.26,13.12s-.04.04-.06.06c.07.05.14.06.24.02-.07-.03-.13-.05-.18-.07ZM10.07,9.38c.06.02.12.04.18.05.05-.02.12-.02.16-.09-.13-.03-.24-.03-.35.04ZM10.26,13.12s-.04.04-.06.06c.07.05.14.06.24.02-.07-.03-.13-.05-.18-.07ZM10.07,9.38c.06.02.12.04.18.05.05-.02.12-.02.16-.09-.13-.03-.24-.03-.35.04ZM10.26,13.12s-.04.04-.06.06c.07.05.14.06.24.02-.07-.03-.13-.05-.18-.07ZM10.07,9.38c.06.02.12.04.18.05.05-.02.12-.02.16-.09-.13-.03-.24-.03-.35.04ZM10.26,13.12s-.04.04-.06.06c.07.05.14.06.24.02-.07-.03-.13-.05-.18-.07ZM10.07,9.38c.06.02.12.04.18.05.05-.02.12-.02.16-.09-.13-.03-.24-.03-.35.04ZM10.26,13.12s-.04.04-.06.06c.07.05.14.06.24.02-.07-.03-.13-.05-.18-.07ZM10.07,9.38c.06.02.12.04.18.05.05-.02.12-.02.16-.09-.13-.03-.24-.03-.35.04ZM10.26,13.12s-.04.04-.06.06c.07.05.14.06.24.02-.07-.03-.13-.05-.18-.07ZM10.26,13.12s-.04.04-.06.06c.07.05.14.06.24.02-.07-.03-.13-.05-.18-.07ZM10.07,9.38c.06.02.12.04.18.05.05-.02.12-.02.16-.09-.13-.03-.24-.03-.35.04ZM10.42,9.34c-.13-.03-.24-.03-.35.04.06.02.12.04.18.05.05-.02.12-.02.16-.09ZM10.26,13.12s-.04.04-.06.06c.07.05.14.06.24.02-.07-.03-.13-.05-.18-.07ZM10.42,9.34c-.13-.03-.24-.03-.35.04.06.02.12.04.18.05.05-.02.12-.02.16-.09ZM10.26,13.12s-.04.04-.06.06c.07.05.14.06.24.02-.07-.03-.13-.05-.18-.07ZM10.26,13.12s-.04.04-.06.06c.07.05.14.06.24.02-.07-.03-.13-.05-.18-.07ZM10.07,9.38c.06.02.12.04.18.05.05-.02.12-.02.16-.09-.13-.03-.24-.03-.35.04ZM10.07,9.38c.06.02.12.04.18.05.05-.02.12-.02.16-.09-.13-.03-.24-.03-.35.04ZM10.26,13.12s-.04.04-.06.06c.07.05.14.06.24.02-.07-.03-.13-.05-.18-.07ZM10.07,9.38c.06.02.12.04.18.05.05-.02.12-.02.16-.09-.13-.03-.24-.03-.35.04ZM10.26,13.12s-.04.04-.06.06c.07.05.14.06.24.02-.07-.03-.13-.05-.18-.07ZM10.07,9.38c.06.02.12.04.18.05.05-.02.12-.02.16-.09-.13-.03-.24-.03-.35.04ZM10.26,13.12s-.04.04-.06.06c.07.05.14.06.24.02-.07-.03-.13-.05-.18-.07ZM10.07,9.38c.06.02.12.04.18.05.05-.02.12-.02.16-.09-.13-.03-.24-.03-.35.04ZM10.26,13.12s-.04.04-.06.06c.07.05.14.06.24.02-.07-.03-.13-.05-.18-.07ZM10.07,9.38c.06.02.12.04.18.05.05-.02.12-.02.16-.09-.13-.03-.24-.03-.35.04ZM10.26,13.12s-.04.04-.06.06c.07.05.14.06.24.02-.07-.03-.13-.05-.18-.07ZM10.07,9.38c.06.02.12.04.18.05.05-.02.12-.02.16-.09-.13-.03-.24-.03-.35.04ZM10.26,13.12s-.04.04-.06.06c.07.05.14.06.24.02-.07-.03-.13-.05-.18-.07ZM10.07,9.38c.06.02.12.04.18.05.05-.02.12-.02.16-.09-.13-.03-.24-.03-.35.04ZM10.26,13.12s-.04.04-.06.06c.07.05.14.06.24.02-.07-.03-.13-.05-.18-.07ZM10.07,9.38c.06.02.12.04.18.05.05-.02.12-.02.16-.09-.13-.03-.24-.03-.35.04ZM10.26,13.12s-.04.04-.06.06c.07.05.14.06.24.02-.07-.03-.13-.05-.18-.07ZM10.07,9.38c.06.02.12.04.18.05.05-.02.12-.02.16-.09-.13-.03-.24-.03-.35.04ZM10.26,13.12s-.04.04-.06.06c.07.05.14.06.24.02-.07-.03-.13-.05-.18-.07ZM10.07,9.38c.06.02.12.04.18.05.05-.02.12-.02.16-.09-.13-.03-.24-.03-.35.04ZM10.26,13.12s-.04.04-.06.06c.07.05.14.06.24.02-.07-.03-.13-.05-.18-.07ZM10.07,9.38c.06.02.12.04.18.05.05-.02.12-.02.16-.09-.13-.03-.24-.03-.35.04ZM10.26,13.12s-.04.04-.06.06c.07.05.14.06.24.02-.07-.03-.13-.05-.18-.07ZM10.26,13.12s-.04.04-.06.06c.07.05.14.06.24.02-.07-.03-.13-.05-.18-.07ZM10.07,9.38c.06.02.12.04.18.05.05-.02.12-.02.16-.09-.13-.03-.24-.03-.35.04ZM10.42,9.34c-.13-.03-.24-.03-.35.04.06.02.12.04.18.05.05-.02.12-.02.16-.09ZM10.26,13.12s-.04.04-.06.06c.07.05.14.06.24.02-.07-.03-.13-.05-.18-.07ZM10.42,9.34c-.13-.03-.24-.03-.35.04.06.02.12.04.18.05.05-.02.12-.02.16-.09ZM10.26,13.12s-.04.04-.06.06c.07.05.14.06.24.02-.07-.03-.13-.05-.18-.07ZM10.26,13.12s-.04.04-.06.06c.07.05.14.06.24.02-.07-.03-.13-.05-.18-.07ZM10.07,9.38c.06.02.12.04.18.05.05-.02.12-.02.16-.09-.13-.03-.24-.03-.35.04ZM10.07,9.38c.06.02.12.04.18.05.05-.02.12-.02.16-.09-.13-.03-.24-.03-.35.04ZM10.26,13.12s-.04.04-.06.06c.07.05.14.06.24.02-.07-.03-.13-.05-.18-.07ZM10.07,9.38c.06.02.12.04.18.05.05-.02.12-.02.16-.09-.13-.03-.24-.03-.35.04ZM10.26,13.12s-.04.04-.06.06c.07.05.14.06.24.02-.07-.03-.13-.05-.18-.07ZM10.07,9.38c.06.02.12.04.18.05.05-.02.12-.02.16-.09-.13-.03-.24-.03-.35.04ZM10.26,13.12s-.04.04-.06.06c.07.05.14.06.24.02-.07-.03-.13-.05-.18-.07ZM10.07,9.38c.06.02.12.04.18.05.05-.02.12-.02.16-.09-.13-.03-.24-.03-.35.04ZM10.26,13.12s-.04.04-.06.06c.07.05.14.06.24.02-.07-.03-.13-.05-.18-.07ZM10.07,9.38c.06.02.12.04.18.05.05-.02.12-.02.16-.09-.13-.03-.24-.03-.35.04ZM10.26,13.12s-.04.04-.06.06c.07.05.14.06.24.02-.07-.03-.13-.05-.18-.07ZM10.07,9.38c.06.02.12.04.18.05.05-.02.12-.02.16-.09-.13-.03-.24-.03-.35.04ZM10.26,13.12s-.04.04-.06.06c.07.05.14.06.24.02-.07-.03-.13-.05-.18-.07ZM10.07,9.38c.06.02.12.04.18.05.05-.02.12-.02.16-.09-.13-.03-.24-.03-.35.04ZM10.26,13.12s-.04.04-.06.06c.07.05.14.06.24.02-.07-.03-.13-.05-.18-.07Z"/>
        <path class="cls-4" d="M10.32,13.47c-.12,0-.21-.05-.28-.1l-.23-.18.33-.3h.21s.73.3.73.3l-.54.24c-.08.04-.16.05-.22.05ZM10.28,9.68l-.28-.06-.54-.16.49-.29c.2-.12.39-.1.52-.07l.34.07-.17.3c-.09.16-.23.19-.29.2l-.07.02Z"/>
      </g>
      <path class="cls-6" d="M30.67,27.35c-1.75-1.74-3.5-3.47-5.25-5.21-.35-.34-.75-.55-1.25-.51-.2.02-.32-.07-.44-.21-1.08-1.22-2.16-2.45-3.26-3.66-.25-.27-.24-.44-.05-.73,1.71-2.74,2.2-5.72,1.28-8.8C20.41,3.92,17.46,1.31,13.03.42c-.29-.06-.59-.04-.87-.16h-.18c-.06,0-.08,0-.12,0-.04,0-.07,0-.12,0h-.91c-.07,0-.1,0-.16,0-.05,0-.08,0-.14,0h-.24c-.39.08-.78.05-1.17.13-2.23.48-4.18,1.47-5.77,3.13C1.34,5.59.26,8.03.25,10.93c0,.1.01.18.02.29.02,1.42.28,2.8.83,4.12.79,1.91,2.02,3.48,3.68,4.7,1.77,1.29,3.75,1.99,5.93,2.08,2.59.1,4.94-.63,7.02-2.19.17-.13.26-.14.41.04,1.08,1.24,2.17,2.47,3.27,3.69.13.15.19.29.18.49-.02.44.08.84.41,1.17,1.8,1.8,3.6,3.61,5.4,5.4.52.52,1.15.8,1.9.71.96-.11,1.65-.63,1.98-1.53.34-.95.12-1.81-.6-2.53ZM11.21,21.1c-5.44-.02-9.82-4.41-9.83-9.83C1.43,5.78,5.77,1.44,11.24,1.44c5.44,0,9.81,4.41,9.82,9.83,0,5.43-4.43,9.86-9.84,9.84ZM21.95,22.74c-.76-.84-1.52-1.69-2.27-2.54-.27-.3-.54-.61-.81-.91-.1-.11-.12-.19,0-.29.09-.07.15-.16.24-.24.15-.13.24-.41.42-.39.14.01.27.25.4.39.95,1.06,1.89,2.12,2.84,3.18.05.06.1.12.16.19-.03.03-.05.07-.08.09-.21.2-.43.4-.64.6-.15.15-.19-.03-.24-.09ZM30.05,30.03c-.53.53-1.39.52-1.97-.05-1.05-1.03-2.08-2.08-3.12-3.12-.69-.69-1.37-1.38-2.07-2.06-.19-.18-.3-.38-.26-.64-.05-.18.03-.3.16-.43.29-.27.56-.56.84-.84.32-.32.74-.33,1.07-.01,1.76,1.76,3.52,3.51,5.27,5.27.56.56.58,1.37.08,1.88Z"/>
      <g>
        <path class="cls-4" d="M28.84,22.41c0,.22-.07.29-.27.26-.25-.03-.58.11-.73-.06-.12-.14-.04-.46-.04-.71,0-2.63,0-5.26,0-7.89,0-2.76,0-5.52,0-8.28,0-.9-.42-1.49-1.2-1.67-.18-.04-.36-.04-.54-.04-1.74,0-3.47,0-5.21,0-.23,0-.33-.05-.3-.29.03-.24-.1-.55.05-.7.15-.15.46-.04.7-.04,1.61,0,3.23,0,4.84,0,1.1,0,1.93.47,2.43,1.46.2.39.26.81.26,1.24,0,5.57,0,11.14,0,16.72Z"/>
        <path class="cls-4" d="M28.08,22.94c-.15,0-.31-.03-.43-.17-.16-.18-.14-.44-.11-.67,0-.07.01-.14.01-.2v-5.91s0-4.34,0-4.34v-5.92c0-.54-.18-1.23-1.01-1.43-.15-.04-.32-.04-.49-.04-1.74,0-3.47,0-5.2,0-.16,0-.33-.02-.45-.15-.13-.15-.11-.36-.1-.42,0-.06,0-.14-.01-.23-.02-.2-.05-.44.13-.62.19-.19.46-.16.68-.13.07,0,.12.02.2.02,1.61,0,3.23,0,4.84,0,1.22,0,2.12.54,2.66,1.6.19.38.29.82.29,1.35v7.16c0,3.18,0,6.37,0,9.55h0c0,.12-.02.3-.15.41-.13.11-.29.11-.41.1-.06,0-.15,0-.23.01-.07,0-.15.02-.23.02ZM23.51,3.77c.85,0,1.69,0,2.54,0,.18,0,.39,0,.6.05.89.2,1.39.9,1.39,1.91v5.92s0,4.34,0,4.34v5.91c0,.08,0,.16-.01.24,0,.1-.02.26,0,.31.02,0,.14-.02.22-.02.1-.01.22-.02.34-.01,0,0,0,0,0-.01,0-3.18,0-6.37,0-9.55v-7.16c0-.46-.08-.82-.23-1.12-.45-.89-1.18-1.32-2.21-1.33-1.61,0-3.23,0-4.84,0-.07,0-.17,0-.25-.02-.08,0-.24-.03-.28,0,0,.02.01.14.02.21.01.11.02.22,0,.34,0,0,0,0,0,.01.01,0,.03,0,.05,0,.89,0,1.78,0,2.67,0Z"/>
      </g>
      <g>
        <path class="cls-4" d="M23.66,28.19c-.02.69,0,.69-.69.69h-8.53c-2.92,0-5.85,0-8.77,0-1.1,0-1.96-.44-2.47-1.45-.2-.39-.26-.81-.26-1.24,0-1.6,0-3.21,0-4.81,0-.21.05-.28.27-.27.77,0,.77,0,.77.77,0,1.41.02,2.82,0,4.23-.03,1.15.76,1.75,1.75,1.75,5.87-.02,11.73,0,17.6-.02.29,0,.35.08.34.35Z"/>
        <path class="cls-4" d="M9.29,29.13c-1.2,0-2.41,0-3.61,0-1.25,0-2.16-.54-2.69-1.59-.2-.39-.29-.81-.29-1.35v-.88c0-1.31,0-2.62,0-3.93,0-.13.01-.28.13-.4.11-.11.28-.12.39-.13.91,0,1.02.12,1.02,1.02,0,.42,0,.85,0,1.27,0,.97.01,1.98-.01,2.97-.01.45.12.82.37,1.08.26.27.67.43,1.13.42,5.87-.02,11.73,0,17.6-.02.13,0,.33.02.46.15.13.13.14.3.13.46h-.25s.25.04.25.04c-.02.79-.14.9-.94.9h-11.1c-.86,0-1.72,0-2.58,0ZM3.19,21.35s0,.01,0,.02c0,1.31,0,2.62,0,3.94v.87c0,.45.07.81.23,1.12.45.88,1.19,1.32,2.25,1.32,2.06,0,4.13,0,6.19,0h11.1c.19,0,.39,0,.43-.02,0-.02,0-.21,0-.39v-.04s0-.08,0-.09c-.01,0-.04,0-.08,0h0c-5.87,0-11.73,0-17.6.02h0c-.6,0-1.12-.2-1.48-.57-.35-.36-.53-.85-.51-1.44.02-.98.02-1.98.01-2.95,0-.42,0-.85,0-1.27,0-.22,0-.45-.03-.5-.04-.01-.26-.02-.47-.02-.02,0-.03,0-.04,0ZM23.91,28.19h-.25s.25,0,.25,0h0Z"/>
      </g>
      <g>
        <path class="cls-4" d="M5.01,25.99c.01-.74,0-.74.74-.74,4.99,0,9.98,0,14.98,0,.29,0,.35.09.34.35-.02.69,0,.69-.69.69h-7.37c-2.57,0-5.13,0-7.7,0-.24,0-.3-.06-.3-.3Z"/>
        <path class="cls-4" d="M5.3,26.54c-.13,0-.29-.02-.41-.13-.12-.12-.13-.28-.13-.42h.25s-.25-.03-.25-.03c.02-.85.13-.96.99-.96h2.5c4.16,0,8.32,0,12.48,0,.16,0,.33.02.46.15.13.13.14.31.13.46-.02.82-.14.93-.94.93h-9.08c-2,0-3.99,0-5.99,0h0ZM5.26,26.04s.03,0,.04,0c2,0,3.99,0,5.99,0h9.08c.19,0,.38,0,.43-.02,0-.02,0-.21,0-.39,0-.07,0-.11,0-.13-.01,0-.04,0-.08,0h0c-4.16,0-8.32,0-12.48,0h-2.5c-.21,0-.42,0-.47.03,0,.03-.01.24-.02.44v.03s0,.03,0,.04ZM5.01,25.99h-.25s.25,0,.25,0Z"/>
      </g>
      <g>
        <path class="cls-4" d="M5.01,23.92c.01-.74,0-.74.74-.74,4.3,0,8.6,0,12.9,0,.29,0,.35.08.34.35-.02.69,0,.69-.69.69h-6.33c-2.22,0-4.44,0-6.67,0-.24,0-.3-.06-.3-.3Z"/>
        <path class="cls-4" d="M5.3,24.47c-.14,0-.3-.02-.41-.13-.12-.12-.13-.28-.13-.42h.25s-.25,0-.25,0h.25s-.25-.03-.25-.03c.02-.85.13-.96.99-.96h2.39c3.51,0,7.01,0,10.51,0,.15,0,.33.02.46.15.13.13.14.31.14.46-.02.83-.14.93-.94.93h-7.75c-1.75,0-3.5,0-5.25,0h0ZM5.26,23.97s.03,0,.05,0c1.75,0,3.5,0,5.25,0h7.75c.19,0,.38,0,.43-.02,0-.02,0-.21,0-.39,0-.07,0-.11,0-.13-.01,0-.04,0-.08,0h0c-3.51,0-7.01,0-10.52,0h-2.39c-.21,0-.42,0-.47.03,0,.03-.01.24-.02.44v.03s0,.03,0,.04Z"/>
      </g>
      <g>
        <path class="cls-4" d="M22.33,6.61c-.18,0-.24-.04-.24-.23,0-.81-.01-.81.79-.81,1.21,0,2.41,0,3.62,0,.21,0,.27.05.27.27,0,.77,0,.77-.76.77h-1.61c-.69,0-1.38,0-2.07,0Z"/>
        <path class="cls-4" d="M22.32,6.86c-.11,0-.25-.02-.35-.12-.11-.11-.13-.25-.13-.36,0-.47,0-.71.16-.88.17-.17.41-.17.88-.17h.9c.9,0,1.81,0,2.71,0,.13,0,.28.01.4.13.12.11.13.27.13.39,0,.91-.12,1.02-1.01,1.02h-2.11c-.52,0-1.04,0-1.56,0h0s-.01,0-.02,0ZM22.27,6.36l.06.25v-.21s-.04-.04-.06-.04ZM22.88,5.82c-.23,0-.48,0-.53.03-.02.04-.02.28-.01.5h0c.52,0,1.04,0,1.56,0h2.11c.22,0,.44,0,.5-.03.01-.04.02-.26.02-.47,0-.02,0-.03,0-.04h-.02c-.9,0-1.81,0-2.71,0h-.9Z"/>
      </g>
      <g>
        <path class="cls-4" d="M26.77,10.97c.02.82.02.82-.78.82-.87,0-1.74,0-2.61,0-.2,0-.25-.06-.25-.25,0-.79,0-.79.78-.79h1.06c.53,0,1.05,0,1.58,0,.17,0,.22.05.22.22Z"/>
        <path class="cls-4" d="M23.37,12.04c-.12,0-.26-.02-.36-.12-.11-.11-.13-.26-.13-.38,0-.46,0-.7.17-.87.17-.17.41-.17.86-.17h1.51c.38,0,.75,0,1.13,0,.21,0,.47.07.48.47h0s-.25,0-.25,0h.25c0,.47.02.72-.16.89-.17.17-.42.17-.87.17h-.7c-.64,0-1.27,0-1.91,0,0,0-.01,0-.02,0ZM23.9,11c-.23,0-.46,0-.51.03-.02.04-.02.27-.02.49,0,0,0,.02,0,.02.68,0,1.3,0,1.91,0h.7c.23,0,.47,0,.52-.03.02-.04.01-.28,0-.51-.39,0-.75,0-1.11,0h-1.51ZM26.55,10.97s.01,0,.02.01l.2-.02h-.22Z"/>
      </g>
      <g>
        <path class="cls-4" d="M23.18,8.21c.15-.15.48-.04.73-.04.35,0,.71,0,1.06,0,.52,0,1.03,0,1.55,0,.18,0,.24.04.24.23,0,.81.01.81-.79.81-.87,0-1.74,0-2.61,0-.18,0-.26-.04-.24-.23.03-.26-.11-.59.05-.76Z"/>
        <path class="cls-4" d="M23.35,9.46c-.09,0-.26,0-.37-.13-.12-.14-.1-.32-.1-.38,0-.07,0-.15-.01-.24-.02-.21-.05-.47.13-.66h0s0,0,0,0c.19-.2.47-.16.69-.14.07,0,.15.02.21.02.25,0,.5,0,.75,0h.75c.37,0,.75,0,1.12,0,.12,0,.26,0,.37.11.11.11.13.26.13.36,0,.47,0,.72-.17.89-.17.17-.42.17-.87.17h-.68c-.65,0-1.29,0-1.94,0,0,0-.01,0-.02,0ZM23.36,8.39s0,.18,0,.26c.01.09.02.2.01.31.64,0,1.29,0,1.93,0h.67c.23,0,.47,0,.52-.03.02-.04.02-.28.01-.5h0c-.41,0-.76,0-1.12,0h-.75c-.24,0-.49,0-.73,0-.09,0-.19,0-.28-.02-.09,0-.23-.03-.27,0Z"/>
      </g>
      <g>
        <path class="cls-4" d="M26.77,13.57c0,.81.01.81-.79.81h-1.06c-.53,0-1.05,0-1.58,0-.16,0-.2-.04-.21-.2-.03-.84-.03-.84.79-.84.87,0,1.74,0,2.62,0,.18,0,.24.04.24.23Z"/>
        <path class="cls-4" d="M23.33,14.63c-.29,0-.44-.15-.45-.45-.02-.5-.02-.74.15-.92.17-.18.43-.18.89-.18h.7c.64,0,1.28,0,1.92,0,.12,0,.26.01.37.12.11.11.12.25.12.36h0s-.25,0-.25,0l.25.02c0,.45,0,.69-.17.86-.17.17-.42.17-.87.17h-1.51c-.38,0-.75,0-1.13,0,0,0,0,0-.01,0ZM23.91,13.59c-.24,0-.48,0-.54.03-.02.04-.01.27,0,.51.39,0,.74,0,1.1,0h1.51c.23,0,.47,0,.52-.03.02-.04.02-.28.02-.5h.05c-.69,0-1.32,0-1.96,0h-.7ZM26.56,13.57s.02.01.03.02l.18-.02h-.21Z"/>
      </g>
      <g>
        <path class="cls-4" d="M25.98,16.96h-1.03c-.53,0-1.05,0-1.58,0-.18,0-.24-.03-.25-.23,0-.81-.02-.81.79-.81.87,0,1.74,0,2.61,0,.18,0,.24.04.25.23,0,.81.02.81-.79.81Z"/>
        <path class="cls-4" d="M23.35,17.21c-.12,0-.25-.02-.35-.12-.11-.11-.13-.26-.13-.36,0-.47,0-.72.16-.89.17-.17.41-.17.87-.17h.68c.64,0,1.29,0,1.93,0,.11,0,.25.01.35.1.13.11.14.27.14.38,0,.47,0,.71-.16.89-.17.17-.41.17-.88.17h-1.48c-.38,0-.75,0-1.13,0,0,0-.02,0-.02,0ZM23.91,16.17c-.23,0-.47,0-.53.03-.02.04-.02.28-.01.5h0c.41,0,.77,0,1.13,0h1.48c.23,0,.47,0,.53-.03.02-.04.01-.28.01-.5h0c-.68,0-1.31,0-1.93,0h-.68Z"/>
      </g>
      <g>
        <path class="cls-4" d="M25.97,19.56c-.7,0-1.4,0-2.1,0-.16,0-.24-.04-.22-.21.03-.27-.11-.62.06-.78.13-.13.48-.04.73-.04.26,0,.53,0,.79,0,.44,0,.87,0,1.31,0,.16,0,.23.03.23.21.02.83.02.83-.8.83Z"/>
        <path class="cls-4" d="M23.87,19.81c-.12,0-.26-.02-.36-.13-.12-.13-.1-.3-.1-.36,0-.07,0-.16-.01-.25-.02-.22-.05-.49.15-.69.17-.17.44-.15.68-.13.07,0,.15.02.22.01.19,0,.37,0,.56,0h.62c.31,0,.61,0,.92,0,.12,0,.25,0,.36.11.11.1.12.25.13.35,0,.48.01.73-.16.91-.17.18-.41.18-.89.18h-.56c-.51,0-1.02,0-1.53,0,0,0,0,0-.01,0ZM23.97,18.74s-.07,0-.09.01c0,.02,0,.18.02.27,0,.09.02.19.02.29.53,0,1.02,0,1.51,0h.56c.24,0,.48,0,.54-.03.02-.04.02-.28.01-.51-.33,0-.62,0-.91,0h-.61s-.55,0-.55,0c-.08,0-.17,0-.27-.01-.06,0-.15-.01-.22-.01Z"/>
      </g>
      <path class="cls-5" d="M11.24,1.44c-5.46,0-9.8,4.34-9.85,9.84,0,5.42,4.39,9.81,9.83,9.83,5.41.02,9.85-4.41,9.84-9.84,0-5.42-4.38-9.83-9.82-9.83ZM11.24,20.06c-4.84.02-8.79-3.91-8.82-8.78-.02-4.83,3.91-8.81,8.79-8.81,4.91,0,8.79,3.94,8.81,8.78.02,4.85-3.9,8.79-8.78,8.81Z"/>
      <g>
        <path class="cls-4" d="M10.42,9.34c-.13-.03-.24-.03-.35.04.06.02.12.04.18.05.05-.02.12-.02.16-.09ZM10.26,13.12s-.04.04-.06.06c.07.05.14.06.24.02-.07-.03-.13-.05-.18-.07Z"/>
        <path class="cls-4" d="M10.32,13.47c-.12,0-.21-.05-.28-.1l-.23-.18.33-.3h.21s.73.3.73.3l-.54.24c-.08.04-.16.05-.22.05ZM10.28,9.68l-.28-.06-.54-.16.49-.29c.2-.12.39-.1.52-.07l.34.07-.17.3c-.09.16-.23.19-.29.2l-.07.02Z"/>
      </g>
      <path class="cls-4" d="M29.11,30.67c-.43,0-.87-.17-1.21-.51-.71-.7-1.41-1.4-2.11-2.1l-1.58-1.58c-.5-.5-1-1-1.5-1.5-.17-.16-.38-.43-.33-.82-.05-.29.11-.49.24-.61.19-.18.38-.38.57-.57l.26-.27c.42-.42,1-.43,1.42-.01,1.76,1.76,3.52,3.51,5.27,5.28.65.66.69,1.62.08,2.23h0c-.31.31-.7.46-1.11.46ZM24.18,22.89c-.12,0-.25.06-.36.17l-.26.26c-.19.19-.38.39-.58.58-.11.11-.1.14-.09.18v.05s0,.05,0,.05c-.02.12,0,.24.19.42.51.5,1.01,1,1.51,1.5l1.58,1.58c.7.7,1.4,1.4,2.11,2.1.47.47,1.18.49,1.62.06h0c.42-.42.39-1.06-.08-1.53-1.75-1.76-3.51-3.52-5.27-5.27-.11-.11-.23-.16-.35-.16Z"/>
      <path class="cls-4" d="M22.09,23.14s-.03,0-.05,0c-.16-.02-.24-.16-.28-.22-.58-.65-1.15-1.29-1.72-1.93l-.78-.87c-.19-.22-.39-.44-.59-.65-.05-.05-.16-.18-.15-.35,0-.11.07-.22.18-.31.04-.03.07-.07.11-.11.04-.04.07-.08.12-.12.03-.03.07-.08.1-.13.1-.14.25-.35.51-.33.21.02.35.2.47.36.03.04.06.08.09.12l2.84,3.18s.07.09.11.13l.19.22-.14.16-.19-.16.17.19s-.05.06-.07.08l-.23.21c-.14.13-.28.26-.42.39-.09.08-.18.13-.28.13ZM19.07,19.15c.21.23.39.43.57.63l.78.87c.57.63,1.13,1.27,1.7,1.9.11-.1.22-.2.32-.3l.14-.13-.09-.1-2.76-3.09s-.08-.1-.12-.15c-.03-.04-.07-.09-.1-.13-.02.03-.05.06-.06.09-.05.07-.1.15-.17.21-.03.03-.06.06-.09.09-.04.04-.07.08-.11.11Z"/>
      <g>
        <path class="cls-1" d="M10.42,9.34c-.13-.03-.24-.03-.35.04.06.02.12.04.18.05.05-.02.12-.02.16-.09ZM10.26,13.12s-.04.04-.06.06c.07.05.14.06.24.02-.07-.03-.13-.05-.18-.07Z"/>
        <path class="cls-4" d="M10.32,13.47c-.12,0-.21-.05-.28-.1l-.23-.18.33-.3h.21s.73.3.73.3l-.54.24c-.08.04-.16.05-.22.05ZM10.28,9.68l-.28-.06-.54-.16.49-.29c.2-.12.39-.1.52-.07l.34.07-.17.3c-.09.16-.23.19-.29.2l-.07.02Z"/>
      </g>
      <g>
        <path class="cls-4" d="M11.21,2.47c-4.88,0-8.82,3.98-8.79,8.81.02,4.87,3.98,8.81,8.82,8.78,4.88-.02,8.8-3.95,8.78-8.81-.02-4.85-3.89-8.79-8.81-8.78ZM11.22,19.03c-4.3-.02-7.75-3.47-7.76-7.76,0-4.28,3.52-7.8,7.78-7.77,4.3.02,7.74,3.48,7.75,7.76,0,4.3-3.48,7.78-7.77,7.77Z"/>
        <path class="cls-4" d="M11.2,20.31c-4.96,0-9-4.04-9.03-9.03-.01-2.41.92-4.67,2.63-6.39,1.71-1.72,3.99-2.67,6.42-2.67h0c4.98,0,9.04,4.05,9.05,9.03.02,4.97-4.04,9.04-9.03,9.06-.01,0-.03,0-.04,0ZM11.21,2.47v.25c-2.29,0-4.44.9-6.06,2.52-1.61,1.62-2.49,3.76-2.48,6.03.02,4.71,3.84,8.53,8.53,8.53.01,0,.03,0,.04,0,4.72-.02,8.55-3.86,8.54-8.56-.01-4.71-3.85-8.57-8.56-8.54v-.25ZM11.25,19.28h-.03c-4.41-.02-8-3.61-8.01-8,0-2.14.84-4.16,2.37-5.69,1.53-1.52,3.51-2.36,5.66-2.34,4.4.03,7.99,3.62,8,8.01,0,2.15-.83,4.17-2.35,5.68-1.51,1.51-3.51,2.33-5.64,2.33ZM11.19,3.75c-1.97,0-3.84.78-5.26,2.19-1.44,1.43-2.23,3.33-2.22,5.33,0,4.12,3.38,7.49,7.51,7.51h0c2.02,0,3.89-.77,5.31-2.19,1.43-1.42,2.21-3.31,2.21-5.33,0-4.12-3.37-7.49-7.5-7.51-.01,0-.03,0-.04,0Z"/>
      </g>
      <path class="cls-5" d="M11.24,3.5c-4.26-.03-7.79,3.5-7.78,7.77,0,4.29,3.46,7.74,7.76,7.76,4.29.02,7.78-3.47,7.77-7.77,0-4.29-3.45-7.74-7.75-7.76ZM7.64,6.14c.16-.16.48-.05.73-.05,2.06,0,4.12,0,6.17,0,.22,0,.34.03.3.29-.03.24.1.55-.05.7-.15.15-.46.05-.7.05-.96,0-1.93,0-2.89,0-1.11,0-2.23,0-3.35,0-.2,0-.3-.04-.27-.26.03-.25-.1-.58.05-.73ZM14.8,16.4c-.15.15-.46.04-.7.05-.96,0-1.93,0-2.89,0-1.12,0-2.23,0-3.35,0-.2,0-.3-.04-.27-.26.03-.25-.1-.58.05-.73.16-.16.48-.04.73-.05,2.06,0,4.12,0,6.18,0,.23,0,.33.04.3.29-.03.24.1.55-.05.7ZM12.03,14.26c-2.28.2-4.3-.44-6.06-1.91-.33-.27-.61-.59-.91-.89-.15-.15-.13-.26-.02-.41.33-.49.79-.84,1.26-1.18,1.45-1.07,3.1-1.6,5.05-1.63,2.11.05,4.06.82,5.68,2.41.09.09.17.17.26.26.4.4.42.41,0,.84-1.44,1.48-3.19,2.34-5.25,2.52Z"/>
      <g>
        <path class="cls-4" d="M10.42,9.34c-.13-.03-.24-.03-.35.04.06.02.12.04.18.05.05-.02.12-.02.16-.09ZM10.26,13.12s-.04.04-.06.06c.07.05.14.06.24.02-.07-.03-.13-.05-.18-.07Z"/>
        <path class="cls-4" d="M10.32,13.47c-.12,0-.21-.05-.28-.1l-.23-.18.33-.3h.21s.73.3.73.3l-.54.24c-.08.04-.16.05-.22.05ZM10.28,9.68l-.28-.06-.54-.16.49-.29c.2-.12.39-.1.52-.07l.34.07-.17.3c-.09.16-.23.19-.29.2l-.07.02Z"/>
      </g>
      <g>
        <path class="cls-1" d="M10.42,9.34c-.13-.03-.24-.03-.35.04.06.02.12.04.18.05.05-.02.12-.02.16-.09ZM10.26,13.12s-.04.04-.06.06c.07.05.14.06.24.02-.07-.03-.13-.05-.18-.07Z"/>
        <path class="cls-4" d="M10.32,13.47c-.12,0-.21-.05-.28-.1l-.23-.18.33-.3h.21s.73.3.73.3l-.54.24c-.08.04-.16.05-.22.05ZM10.28,9.68l-.28-.06-.54-.16.49-.29c.2-.12.39-.1.52-.07l.34.07-.17.3c-.09.16-.23.19-.29.2l-.07.02Z"/>
      </g>
      <g>
        <path class="cls-4" d="M17.28,10.9c-.09-.09-.17-.17-.26-.26-1.62-1.59-3.57-2.36-5.68-2.41-1.95.02-3.6.55-5.05,1.63-.46.34-.93.69-1.26,1.18-.1.15-.12.27.02.41.3.3.59.62.91.89,1.76,1.46,3.78,2.11,6.06,1.91,2.06-.18,3.81-1.04,5.25-2.52.41-.42.4-.44,0-.84ZM10.2,13.18c-1.48-.19-2.76-.81-3.87-1.8-.09-.08-.1-.13,0-.21,1.09-.94,2.32-1.57,3.75-1.79.11-.06.22-.07.35-.04-.04.08-.11.08-.16.09-.74.41-1.13,1.04-1.13,1.88,0,.82.41,1.42,1.13,1.81.05.02.11.04.18.07-.11.05-.18.04-.24-.02ZM11.21,12.31c-.56-.01-1.01-.48-1.01-1.04,0-.57.45-1.02,1.02-1.03.57,0,1.05.47,1.05,1.03,0,.56-.5,1.05-1.05,1.03ZM16.07,11.42c-1.11.94-2.36,1.55-3.8,1.76-.07,0-.14.03-.3.05,1.77-.84,1.79-3.08.06-3.91,1.04.11,1.97.43,2.84.92.43.25.83.54,1.21.87.15.13.14.18,0,.31Z"/>
        <path class="cls-4" d="M11.24,14.54c-2.01,0-3.83-.67-5.43-2-.25-.21-.48-.44-.7-.67l-.23-.24c-.33-.33-.12-.63-.05-.73.36-.54.87-.91,1.31-1.24,1.49-1.1,3.19-1.65,5.19-1.67,2.26.05,4.23.88,5.86,2.48l.24.24-.16.2.18-.18c.51.51.51.67,0,1.19-1.5,1.54-3.32,2.41-5.41,2.59-.28.02-.55.04-.82.04ZM11.33,8.49c-1.88.02-3.49.54-4.9,1.58-.44.32-.89.65-1.2,1.12-.03.05-.04.07-.04.07l.27.27c.22.23.43.44.66.63,1.71,1.42,3.69,2.04,5.88,1.85,1.96-.17,3.68-.99,5.09-2.45.09-.09.22-.23.24-.27-.02,0-.13-.11-.24-.21l-.26-.26c-1.54-1.5-3.39-2.29-5.51-2.34ZM10.14,13.83l1.72-.82c.75-.35,1.2-1.01,1.2-1.76,0-.72-.43-1.36-1.14-1.71l-1.32-.63,1.46.16c1.05.12,2.01.43,2.94.95.4.23.8.51,1.25.89.06.05.2.17.2.34,0,.17-.14.29-.2.35h0c-1.17,1-2.49,1.61-3.93,1.82-.04,0-.08.01-.15.03l-2.02.37ZM13,9.76c.36.42.56.94.56,1.5,0,.57-.21,1.1-.59,1.53,1.05-.27,2-.77,2.9-1.52-.42-.36-.77-.61-1.12-.8-.56-.32-1.14-.55-1.74-.71ZM10.32,13.47c-.08,0-.16-.02-.21-.06-1.47-.2-2.79-.83-3.95-1.85-.04-.04-.16-.14-.16-.3,0-.16.12-.26.15-.29,1.16-1,2.45-1.62,3.84-1.84.18-.09.36-.07.48-.04l.34.07-.17.3c-.09.16-.23.19-.29.2-.64.35-.97.91-.97,1.64,0,.7.34,1.24,1,1.59l.7.28-.54.24c-.08.04-.16.05-.22.05ZM6.58,11.27c.86.74,1.81,1.24,2.84,1.5-.35-.4-.54-.9-.54-1.46,0-.61.18-1.13.55-1.55-1.02.26-1.96.76-2.85,1.51ZM11.23,12.56s-.02,0-.02,0h0c-.69-.01-1.26-.59-1.26-1.29,0-.71.56-1.27,1.26-1.28.35,0,.67.13.92.38.25.24.38.57.38.9,0,.34-.15.67-.4.91-.24.24-.57.37-.89.37ZM11.21,12.06c.19,0,.4-.08.55-.23.16-.15.24-.35.24-.56,0-.2-.08-.4-.23-.55-.15-.15-.35-.23-.57-.23-.43,0-.77.35-.77.78,0,.43.34.78.77.79h0Z"/>
      </g>
      <g>
        <path class="cls-4" d="M14.8,7.08c-.15.15-.46.05-.7.05-.96,0-1.93,0-2.89,0-1.11,0-2.23,0-3.35,0-.2,0-.3-.04-.27-.26.03-.25-.1-.58.05-.73.16-.16.48-.05.73-.05,2.06,0,4.12,0,6.17,0,.22,0,.34.03.3.29-.03.24.1.55-.05.7Z"/>
        <path class="cls-4" d="M14.55,7.41c-.09,0-.17-.01-.25-.02-.07,0-.13-.01-.19-.02-.7,0-1.4,0-2.1,0h-1.65c-.83,0-1.65,0-2.48,0-.1,0-.3,0-.43-.14-.13-.14-.1-.33-.1-.4,0-.06,0-.15-.01-.24-.02-.2-.05-.46.13-.64.2-.2.48-.16.7-.14.07,0,.13.02.2.02h2.47c1.23,0,2.47,0,3.7,0,.11,0,.32,0,.45.15.13.15.1.35.1.42,0,.06,0,.14,0,.23.02.2.05.44-.12.62h0c-.12.13-.28.16-.43.16ZM14.1,6.88c.08,0,.16,0,.25.02.08,0,.22.03.26.01,0-.04,0-.15,0-.22-.01-.11-.02-.23,0-.35,0,0,0,0,0,0-.01,0-.03,0-.05,0-1.24,0-2.47,0-3.71,0h-2.47c-.1,0-.17,0-.26-.02-.09-.01-.25-.03-.29,0,0,.03,0,.16.01.23.01.1.02.22.01.33h.02c.83,0,1.66,0,2.48,0h1.65c.7,0,1.4,0,2.1,0h0Z"/>
      </g>
      <g>
        <path class="cls-4" d="M14.8,16.4c-.15.15-.46.04-.7.05-.96,0-1.93,0-2.89,0-1.12,0-2.23,0-3.35,0-.2,0-.3-.04-.27-.26.03-.25-.1-.58.05-.73.16-.16.48-.04.73-.05,2.06,0,4.12,0,6.18,0,.23,0,.33.04.3.29-.03.24.1.55-.05.7Z"/>
        <path class="cls-4" d="M14.55,16.73c-.09,0-.17-.01-.25-.02-.07,0-.14-.02-.19-.02-.71,0-1.42,0-2.13,0h-1.65c-.82,0-1.64,0-2.46,0-.15,0-.31-.01-.42-.14-.13-.14-.1-.34-.1-.4,0-.06,0-.15-.01-.24-.02-.2-.05-.46.13-.64.2-.2.48-.16.7-.14.07,0,.14.01.2.02h2.53c1.21,0,2.43,0,3.64,0,.17,0,.33.02.45.15.13.15.1.35.1.42,0,.06,0,.14.01.23.02.2.05.44-.13.62h0c-.12.12-.28.16-.43.16ZM14.1,16.2c.08,0,.16,0,.25.02.08,0,.22.03.26.01,0-.04,0-.15,0-.22-.01-.11-.02-.23,0-.34,0,0,0,0,0,0-.01,0-.03,0-.05,0-1.21,0-2.43,0-3.64,0h-2.53c-.08,0-.17,0-.26-.02-.09-.01-.25-.03-.29,0,0,.03,0,.16.01.23.01.1.02.22.01.33,0,0,.01,0,.02,0,.82,0,1.64,0,2.46,0h1.65c.71,0,1.42,0,2.13,0h0Z"/>
      </g>
      <path class="cls-4" d="M10.14,13.83l1.72-.82c.75-.35,1.2-1.01,1.2-1.76,0-.72-.43-1.36-1.14-1.71l-1.32-.63,1.46.16c1.05.12,2.01.43,2.94.95.4.23.8.51,1.25.89.06.05.2.17.2.34,0,.17-.14.29-.2.35h0c-1.17,1-2.49,1.61-3.93,1.82-.04,0-.08.01-.15.03l-2.02.37ZM13,9.76c.36.42.56.94.56,1.5,0,.57-.21,1.1-.59,1.53,1.05-.27,2-.77,2.9-1.52-.43-.36-.77-.61-1.12-.8-.56-.32-1.14-.55-1.74-.71Z"/>
      <path class="cls-4" d="M10.17,13.42c-1.49-.2-2.84-.82-4.01-1.86-.04-.04-.16-.14-.16-.3,0-.16.12-.26.15-.29,1.17-1.01,2.47-1.64,3.88-1.85h.06s.81.23.81.23l-.53.29c-.67.36-1,.92-1,1.66,0,.7.34,1.24,1,1.59l.31.17-.38.34h-.15ZM6.58,11.27c.86.74,1.81,1.24,2.83,1.5-.35-.4-.53-.89-.53-1.46,0-.61.18-1.13.55-1.55-1.02.26-1.96.76-2.85,1.51Z"/>
      <g>
        <path class="cls-4" d="M10.26,9.43c-.06-.02-.12-.04-.18-.05.07,0,.15-.07.18.05Z"/>
        <path class="cls-4" d="M10.61,9.8l-1.99-.59,1.44-.08c.05-.02.17-.05.29.02.05.03.12.1.15.22l.1.42ZM10.08,9.48l-.06.02s.03.06.07.08v-.1Z"/>
      </g>
      <g>
        <path class="cls-4" d="M10.2,13.18s.04-.04.06-.06c.01.05,0,.08-.06.06Z"/>
        <polygon class="cls-4" points="10.3 13.47 10.1 13.41 9.74 13.26 10.38 12.67 10.54 13.22 10.41 13.37 10.3 13.47"/>
      </g>
      <path class="cls-4" d="M11.23,12.56s-.02,0-.02,0c-.69-.01-1.26-.59-1.26-1.29,0-.71.56-1.27,1.26-1.28.35,0,.67.13.92.38.25.24.38.57.38.9h0c0,.34-.15.67-.4.91-.24.24-.57.37-.89.37ZM11.22,10.49h0c-.43,0-.77.35-.77.78,0,.43.34.78.77.79.19,0,.4-.08.55-.23.16-.15.24-.35.24-.56h.25s-.25,0-.25,0c0-.2-.08-.4-.23-.55-.15-.15-.35-.23-.56-.23Z"/>
      <g>
        <path class="cls-2" d="M10.42,9.34c-.04.08-.11.08-.16.09-.06-.02-.12-.04-.18-.05.11-.06.22-.07.35-.04Z"/>
        <path class="cls-4" d="M10.28,9.68l-.28-.06-.54-.16.49-.29c.2-.12.39-.1.52-.07l.34.07-.17.3c-.09.16-.23.19-.29.2l-.07.02Z"/>
      </g>
      <g>
        <path class="cls-3" d="M10.44,13.19c-.11.05-.18.04-.24-.02.02-.02.04-.04.06-.06.05.02.11.04.18.07Z"/>
        <path class="cls-4" d="M10.32,13.47c-.12,0-.21-.05-.28-.1l-.23-.18.33-.3h.21s.73.3.73.3l-.54.24c-.08.04-.16.05-.22.05Z"/>
      </g>
    </g>
  </g>
</svg>