<?xml version="1.0" encoding="UTF-8"?>
<svg id="Layer_2" data-name="Layer 2" xmlns="http://www.w3.org/2000/svg" viewBox="0 0 26.45 27.89">
  <defs>
    <style>
      .cls-1 {
        fill: none;
      }

      .cls-1, .cls-2 {
        stroke-width: 0px;
      }

      .cls-2 {
        fill: #fff;
      }
    </style>
  </defs>
  <g id="Layer_1-2" data-name="Layer 1">
    <g>
      <path class="cls-2" d="M26.45,27.12c-.09-.03-.05-.1-.06-.16-.04-.58-.1-1.16-.24-1.72-1.17-4.96-4.15-8.28-8.97-9.96-.23-.08-.37-.04-.55.11-2.02,1.61-4.66,1.66-6.71.1-.32-.25-.57-.26-.92-.14C3.71,17.17.17,21.96,0,27.55c0,.26.03.34.32.34,8.59,0,17.18,0,25.77,0,.1,0,.2,0,.3,0,.08-.1-.01-.22.06-.32v-.44ZM22.26,24.95c-1.06,0-2.12,0-3.19,0s-2.11,0-3.16,0c-.19,0-.26-.02-.26-.24.01-1.14.01-2.29,0-3.43,0-.2.05-.25.25-.25,2.12,0,4.23,0,6.34,0,.22,0,.27.07.26.28,0,1.13-.01,2.27,0,3.4,0,.21-.07.25-.26.25Z"/>
      <path class="cls-2" d="M17.7,13.36c-.94,1.16-2.11,1.96-3.6,2.21-1.72.29-3.23-.21-4.54-1.33-1.5-1.3-2.3-2.99-2.6-4.92-.34-2.16-.01-4.21,1.11-6.11.91-1.53,2.17-2.63,3.94-3.07.18-.04.36-.06.53-.1.11-.05.23.02.33-.05h.49c.11.04.22.04.33,0h.05c.29.06.58.11.86.2,1.72.49,2.93,1.62,3.8,3.13,1.79,3.09,1.49,7.31-.71,10.03Z"/>
      <path class="cls-1" d="M22.52,24.71c0,.21-.07.25-.26.25-1.06,0-2.12,0-3.19,0s-2.11,0-3.16,0c-.19,0-.26-.02-.26-.24.01-1.14.01-2.29,0-3.43,0-.2.05-.25.25-.25,2.12,0,4.23,0,6.34,0,.22,0,.27.07.26.28,0,1.13-.01,2.27,0,3.4Z"/>
    </g>
  </g>
</svg>