<?xml version="1.0" encoding="UTF-8"?>
<svg id="Layer_2" data-name="Layer 2" xmlns="http://www.w3.org/2000/svg" viewBox="0 0 46.18 37.37">
  <defs>
    <style>
      .cls-1 {
        fill: #ec6229;
      }

      .cls-1, .cls-2 {
        stroke-width: 0px;
      }

      .cls-2 {
        fill: none;
      }
    </style>
  </defs>
  <g id="Camada_1" data-name="Camada 1">
    <g>
      <g>
        <path class="cls-1" d="M34.75,18.1c-1.35-1.03-3.18-.97-4.46.18-1.38,1.23-2.73,2.49-4.1,3.73-.11.1-.18.25-.36.04-.68-.82-1.56-1.19-2.62-1.19-1.42,0-2.85,0-4.27,0-.64,0-1.26-.08-1.86-.3-.87-.32-1.77-.54-2.69-.6-1.97-.14-3.78.25-5.33,1.59-1.33,1.14-2.68,2.25-4.02,3.37-.12.1-.22.22-.44.12-.79-.33-1.49-.17-2.1.44-.6.61-1.2,1.21-1.8,1.81-.93.94-.93,1.95.01,2.9,2.03,2.03,4.06,4.06,6.09,6.09.44.44.86.88,1.46,1.09h.66c.34-.12.69-.22.95-.48.72-.72,1.46-1.43,2.16-2.17.6-.64.65-1.59.1-2.27-.22-.28-.17-.41.07-.59.13-.1.24-.24.37-.35.9-.8,1.95-1.23,3.16-1.17,2.83.15,5.63-.02,8.42-.55,1.24-.24,2.41-.61,3.33-1.52,2.52-2.49,5.02-4.99,7.51-7.5.77-.78.64-1.99-.23-2.65ZM34.04,20.06c-2.38,2.38-4.77,4.76-7.14,7.15-.91.91-2.05,1.24-3.26,1.47-2.63.48-5.28.6-7.95.48-1.67-.08-3.07.6-4.23,1.79-.37.38-.37.38-.74,0-1.6-1.61-3.2-3.23-4.81-4.84-.18-.18-.19-.26.02-.43,1.3-1.07,2.6-2.13,3.86-3.23,1.33-1.16,2.89-1.46,4.59-1.33.8.06,1.58.26,2.33.54.7.25,1.43.36,2.18.36,1.51,0,3.02-.01,4.52,0,1.06.02,1.93.86,2.01,1.89.05.62-.19.88-.81.88-3.27,0-6.54,0-9.81,0-.1,0-.19,0-.29,0-.33.02-.55.25-.56.56-.01.33.21.57.55.6.17.01.34,0,.51,0h9.52c1.47,0,2.27-.94,2.02-2.39-.04-.21,0-.33.15-.47,1.44-1.31,2.87-2.62,4.32-3.93.85-.77,1.99-.86,2.89-.26.51.34.55.71.13,1.13Z"/>
        <path class="cls-1" d="M30.56,7.96c0,.49-.21.72-.7.72-2.42,0-4.84,0-7.26,0-.5,0-.71-.2-.71-.71,0-1.22,0-2.43,0-3.65s0-2.38,0-3.58c0-.57.2-.76.78-.75,4.27.06,7.85,3.67,7.89,7.96Z"/>
        <path class="cls-1" d="M27.38,9.9c-2.12,0-4.23,0-6.35,0-.27,0-.37-.05-.37-.35.02-1.08,0-2.16,0-3.25s0-2.16,0-3.25c0-.46-.21-.67-.67-.67-.35,0-.7.03-1.05.07-4.56.59-7.78,5.17-6.78,9.66.96,4.3,4.84,6.97,9.21,6.35,3.75-.53,6.75-3.95,6.81-7.74.01-.65-.16-.83-.8-.83ZM26.96,11.41c-.42,3.44-3.64,6.16-7.09,5.98-3.41-.17-6.04-2.5-6.62-5.84-.65-3.67,2.05-7.39,5.74-7.92q.52-.07.52.43v3.07c0,1.06,0,2.12,0,3.18,0,.54.2.75.75.75,2.13,0,4.26,0,6.38,0,.28,0,.36.05.32.36Z"/>
      </g>
      <path class="cls-2" d="M45.79,20.06c-3.27,3.28-6.56,6.55-9.82,9.84-1.25,1.26-2.82,1.71-4.48,2.02-3.62.66-7.26.83-10.94.65-2.29-.11-4.22.83-5.82,2.46-.51.52-.51.52-1.02.01-2.2-2.22-4.4-4.44-6.62-6.65-.25-.25-.26-.36.02-.59,1.78-1.46,3.57-2.92,5.31-4.44,1.83-1.59,3.98-2.01,6.31-1.83,1.11.09,2.17.36,3.21.74.97.35,1.97.5,3,.5,2.07,0,4.15-.02,6.22.01,1.46.02,2.66,1.18,2.77,2.6.07.85-.26,1.21-1.11,1.21-4.5,0-9,0-13.5,0-.13,0-.27,0-.4,0-.45.03-.76.34-.77.76-.01.45.29.79.76.83.23.02.47,0,.7,0h13.1c2.02,0,3.12-1.29,2.78-3.29-.05-.28-.01-.45.2-.64,1.98-1.79,3.95-3.61,5.94-5.4,1.17-1.06,2.73-1.18,3.97-.36.7.46.76.97.18,1.56Z"/>
    </g>
  </g>
</svg>