<?xml version="1.0" encoding="UTF-8"?>
<svg id="Layer_2" data-name="Layer 2" xmlns="http://www.w3.org/2000/svg" viewBox="0 0 32.09 34.28">
  <defs>
    <style>
      .cls-1 {
        fill: none;
      }

      .cls-1, .cls-2 {
        stroke-width: 0px;
      }

      .cls-2 {
        fill: #f36b34;
      }
    </style>
  </defs>
  <g id="Layer_1-2" data-name="Layer 1">
    <g>
      <path class="cls-2" d="M27.75,34.28s0-.04,0-.07c.2-.18.4-.18.59,0,0,.02,0,.05,0,.07h-.58Z"/>
      <path class="cls-2" d="M31.04,27.51c-1.62-1.88-3.24-3.75-4.88-5.61-.21-.24-.24-.39-.06-.66,1.17-1.87,1.86-3.92,1.96-6.13.22-4.77-1.49-8.76-5.11-11.85C18.62-.45,12.5-1.04,7.39,1.73,2.18,4.54-.64,10.1.12,16.03c.44,3.47,2.06,6.37,4.76,8.58,4.41,3.62,9.32,4.56,14.69,2.37.25-.1.36-.04.51.13,1.63,1.89,3.27,3.76,4.9,5.65.74.85,1.65,1.34,2.77,1.46.2,0,.4,0,.59,0,.15-.02.31-.03.45-.06,3.13-.63,4.34-4.21,2.25-6.65ZM14.03,24.76c-5.85-.01-10.74-4.79-10.66-10.59.1-6.84,5.13-10.73,10.67-10.73,5.54,0,10.57,3.86,10.68,10.72.09,5.82-4.82,10.61-10.69,10.6ZM17.03,16.12c-.09-.05-.22-.06-.25-.18,2.67-1.81,2.97-5.31,1.03-7.51-1.95-2.22-5.33-2.29-7.37-.17-2,2.07-1.98,5.7.88,7.7-.07.12-.2.13-.31.19-1.74.94-2.89,2.35-3.43,4.26-.07.25-.03.4.16.58,3.54,3.22,9.03,3.22,12.6.02.21-.19.25-.35.17-.61-.55-1.92-1.7-3.34-3.48-4.27ZM14.05,15.4c-2.07,0-3.67-1.61-3.66-3.69.02-2.07,1.6-3.66,3.65-3.66,2.06,0,3.67,1.63,3.66,3.7-.02,2.07-1.59,3.65-3.65,3.65Z"/>
      <path class="cls-2" d="M.44,6.89c-.08-.16-.25-.05-.36-.11.14-.06.28-.12.42-.02.04.03,0,.1-.05.13Z"/>
      <path class="cls-2" d="M28.02,6.78c-.11.06-.28-.04-.36.11-.05-.03-.1-.1-.05-.13.14-.1.28-.05.42.02Z"/>
      <path class="cls-2" d="M20.51,20.39c-.55-1.92-1.7-3.34-3.48-4.27-.09-.05-.22-.06-.25-.18,2.67-1.81,2.97-5.31,1.03-7.51-1.95-2.22-5.33-2.29-7.37-.17-2,2.07-1.98,5.7.88,7.7-.07.12-.2.13-.31.19-1.74.94-2.89,2.35-3.43,4.26-.07.25-.03.4.16.58,3.54,3.22,9.03,3.22,12.6.02.21-.19.25-.35.17-.61ZM14.05,15.4c-2.07,0-3.67-1.61-3.66-3.69.02-2.07,1.6-3.66,3.65-3.66,2.06,0,3.67,1.63,3.66,3.7-.02,2.07-1.59,3.65-3.65,3.65Z"/>
      <path class="cls-1" d="M24.72,14.16c-.11-6.86-5.14-10.73-10.68-10.72-5.54,0-10.57,3.89-10.67,10.73-.09,5.81,4.81,10.58,10.66,10.59,5.87.01,10.79-4.78,10.69-10.6ZM20.34,21c-3.56,3.21-9.06,3.2-12.6-.02-.19-.17-.23-.33-.16-.58.54-1.91,1.68-3.32,3.43-4.26.11-.06.24-.07.31-.19-2.86-2-2.88-5.62-.88-7.7,2.04-2.12,5.42-2.05,7.37.17,1.94,2.2,1.64,5.69-1.03,7.51.04.13.16.14.25.18,1.77.92,2.93,2.34,3.48,4.27.08.26.03.42-.17.61Z"/>
      <path class="cls-2" d="M20.51,20.39c-.55-1.92-1.7-3.34-3.48-4.27-.09-.05-.22-.06-.25-.18,2.67-1.81,2.97-5.31,1.03-7.51-1.95-2.22-5.33-2.29-7.37-.17-2,2.07-1.98,5.7.88,7.7-.07.12-.2.13-.31.19-1.74.94-2.89,2.35-3.43,4.26-.07.25-.03.4.16.58,3.54,3.22,9.03,3.22,12.6.02.21-.19.25-.35.17-.61ZM14.05,15.4c-2.07,0-3.67-1.61-3.66-3.69.02-2.07,1.6-3.66,3.65-3.66,2.06,0,3.67,1.63,3.66,3.7-.02,2.07-1.59,3.65-3.65,3.65Z"/>
      <path class="cls-1" d="M17.7,11.75c-.02,2.07-1.59,3.65-3.65,3.65-2.07,0-3.67-1.61-3.66-3.69.02-2.07,1.6-3.66,3.65-3.66,2.06,0,3.67,1.63,3.66,3.7Z"/>
    </g>
  </g>
</svg>