<?xml version="1.0" encoding="UTF-8"?>
<svg id="Layer_2" data-name="Layer 2" xmlns="http://www.w3.org/2000/svg" viewBox="0 0 52.13 34.53">
  <defs>
    <style>
      .cls-1 {
        fill: #ec6229;
        stroke-width: 0px;
      }
    </style>
  </defs>
  <g id="Layer_1-2" data-name="Layer 1">
    <g id="Layer_2-2" data-name="Layer 2">
      <path class="cls-1" d="M51.99,26.9c-.49-.16-.73-.5-.73-1.01v-8.32c0-.56-.15-1.01-.56-1.41-1.65-1.65-3.41-3.19-5.07-4.84-.47-.46-1.03-.65-1.7-.65-1.95.02-3.9,0-5.84,0-1.48,0-1.79.3-1.79,1.78v13.45c0,.19,0,.37-.01.56-.02.16-.07.28-.25.33-.78.24-1.15-.02-1.15-.82V2.67c0-.27,0-.54-.02-.81-.07-.85-.78-1.92-1.97-1.86H3.21c-1.01.06-1.62.58-1.87,1.57-.1.41-.11.84-.11,1.26v23.2c0,.73,0,.74-.7.78-.37.02-.54.14-.53.55C.03,28.14,0,28.92,0,29.7c0,.62.03.65.67.66.93,0,1.86.02,2.8,0,.43,0,.68.14.83.56.22.61.52,1.17.93,1.68,2.11,2.6,6.33,2.53,8.34,0,.32-.4.34-.38.67,0,1.51,1.79,3.7,2.29,5.85,1.66,1.71-.5,2.83-1.68,3.42-3.35.14-.4.35-.55.78-.55,4.52,0,9.05,0,13.57,0,.46,0,.67.17.84.61,1.14,2.92,3.79,4.1,6.71,3.32,1.72-.46,2.84-1.67,3.46-3.32.18-.47.42-.63.9-.6.57.03,1.15,0,1.73,0,.22,0,.44.02.63-.15v-3.25s-.08-.07-.13-.08h-.01ZM9.37,31.74c-1.39-.02-2.53-1.16-2.54-2.56-.01-1.41,1.16-2.59,2.57-2.59s2.58,1.18,2.57,2.59c0,1.41-1.19,2.58-2.59,2.57h-.01ZM18.41,31.74c-1.4,0-2.59-1.2-2.58-2.6.02-1.38,1.18-2.55,2.56-2.56,1.4,0,2.6,1.17,2.6,2.57s-1.19,2.59-2.59,2.59h.01ZM43.79,31.74c-1.39,0-2.55-1.14-2.57-2.53-.02-1.42,1.11-2.6,2.53-2.62,1.4-.03,2.59,1.14,2.6,2.56s-1.14,2.59-2.56,2.6h0ZM47.42,19.31c-.27.25-.81.07-1.23.07-.91,0-1.83,0-2.74,0-1.2,0-2.41,0-3.61,0-.32,0-.43-.07-.43-.42.02-1.52.02-3.04,0-4.57,0-.33.09-.43.43-.42,1.18.02,2.37,0,3.56,0,.24,0,.41.07.58.23,1.04.99,2.08,1.98,3.15,2.95.29.26.44.52.39.91-.05.42.18.96-.09,1.22v.03Z"/>
    </g>
  </g>
</svg>