<?xml version="1.0" encoding="UTF-8"?>
<svg id="Layer_2" data-name="Layer 2" xmlns="http://www.w3.org/2000/svg" viewBox="0 0 39.12 33.6">
  <defs>
    <style>
      .cls-1 {
        fill: #ec6229;
        stroke-width: 0px;
      }
    </style>
  </defs>
  <g id="Layer_1-2" data-name="Layer 1">
    <g id="Layer_2-2" data-name="Layer 2">
      <g>
        <path class="cls-1" d="M.66,33.6c-.33-.23-.42-.53-.41-.93.02-2.42,0-4.83,0-7.25,0-.69.2-.89.88-.89h2.79c.56,0,.69.09.89.63.52,1.38,1.05,2.77,1.55,4.16.09.26.19.3.46.25,1.87-.35,3.74-.68,5.61-1.01.27-.05.45-.16.6-.4.69-1.06,1.41-2.11,2.1-3.17.21-.33.47-.47.87-.47h22.27c.63,0,.85.22.85.85v7.29c0,.39-.09.7-.41.93H.65h.01Z"/>
        <path class="cls-1" d="M36.7,19.3c-.02-.13-.1-.27.11-.37.36-.17.4-.49.33-.86-.43-2.39-.9-4.77-1.25-7.16-.25-1.7-.95-3.03-2.47-3.9-.21-.12-.41-.28-.67-.47,1.04-.19,1.99-.35,2.94-.53.65-.13,1.09-.71,1.03-1.35-.03-.32-.09-.64-.17-.95-.15-.6-.59-.98-1.21-1.01-.69-.03-1.38-.05-2.06-.03-.78.02-1.32.66-1.24,1.43.04.32.11.64.16.96.01.09.06.18-.03.26-.24.19-.84.1-1.03-.15-.93-1.25-1.85-2.52-2.8-3.76-.79-1.05-1.87-1.53-3.18-1.39-.9.1-1.78.28-2.67.44-3.94.69-7.88,1.38-11.82,2.09-1.47.26-2.46,1.1-2.91,2.54-.46,1.5-.91,3.01-1.36,4.52-.03.11-.03.24-.16.3-.53.26-.82.12-.91-.46-.03-.17-.05-.35-.09-.52-.17-.84-.94-1.28-1.75-1-.41.14-.8.31-1.2.46-1.46.57-1.62.86-1.33,2.4v.04c.15.73.78,1.17,1.53,1.04.94-.16,1.88-.32,2.9-.5-.32.46-.61.87-.89,1.28-.6.87-.87,1.82-.71,2.87.12.81.27,1.62.41,2.43.34,1.95.69,3.9,1.03,5.85.05.31.19.56.51.59.27.03.29.18.32.37.1.57.18,1.15.32,1.71.24.99,1.17,1.6,2.17,1.44.85-.14,1.7-.28,2.55-.44,1.09-.2,1.75-1.1,1.62-2.2-.07-.59-.19-1.17-.3-1.75-.03-.17,0-.24.18-.26.43-.06.85-.18,1.27-.22.81-.08,1.54-.33,2.15-.91.15-.14.34-.2.55-.24,2.73-.48,5.46-.97,8.2-1.44.7-.12,1.41-.39,2.13-.03.49.24.99.16,1.5.06.51-.11,1.03-.18,1.55-.29.23-.05.33,0,.36.26.07.56.18,1.12.3,1.67.21,1,1.16,1.69,2.15,1.53.89-.14,1.78-.3,2.67-.47,1.05-.21,1.72-1.21,1.54-2.26-.09-.53-.19-1.06-.28-1.59v-.03ZM34.33,3.97h.48c.53,0,.58.07.6.58,0,.13,0,.2-.15.23-.5.08-1,.16-1.5.26-.17.03-.25,0-.27-.18v-.04c-.14-.58.14-.86.85-.84h-.01ZM3.97,10.28c-.49.08-.98.16-1.47.25-.13.02-.25.06-.26-.13,0-.21-.22-.49.02-.61.5-.25,1.04-.43,1.57-.64.13-.05.17.02.19.12.05.26.09.53.14.79.02.15-.05.18-.18.2v.02ZM31.93,10.94c.01.21.08.42.11.63.05.3-.04.56-.23.78-.05.06-.12.11-.18.16-.75.71-1.56,1.14-2.63.75-.56-.2-1.11.07-1.71.11.03-.43.07-.82.08-1.21,0-.17.11-.18.23-.22,1.35-.4,2.7-.79,4.05-1.19.19-.06.26-.03.27.18h0ZM20.51,15.33c-.3-.12-.54.07-.77.24-1.24.89-2.63,1.12-4.11.88-1.03-.17-1.56-.87-1.89-1.79-.06-.17.01-.18.13-.2,1.34-.22,2.67-.51,3.89-.66.73,0,1.32.15,1.9.22.21.02.41.03.59-.09,1.33-.94,2.89-1.12,4.43-1.38.37-.06.75-.11,1.11-.2.26-.07.29,0,.27.25-.13,1.56-.93,2.46-2.48,2.78-1.03.21-2.05.35-3.06-.04h0ZM11.29,14.74c.34-.02.76-.2,1.02,0,.25.19.32.6.46.92.04.08.07.17.14.31-1.04,0-1.86.53-2.7.99-.07.04-.16.08-.23.06-.58-.17-1.18-.28-1.73-.54-.27-.13-.4-.39-.46-.68-.05-.26-.09-.53-.14-.83,1.22-.08,2.42-.17,3.63-.23h.01ZM25.68,1.56c.13-.24.25-.29.5-.2.45.16.82.4,1.11.78.85,1.13,1.69,2.27,2.53,3.41.03.04.07.08.03.17-2.34.41-4.69.83-7.06,1.25-.02-.15.07-.24.13-.33.92-1.69,1.85-3.38,2.76-5.07h0ZM22.59,1.96c.09-.17.19-.26.39-.29.41-.06.82-.14,1.22-.22.06.13-.03.2-.07.28-.95,1.75-1.91,3.49-2.86,5.24-.11.21-.24.32-.48.35-.39.05-.77.13-1.24.22.36-.66.69-1.26,1.02-1.86.68-1.24,1.36-2.48,2.03-3.72h0ZM8.5,7.15c.17-.57.33-1.14.5-1.7.28-.9.89-1.47,1.82-1.64,3.37-.6,6.74-1.19,10.1-1.78h.14c-.88,1.62-1.8,3.19-2.6,4.81-.38.76-.87,1.06-1.69,1.19-2.83.44-5.65.98-8.48,1.48-.16.03-.31.05-.53.08.25-.84.49-1.64.73-2.45h0Z"/>
        <path class="cls-1" d="M2.48,18.59c-.07-.03-.12-.05-.17-.08-.71-.35-1.41-.71-2.13-1.06-.18-.09-.24-.17-.12-.36.17-.29.25-.72.49-.84.18-.09.56.22.85.36.49.24.98.5,1.48.73.18.09.25.16.13.36-.15.24-.26.5-.39.75-.03.06-.04.17-.14.14Z"/>
        <path class="cls-1" d="M.58,18.79c.08.04.13.06.18.08.71.35,1.41.71,2.12,1.06.18.09.22.16.13.36-.44.94-.43.94-1.34.48-.49-.25-.98-.5-1.48-.73-.19-.09-.24-.17-.12-.36.14-.23.24-.48.36-.72.04-.07.04-.2.15-.17Z"/>
        <path class="cls-1" d="M3.08,22.73c-.17.33-.33.68-.51,1-.07.12-.17,0-.25-.03-.72-.36-1.44-.73-2.16-1.08-.18-.09-.18-.17-.1-.34.43-.95.43-.96,1.37-.49.48.24.96.48,1.44.72.08.04.23.05.21.2v.02Z"/>
        <path class="cls-1" d="M19.65,32.3H1.96c-.32,0-.43-.06-.42-.41.03-1.07.02-2.13,0-3.2,0-.22.04-.3.28-.3.86.01,1.73.01,2.59,0,.2,0,.28.07.34.25.22.62.45,1.24.69,1.85.16.4.41.55.82.48,2.25-.41,4.5-.83,6.76-1.22.46-.08.77-.31.95-.71.24-.54.63-.66,1.21-.66,7.39.02,14.79.02,22.18,0,.36,0,.47.08.46.45-.03,1.01-.03,2.02,0,3.04,0,.33-.07.42-.41.42-5.92-.01-11.85,0-17.77,0h.01Z"/>
        <path class="cls-1" d="M15.28,27.12c.28-.42.53-.77.75-1.13.1-.16.22-.16.37-.16h21c.36,0,.44.08.43.44-.03.87,0,.87-.88.87H15.28v-.02Z"/>
        <path class="cls-1" d="M4.16,27.12H1.77c-.18,0-.22-.05-.23-.23-.06-1.07-.06-1.08.99-1.07.38,0,.83-.12,1.11.05.29.18.3.68.45,1.04.02.05.03.1.06.2h.01Z"/>
        <path class="cls-1" d="M35.71,17.36c-.39-2.13-.8-4.26-1.12-6.41-.19-1.25-.72-2.2-1.82-2.84-.54-.32-1.05-.71-1.56-1.08-.18-.13-.34-.18-.56-.14-1.74.31-3.47.62-5.21.92-3.45.61-6.9,1.22-10.35,1.82-2.51.44-5.01.88-7.52,1.33-.18.03-.35.05-.48.24-.51.76-1.05,1.5-1.56,2.26-.38.57-.55,1.2-.43,1.88.39,2.26.78,4.51,1.18,6.77.05.29-.02.74.23.84.25.11.62-.08.94-.12.21-.03.26-.1.22-.31-.14-.74-.27-1.48-.39-2.23-.08-.49.14-.78.64-.82.36-.03.73,0,1.09-.03,1.43-.08,2.86,0,4.28-.26,1.04-.19,1.03-.18,1.18.87.03.19-.03.24-.19.26-.88.13-1.74.35-2.64.34-.98,0-1.97,0-2.99,0,.1.6.21,1.07.26,1.55.03.32.18.35.45.3,1.38-.25,2.76-.51,4.14-.72.72-.11,1.38-.31,1.92-.83.2-.19.45-.26.73-.31,3-.52,6-1.04,8.99-1.6.77-.14,1.48-.16,2.21.15.13.05.27.1.43.07,1.72-.31,3.45-.62,5.17-.92.23-.04.29-.11.24-.33-.09-.38-.17-.76-.21-1.15-.03-.31-.11-.36-.42-.27-1.46.45-2.88,1.06-4.41,1.3-.88.13-.88.17-1.03-.69,0-.04-.02-.08-.03-.12-.1-.27.02-.34.28-.38.7-.12,1.41-.21,2.09-.44,1.2-.41,2.4-.79,3.6-1.18.58-.19.91,0,1.02.6.09.52.18,1.04.27,1.55.14.85.13.82.97.72.42-.05.45-.21.39-.56v-.03ZM31.81,12.36c-.05.06-.12.11-.18.16-.75.71-1.56,1.14-2.63.75-.56-.2-1.11.07-1.71.11.03-.43.07-.82.08-1.21,0-.17.11-.18.23-.22,1.35-.4,2.7-.79,4.05-1.19.19-.06.26-.03.27.18.01.21.08.42.11.63.05.3-.04.56-.23.78h0ZM26.06,12.6c-.13,1.56-.93,2.46-2.48,2.78-1.03.21-2.05.35-3.06-.04-.3-.12-.54.07-.77.24-1.24.89-2.63,1.12-4.11.88-1.03-.17-1.56-.87-1.89-1.79-.06-.17.01-.18.13-.2,1.34-.22,2.67-.51,3.89-.66.73,0,1.32.15,1.9.22.21.02.41.03.59-.09,1.33-.94,2.89-1.12,4.43-1.38.37-.06.75-.11,1.11-.2.26-.07.29,0,.27.25h0ZM9.98,17.02c-.58-.17-1.18-.28-1.73-.54-.27-.13-.4-.39-.46-.68-.05-.26-.09-.53-.14-.83,1.22-.08,2.42-.17,3.63-.23.34-.02.76-.2,1.02,0,.25.19.32.6.46.92.04.08.07.17.14.31-1.04,0-1.86.53-2.7.99-.07.04-.16.08-.23.06h.01Z"/>
        <path class="cls-1" d="M35.72,21.2c-.03.34-.17.6-.51.66-.87.17-1.75.33-2.62.47-.35.05-.61-.13-.69-.48-.12-.58-.21-1.17-.32-1.75-.04-.19.05-.23.21-.26,1.1-.19,2.2-.38,3.3-.58.22-.04.3,0,.33.24.08.57.2,1.14.3,1.7Z"/>
        <path class="cls-1" d="M11.47,25.47c-.02.38-.19.62-.54.68-.85.16-1.69.31-2.54.45-.38.06-.68-.17-.75-.56-.11-.55-.19-1.11-.3-1.67-.04-.19.03-.23.2-.25,1.13-.19,2.25-.39,3.38-.59.14-.03.23-.03.26.14.1.61.21,1.22.31,1.8h-.02Z"/>
        <path class="cls-1" d="M33.21,10.75c-.18-1.12-.84-1.54-1.92-1.22-2.45.71-4.88,1.52-7.43,1.86-1.32.18-2.64.4-3.79,1.16-.23.15-.46.16-.72.12-.48-.09-.96-.16-1.21-.16-.86,0-1.47.15-2.08.24-1.32.2-2.61.54-3.95.63-1.51.1-3.01.2-4.52.3-.82.06-1.35.72-1.22,1.53.05.31.1.61.17.91.19.86.72,1.43,1.55,1.7.51.17,1.03.3,1.54.47.37.13.69.08,1.04-.1.65-.34,1.24-.79,2.01-.91.68-.1,1.27-.11,1.96.17,1.91.78,3.77.38,5.53-.61.14-.08.24-.21.43-.15.87.27,1.75.2,2.64.06,1.35-.22,2.53-.71,3.41-1.81.04-.05.09-.12.15-.13.61-.11,1.21-.31,1.83-.29.56.02,1.12.14,1.68.24.24.04.46,0,.65-.14.53-.39,1.07-.78,1.58-1.19.56-.45.82-1.06.81-1.77,0-.31-.09-.61-.13-.92h-.01ZM10.2,16.96c-.07.04-.16.08-.23.06-.58-.17-1.18-.28-1.73-.54-.27-.13-.4-.39-.46-.68-.05-.26-.09-.53-.14-.83,1.22-.08,2.42-.17,3.63-.23.34-.02.76-.2,1.02,0,.25.19.32.6.46.92.04.08.07.17.14.31-1.04,0-1.86.53-2.7.99h.01ZM26.06,12.6c-.13,1.56-.93,2.46-2.48,2.78-1.03.21-2.05.35-3.06-.04-.3-.12-.54.07-.77.24-1.24.89-2.63,1.12-4.11.88-1.03-.17-1.56-.87-1.89-1.79-.06-.17.01-.18.13-.2,1.34-.22,2.67-.51,3.89-.66.73,0,1.32.15,1.9.22.21.02.41.03.59-.09,1.33-.94,2.89-1.12,4.43-1.38.37-.06.75-.11,1.11-.2.26-.07.29,0,.27.25h0ZM31.81,12.36c-.05.06-.12.11-.18.16-.75.71-1.56,1.14-2.63.75-.56-.2-1.11.07-1.71.11.03-.43.07-.82.08-1.21,0-.17.11-.18.23-.22,1.35-.4,2.7-.79,4.05-1.19.19-.06.26-.03.27.18.01.21.08.42.11.63.05.3-.04.56-.23.78h0Z"/>
      </g>
    </g>
  </g>
</svg>