<?xml version="1.0" encoding="UTF-8"?>
<svg id="Layer_2" data-name="Layer 2" xmlns="http://www.w3.org/2000/svg" viewBox="0 0 28.03 33.66">
  <defs>
    <style>
      .cls-1 {
        fill: #ec6229;
        stroke-width: 0px;
      }
    </style>
  </defs>
  <g id="Layer_1-2" data-name="Layer 1">
    <g id="Layer_2-2" data-name="Layer 2">
      <g>
        <path class="cls-1" d="M16.31,7.45c-.02,1.26-1.06,2.29-2.32,2.28-1.27,0-2.31-1.06-2.29-2.34.02-1.27,1.05-2.29,2.32-2.28,1.28,0,2.31,1.06,2.29,2.33h0Z"/>
        <path class="cls-1" d="M14.05,14.57c-1.24-.04-2.31.98-2.34,2.24-.04,1.27.96,2.32,2.25,2.38,1.23.05,2.32-.97,2.36-2.23.04-1.29-.96-2.35-2.26-2.39h0ZM13.98,24.02c-1.27.03-2.28,1.06-2.28,2.31s1.06,2.32,2.32,2.32,2.31-1.07,2.3-2.33c0-1.27-1.08-2.33-2.33-2.3h-.01ZM14.05,14.57c-1.24-.04-2.31.98-2.34,2.24-.04,1.27.96,2.32,2.25,2.38,1.23.05,2.32-.97,2.36-2.23.04-1.29-.96-2.35-2.26-2.39h0ZM13.98,24.02c-1.27.03-2.28,1.06-2.28,2.31s1.06,2.32,2.32,2.32,2.31-1.07,2.3-2.33c0-1.27-1.08-2.33-2.33-2.3h-.01ZM14.05,14.57c-1.24-.04-2.31.98-2.34,2.24-.04,1.27.96,2.32,2.25,2.38,1.23.05,2.32-.97,2.36-2.23.04-1.29-.96-2.35-2.26-2.39h0ZM13.98,24.02c-1.27.03-2.28,1.06-2.28,2.31s1.06,2.32,2.32,2.32,2.31-1.07,2.3-2.33c0-1.27-1.08-2.33-2.33-2.3h-.01ZM14.05,14.57c-1.24-.04-2.31.98-2.34,2.24-.04,1.27.96,2.32,2.25,2.38,1.23.05,2.32-.97,2.36-2.23.04-1.29-.96-2.35-2.26-2.39h0ZM13.98,24.02c-1.27.03-2.28,1.06-2.28,2.31s1.06,2.32,2.32,2.32,2.31-1.07,2.3-2.33c0-1.27-1.08-2.33-2.33-2.3h-.01ZM20.93,1.35c0-.64-.21-1.1-.81-1.35H7.9c-.62.26-.81.73-.81,1.38.01,10.3,0,20.6,0,30.89v.3c.03.66.46,1.09,1.11,1.09h11.59c.55,0,.96-.31,1.08-.83.04-.17.03-.35.03-.52V1.35h.03ZM14.01,3.42c2.18,0,3.99,1.82,3.98,4,0,2.19-1.82,3.99-4,3.98-2.2,0-3.99-1.81-3.98-4,0-2.19,1.82-3.99,4-3.99h0ZM14,30.31c-2.2,0-3.99-1.8-3.99-3.99s1.8-3.98,4-3.98,3.99,1.81,3.99,3.99-1.8,3.98-4,3.98ZM14.02,20.86c-2.2,0-3.99-1.77-4-3.97-.01-2.18,1.8-3.99,3.98-4,2.19,0,3.99,1.79,4,3.98s-1.78,3.98-3.98,3.99ZM13.98,24.02c-1.27.03-2.28,1.06-2.28,2.31s1.06,2.32,2.32,2.32,2.31-1.07,2.3-2.33c0-1.27-1.08-2.33-2.33-2.3h-.01ZM14.05,14.57c-1.24-.04-2.31.98-2.34,2.24-.04,1.27.96,2.32,2.25,2.38,1.23.05,2.32-.97,2.36-2.23.04-1.29-.96-2.35-2.26-2.39h0ZM13.98,24.02c-1.27.03-2.28,1.06-2.28,2.31s1.06,2.32,2.32,2.32,2.31-1.07,2.3-2.33c0-1.27-1.08-2.33-2.33-2.3h-.01ZM14.05,14.57c-1.24-.04-2.31.98-2.34,2.24-.04,1.27.96,2.32,2.25,2.38,1.23.05,2.32-.97,2.36-2.23.04-1.29-.96-2.35-2.26-2.39h0ZM13.98,24.02c-1.27.03-2.28,1.06-2.28,2.31s1.06,2.32,2.32,2.32,2.31-1.07,2.3-2.33c0-1.27-1.08-2.33-2.33-2.3h-.01ZM14.05,14.57c-1.24-.04-2.31.98-2.34,2.24-.04,1.27.96,2.32,2.25,2.38,1.23.05,2.32-.97,2.36-2.23.04-1.29-.96-2.35-2.26-2.39h0ZM14.05,14.57c-1.24-.04-2.31.98-2.34,2.24-.04,1.27.96,2.32,2.25,2.38,1.23.05,2.32-.97,2.36-2.23.04-1.29-.96-2.35-2.26-2.39h0ZM14.05,14.57c-1.24-.04-2.31.98-2.34,2.24-.04,1.27.96,2.32,2.25,2.38,1.23.05,2.32-.97,2.36-2.23.04-1.29-.96-2.35-2.26-2.39h0Z"/>
        <path class="cls-1" d="M5.53,26.09v3.61c0,.21-.04.3-.27.27-.16-.02-.33,0-.49,0-.61-.03-1.06-.48-1.09-1.1v-.13c.18-.94-.22-1.59-.91-2.2-.82-.71-1.54-1.52-2.31-2.28-.39-.39-.59-.83-.37-1.36.23-.53.67-.7,1.23-.69,1.31.01,2.63,0,3.94,0,.22,0,.27.06.27.27-.01,1.2,0,2.41,0,3.61h0Z"/>
        <path class="cls-1" d="M22.49,26.09v-3.61c0-.21.05-.27.27-.27,1.33.01,2.67,0,4,0,.53,0,.95.19,1.16.69s.05.94-.32,1.31c-1.02,1.02-2.04,2.05-3.07,3.06-.14.14-.21.28-.2.48.02.37.01.74,0,1.12-.02.61-.47,1.06-1.08,1.1-.5.03-.75-.2-.75-.69v-3.19h0Z"/>
        <path class="cls-1" d="M5.53,7.67v3.61c0,.21-.04.3-.27.28-.17-.02-.35,0-.52,0-.62-.06-1.03-.51-1.05-1.13v-.13c.16-.89-.18-1.53-.86-2.12-.86-.74-1.63-1.59-2.42-2.4-.65-.67-.46-1.62.37-1.91.15-.05.3-.06.45-.06h4.04c.21,0,.27.05.27.27-.01,1.2,0,2.41,0,3.61h-.01Z"/>
        <path class="cls-1" d="M22.49,7.67v-3.58c0-.22.04-.3.28-.29,1.33,0,2.67,0,4,0,.53,0,.95.2,1.15.69.21.5.04.93-.33,1.31-1.01,1-2.01,2.02-3.02,3.01-.18.18-.26.35-.24.6.02.33,0,.66,0,.98-.01.67-.45,1.12-1.13,1.16-.47.03-.71-.2-.71-.67v-3.22h0Z"/>
        <path class="cls-1" d="M5.53,16.9v3.58c0,.22-.04.32-.28.29-.16-.02-.33,0-.49,0-.62-.04-1.05-.5-1.07-1.11,0-.37-.01-.74,0-1.12,0-.19-.06-.32-.19-.46-1.03-1.02-2.05-2.04-3.06-3.06-.58-.58-.57-1.32,0-1.77.2-.16.44-.24.7-.24h4.17c.21,0,.22.09.22.25v3.64h0Z"/>
        <path class="cls-1" d="M22.49,16.88v-3.61c0-.21.05-.27.27-.27,1.35,0,2.69,0,4.04,0,.52,0,.92.2,1.13.69.21.48.07.92-.3,1.29-1.04,1.04-2.07,2.08-3.11,3.11-.13.12-.19.25-.18.43.01.37.01.74,0,1.12-.01.63-.45,1.09-1.08,1.13-.5.03-.75-.2-.75-.69v-3.18l-.02-.02Z"/>
        <path class="cls-1" d="M16.31,16.95c-.04,1.26-1.13,2.28-2.36,2.23-1.29-.05-2.28-1.1-2.25-2.38.03-1.26,1.1-2.28,2.34-2.24,1.3.04,2.31,1.1,2.26,2.39h0Z"/>
        <path class="cls-1" d="M16.31,7.45c-.02,1.26-1.06,2.29-2.32,2.28-1.27,0-2.31-1.06-2.29-2.34.02-1.27,1.05-2.29,2.32-2.28,1.28,0,2.31,1.06,2.29,2.33h0Z"/>
        <path class="cls-1" d="M16.31,26.31c0,1.27-1.03,2.33-2.3,2.33s-2.31-1.05-2.32-2.32c0-1.26,1.01-2.28,2.28-2.31,1.25-.03,2.32,1.03,2.33,2.3h.01Z"/>
        <path class="cls-1" d="M16.31,16.95c-.04,1.26-1.13,2.28-2.36,2.23-1.29-.05-2.28-1.1-2.25-2.38.03-1.26,1.1-2.28,2.34-2.24,1.3.04,2.31,1.1,2.26,2.39h0Z"/>
        <path class="cls-1" d="M16.31,7.45c-.02,1.26-1.06,2.29-2.32,2.28-1.27,0-2.31-1.06-2.29-2.34.02-1.27,1.05-2.29,2.32-2.28,1.28,0,2.31,1.06,2.29,2.33h0Z"/>
        <path class="cls-1" d="M16.31,26.31c0,1.27-1.03,2.33-2.3,2.33s-2.31-1.05-2.32-2.32c0-1.26,1.01-2.28,2.28-2.31,1.25-.03,2.32,1.03,2.33,2.3h.01Z"/>
      </g>
    </g>
  </g>
</svg>