<?xml version="1.0" encoding="UTF-8"?>
<svg id="Layer_2" data-name="Layer 2" xmlns="http://www.w3.org/2000/svg" viewBox="0 0 24.01 32.81">
  <defs>
    <style>
      .cls-1 {
        fill: #f36b34;
        stroke-width: 0px;
      }
    </style>
  </defs>
  <g id="Layer_1-2" data-name="Layer 1">
    <g>
      <path class="cls-1" d="M10.78,20.09q.16-.6.79-.6c.44,0,.88,0,1.32,0,.09,0,.21-.04.23.1.07.5.24.98.23,1.49-.02.03-.05.03-.08,0-.05-.08-.05-.16-.04-.2,0,.04-.03.13.05.21.03.07.02.15.01.19,0,.08.07,0,.03.03-.04-.08-.04-.17.02-.25.2.27.12.62.22.92.06.17-.09.39.12.52.11.53.21,1.06.34,1.68.39-1.05.75-2,1.11-2.96.03-.02.08,0,.1-.02.02-.05-.05-.03-.06-.06.38-1.13.8-2.24,1.23-3.35.13-.12.16-.38.46-.25.13.05.13-.15.16-.26.06-.25-.13-.48-.08-.73.07-.14.15-.26.34-.2l.41.1c.06.14.2.1.31.12.76.23,1.45.6,2.08,1.09.37.28.83.45,1.04.91.04.05.08.1.06.16-.1.4.13.6.43.76.43.22.69.57.81,1.03.02.07.04.16.1.18.34.14.34.42.36.72.02.31.18.59.29.87.13.34.18.68.16,1.04-.02.38.04.75.37,1.03.19.17.21.82.04,1.11-.1.16-.17.31-.18.49,0,.3-.31.37-.45.56-.1.14-.26.24-.29.43,0,.03-.02.08-.04.1-.4.25-.58.77-1.08.92-.13.04-.24.12-.27.26-.05.22-.22.37-.38.51-.45.4-.86.84-1.35,1.2-.02.01-.03.04-.06.04-.61.1-1.05.66-1.71.61-.22-.01-.4.13-.45.3-.13.44-.48.65-.82.89-.06.07-.09.16-.13.24-1.47.56-3.01.78-4.55.75-1.19-.02-2.38-.25-3.53-.64-2.42-.83-4.46-2.2-6.14-4.13-.15-.17-.32-.31-.43-.5.03-.19-.16-.2-.24-.3-.59-.71-1.09-1.47-1.51-2.28.02-.26-.05-.53,0-.79.01-.11,0-.22.01-.33,0-.05.01-.1.05-.15.11-.08.03-.21.07-.31-.05.1.05.24-.09.31-.1-.07-.06-.16-.04-.25.04-.48.15-.93.35-1.37.08.06.06.13.06.13.07-.28.2-.62.28-.97.32-.69.69-1.35,1.26-1.87.03-.03.05-.08.07-.12.35-.24.61-.57.91-.86,0-.07.06-.07.12-.08.15-.1.27-.23.38-.37.33-.27.66-.55,1.08-.68.08.03.13.02.11-.08.65-.42,1.39-.65,2.13-.85.12-.03.21,0,.25.12.2.68.5,1.32.69,2,.13.46.38.91.55,1.37.53,1.43,1.06,2.86,1.66,4.3.23-1.22.46-2.44.69-3.65.19.11.05.3.09.44-.06.08-.08.18-.07.26.02-.04-.02-.12.02-.19.12-.25-.03-.55.15-.78-.05-.02-.12-.01-.13-.09Z"/>
      <path class="cls-1" d="M5.68,3.1c.77-.98,1.69-1.76,2.83-2.29,2.09-.98,4.22-1.06,6.38-.26.33.12.66.23.95.44.01.01.02.03.02.04,0,.02,0,.02,0,.02-.04.08.04.07.07.1.15.07.27.18.4.27.09.06.16.08.24.01.24.15.49.27.63.54.22.33.5.59.85.78,1.06,1.15,1.7,2.51,1.92,4.04.4,2.74-.36,5.15-2.37,7.06-2.24,2.13-4.91,2.74-7.89,1.93-.05-.18-.2-.08-.31-.12-1.12-.35-2.08-.96-2.93-1.79-.65-.63-1.21-1.31-1.62-2.11-.9-1.75-1.13-3.6-.69-5.53.18,0,.1-.16.14-.23.07-.12,0-.25.04-.37.23-.81.54-1.57,1.14-2.19.09-.11.21-.2.21-.36Z"/>
      <path class="cls-1" d="M16.55,31.87c.06-.27.33-.3.51-.42.09-.06.17-.09.2-.21.18-.57.27-.59.86-.69.22-.04.54,0,.68-.3.02-.04.07-.07.11-.07.52-.04.96-.35,1.25-.69.39-.44,1.03-.67,1.18-1.33.05-.2.26-.23.43-.26.18-.04.31-.11.33-.31.01-.11.07-.17.16-.21.27-.12.44-.28.51-.6.04-.2.32-.35.5-.52.04-.04.15-.05.15-.07,0-.55.49-1,.32-1.58-.01-.03-.01-.08-.04-.1-.52-.31-.49-.81-.45-1.3.03-.49-.21-.89-.36-1.32-.04-.11-.08-.22-.1-.33-.06-.29.02-.65-.39-.76-.08-.02-.06-.14-.08-.22-.09-.37-.25-.69-.61-.87-.45-.22-.81-.5-.6-1.09.1.02.22.03.27.13.21.36.6.56.81.92.01.12.07.2.18.24.64.86,1.12,1.8,1.36,2.85-.04.02-.08.05-.1.1.03-.01.06-.07.1-.03.15.49.23.99.21,1.5-.03.02-.05.02-.08,0,.02-.04-.02.02-.01-.03,0-.05,0-.08.01-.03.03.56,0,1.12.02,1.68,0,.03,0,.07.02.1-.57.92-1.25,1.73-2.01,2.5-.88.89-1.81,1.7-2.88,2.34-.71.43-1.44.82-2.23,1.07-.1.03-.19.03-.24-.08Z"/>
      <path class="cls-1" d="M12,18.67c-.33,0-.66,0-1,0-.17,0-.23-.05-.22-.22.01-.45,0-.9,0-1.35,0-.16.02-.22.21-.19.67.08,1.35.08,2.02,0,.16-.02.21,0,.2.17,0,.46-.01.93,0,1.39,0,.18-.07.21-.23.21-.33,0-.66,0-1,0Z"/>
      <path class="cls-1" d="M16.98,16.59c.09.25.2.51.14.78-.04.16-.03.44-.36.23-.17-.11-.17.23-.34.21.15-.4.29-.81.44-1.21.04-.04.08-.04.13,0Z"/>
      <path class="cls-1" d="M.13,23.43c.03.08,0,.18.08.23h0s0,.09,0,.14c-.06.12-.05.24,0,.36-.05.26.12.54-.07.79-.14-.12-.15-.29-.13-.45.04-.36,0-.72.12-1.07Z"/>
      <path class="cls-1" d="M18.05,2.75c-.35,0-.69-.31-.85-.78.38.15.6.48.85.78Z"/>
      <path class="cls-1" d="M16.56,1.44c0,.16-.04.27-.22.13-.17-.13-.34-.26-.51-.39.03-.06-.06-.11,0-.16v-.03c.24.15.48.3.73.45Z"/>
      <path class="cls-1" d="M.82,21.22c.06.32-.1.6-.18.89-.02.07-.08.13-.13.22-.01-.11-.02-.2-.03-.28.05-.3.19-.57.34-.84Z"/>
      <path class="cls-1" d="M3.06,18.37c-.22.38-.48.71-.91.86.26-.33.52-.67.91-.86Z"/>
      <path class="cls-1" d="M23.9,24.3h.07c0,.58.1,1.16-.05,1.73l-.02-.02c-.05-.57-.06-1.14,0-1.71Z"/>
      <path class="cls-1" d="M4.34,5.65c.1.22.07.43-.04.63-.07.13-.09-.01-.14-.03.04-.21.07-.42.18-.6Z"/>
      <path class="cls-1" d="M10.77,20.95c-.02-.17.06-.34-.06-.5.02-.12.05-.24.07-.36.04.07.22.01.18.1-.13.24-.05.52-.19.76h0Z"/>
      <path class="cls-1" d="M13.68,22.52c-.11.06-.19.04-.18-.09,0-.14.04-.29.06-.43.1.16.08.35.12.52Z"/>
      <path class="cls-1" d="M16.98,16.59s-.09,0-.13,0c.04-.28.16-.41.43-.22-.16,0-.21.14-.3.22Z"/>
      <path class="cls-1" d="M5.68,3.1c.16.25-.06.29-.21.36,0-.16.09-.27.21-.36Z"/>
      <path class="cls-1" d="M3.55,17.93c-.04.21-.17.33-.38.37.03-.22.22-.28.38-.37Z"/>
      <path class="cls-1" d="M9.4,15.68c.11-.05.21-.13.33-.04.06.04,0,.11-.02.16-.11-.03-.22-.03-.31-.12Z"/>
      <path class="cls-1" d="M1.65,27.23c.11.08.4,0,.24.3-.1-.08-.19-.17-.24-.3Z"/>
      <path class="cls-1" d="M22.39,19.88c-.22.04-.27-.05-.18-.24.1.06.15.14.18.24Z"/>
      <path class="cls-1" d="M18,16.59c-.13.03-.3.17-.31-.12.1.03.22.03.31.12Z"/>
      <path class="cls-1" d="M15.18,21.16s.13-.08.13-.07c.05.07,0,.13-.03.19-.08.12-.09-.03-.14-.04.01-.03.03-.05.04-.08Z"/>
      <path class="cls-1" d="M16.55,31.87c.08.03.16.06.24.08-.06.09-.17.07-.25.11-.06-.07-.03-.13,0-.19Z"/>
      <path class="cls-1" d="M4.74,17.16s.15,0,.12.07c-.05.1-.14.1-.22.01.04-.03.07-.06.11-.08Z"/>
      <path class="cls-1" d="M23.76,22.8c-.04.05-.08.1-.12.15.05-.07-.18-.27.11-.23v.07Z"/>
      <path class="cls-1" d="M11.04,19.59c.61,0,1.22,0,1.83,0,.2,0,.2.12.15.36-.03-.29-.18-.29-.34-.29-.55,0-1.1,0-1.66,0,0-.02,0-.05.01-.07Z"/>
      <path class="cls-1" d="M13.52,32.63h-.68s0-.02,0-.03h.71s-.02.02-.03.03Z"/>
      <path class="cls-1" d="M9.25,32.3c-.09-.03-.18-.07-.3-.11.14-.06.24-.02.32.05,0,0-.01.03-.02.06Z"/>
      <path class="cls-1" d="M14.19,32.53c-.16.06-.25.06-.34.03.09-.09.18-.04.34-.03Z"/>
      <path class="cls-1" d="M.21,23.66v-.35c.07.12.11.24,0,.35,0,0,0,0,0,0Z"/>
      <path class="cls-1" d="M10.49,22.37v.32c-.1-.14-.09-.23,0-.32h0Z"/>
      <path class="cls-1" d="M10.3,23.46c-.05-.08-.05-.15,0-.25.05.09.06.17,0,.25Z"/>
      <path class="cls-1" d="M10.49,22.38v-.36c.09.18.1.28,0,.36,0,0,0,0,0,0Z"/>
      <path class="cls-1" d="M10.77,20.95v.32c-.1-.14-.09-.24,0-.32,0,0,0,0,0,0Z"/>
      <path class="cls-1" d="M.21,24.16c-.1-.12-.1-.24,0-.36,0,.12,0,.24,0,.36Z"/>
      <path class="cls-1" d="M13.27,21.09c-.1-.08-.09-.18-.04-.3.08.1.03.2.04.3h0Z"/>
      <path class="cls-1" d="M10.06,32.44h-.36c.18-.09.27-.1.36,0h0Z"/>
      <path class="cls-1" d="M10.06,32.44h.32c-.14.1-.24.09-.32,0,0,0,0,0,0,0Z"/>
      <path class="cls-1" d="M13.27,21.09s.06,0,.08,0c0,0,0,0,0,0,0,.1-.01.2-.02.32-.09-.11-.04-.22-.06-.31,0,0,0,0,0,0Z"/>
      <path class="cls-1" d="M11.2,15.95h1.55c-.52.03-1.03.16-1.55,0h0Z"/>
      <path class="cls-1" d="M19.98,8.6c-.13.34,0,.74-.21,1.07h0c0-.36.06-.72.14-1.07.02-.03.05-.03.07,0Z"/>
      <path class="cls-1" d="M19.98,8.6s-.05,0-.07,0c0-.35,0-.7,0-1.06h.07v1.06Z"/>
      <path class="cls-1" d="M4.07,8.6c0-.31,0-.62,0-.93.02-.03.05-.03.07,0,0,.31,0,.62,0,.93-.02.03-.04.03-.07,0Z"/>
      <path class="cls-1" d="M11.91.12h.77s0,.04,0,.07h-.77s-.03-.03-.02-.04c0-.01.02-.02.02-.02Z"/>
      <path class="cls-1" d="M11.91.12s0,.04,0,.07c-.21,0-.42,0-.63,0,0-.02,0-.04,0-.07h.63Z"/>
      <path class="cls-1" d="M10.63,15.88c.19.03.4-.07.57.07,0,0,0,0,0,0-.19-.03-.4.07-.57-.07h0Z"/>
      <path class="cls-1" d="M4.13,7.68h-.03s-.03,0-.03,0c0-.16,0-.32,0-.49.02,0,.05,0,.07,0v.49Z"/>
      <path class="cls-1" d="M19.83,6.82c.15.15.03.33,0,.49v-.49h0Z"/>
      <path class="cls-1" d="M4.21,9.46c.12.1.05.23,0,.35v-.35h0Z"/>
      <path class="cls-1" d="M12.93.22c.16-.04.25-.05.35,0-.1.07-.2.05-.35,0Z"/>
      <path class="cls-1" d="M19.83,6.82c-.11-.11-.08-.23,0-.35,0,.12,0,.24,0,.35,0,0,0,0,0,0Z"/>
      <path class="cls-1" d="M15.84,1.02c-.07.06.25.11,0,.16-.1-.05-.16-.11,0-.16Z"/>
      <path class="cls-1" d="M13.35,15.82h.3c-.09.09-.16.07-.3,0Z"/>
      <path class="cls-1" d="M4.16,6.71c.06.11.06.18.02.26-.07-.07-.04-.14-.02-.26Z"/>
      <path class="cls-1" d="M4.07,8.6s.05,0,.07,0c0,.1,0,.2,0,.35-.1-.14-.06-.25-.07-.35Z"/>
      <path class="cls-1" d="M10.63,15.88h-.36c.18-.09.28-.1.36,0,0,0,0,0,0,0Z"/>
      <path class="cls-1" d="M4.21,9.46c-.1-.08-.08-.18-.04-.3.08.1.03.2.04.3,0,0,0,0,0,0Z"/>
      <path class="cls-1" d="M19.76,9.67v.37c-.09-.19-.1-.28,0-.37,0,0,0,0,0,0Z"/>
      <path class="cls-1" d="M23.9,24.3c0,.57,0,1.14,0,1.71-.14-.19-.06-.41-.07-.61-.01-.46,0-.92,0-1.39.12.09.05.21.08.3Z"/>
      <path class="cls-1" d="M23.79,23.43c.06.11.05.21,0,.32-.06-.11-.05-.21,0-.32Z"/>
      <path class="cls-1" d="M12.47,17.06q.66-.08.66.45c0,.33,0,.66-.07.99,0-.29,0-.58,0-.87q0-.52-.59-.57Z"/>
      <path class="cls-1" d="M10.99,17.1c.04.49-.1,1,.09,1.49-.18.03-.16-.12-.16-.25,0-.41,0-.83,0-1.24.02-.02.05-.02.07,0Z"/>
      <path class="cls-1" d="M11.48,17.03c.25.11.53.04.79.11-.26.03-.53.09-.79-.04-.02-.02-.03-.03-.02-.05,0-.02.01-.02.02-.02Z"/>
      <path class="cls-1" d="M11.48,17.03s0,.05,0,.07c-.17,0-.33,0-.5,0-.02,0-.05,0-.07,0,.17-.14.38-.04.57-.07Z"/>
    </g>
  </g>
</svg>