<svg width="25" height="34" viewBox="0 0 25 34" fill="none" xmlns="http://www.w3.org/2000/svg">
<path d="M10.8393 20.4905C10.9993 19.8905 10.9993 19.8905 11.6293 19.8905C12.0693 19.8905 12.5093 19.8905 12.9493 19.8905C13.0393 19.8905 13.1593 19.8505 13.1793 19.9905C13.2493 20.4905 13.4193 20.9705 13.4093 21.4805C13.3893 21.5105 13.3593 21.5105 13.3293 21.4905C13.2793 21.4105 13.2793 21.3305 13.2893 21.2905C13.2893 21.3305 13.2593 21.4205 13.3393 21.5005C13.3693 21.5705 13.3593 21.6505 13.3493 21.6905C13.3493 21.7705 13.4193 21.7005 13.3793 21.7205C13.3393 21.6405 13.3393 21.5505 13.3993 21.4705C13.5993 21.7405 13.5193 22.0905 13.6193 22.3905C13.6793 22.5605 13.5293 22.7805 13.7393 22.9105C13.8493 23.4405 13.9493 23.9705 14.0793 24.5905C14.4693 23.5405 14.8293 22.5905 15.1893 21.6305C15.2193 21.6105 15.2693 21.6405 15.2893 21.6105C15.3093 21.5605 15.2393 21.5805 15.2293 21.5505C15.6093 20.4205 16.0293 19.3105 16.4593 18.2005C16.5893 18.0805 16.6193 17.8205 16.9193 17.9505C17.0493 18.0005 17.0493 17.8005 17.0793 17.6905C17.1393 17.4405 16.9493 17.2105 16.9993 16.9605C17.0693 16.8205 17.1493 16.7005 17.3393 16.7605C17.4793 16.7905 17.6093 16.8205 17.7493 16.8605C17.8093 17.0005 17.9493 16.9605 18.0593 16.9805C18.8193 17.2105 19.5093 17.5805 20.1393 18.0705C20.5093 18.3505 20.9693 18.5205 21.1793 18.9805C21.2193 19.0305 21.2593 19.0805 21.2393 19.1405C21.1393 19.5405 21.3693 19.7405 21.6693 19.9005C22.0993 20.1205 22.3593 20.4705 22.4793 20.9305C22.4993 21.0005 22.5193 21.0905 22.5793 21.1105C22.9193 21.2505 22.9193 21.5305 22.9393 21.8305C22.9593 22.1405 23.1193 22.4205 23.2293 22.7005C23.3593 23.0405 23.4093 23.3805 23.3893 23.7405C23.3693 24.1205 23.4293 24.4905 23.7593 24.7705C23.9493 24.9405 23.9693 25.5905 23.7993 25.8805C23.6993 26.0405 23.6293 26.1905 23.6193 26.3705C23.6093 26.6705 23.3093 26.7405 23.1693 26.9305C23.0693 27.0705 22.9093 27.1705 22.8793 27.3605C22.8793 27.3905 22.8593 27.4405 22.8393 27.4605C22.4393 27.7105 22.2593 28.2305 21.7593 28.3805C21.6293 28.4205 21.5193 28.5005 21.4893 28.6405C21.4393 28.8605 21.2693 29.0105 21.1093 29.1505C20.6593 29.5505 20.2493 29.9905 19.7593 30.3505C19.7393 30.3605 19.7293 30.3905 19.6993 30.3905C19.0893 30.4905 18.6493 31.0505 17.9893 31.0005C17.7693 30.9905 17.5893 31.1305 17.5393 31.3005C17.4093 31.7405 17.0593 31.9505 16.7193 32.1905C16.6593 32.2605 16.6293 32.3505 16.5893 32.4305C15.1193 32.9905 13.5793 33.2105 12.0393 33.1805C10.8493 33.1605 9.6593 32.9305 8.5093 32.5405C6.0893 31.7105 4.0493 30.3405 2.3693 28.4105C2.2193 28.2405 2.0493 28.1005 1.9393 27.9105C1.9693 27.7205 1.77929 27.7105 1.69929 27.6105C1.10929 26.9005 0.609299 26.1405 0.189299 25.3305C0.209299 25.0705 0.139296 24.8005 0.179296 24.5405C0.189296 24.4305 0.179299 24.3205 0.189299 24.2105C0.189299 24.1605 0.199294 24.1105 0.239294 24.0605C0.349294 23.9805 0.269294 23.8505 0.309294 23.7505C0.259294 23.8505 0.359297 23.9905 0.219297 24.0605C0.119297 23.9905 0.159296 23.9005 0.179296 23.8105C0.219296 23.3305 0.329295 22.8805 0.529295 22.4405C0.609295 22.5005 0.589292 22.5705 0.589292 22.5705C0.659292 22.2905 0.789299 21.9505 0.869299 21.6005C1.1893 20.9105 1.55929 20.2505 2.12929 19.7305C2.15929 19.7005 2.17929 19.6505 2.19929 19.6105C2.54929 19.3705 2.8093 19.0405 3.1093 18.7505C3.1193 18.6805 3.1693 18.6805 3.2293 18.6705C3.3793 18.5705 3.4993 18.4405 3.6093 18.3005C3.9393 18.0305 4.2693 17.7505 4.6893 17.6205C4.7693 17.6505 4.8193 17.6405 4.7993 17.5405C5.4493 17.1205 6.1893 16.8905 6.9293 16.6905C7.0493 16.6605 7.1393 16.6905 7.1793 16.8105C7.3793 17.4905 7.6793 18.1305 7.8693 18.8105C7.9993 19.2705 8.24929 19.7205 8.41929 20.1805C8.94929 21.6105 9.4793 23.0405 10.0793 24.4805C10.3093 23.2605 10.5393 22.0405 10.7693 20.8305C10.9593 20.9405 10.8193 21.1305 10.8593 21.2705C10.7993 21.3505 10.7793 21.4505 10.7893 21.5305C10.8093 21.4905 10.7693 21.4105 10.8093 21.3405C10.9293 21.0905 10.7793 20.7905 10.9593 20.5605C10.9193 20.5605 10.8493 20.5605 10.8393 20.4905Z" fill="#EC6228"/>
<path d="M5.73988 3.50033C6.50988 2.52033 7.42988 1.74032 8.56988 1.21032C10.6599 0.230317 12.7899 0.150338 14.9499 0.950338C15.2799 1.07034 15.6099 1.18034 15.8999 1.39034C15.9099 1.40034 15.9199 1.42032 15.9199 1.43032C15.9199 1.45032 15.9099 1.45034 15.9099 1.45034C15.8699 1.53034 15.9499 1.52031 15.9799 1.55031C16.1299 1.62031 16.2499 1.73033 16.3799 1.82033C16.4699 1.88033 16.5399 1.90031 16.6199 1.83031C16.8599 1.98031 17.1099 2.10032 17.2499 2.37032C17.4699 2.70032 17.7499 2.96032 18.0999 3.15032C19.1599 4.30032 19.7999 5.66033 20.0199 7.19033C20.4199 9.93033 19.6599 12.3403 17.6499 14.2503C15.4099 16.3803 12.7399 16.9903 9.75988 16.1803C9.70988 16.0003 9.55988 16.1003 9.44988 16.0603C8.32988 15.7003 7.36988 15.1003 6.51988 14.2703C5.86988 13.6403 5.30988 12.9603 4.89988 12.1603C3.99988 10.4103 3.76988 8.56033 4.20988 6.63033C4.38988 6.64033 4.30988 6.47032 4.34988 6.40032C4.41988 6.28032 4.34988 6.15032 4.38988 6.03032C4.61988 5.22032 4.92988 4.46032 5.52988 3.84032C5.61988 3.75032 5.73988 3.66033 5.73988 3.50033Z" fill="#EC6228"/>
<path d="M16.6094 32.2603C16.6694 31.9903 16.9394 31.9602 17.1194 31.8402C17.2094 31.7802 17.2894 31.7502 17.3194 31.6302C17.4994 31.0602 17.5894 31.0402 18.1794 30.9402C18.3994 30.9002 18.7194 30.9303 18.8594 30.6403C18.8794 30.6003 18.9294 30.5703 18.9694 30.5703C19.4894 30.5303 19.9294 30.2202 20.2194 29.8802C20.6094 29.4402 21.2494 29.2102 21.3994 28.5502C21.4494 28.3502 21.6594 28.3203 21.8294 28.2903C22.0094 28.2503 22.1394 28.1803 22.1594 27.9803C22.1694 27.8703 22.2294 27.8102 22.3194 27.7702C22.5894 27.6502 22.7594 27.4903 22.8294 27.1703C22.8694 26.9703 23.1494 26.8202 23.3294 26.6502C23.3694 26.6102 23.4794 26.6002 23.4794 26.5802C23.4894 26.0302 23.9694 25.5802 23.7994 25.0002C23.7894 24.9702 23.7894 24.9202 23.7594 24.9002C23.2394 24.5902 23.2694 24.0903 23.3094 23.6003C23.3394 23.1103 23.0994 22.7102 22.9494 22.2802C22.9094 22.1702 22.8694 22.0603 22.8494 21.9503C22.7894 21.6603 22.8694 21.3002 22.4594 21.1902C22.3794 21.1702 22.3994 21.0502 22.3794 20.9702C22.2894 20.6002 22.1294 20.2803 21.7694 20.1003C21.3194 19.8803 20.9594 19.6003 21.1694 19.0103C21.2694 19.0303 21.3894 19.0403 21.4394 19.1403C21.6494 19.5003 22.0394 19.7002 22.2494 20.0602C22.2594 20.1802 22.3194 20.2602 22.4294 20.3002C23.0694 21.1602 23.5494 22.1002 23.7894 23.1502C23.7494 23.1702 23.7094 23.2002 23.6894 23.2502C23.7194 23.2402 23.7494 23.1802 23.7894 23.2202C23.9394 23.7102 24.0194 24.2102 23.9994 24.7202C23.9694 24.7402 23.9494 24.7402 23.9194 24.7202C23.9394 24.6802 23.8994 24.7402 23.9094 24.6902C23.9194 24.6402 23.9194 24.6102 23.9194 24.6602C23.9494 25.2202 23.9294 25.7802 23.9394 26.3402C23.9394 26.3702 23.9494 26.4102 23.9594 26.4402C23.3894 27.3602 22.7094 28.1702 21.9494 28.9402C21.0694 29.8302 20.1394 30.6402 19.0694 31.2802C18.3594 31.7102 17.6294 32.1003 16.8394 32.3503C16.7494 32.3703 16.6594 32.3803 16.6094 32.2603Z" fill="#EC6228"/>
<path d="M12.0492 19.0702C11.7192 19.0702 11.3892 19.0602 11.0492 19.0702C10.8792 19.0802 10.8192 19.0202 10.8292 18.8502C10.8392 18.4002 10.8392 17.9502 10.8292 17.5002C10.8292 17.3402 10.8492 17.2802 11.0392 17.3102C11.7092 17.3902 12.3892 17.3902 13.0592 17.3102C13.2192 17.2902 13.2692 17.3102 13.2592 17.4802C13.2492 17.9402 13.2492 18.4102 13.2592 18.8702C13.2592 19.0502 13.1892 19.0802 13.0292 19.0802C12.7192 19.0602 12.3892 19.0702 12.0492 19.0702Z" fill="#EC6228"/>
<path d="M17.0297 16.9903C17.1197 17.2403 17.2297 17.5003 17.1697 17.7703C17.1297 17.9303 17.1397 18.2103 16.8097 18.0003C16.6397 17.8903 16.6397 18.2303 16.4697 18.2103C16.6197 17.8103 16.7597 17.4003 16.9097 17.0003C16.9497 16.9503 16.9897 16.9503 17.0297 16.9903Z" fill="#EC6228"/>
<path d="M0.179594 23.8203C0.209594 23.9003 0.169596 24.0003 0.259596 24.0503C0.259596 24.1003 0.259596 24.1503 0.259596 24.1903C0.199596 24.3103 0.209596 24.4303 0.259596 24.5503C0.209596 24.8103 0.379596 25.0903 0.189596 25.3403C0.049596 25.2203 0.0395911 25.0503 0.0595911 24.8903C0.0995911 24.5403 0.0595938 24.1703 0.179594 23.8203Z" fill="#EC6228"/>
<path d="M18.1 3.15012C17.75 3.15012 17.41 2.84012 17.25 2.37012C17.63 2.52012 17.85 2.85012 18.1 3.15012Z" fill="#EC6228"/>
<path d="M16.6193 1.83035C16.6193 1.99035 16.5793 2.10036 16.3993 1.96036C16.2293 1.83036 16.0593 1.70037 15.8893 1.57037C15.9193 1.51037 15.8293 1.46037 15.8893 1.41037V1.38037C16.1293 1.53037 16.3693 1.68035 16.6193 1.83035Z" fill="#EC6228"/>
<path d="M0.880035 21.6201C0.940035 21.9401 0.780035 22.2201 0.700035 22.5101C0.680035 22.5801 0.620038 22.6401 0.570038 22.7301C0.560038 22.6201 0.550039 22.5301 0.540039 22.4501C0.590039 22.1501 0.720035 21.8801 0.880035 21.6201Z" fill="#EC6228"/>
<path d="M3.11996 18.7705C2.89996 19.1505 2.63996 19.4805 2.20996 19.6305C2.46996 19.3005 2.71996 18.9605 3.11996 18.7705Z" fill="#EC6228"/>
<path d="M23.96 24.7002C23.98 24.7002 24 24.7002 24.03 24.7002C24.04 25.2802 24.13 25.8602 23.98 26.4302L23.96 26.4102C23.9 25.8402 23.89 25.2702 23.96 24.7002Z" fill="#EC6228"/>
<path d="M4.38996 6.05029C4.48996 6.27029 4.45996 6.4803 4.34996 6.6803C4.27996 6.8103 4.25996 6.6703 4.20996 6.6503C4.24996 6.4403 4.27996 6.23029 4.38996 6.05029Z" fill="#EC6228"/>
<path d="M10.8295 21.3503C10.8095 21.1803 10.8895 21.0103 10.7695 20.8503C10.7895 20.7303 10.8195 20.6102 10.8395 20.4902C10.8795 20.5602 11.0595 20.5002 11.0195 20.5902C10.8895 20.8302 10.9595 21.1103 10.8295 21.3503Z" fill="#EC6228"/>
<path d="M13.7394 22.9204C13.6294 22.9804 13.5494 22.9604 13.5594 22.8304C13.5694 22.6904 13.5994 22.5404 13.6194 22.4004C13.7094 22.5604 13.6994 22.7404 13.7394 22.9204Z" fill="#EC6228"/>
<path d="M17.0294 16.9904C16.9894 16.9904 16.9394 16.9904 16.8994 16.9904C16.9394 16.7104 17.0594 16.5803 17.3294 16.7703C17.1794 16.7703 17.1294 16.9104 17.0294 16.9904Z" fill="#EC6228"/>
<path d="M5.73999 3.50049C5.89999 3.75049 5.67999 3.79047 5.52999 3.86047C5.51999 3.69047 5.61999 3.59049 5.73999 3.50049Z" fill="#EC6228"/>
<path d="M3.60949 18.3203C3.56949 18.5303 3.43949 18.6503 3.22949 18.6903C3.26949 18.4803 3.44949 18.4103 3.60949 18.3203Z" fill="#EC6228"/>
<path d="M9.44922 16.0705C9.55922 16.0205 9.65922 15.9405 9.77922 16.0305C9.83922 16.0705 9.77922 16.1405 9.75922 16.1905C9.64922 16.1605 9.53922 16.1605 9.44922 16.0705Z" fill="#EC6228"/>
<path d="M1.70996 27.6201C1.81996 27.7001 2.10996 27.6301 1.94996 27.9201C1.83996 27.8401 1.74996 27.7501 1.70996 27.6201Z" fill="#EC6228"/>
<path d="M22.4392 20.2805C22.2192 20.3205 22.1692 20.2305 22.2592 20.0405C22.3492 20.0905 22.4092 20.1805 22.4392 20.2805Z" fill="#EC6228"/>
<path d="M18.0493 16.9804C17.9193 17.0104 17.7493 17.1504 17.7393 16.8604C17.8493 16.9004 17.9693 16.8904 18.0493 16.9804Z" fill="#EC6228"/>
<path d="M15.2295 21.5501C15.2795 21.5301 15.3595 21.4701 15.3595 21.4801C15.4095 21.5501 15.3595 21.6101 15.3295 21.6701C15.2495 21.7901 15.2395 21.6401 15.1895 21.6301C15.1995 21.6101 15.2195 21.5801 15.2295 21.5501Z" fill="#EC6228"/>
<path d="M16.6094 32.2603C16.6894 32.2903 16.7694 32.3202 16.8494 32.3402C16.7894 32.4302 16.6794 32.4103 16.5994 32.4503C16.5394 32.3903 16.5694 32.3303 16.6094 32.2603Z" fill="#EC6228"/>
<path d="M4.79922 17.5503C4.84922 17.5603 4.94922 17.5503 4.91922 17.6203C4.86922 17.7203 4.77922 17.7203 4.69922 17.6303C4.71922 17.6103 4.75922 17.5803 4.79922 17.5503Z" fill="#EC6228"/>
<path d="M23.81 23.2005C23.77 23.2505 23.73 23.3005 23.69 23.3505C23.74 23.2805 23.51 23.0805 23.8 23.1205C23.81 23.1505 23.81 23.1805 23.81 23.2005Z" fill="#EC6228"/>
<path d="M11.0893 19.9902C11.6993 19.9902 12.3093 19.9902 12.9193 19.9902C13.1193 19.9902 13.1193 20.1103 13.0693 20.3503C13.0393 20.0603 12.8893 20.0602 12.7293 20.0602C12.1793 20.0702 11.6293 20.0602 11.0693 20.0602C11.0793 20.0402 11.0893 20.0102 11.0893 19.9902Z" fill="#EC6228"/>
<path d="M13.5794 33.0305C13.3494 33.0305 13.1294 33.0305 12.8994 33.0305C12.8994 33.0205 12.8994 33.0105 12.8994 33.0005C13.1394 33.0005 13.3694 33.0005 13.6094 33.0005C13.5994 33.0105 13.5894 33.0205 13.5794 33.0305Z" fill="#EC6228"/>
<path d="M9.3 32.6906C9.21 32.6606 9.12 32.6205 9 32.5805C9.14 32.5205 9.24 32.5606 9.32 32.6306C9.33 32.6406 9.31 32.6606 9.3 32.6906Z" fill="#EC6228"/>
<path d="M14.2394 32.9302C14.0794 32.9902 13.9894 32.9902 13.8994 32.9602C13.9794 32.8602 14.0794 32.9102 14.2394 32.9302Z" fill="#EC6228"/>
<path d="M0.270069 24.0605C0.270069 23.9405 0.270069 23.8304 0.270069 23.7104C0.340069 23.8304 0.370069 23.9505 0.270069 24.0605Z" fill="#EC6228"/>
<path d="M10.54 22.7705C10.54 22.8605 10.54 22.9505 10.54 23.0905C10.44 22.9505 10.45 22.8605 10.54 22.7705Z" fill="#EC6228"/>
<path d="M10.3598 23.8506C10.3098 23.7706 10.3098 23.7006 10.3598 23.6006C10.4098 23.7006 10.4198 23.7706 10.3598 23.8506Z" fill="#EC6228"/>
<path d="M10.54 22.7701C10.54 22.6801 10.54 22.5802 10.54 22.4102C10.63 22.5902 10.64 22.6901 10.54 22.7701Z" fill="#EC6228"/>
<path d="M10.8298 21.3403C10.8298 21.4303 10.8298 21.5203 10.8298 21.6603C10.7198 21.5203 10.7298 21.4303 10.8298 21.3403Z" fill="#EC6228"/>
<path d="M0.25957 24.5504C0.15957 24.4304 0.15957 24.3104 0.25957 24.1904C0.25957 24.3204 0.25957 24.4404 0.25957 24.5504Z" fill="#EC6228"/>
<path d="M13.32 21.4904C13.22 21.4104 13.23 21.3104 13.28 21.1904C13.36 21.2904 13.31 21.3904 13.32 21.4904Z" fill="#EC6228"/>
<path d="M10.11 32.8304C10.02 32.8304 9.93 32.8304 9.75 32.8304C9.93 32.7504 10.03 32.7404 10.11 32.8304Z" fill="#EC6228"/>
<path d="M10.1094 32.8301C10.1994 32.8301 10.2894 32.8301 10.4294 32.8301C10.2894 32.9401 10.1994 32.9201 10.1094 32.8301Z" fill="#EC6228"/>
<path d="M13.3193 21.4904C13.3493 21.4904 13.3793 21.4905 13.3993 21.4805C13.3893 21.5805 13.3893 21.6804 13.3793 21.8004C13.2893 21.6904 13.3393 21.5804 13.3193 21.4904Z" fill="#EC6228"/>
<path d="M11.25 16.3506C11.77 16.3506 12.28 16.3506 12.8 16.3506C12.29 16.3806 11.77 16.5106 11.25 16.3506Z" fill="#EC6228"/>
<path d="M20.0293 9.00053C19.8993 9.34053 20.0393 9.74053 19.8193 10.0705C19.8193 9.71053 19.8793 9.35053 19.9593 9.00053C19.9793 8.97053 20.0093 8.97053 20.0293 9.00053Z" fill="#EC6228"/>
<path d="M20.03 9.00043C20.01 9.00043 19.98 9.00043 19.96 9.00043C19.96 8.65043 19.96 8.30043 19.96 7.94043C19.98 7.94043 20.01 7.94043 20.03 7.94043C20.03 8.29043 20.03 8.65043 20.03 9.00043Z" fill="#EC6228"/>
<path d="M4.11914 9.00034C4.11914 8.69034 4.11914 8.38035 4.11914 8.07035C4.13914 8.04035 4.16914 8.04035 4.18914 8.07035C4.18914 8.38035 4.18914 8.69034 4.18914 9.00034C4.16914 9.03034 4.13914 9.03034 4.11914 9.00034Z" fill="#EC6228"/>
<path d="M11.9692 0.510254C12.2292 0.510254 12.4792 0.510254 12.7392 0.510254C12.7392 0.530254 12.7392 0.550231 12.7392 0.580231C12.4792 0.580231 12.2292 0.580231 11.9692 0.580231C11.9492 0.570231 11.9392 0.550253 11.9492 0.540253C11.9492 0.520253 11.9592 0.510254 11.9692 0.510254Z" fill="#EC6228"/>
<path d="M11.9698 0.510254C11.9698 0.530254 11.9698 0.550231 11.9698 0.580231C11.7598 0.580231 11.5498 0.580231 11.3398 0.580231C11.3398 0.560231 11.3398 0.540254 11.3398 0.510254C11.5498 0.510254 11.7598 0.510254 11.9698 0.510254Z" fill="#EC6228"/>
<path d="M10.6797 16.2804C10.8697 16.3104 11.0797 16.2104 11.2497 16.3504C11.0697 16.3204 10.8597 16.4204 10.6797 16.2804Z" fill="#EC6228"/>
<path d="M4.18989 8.0701H4.15989H4.12988C4.12988 7.9101 4.12988 7.75008 4.12988 7.58008C4.14988 7.58008 4.17988 7.58008 4.19988 7.58008C4.18988 7.75008 4.18989 7.9101 4.18989 8.0701Z" fill="#EC6228"/>
<path d="M19.8896 7.22021C20.0396 7.37021 19.9196 7.55021 19.8896 7.71021C19.8896 7.54021 19.8896 7.38021 19.8896 7.22021Z" fill="#EC6228"/>
<path d="M4.25977 9.86035C4.37977 9.96035 4.30977 10.0904 4.25977 10.2104C4.25977 10.0904 4.25977 9.97035 4.25977 9.86035Z" fill="#EC6228"/>
<path d="M12.9795 0.610514C13.1395 0.570514 13.2295 0.560514 13.3295 0.610514C13.2295 0.680514 13.1395 0.660514 12.9795 0.610514Z" fill="#EC6228"/>
<path d="M19.89 7.22012C19.78 7.11012 19.81 6.99012 19.89 6.87012C19.89 6.98012 19.89 7.10012 19.89 7.22012Z" fill="#EC6228"/>
<path d="M15.8898 1.42041C15.8198 1.48041 16.1398 1.53038 15.8898 1.58038C15.7898 1.53038 15.7298 1.47041 15.8898 1.42041Z" fill="#EC6228"/>
<path d="M13.3994 16.2202C13.5394 16.2202 13.5994 16.2202 13.6994 16.2202C13.6094 16.3102 13.5394 16.2902 13.3994 16.2202Z" fill="#EC6228"/>
<path d="M4.21981 7.11035C4.27981 7.22035 4.27981 7.29036 4.23981 7.37036C4.15981 7.30036 4.18981 7.22035 4.21981 7.11035Z" fill="#EC6228"/>
<path d="M4.11914 9.00049C4.13914 9.00049 4.16914 9.00049 4.18914 9.00049C4.18914 9.10049 4.18914 9.20049 4.18914 9.35049C4.08914 9.20049 4.12914 9.10049 4.11914 9.00049Z" fill="#EC6228"/>
<path d="M10.6793 16.2803C10.5893 16.2803 10.4893 16.2803 10.3193 16.2803C10.4993 16.1903 10.5993 16.1803 10.6793 16.2803Z" fill="#EC6228"/>
<path d="M4.2593 9.86053C4.1593 9.78053 4.1793 9.68055 4.2193 9.56055C4.2993 9.66055 4.2493 9.76053 4.2593 9.86053Z" fill="#EC6228"/>
<path d="M19.8193 10.0703C19.8193 10.1603 19.8193 10.2603 19.8193 10.4403C19.7293 10.2503 19.7193 10.1603 19.8193 10.0703Z" fill="#EC6228"/>
<path d="M23.9598 24.7002C23.9598 25.2702 23.9598 25.8402 23.9598 26.4102C23.8198 26.2202 23.8998 26.0001 23.8898 25.8001C23.8798 25.3401 23.8898 24.8802 23.8898 24.4102C23.9998 24.5002 23.9298 24.6102 23.9598 24.7002Z" fill="#EC6228"/>
<path d="M23.8391 23.8301C23.8991 23.9401 23.8891 24.0401 23.8491 24.1501C23.7891 24.0301 23.7991 23.9401 23.8391 23.8301Z" fill="#EC6228"/>
<path d="M12.5195 17.4604C13.1795 17.3804 13.1795 17.3804 13.1795 17.9104C13.1795 18.2404 13.1795 18.5704 13.1095 18.9004C13.1095 18.6104 13.1095 18.3204 13.1095 18.0304C13.1095 17.5104 13.1095 17.5104 12.5195 17.4604Z" fill="#EC6228"/>
<path d="M11.0394 17.4901C11.0794 17.9801 10.9394 18.4901 11.1294 18.9801C10.9494 19.0101 10.9694 18.8601 10.9694 18.7301C10.9694 18.3201 10.9694 17.9001 10.9694 17.4901C10.9994 17.4601 11.0194 17.4701 11.0394 17.4901Z" fill="#EC6228"/>
<path d="M11.5396 17.4204C11.7896 17.5304 12.0696 17.4604 12.3296 17.5304C12.0696 17.5604 11.7996 17.6204 11.5396 17.4904C11.5196 17.4704 11.5095 17.4604 11.5195 17.4404C11.5195 17.4304 11.5296 17.4204 11.5396 17.4204Z" fill="#EC6228"/>
<path d="M11.5397 17.4205C11.5397 17.4405 11.5397 17.4705 11.5397 17.4905C11.3697 17.4905 11.2097 17.4905 11.0397 17.4905C11.0197 17.4905 10.9897 17.4905 10.9697 17.4905C11.1497 17.3505 11.3497 17.4505 11.5397 17.4205Z" fill="#EC6228"/>
</svg>
