<svg width="40" height="48" viewBox="0 0 40 48" fill="none" xmlns="http://www.w3.org/2000/svg">
<path d="M12.1498 47.9599C12.0098 47.8099 11.8098 47.8299 11.6498 47.7799C10.3698 47.3399 9.6698 46.2199 9.9098 44.8899C10.7498 40.1799 11.5997 35.4699 12.4797 30.7699C12.9697 28.1399 13.2698 25.4899 13.6098 22.8399C13.6698 22.3999 13.6398 21.9399 13.6298 21.4999C13.6298 20.6199 13.2198 19.9899 12.3798 19.6999C11.6098 19.4299 10.8298 19.1899 10.0498 18.9499C7.92982 18.2899 5.80972 17.6499 3.69972 16.9699C2.89972 16.7099 2.10971 16.3699 1.43971 15.8299C-0.0802912 14.6099 0.289826 11.8499 2.05983 11.0499C2.58983 10.8099 3.10978 10.8499 3.63978 11.0099C7.55978 12.1999 11.5397 13.0699 15.5997 13.6399C18.8097 14.0899 22.0097 13.9499 25.1997 13.4399C28.8097 12.8599 32.3698 12.0299 35.8798 11.0099C37.3198 10.5899 38.5697 11.4599 38.9397 13.0999C38.9597 13.1999 38.9098 13.3199 39.0398 13.3899C39.0398 13.7299 39.0398 14.0699 39.0398 14.4099C38.9298 15.4599 38.1798 15.9999 37.3598 16.4599C36.2998 17.0499 35.1298 17.3599 33.9898 17.7499C31.8798 18.4899 29.7498 19.2099 27.6498 19.9799C26.0598 20.5699 25.7797 20.8799 25.9497 22.7399C26.2997 26.5899 26.9897 30.3899 27.7197 34.1799C28.3997 37.6999 29.0397 41.2299 29.6897 44.7499C29.9297 46.0699 29.4698 47.0499 28.3698 47.6999C27.9898 47.9299 27.5698 47.8799 27.1698 47.9799C26.7698 47.9799 26.3697 47.9799 25.9597 47.9799C24.8097 47.8099 24.2097 47.0499 23.8297 46.0399C23.5897 45.3999 23.4797 44.7299 23.3497 44.0599C22.6097 40.1999 21.8297 36.3599 20.6997 32.5899C20.5297 32.0299 20.3398 31.4699 20.0398 30.9599C19.7998 30.5699 19.5998 30.5699 19.3698 30.9599C18.9698 31.6499 18.7598 32.4099 18.5398 33.1699C17.6298 36.3399 16.9797 39.5699 16.3497 42.7999C16.1697 43.7099 16.0398 44.6299 15.8098 45.5299C15.7398 45.7899 15.6598 46.0299 15.5498 46.2699C15.1298 47.2399 14.4697 47.9099 13.3497 47.9799C12.9497 47.9599 12.5498 47.9599 12.1498 47.9599Z" fill="#131B53"/>
<path d="M19.7698 0.469759C22.6198 0.479759 24.9397 2.81977 24.9397 5.66977C24.9397 8.53977 22.5797 10.8798 19.6997 10.8498C16.8497 10.8298 14.5398 8.47975 14.5498 5.61975C14.5698 2.77975 16.9198 0.459759 19.7698 0.469759Z" fill="#131B53"/>
</svg>
