<svg width="21" height="22" viewBox="0 0 21 22" fill="none" xmlns="http://www.w3.org/2000/svg">
<path d="M19.0701 8.94995C14.5401 6.35995 10.0101 3.76993 5.4801 1.17993C4.8501 0.819932 4.2501 0.38 3.5001 0.25H2.8701C2.5501 0.29 2.2401 0.360049 1.9701 0.550049C1.3501 0.970049 0.920098 1.51003 0.850098 2.28003V2.58008C0.890098 2.65008 0.870098 2.73006 0.870098 2.81006V19.3401C0.870098 19.4201 0.890098 19.5001 0.850098 19.5701V19.8701C0.920098 19.9301 0.900099 20.0201 0.930099 20.1001C1.0801 20.6601 1.3701 21.12 1.8501 21.45C2.7101 22.04 3.6101 22.05 4.5101 21.53C6.6101 20.33 8.7201 19.1299 10.8201 17.9299C13.5801 16.3499 16.3301 14.78 19.0901 13.2C19.8501 12.77 20.3101 12.13 20.3601 11.26C20.4101 10.22 19.9601 9.45995 19.0701 8.94995ZM6.0101 3.1499C6.0801 3.1899 6.1501 3.22 6.2001 3.25C8.3301 4.47 10.4601 5.6799 12.5901 6.8999C12.7501 6.9899 12.7601 7.03993 12.6501 7.17993C12.0401 8.00993 11.4501 8.84993 10.8501 9.67993C10.7801 9.78993 10.7401 9.82994 10.6401 9.68994C9.1201 7.55994 7.5901 5.44006 6.0701 3.31006C6.0401 3.28006 5.9901 3.2499 6.0101 3.1499ZM3.2501 20.29C3.1401 20.44 3.0501 20.4399 2.9001 20.3899C2.5101 20.2399 2.2901 19.8999 2.2901 19.4199C2.2901 18.3799 2.2901 17.34 2.2901 16.29V2.75C2.2901 2.26 2.5001 1.92001 2.8901 1.76001C3.0501 1.69001 3.1501 1.71012 3.2501 1.87012C5.4101 4.89012 7.5801 7.89992 9.7401 10.9199C9.8201 11.0299 9.8401 11.1 9.7501 11.22C7.5801 14.24 5.4101 17.26 3.2501 20.29ZM12.6301 15.22C10.4601 16.45 8.2901 17.6999 6.1101 18.9399C6.0801 18.9599 6.0501 18.97 6.0201 18.99C6.0101 18.98 5.9901 18.96 5.9801 18.95C7.5601 16.75 9.1401 14.5501 10.7201 12.3501C10.7901 12.3601 10.8001 12.41 10.8301 12.45C11.4401 13.3 12.0501 14.15 12.6701 15C12.7401 15.09 12.7701 15.14 12.6301 15.22ZM18.4301 11.8899C17.0001 12.7099 15.5701 13.5301 14.1301 14.3501C14.0401 14.4001 14.0001 14.37 13.9501 14.3C13.2001 13.25 12.4501 12.2099 11.7001 11.1599C11.6401 11.0799 11.6501 11.03 11.7001 10.96C12.4501 9.90996 13.2001 8.87007 13.9501 7.82007C14.0001 7.74007 14.0401 7.73003 14.1301 7.78003C15.5601 8.60003 16.9901 9.41999 18.4301 10.24C18.7401 10.42 18.9001 10.7001 18.9201 11.0601C18.9001 11.4301 18.7401 11.7099 18.4301 11.8899Z" fill="white"/>
</svg>
