<svg width="21" height="25" viewBox="0 0 21 25" fill="none" xmlns="http://www.w3.org/2000/svg">
<path d="M20.23 18.1101V18.1599C20.03 19.0299 19.62 19.8101 19.19 20.5701C18.66 21.5201 18.04 22.3999 17.33 23.2099C16.83 23.7799 16.23 24.2301 15.44 24.3301C15.35 24.3401 15.25 24.3101 15.17 24.3601H14.71C14.01 24.3401 13.37 24.07 12.73 23.81C11.57 23.34 10.41 23.3801 9.25996 23.8401C9.00996 23.9501 8.73996 24.0399 8.48996 24.1299C8.16996 24.2499 7.82996 24.3101 7.48996 24.3501H6.79996C6.09996 24.2801 5.55996 23.8899 5.07996 23.4199C4.15996 22.5299 3.43996 21.4801 2.80996 20.3701C1.80996 18.5901 1.18996 16.6899 1.01996 14.6599C0.899962 13.1899 0.929963 11.7201 1.53996 10.3201C2.08996 9.05005 2.87996 7.97999 4.08996 7.25999C5.01996 6.71999 5.99996 6.39996 7.08996 6.46996C7.78996 6.51996 8.45996 6.72997 9.10996 6.97997C9.41996 7.09997 9.72996 7.23008 10.05 7.35008C10.54 7.54008 11.02 7.51004 11.5 7.31004C12.23 7.02004 12.95 6.71004 13.72 6.56004C15.65 6.17004 17.38 6.57987 18.88 7.87987C19.12 8.07987 19.33 8.32007 19.5 8.59007C19.63 8.79007 19.62 8.86998 19.42 8.99998C19 9.28998 18.62 9.61998 18.28 9.99998C17.61 10.74 17.26 11.6101 17.15 12.5901C17.06 13.4201 17.15 14.23 17.4 15.02C17.72 16.02 18.35 16.7999 19.19 17.3999C19.45 17.5899 19.73 17.7499 20.01 17.9099C20.11 17.9799 20.19 18.0201 20.23 18.1101Z" fill="white"/>
<path d="M15.3198 1.37003C15.2998 2.82003 14.6698 4.00994 13.6698 5.01994C13.1598 5.52994 12.5798 5.93003 11.8698 6.12003C11.4998 6.22003 11.1198 6.23991 10.7298 6.23991C10.5898 6.23991 10.5698 6.18998 10.5698 6.06998C10.5298 4.85998 10.8998 3.77999 11.6498 2.82999C12.5198 1.70999 13.6898 1.07997 15.0698 0.809975C15.2498 0.769975 15.3398 0.809936 15.3198 1.01994C15.3098 1.13994 15.3198 1.25003 15.3198 1.37003Z" fill="white"/>
</svg>
