<svg width="28" height="34" viewBox="0 0 28 34" fill="none" xmlns="http://www.w3.org/2000/svg">
<path d="M1.10004 3.08981C1.10004 2.98981 1.15004 2.8798 1.04004 2.7998C1.10004 2.9098 1.07004 3.02983 1.07004 3.13983V30.8498C1.07004 30.9698 1.10004 31.0798 1.04004 31.1898C1.15004 31.1098 1.10004 30.9998 1.10004 30.8998C1.11004 21.6298 1.11004 12.3598 1.10004 3.08981Z" fill="#EC6228" stroke="#EC6228" stroke-width="0.5" stroke-miterlimit="10" stroke-linecap="round" stroke-linejoin="round"/>
<path d="M26.3598 4.24005C25.3898 3.27005 24.4198 2.29007 23.4398 1.32007C23.1098 0.990068 22.7098 0.810059 22.2198 0.810059C15.8398 0.810059 9.45981 0.810059 3.08981 0.810059C2.48981 0.810059 1.9898 1.02005 1.5798 1.46005C1.2698 1.78005 1.1198 2.17005 1.0498 2.61005V2.80005C1.1598 2.88005 1.1098 3.00006 1.1098 3.09006C1.1098 12.3601 1.1098 21.6301 1.1098 30.9001C1.1098 31.0001 1.1598 31.1101 1.0498 31.1901V31.3801C1.2498 32.3601 1.79981 32.9801 2.80981 33.1501H25.0798C25.4898 33.1001 25.8698 33.0001 26.1898 32.7101C26.7198 32.2301 26.9398 31.6501 26.9398 30.9501C26.9298 22.5301 26.9298 14.1101 26.9398 5.69006C26.9398 5.11006 26.7598 4.64005 26.3598 4.24005ZM23.1298 2.75006C23.7498 3.37006 24.3598 3.98005 24.9598 4.58005C23.8798 4.72005 22.9498 4.62006 23.1298 2.75006ZM25.8198 7.66006V30.8101C25.8198 31.4901 25.5298 31.9101 24.9698 32.0401C24.8498 32.0701 24.7198 32.0701 24.5998 32.0701H3.34982C2.55982 32.0701 2.12982 31.6401 2.12982 30.8401V3.24005C2.12982 2.31005 2.51983 1.91006 3.44983 1.91006C9.52983 1.91006 15.6198 1.91005 21.6998 1.90005C21.9798 1.90005 22.0698 1.96007 22.0598 2.26007C22.0298 2.68007 22.0498 3.10005 22.0498 3.52005C22.0698 4.72005 22.9798 5.65005 24.1798 5.68005C24.6598 5.69005 25.1298 5.69005 25.5998 5.68005C25.7898 5.67005 25.8298 5.74006 25.8298 5.91006C25.8098 6.50006 25.8198 7.08006 25.8198 7.66006Z" fill="#EC6228" stroke="#EC6228" stroke-width="0.5" stroke-miterlimit="10" stroke-linecap="round" stroke-linejoin="round"/>
<path d="M1.10004 30.8998C1.10004 30.9998 1.15004 31.1098 1.04004 31.1898V2.7998C1.15004 2.8798 1.10004 2.99981 1.10004 3.08981C1.11004 12.3598 1.11004 21.6298 1.10004 30.8998Z" fill="#EC6228" stroke="#EC6228" stroke-width="0.5" stroke-miterlimit="10" stroke-linecap="round" stroke-linejoin="round"/>
<path d="M25.8201 5.92017C25.8201 5.75017 25.7801 5.68016 25.5901 5.69016C25.1201 5.70016 24.6501 5.70016 24.1701 5.69016C22.9601 5.66016 22.0601 4.73015 22.0401 3.53015C22.0401 3.11015 22.0201 2.68014 22.0501 2.27014C22.0701 1.98014 21.9801 1.91016 21.6901 1.91016C15.6101 1.92016 9.52012 1.92017 3.44012 1.92017C2.51012 1.92017 2.12012 2.31015 2.12012 3.25015V30.8502C2.12012 31.6502 2.55012 32.0801 3.34012 32.0801H24.5901C24.7201 32.0801 24.8401 32.0801 24.9601 32.0501C25.5201 31.9201 25.8101 31.5002 25.8101 30.8202V7.67017C25.8201 7.08017 25.8101 6.50017 25.8201 5.92017ZM10.7501 26.6702C10.7401 27.6102 10.0401 28.2802 9.10013 28.2902C8.57013 28.3002 8.03011 28.2902 7.49011 28.2902C6.98011 28.2902 6.46013 28.3002 5.95013 28.2902C5.01013 28.2802 4.32013 27.6501 4.29013 26.7101C4.26013 25.6201 4.26013 24.5201 4.29013 23.4301C4.31013 22.4901 5.00011 21.8401 5.93011 21.8401C6.99011 21.8301 8.05011 21.8301 9.11011 21.8401C10.0401 21.8501 10.7201 22.5202 10.7401 23.4502C10.7601 24.5302 10.7601 25.6002 10.7501 26.6702ZM4.29013 15.9301C4.31013 14.9801 4.99012 14.3101 5.94012 14.3001C6.99012 14.2901 8.04012 14.2901 9.09012 14.3001C10.0701 14.3101 10.7401 15.0002 10.7501 15.9802C10.7601 16.4902 10.7501 17.0101 10.7501 17.5201C10.7501 18.0501 10.7501 18.5702 10.7501 19.1002C10.7401 20.0602 10.0601 20.7502 9.10013 20.7602C8.05013 20.7702 7.00013 20.7702 5.95013 20.7602C5.00013 20.7502 4.31013 20.0902 4.29013 19.1402C4.27013 18.0802 4.27013 17.0001 4.29013 15.9301ZM12.1201 7.22015C11.7201 7.63015 11.3201 8.03017 10.9101 8.42017C10.7901 8.54017 10.7401 8.66014 10.7401 8.83014C10.7501 9.71014 10.7501 10.5902 10.7401 11.4702C10.7401 12.5402 10.0801 13.2001 9.01013 13.2101C8.00013 13.2101 6.99011 13.2101 5.99011 13.2101C4.95011 13.2101 4.28011 12.5401 4.27011 11.4901C4.26011 10.4801 4.26011 9.47014 4.27011 8.46014C4.28011 7.42014 4.95011 6.76015 5.99011 6.75015C6.96011 6.75015 7.92014 6.76014 8.89014 6.74014C9.49014 6.73014 10.0001 6.89015 10.4101 7.40015C10.7201 7.08015 11.0301 6.75016 11.3401 6.44016C11.6201 6.16016 11.9401 6.14015 12.1701 6.37015C12.4201 6.62015 12.4001 6.94015 12.1201 7.22015ZM19.3601 26.6801C19.2701 26.6901 19.1701 26.6902 19.0801 26.6902H14.7701C14.5401 26.6902 14.3101 26.6902 14.0801 26.6902C13.6801 26.6802 13.4401 26.4801 13.4401 26.1501C13.4401 25.8201 13.6801 25.6201 14.0801 25.6201C14.9401 25.6201 15.8001 25.6201 16.6601 25.6201C17.1701 25.6201 17.6801 25.6201 18.1901 25.6201C18.5701 25.6201 18.9601 25.6202 19.3401 25.6302C19.6801 25.6302 19.8901 25.8501 19.9001 26.1501C19.9001 26.4201 19.6801 26.6501 19.3601 26.6801ZM23.2101 23.9901C23.1201 24.0001 23.0201 24.0002 22.9301 24.0002H14.1801C14.1301 24.0002 14.0701 24.0002 14.0201 24.0002C13.6801 23.9902 13.4501 23.7701 13.4501 23.4601C13.4501 23.1501 13.6801 22.9301 14.0301 22.9301C14.5801 22.9201 15.1201 22.9301 15.6701 22.9301H18.5701C20.0501 22.9301 21.5301 22.9301 23.0101 22.9301C23.2201 22.9301 23.4101 22.9501 23.5501 23.1201C23.8001 23.4301 23.6201 23.9101 23.2101 23.9901ZM13.8201 15.4102C13.9401 15.3802 14.0701 15.3701 14.1901 15.3701H22.8901C23.0101 15.3701 23.1401 15.3801 23.2601 15.4001C23.5201 15.4701 23.6401 15.6602 23.6401 15.9102C23.6401 16.1802 23.4901 16.3702 23.2201 16.4202C23.1101 16.4402 22.9901 16.4402 22.8701 16.4402H14.2001C14.0801 16.4402 13.9701 16.4402 13.8501 16.4202C13.5901 16.3702 13.4401 16.2002 13.4201 15.9402C13.4301 15.6902 13.5501 15.4902 13.8201 15.4102ZM13.4501 11.0102C13.4801 10.7502 13.6401 10.5802 13.9001 10.5602C14.0701 10.5402 14.2601 10.5501 14.4301 10.5501C16.0501 10.5501 17.6601 10.5501 19.2801 10.5501C19.6601 10.5501 19.8901 10.7602 19.9001 11.0702C19.9101 11.3902 19.6601 11.6101 19.2701 11.6201C19.2101 11.6201 19.1401 11.6201 19.0801 11.6201H16.6601C15.8301 11.6201 15.0001 11.6201 14.1801 11.6201C14.0501 11.6201 13.9201 11.6102 13.8101 11.5702C13.5301 11.4802 13.4201 11.2802 13.4501 11.0102ZM14.0901 18.0702H19.2201C19.6301 18.0702 19.8901 18.2801 19.8901 18.6201C19.8901 18.9501 19.6301 19.1501 19.2201 19.1501H14.0901C13.6801 19.1501 13.4501 18.9502 13.4401 18.6302C13.4301 18.2802 13.6801 18.0702 14.0901 18.0702ZM23.2101 8.91016C23.1301 8.92016 23.0401 8.92017 22.9601 8.92017H14.1401C14.0901 8.92017 14.0401 8.92017 13.9801 8.92017C13.6601 8.90017 13.4301 8.68016 13.4301 8.38016C13.4301 8.08016 13.6501 7.86016 13.9801 7.85016C14.2401 7.84016 14.5001 7.85016 14.7701 7.85016H22.9001C22.9901 7.85016 23.0901 7.85014 23.1801 7.86014C23.4601 7.89014 23.6601 8.12017 23.6601 8.39017C23.6601 8.64017 23.4701 8.87016 23.2101 8.91016Z" stroke="#EC6228" stroke-width="0.5" stroke-miterlimit="10" stroke-linecap="round" stroke-linejoin="round"/>
<path d="M24.9598 4.57999C23.8798 4.71999 22.9499 4.62 23.1299 2.75C23.7499 3.37 24.3598 3.98999 24.9598 4.57999Z" stroke="#EC6228" stroke-width="0.5" stroke-miterlimit="10" stroke-linecap="round" stroke-linejoin="round"/>
<path d="M12.1897 6.39017C11.9597 6.16017 11.6397 6.18015 11.3597 6.46015C11.0497 6.77015 10.7497 7.10017 10.4297 7.42017C10.0197 6.91017 9.50972 6.75017 8.90972 6.76017C7.93972 6.78017 6.97973 6.76015 6.00973 6.77015C4.96973 6.77015 4.28973 7.43017 4.28973 8.48017C4.27973 9.49017 4.27973 10.5002 4.28973 11.5102C4.29973 12.5602 4.95973 13.2202 6.00973 13.2302C7.01973 13.2302 8.02972 13.2302 9.02972 13.2302C10.0897 13.2302 10.7497 12.5601 10.7597 11.4901C10.7597 10.6101 10.7697 9.73016 10.7597 8.85016C10.7597 8.68016 10.8097 8.55016 10.9297 8.44016C11.3397 8.05016 11.7397 7.64015 12.1397 7.24015C12.3997 6.94015 12.4197 6.62017 12.1897 6.39017ZM9.65972 11.6402C9.64972 11.9502 9.42971 12.1402 9.11971 12.1402C8.04971 12.1502 6.96972 12.1502 5.90972 12.1402C5.58972 12.1402 5.37972 11.9502 5.37972 11.6402C5.36972 10.5502 5.36972 9.45014 5.37972 8.36014C5.38972 8.03014 5.60972 7.85016 5.93972 7.85016C6.98972 7.85016 8.03971 7.85016 9.08971 7.85016C9.20971 7.85016 9.31973 7.87016 9.41973 7.94016C9.58973 8.06016 9.68972 8.17015 9.46972 8.37015C9.04972 8.76015 8.63971 9.18016 8.23971 9.60016C8.07971 9.77016 7.98972 9.75015 7.84972 9.59015C7.69972 9.41015 7.5297 9.25016 7.3597 9.10016C7.1097 8.88016 6.80972 8.88016 6.59972 9.10016C6.39972 9.31016 6.3897 9.64015 6.6097 9.87015C6.9497 10.2302 7.29972 10.5802 7.65972 10.9202C7.90972 11.1602 8.18972 11.1602 8.43972 10.9202C8.76972 10.6102 9.07971 10.2802 9.39971 9.97016C9.46971 9.90016 9.51972 9.80016 9.65972 9.78016C9.66972 10.3902 9.67972 11.0102 9.65972 11.6402Z" fill="#EC6228" stroke="#EC6228" stroke-width="0.5" stroke-miterlimit="10" stroke-linecap="round" stroke-linejoin="round"/>
<path d="M10.7504 15.98C10.7404 15 10.0704 14.31 9.09038 14.3C8.04038 14.29 6.99038 14.29 5.94038 14.3C4.99038 14.31 4.31039 14.97 4.29039 15.93C4.27039 17 4.27039 18.08 4.29039 19.14C4.31039 20.09 5.00039 20.75 5.95039 20.76C7.00039 20.77 8.05039 20.77 9.10039 20.76C10.0604 20.75 10.7404 20.06 10.7504 19.1C10.7604 18.57 10.7504 18.05 10.7504 17.52C10.7504 17.01 10.7504 16.5 10.7504 15.98ZM9.6704 19C9.6704 19.49 9.48037 19.69 8.99037 19.69C8.49037 19.7 7.98039 19.69 7.48039 19.69C7.01039 19.69 6.54038 19.69 6.06038 19.69C5.56038 19.69 5.36037 19.5 5.36037 19.02C5.36037 18.03 5.36037 17.05 5.36037 16.06C5.36037 15.58 5.55037 15.39 6.02037 15.38C7.01037 15.38 7.99039 15.38 8.98039 15.38C9.48039 15.38 9.66039 15.58 9.66039 16.07C9.67039 17.04 9.6704 18.02 9.6704 19Z" fill="#EC6228" stroke="#EC6228" stroke-width="0.5" stroke-miterlimit="10" stroke-linecap="round" stroke-linejoin="round"/>
<path d="M10.7401 23.4603C10.7301 22.5303 10.0401 21.8603 9.11005 21.8503C8.05006 21.8403 6.99006 21.8403 5.93006 21.8503C4.99006 21.8603 4.31008 22.5003 4.29008 23.4403C4.26008 24.5303 4.26008 25.6203 4.29008 26.7203C4.32008 27.6603 5.00008 28.2903 5.95008 28.3003C6.46008 28.3103 6.98006 28.3003 7.49006 28.3003C8.02006 28.3003 8.56008 28.3103 9.10008 28.3003C10.0401 28.2903 10.7401 27.6203 10.7501 26.6803C10.7601 25.6003 10.7601 24.5303 10.7401 23.4603ZM9.67008 26.6103C9.67008 27.0303 9.46008 27.2203 9.04008 27.2203C8.02008 27.2203 7.00008 27.2203 5.98008 27.2203C5.56008 27.2203 5.36005 27.0303 5.36005 26.6103C5.35005 25.5803 5.35005 24.5503 5.36005 23.5203C5.36005 23.1103 5.57007 22.9303 5.97007 22.9303C6.48007 22.9303 7.00008 22.9303 7.51008 22.9303C8.02008 22.9303 8.54006 22.9303 9.05006 22.9303C9.45006 22.9303 9.66007 23.1303 9.66007 23.5303C9.68007 24.5503 9.68008 25.5803 9.67008 26.6103Z" fill="#EC6228" stroke="#EC6228" stroke-width="0.5" stroke-miterlimit="10" stroke-linecap="round" stroke-linejoin="round"/>
<path d="M23.6597 8.38015C23.6597 8.64015 23.4697 8.87015 23.2097 8.91015C23.1297 8.92015 23.0397 8.92015 22.9597 8.92015H14.1397C14.0897 8.92015 14.0397 8.92015 13.9797 8.92015C13.6597 8.90015 13.4297 8.68015 13.4297 8.38015C13.4297 8.08015 13.6497 7.86015 13.9797 7.85015C14.2397 7.84015 14.4997 7.85015 14.7697 7.85015H22.8997C22.9897 7.85015 23.0897 7.85013 23.1797 7.86013C23.4497 7.88013 23.6597 8.11015 23.6597 8.38015Z" fill="#EC6228" stroke="#EC6228" stroke-width="0.5" stroke-miterlimit="10" stroke-linecap="round" stroke-linejoin="round"/>
<path d="M23.2102 23.9902C23.1202 24.0002 23.0202 24.0002 22.9302 24.0002H14.1802C14.1302 24.0002 14.0702 24.0002 14.0202 24.0002C13.6802 23.9902 13.4502 23.7702 13.4502 23.4602C13.4502 23.1502 13.6802 22.9302 14.0302 22.9302C14.5802 22.9202 15.1202 22.9302 15.6702 22.9302H18.5702C20.0502 22.9302 21.5302 22.9302 23.0102 22.9302C23.2202 22.9302 23.4102 22.9502 23.5502 23.1202C23.8002 23.4302 23.6202 23.9102 23.2102 23.9902Z" fill="#EC6228" stroke="#EC6228" stroke-width="0.5" stroke-miterlimit="10" stroke-linecap="round" stroke-linejoin="round"/>
<path d="M23.6497 15.9199C23.6497 16.1899 23.4998 16.3799 23.2298 16.4299C23.1198 16.4499 22.9997 16.4499 22.8797 16.4499H14.2097C14.0897 16.4499 13.9797 16.4499 13.8597 16.4299C13.5997 16.3799 13.4497 16.2099 13.4297 15.9499C13.4097 15.6799 13.5397 15.4799 13.8097 15.3999C13.9297 15.3699 14.0597 15.3599 14.1797 15.3599H22.8797C22.9997 15.3599 23.1297 15.3699 23.2497 15.3899C23.5297 15.4799 23.6597 15.6699 23.6497 15.9199Z" fill="#EC6228" stroke="#EC6228" stroke-width="0.5" stroke-miterlimit="10" stroke-linecap="round" stroke-linejoin="round"/>
<path d="M19.8898 18.6103C19.8898 18.9403 19.6297 19.1403 19.2197 19.1403H14.0897C13.6797 19.1403 13.4497 18.9403 13.4397 18.6203C13.4297 18.2803 13.6797 18.0703 14.0897 18.0703H19.2197C19.6397 18.0703 19.8998 18.2803 19.8898 18.6103Z" fill="#EC6228" stroke="#EC6228" stroke-width="0.5" stroke-miterlimit="10" stroke-linecap="round" stroke-linejoin="round"/>
<path d="M19.8898 11.0601C19.8998 11.3801 19.6498 11.6001 19.2598 11.6101C19.1998 11.6101 19.1298 11.6101 19.0698 11.6101H16.6498C15.8198 11.6101 14.9898 11.6101 14.1698 11.6101C14.0398 11.6101 13.9098 11.6001 13.7998 11.5601C13.5398 11.4701 13.4198 11.2701 13.4498 11.0001C13.4798 10.7401 13.6398 10.5701 13.8998 10.5501C14.0698 10.5301 14.2598 10.5401 14.4298 10.5401C16.0498 10.5401 17.6598 10.5401 19.2798 10.5401C19.6498 10.5401 19.8898 10.7501 19.8898 11.0601Z" fill="#EC6228" stroke="#EC6228" stroke-width="0.5" stroke-miterlimit="10" stroke-linecap="round" stroke-linejoin="round"/>
<path d="M19.8904 26.1301C19.9004 26.4201 19.6804 26.6501 19.3604 26.6801C19.2704 26.6901 19.1704 26.6901 19.0804 26.6901H14.7704C14.5404 26.6901 14.3104 26.6901 14.0804 26.6901C13.6804 26.6801 13.4404 26.4801 13.4404 26.1501C13.4404 25.8201 13.6804 25.6201 14.0804 25.6201C14.9404 25.6201 15.8004 25.6201 16.6604 25.6201C17.1704 25.6201 17.6804 25.6201 18.1904 25.6201C18.5704 25.6201 18.9604 25.6201 19.3404 25.6301C19.6704 25.6201 19.8904 25.8401 19.8904 26.1301Z" fill="#EC6228" stroke="#EC6228" stroke-width="0.5" stroke-miterlimit="10" stroke-linecap="round" stroke-linejoin="round"/>
<path d="M9.65957 11.6401C9.64957 11.9501 9.42956 12.1401 9.11956 12.1401C8.04956 12.1501 6.96957 12.1501 5.90957 12.1401C5.58957 12.1401 5.37957 11.9501 5.37957 11.6401C5.36957 10.5501 5.36957 9.45008 5.37957 8.36008C5.38957 8.03008 5.60957 7.8501 5.93957 7.8501C6.98957 7.8501 8.03956 7.8501 9.08956 7.8501C9.20956 7.8501 9.31958 7.87009 9.41958 7.94009C9.58958 8.06009 9.68957 8.17009 9.46957 8.37009C9.04957 8.76009 8.63956 9.1801 8.23956 9.6001C8.07956 9.7701 7.98957 9.75009 7.84957 9.59009C7.69957 9.41009 7.52955 9.2501 7.35955 9.1001C7.10955 8.8801 6.80957 8.8801 6.59957 9.1001C6.39957 9.3101 6.38955 9.64009 6.60955 9.87009C6.94955 10.2301 7.29957 10.5801 7.65957 10.9201C7.90957 11.1601 8.18957 11.1601 8.43957 10.9201C8.76957 10.6101 9.07956 10.2801 9.39956 9.97009C9.46956 9.90009 9.51957 9.80009 9.65957 9.78009C9.66957 10.3901 9.67957 11.0101 9.65957 11.6401Z" stroke="#EC6228" stroke-width="0.5" stroke-miterlimit="10" stroke-linecap="round" stroke-linejoin="round"/>
<path d="M9.67038 16.0699C9.67038 17.0399 9.67038 18.0199 9.67038 18.9999C9.67038 19.4899 9.48036 19.6899 8.99036 19.6899C8.49036 19.6999 7.98038 19.6899 7.48038 19.6899C7.01038 19.6899 6.54036 19.6899 6.06036 19.6899C5.56036 19.6899 5.36035 19.4999 5.36035 19.0199C5.36035 18.0299 5.36035 17.0499 5.36035 16.0599C5.36035 15.5799 5.55036 15.3899 6.02036 15.3799C7.01036 15.3799 7.99038 15.3799 8.98038 15.3799C9.48038 15.3799 9.67038 15.5699 9.67038 16.0699Z" stroke="#EC6228" stroke-width="0.5" stroke-miterlimit="10" stroke-linecap="round" stroke-linejoin="round"/>
<path d="M9.67007 23.52C9.68007 24.55 9.68007 25.58 9.67007 26.61C9.67007 27.03 9.46006 27.2201 9.04006 27.2201C8.02006 27.2201 7.00006 27.2201 5.98006 27.2201C5.56006 27.2201 5.36004 27.03 5.36004 26.61C5.35004 25.58 5.35004 24.55 5.36004 23.52C5.36004 23.11 5.57005 22.93 5.97005 22.93C6.48005 22.93 7.00006 22.93 7.51006 22.93C8.02006 22.93 8.54004 22.93 9.05004 22.93C9.46004 22.92 9.67007 23.12 9.67007 23.52Z" stroke="#EC6228" stroke-width="0.5" stroke-miterlimit="10" stroke-linecap="round" stroke-linejoin="round"/>
</svg>
