<svg width="31" height="35" viewBox="0 0 31 35" fill="none" xmlns="http://www.w3.org/2000/svg">
<path d="M7.11024 0.830322C7.21024 0.890322 7.33024 0.880278 7.44024 0.910278C8.21024 1.12028 8.74024 1.63031 9.08024 2.32031C9.53024 3.22031 9.84024 4.18032 10.1202 5.14032C10.3902 6.06032 10.6202 6.98029 10.7802 7.92029C10.8502 8.33029 10.8502 8.74033 10.7502 9.15033C10.5702 9.83033 10.0802 10.2403 9.51024 10.5803C8.77024 11.0103 7.96024 11.2803 7.18024 11.6203C6.97024 11.7103 6.75024 11.8003 6.54024 11.8903C6.12024 12.0703 5.96024 12.4203 6.10023 12.8603C6.86024 15.1303 7.89024 17.2803 9.14024 19.3303C10.6802 21.8503 12.5002 24.1403 14.6602 26.1703C15.1102 26.5903 15.5202 26.5603 15.9002 26.0803C16.4802 25.3503 17.1002 24.6503 17.8702 24.1003C18.4102 23.7203 18.9902 23.4403 19.6702 23.4503C20.0202 23.4503 20.3502 23.5203 20.6402 23.7003C22.4702 24.8103 24.1402 26.1103 25.5202 27.7603C25.8402 28.1503 26.0902 28.5903 26.2202 29.0903C26.3702 29.6703 26.2602 30.2303 25.9802 30.7503C25.5702 31.5003 24.9802 32.0903 24.2902 32.5803C22.5002 33.8603 20.5102 34.3403 18.3302 34.0403C16.7102 33.8103 15.2702 33.1403 13.8802 32.3103C10.4602 30.2603 7.71023 27.5203 5.45023 24.2603C3.87023 21.9903 2.55023 19.5903 1.59023 17.0003C0.940233 15.2403 0.450239 13.4303 0.190239 11.5603C0.0402391 10.4903 -0.0497667 9.42033 0.0202333 8.34033C0.160233 6.10033 1.09024 4.23029 2.76024 2.73029C3.59024 1.99029 4.52024 1.41033 5.57024 1.03033C5.84024 0.940334 6.12024 0.900312 6.40024 0.820312C6.64024 0.830312 6.87024 0.830322 7.11024 0.830322Z" fill="#EC6228"/>
<path d="M30.6604 16.7403C30.6204 17.6003 30.5304 18.4503 30.3504 19.3003C30.2004 20.0103 29.6004 20.5103 28.8904 20.5103C28.1704 20.5103 27.5604 20.0303 27.4004 19.3103C27.3404 19.0603 27.3804 18.8003 27.4304 18.5503C28.0504 15.2003 27.4004 12.1103 25.4604 9.32029C23.6404 6.70029 21.1304 5.0703 18.0104 4.3903C17.2704 4.2303 16.7404 3.5603 16.7904 2.8303C16.8404 2.0503 17.4404 1.45026 18.2104 1.41026C18.6104 1.39026 18.9804 1.52028 19.3604 1.62028C24.6304 3.03028 28.6504 7.00028 30.1104 12.2403C30.4204 13.3603 30.5904 14.4903 30.6404 15.6503C30.6404 15.6903 30.6104 15.7403 30.6704 15.7703C30.6704 15.7903 30.6704 15.8203 30.6704 15.8403C30.6304 15.9303 30.6604 16.0303 30.6504 16.1203C30.6504 16.2103 30.6504 16.2903 30.6504 16.3803C30.6504 16.4403 30.6504 16.5003 30.6504 16.5503C30.6704 16.6203 30.6904 16.6803 30.6604 16.7403Z" fill="#EC6228"/>
<path d="M30.6607 16.1201C30.6707 16.0301 30.6107 15.9301 30.6907 15.8501C30.6907 15.9401 30.6907 16.0301 30.6907 16.1201C30.6807 16.1401 30.6707 16.1401 30.6607 16.1201Z" fill="#EC6228"/>
<path d="M30.6602 16.1201C30.6702 16.1201 30.6802 16.1201 30.6902 16.1201C30.6902 16.2101 30.6902 16.3001 30.6902 16.3901C30.6802 16.4001 30.6702 16.4101 30.6602 16.3901C30.6602 16.3101 30.6602 16.2101 30.6602 16.1201Z" fill="#EC6228"/>
<path d="M30.6602 16.4004C30.6702 16.4004 30.6802 16.4004 30.6902 16.4004C30.6902 16.4604 30.6902 16.5104 30.6902 16.5704C30.6802 16.5804 30.6702 16.5904 30.6602 16.5704C30.6602 16.5104 30.6602 16.4504 30.6602 16.4004Z" fill="#EC6228"/>
<path d="M30.6602 16.5703C30.6702 16.5703 30.6802 16.5703 30.6902 16.5703C30.6902 16.6303 30.6902 16.6803 30.6902 16.7403C30.6802 16.7403 30.6702 16.7403 30.6602 16.7403C30.6602 16.6803 30.6602 16.6203 30.6602 16.5703Z" fill="#EC6228"/>
<path d="M25.6799 16.7004C25.6799 17.4704 25.6199 18.2303 25.4299 18.9703C25.2399 19.7503 24.4599 20.2303 23.6699 20.0603C22.8999 19.9003 22.3699 19.1603 22.4999 18.3703C22.5999 17.7603 22.6899 17.1504 22.6699 16.5304C22.5899 14.2704 21.6999 12.3803 20.0299 10.8703C18.9899 9.93034 17.7699 9.36034 16.3999 9.06034C15.6999 8.91034 15.2199 8.27036 15.2399 7.58036C15.2599 6.85036 15.7699 6.25034 16.4899 6.12034C16.8599 6.05034 17.2099 6.16034 17.5599 6.25034C21.5199 7.24034 24.6699 10.5604 25.4599 14.5804C25.5099 14.8404 25.5499 15.1003 25.5899 15.3703C25.6599 15.8003 25.6799 16.2504 25.6799 16.7004Z" fill="#EC6228"/>
<path d="M20.6401 17.1302C20.6501 17.6102 20.6001 18.0501 20.5001 18.4901C20.3201 19.2901 19.5401 19.8002 18.7601 19.6402C17.9301 19.4702 17.4001 18.7202 17.5701 17.8902C17.9301 16.0602 16.8601 14.4702 15.4201 13.9302C15.2201 13.8502 15.0101 13.8102 14.8001 13.7502C14.0001 13.5302 13.5201 12.7302 13.7201 11.9402C13.9301 11.1202 14.7101 10.6402 15.5301 10.8402C18.0801 11.4602 19.7101 13.0602 20.4401 15.5702C20.5101 15.8202 20.5501 16.0802 20.5901 16.3402C20.6301 16.6202 20.6501 16.8902 20.6401 17.1302Z" fill="#EC6228"/>
</svg>
