<svg width="23" height="20" viewBox="0 0 23 20" fill="none" xmlns="http://www.w3.org/2000/svg">
<path d="M22.0399 17.65C21.8399 17.53 21.6299 17.41 21.4199 17.31C20.2199 16.73 18.9499 16.5 17.6299 16.52C17.5599 16.52 17.4799 16.55 17.4099 16.52C17.4099 16.49 17.4199 16.4799 17.4199 16.4699C17.4499 16.4199 17.4999 16.37 17.5399 16.32C18.3899 15.25 19.0099 14.0699 19.3499 12.7399C19.6699 11.5099 19.7699 10.2599 19.5899 8.98995C19.4399 7.86995 19.1099 6.80995 18.5899 5.80995C18.0199 4.71995 17.2699 3.76998 16.3399 2.95998C15.2999 2.05998 14.1199 1.40997 12.8099 1.00997C11.7999 0.699967 10.7699 0.589942 9.7099 0.609942C8.6999 0.629942 7.7299 0.809981 6.7899 1.14998C5.1899 1.72998 3.8199 2.64996 2.6999 3.93996C1.6599 5.14996 0.959901 6.51996 0.589901 8.06996C0.489901 8.50996 0.449902 8.95998 0.399902 9.39998V11.12C0.449902 11.7 0.529899 12.27 0.689899 12.83C1.3399 15.13 2.6499 16.9599 4.6299 18.2899C6.5599 19.5899 8.7099 20.09 11.0299 19.87C12.0599 19.77 13.0399 19.5 13.9799 19.08C14.5899 18.81 15.1999 18.56 15.8499 18.39C17.0999 18.06 18.3499 18 19.6099 18.33C20.2099 18.49 20.7699 18.7499 21.3099 19.0399C21.7099 19.2599 22.1999 19.1199 22.3599 18.7399C22.5299 18.3299 22.4799 17.91 22.0399 17.65ZM10.0199 3.02999C11.1399 3.03999 12.0799 3.97993 12.0899 5.09993C12.0999 6.22993 11.1399 7.17995 10.0099 7.17995C8.8799 7.17995 7.9299 6.21993 7.9299 5.09993C7.9399 3.96993 8.8899 3.02999 10.0199 3.02999ZM3.1499 8.51998C3.1599 7.39998 4.1199 6.50998 5.2899 6.51998C6.3899 6.52998 7.2899 7.47995 7.2799 8.61995C7.3099 9.66995 6.3399 10.69 5.1299 10.65C4.0299 10.62 3.1399 9.67998 3.1499 8.51998ZM7.0799 16.28C5.9699 16.3 4.9799 15.44 4.9799 14.19C4.9799 13.04 5.9099 12.15 7.0299 12.14C8.1699 12.11 9.1199 13.0299 9.1199 14.2199C9.1199 15.3899 8.1899 16.26 7.0799 16.28ZM10.0099 11.08C9.5599 11.08 9.1899 10.71 9.1899 10.26C9.1899 9.79997 9.5699 9.42996 10.0299 9.43996C10.4799 9.43996 10.8399 9.81998 10.8399 10.27C10.8199 10.72 10.4599 11.08 10.0099 11.08ZM12.9299 16.28C11.7799 16.25 10.8599 15.31 10.8899 14.2C10.9299 13.02 11.8499 12.13 12.9799 12.15C14.0999 12.17 15.0399 13.06 15.0199 14.2C15.0099 15.41 14.0899 16.31 12.9299 16.28ZM14.7999 10.65C13.6799 10.69 12.6899 9.69994 12.7199 8.54994C12.7499 7.45994 13.6499 6.52998 14.7699 6.51998C15.9299 6.50998 16.8499 7.42998 16.8599 8.58998C16.8699 9.71998 15.9499 10.64 14.7999 10.65Z" fill="white"/>
</svg>
