<svg width="18" height="21" viewBox="0 0 18 21" fill="none" xmlns="http://www.w3.org/2000/svg">
<path d="M17.4199 3.54004C16.5899 3.37004 15.7699 3.15008 14.9699 2.89008C13.1499 2.30008 11.4099 1.55003 9.82993 0.470032C9.60993 0.320032 9.39992 0.130049 9.13992 0.0500488H9.09992C8.97992 0.0800488 8.85992 0.110063 8.74992 0.190063C7.29992 1.25006 5.69992 2.00004 4.01992 2.60004C2.97992 2.97004 1.92992 3.27006 0.849922 3.50006C0.559922 3.56006 0.479922 3.65005 0.439922 3.93005L0.419922 4.21008V4.50006C0.419922 4.51006 0.419922 4.74005 0.419922 4.74005V4.94006C0.419922 4.94006 0.419922 5.06007 0.419922 5.07007C0.419922 5.07007 0.589922 7.59004 0.779922 8.85004C1.04992 10.66 1.50992 12.4201 2.28992 14.0801C3.64992 16.9701 5.78992 19.0001 8.84992 20.0101C9.03992 20.0701 9.21992 20.0801 9.39993 20.0101C11.6599 19.2601 13.4999 17.94 14.8699 15.98C15.9799 14.4 16.6599 12.6301 17.1099 10.7701C17.6399 8.55008 17.8199 6.28006 17.8199 4.00006C17.8199 3.74006 17.6899 3.60004 17.4199 3.54004ZM15.8199 12.1301C15.2099 13.9301 14.3199 15.5501 12.9599 16.8901C11.8999 17.9301 10.6499 18.6601 9.25993 19.1401C9.16993 19.1701 9.08993 19.1501 9.00993 19.1201C6.60993 18.3101 4.81993 16.7601 3.55993 14.5801C2.63993 12.9701 2.10992 11.23 1.77992 9.42004C1.52992 8.04004 1.39993 6.65006 1.32993 5.25006C1.32993 5.01006 1.33993 4.76008 1.32993 4.52008C1.31993 4.36008 1.37992 4.32004 1.51992 4.29004C3.11992 3.93004 4.66992 3.41004 6.16992 2.73004C7.16992 2.28004 8.11992 1.76007 9.01992 1.13007C9.09992 1.07007 9.15992 1.04005 9.26992 1.11005C11.0499 2.35005 13.0099 3.19008 15.0699 3.83008C15.6499 4.01008 16.2399 4.17005 16.8399 4.30005C16.9399 4.32005 16.9799 4.35003 16.9799 4.47003C16.9099 7.07003 16.6599 9.64007 15.8199 12.1301Z" fill="white"/>
<path d="M15.61 5.84023C15.61 5.94023 15.6 6.04023 15.59 6.15023C15.5 7.68023 15.3 9.19018 14.92 10.6702C14.53 12.1802 13.95 13.6002 13.02 14.8602C12.07 16.1602 10.85 17.1002 9.36004 17.7102C9.18004 17.7802 9.02004 17.7602 8.85004 17.6902C6.84004 16.8502 5.39004 15.4202 4.40004 13.5002C3.66004 12.0602 3.24004 10.5302 2.98004 8.9402C2.81004 7.9202 2.71004 6.89019 2.66004 5.86019C2.64004 5.44019 2.72004 5.33017 3.12004 5.22017C5.11004 4.66017 7.00004 3.87021 8.78004 2.82021C9.03004 2.68021 9.23004 2.67021 9.48004 2.82021C11.27 3.87021 13.16 4.67018 15.16 5.23018C15.54 5.32018 15.63 5.45023 15.61 5.84023Z" fill="white"/>
</svg>
