<svg width="26" height="21" viewBox="0 0 26 21" fill="none" xmlns="http://www.w3.org/2000/svg">
<path d="M25.3801 7.24003C24.0601 7.94003 22.7901 8.62009 21.5101 9.30009C18.7801 10.7601 16.0401 12.2201 13.3101 13.6801C13.1501 13.7701 13.0201 13.7601 12.8601 13.6801C10.9301 12.6401 9.00008 11.61 7.06008 10.58C6.97008 10.53 6.89008 10.4801 6.78008 10.4201C7.93008 9.81009 9.05007 9.21003 10.1701 8.61003C10.7801 8.28003 11.4001 7.95004 12.0101 7.62004C12.1501 7.54004 12.2801 7.51999 12.4501 7.56999C13.0801 7.75999 13.6901 7.70001 14.2501 7.34001C15.0501 6.83001 15.0501 5.87002 14.2601 5.35002C13.5301 4.87002 12.4001 4.92001 11.7501 5.47002C11.3501 5.81002 11.2201 6.27004 11.4101 6.75004C11.4701 6.90004 11.4201 6.94004 11.3101 7.00004C9.53007 7.95004 7.75008 8.90002 5.97008 9.85002C5.88008 9.90002 5.80008 9.92003 5.70008 9.86003C4.09008 9.00003 2.48008 8.14007 0.870075 7.28007C0.860075 7.27007 0.850078 7.25003 0.830078 7.24003C0.860078 7.15003 0.950077 7.14003 1.02008 7.11003C4.98008 5.00003 8.93008 2.89007 12.8901 0.780074C13.0201 0.710074 13.1201 0.690064 13.2601 0.770064C17.2501 2.91006 21.2501 5.04009 25.2501 7.17009C25.2801 7.17009 25.3101 7.19003 25.3801 7.24003Z" fill="white"/>
<path d="M21.9202 14.7899C21.9202 14.9699 21.8202 15.0299 21.7102 15.1099C19.9602 16.3699 18.0302 17.2198 15.9102 17.5798C13.1502 18.0598 10.4402 17.8999 7.80019 16.8999C7.49019 16.7799 7.35019 16.3698 7.5202 16.0798C8.09019 15.1098 7.69019 13.9499 6.64019 13.5299C6.53019 13.4899 6.4502 13.4599 6.4502 13.3099C6.4602 12.6399 6.4502 11.9699 6.4502 11.2999C6.5602 11.2899 6.63019 11.3599 6.71019 11.3999C8.70019 12.4599 10.6902 13.5198 12.6802 14.5898C12.9502 14.7398 13.1702 14.7499 13.4502 14.5999C16.1602 13.1399 18.8802 11.6999 21.6002 10.2499C21.6902 10.1999 21.7802 10.1598 21.9002 10.0898C21.9102 11.6798 21.9102 13.2399 21.9202 14.7899Z" fill="white"/>
<path d="M6.54021 19.93C6.08021 20.09 5.66022 20.0401 5.24022 19.8101C5.17022 19.7701 5.13021 19.73 5.13021 19.65C5.12021 18.76 5.12022 17.87 5.33022 17C5.36022 16.86 5.38021 16.82 5.54021 16.87C5.85021 16.98 6.18022 16.98 6.49022 16.87C6.64022 16.82 6.67021 16.86 6.70021 17C6.84021 17.64 6.91022 18.2799 6.90022 18.9399C6.90022 19.0999 6.88022 19.26 6.90022 19.41C6.96022 19.71 6.81021 19.84 6.54021 19.93Z" fill="white"/>
<path d="M5.58002 13.2999C5.58002 13.4099 5.57002 13.4799 5.44002 13.5299C4.81002 13.7499 4.44002 14.2099 4.27002 14.8499V10.1099C4.68002 10.3299 5.08002 10.5499 5.47002 10.7499C5.58002 10.7999 5.58002 10.8798 5.58002 10.9698C5.57002 11.7398 5.57002 12.5199 5.58002 13.2999Z" fill="white"/>
<path d="M6.89988 15.18C6.89988 15.67 6.48988 16.07 5.99988 16.06C5.51988 16.05 5.12988 15.66 5.12988 15.18C5.12988 14.69 5.52988 14.29 6.01988 14.3C6.50988 14.3 6.89988 14.7 6.89988 15.18Z" fill="white"/>
<path d="M13.8101 6.5898C13.5901 6.7498 13.3401 6.77987 13.0801 6.78987C12.8301 6.77987 12.5801 6.74981 12.3701 6.59981C12.1501 6.44981 12.1501 6.2498 12.3701 6.0898C12.7101 5.8398 13.4901 5.84981 13.8101 6.09981C14.0101 6.25981 14.0201 6.4398 13.8101 6.5898Z" fill="white"/>
</svg>
