<svg width="69" height="69" viewBox="0 0 69 69" fill="none" xmlns="http://www.w3.org/2000/svg">
<path d="M19.7 22.6299C19.63 22.5799 19.58 22.5099 19.46 22.3999H49.13C47.05 24.0499 45.0599 25.6399 43.0699 27.2199C40.2799 29.4399 37.48 31.6499 34.7 33.8799C34.38 34.1299 34.19 34.1399 33.87 33.8899C29.15 30.1199 24.43 26.3799 19.7 22.6299Z" fill="black"/>
<path d="M52.1201 24.5002C52.2401 24.4102 52.3601 24.3202 52.5801 24.1602V25.6801C52.5801 32.0701 52.5801 38.4501 52.5801 44.8401C52.5801 45.9901 52.4301 46.1402 51.2901 46.1402H17.2601C16.1201 46.1402 15.9701 45.9902 15.9601 44.8502C15.9601 38.2002 15.9601 31.5501 15.9601 24.9001C15.9601 24.6901 15.9001 24.4701 16.0501 24.2101C17.5801 25.4201 19.0901 26.6102 20.6001 27.8102C24.7001 31.0702 28.8001 34.3301 32.9001 37.5801C33.9101 38.3901 34.6101 38.3901 35.6201 37.5901C41.1301 33.2301 46.6201 28.8602 52.1201 24.5002Z" fill="black"/>
<path d="M67.9799 29.6801C67.0399 22.7401 64.1699 16.6601 59.4899 11.4501C55.9399 7.50011 51.6799 4.54012 46.7399 2.60012C43.5099 1.33012 40.1699 0.470108 36.6599 0.390108C34.1099 0.330108 31.5599 0.250108 29.0199 0.640108C23.5099 1.49011 18.5199 3.60011 14.0499 6.91011C10.6199 9.45011 7.74986 12.5301 5.47986 16.1601C3.41986 19.4601 1.92982 22.9901 1.06982 26.7901C0.719824 28.3401 0.569922 29.9001 0.419922 31.4801V32.0001C0.489922 32.0601 0.489868 32.1401 0.489868 32.2201C0.489868 32.2301 0.489868 32.2501 0.489868 32.2601C0.489868 32.2701 0.489868 32.2901 0.489868 32.3001V32.6201C0.489868 32.6301 0.489868 32.6401 0.489868 32.6501C0.489868 32.6601 0.489868 32.6801 0.489868 32.7001C0.489868 32.7801 0.489922 32.8601 0.419922 32.9201V35.5601C0.509922 35.6401 0.479868 35.7601 0.489868 35.8601V36.1801C0.479868 36.2801 0.509922 36.4001 0.419922 36.4801V37.0101C0.559922 37.6801 0.489844 38.3601 0.589844 39.0301C1.87984 47.7101 5.9499 54.8501 12.6499 60.4601C17.3199 64.3701 22.7199 66.7901 28.7399 67.8101C29.6499 67.9601 30.5699 67.9101 31.4799 68.0801H32.0099C32.0899 67.9901 32.1999 68.0201 32.2999 68.0101C32.4199 68.0201 32.5599 67.9701 32.6699 68.0801H33.1998C33.4698 67.9701 33.7299 67.9701 33.9899 68.0801H34.5199C34.7399 67.9701 34.9599 67.9701 35.1799 68.0801H35.8398C35.9498 67.9701 36.0898 68.0301 36.2098 68.0101C36.3098 68.0201 36.4199 67.9901 36.4999 68.0801H36.8999C37.5699 67.9601 38.2499 68.0101 38.9199 67.9301C41.7999 67.5501 44.5799 66.8001 47.2499 65.6701C52.2499 63.5701 56.5199 60.4701 60.0599 56.3501C62.3499 53.6901 64.1899 50.7501 65.5499 47.5201C67.0199 44.0301 67.9899 40.4101 68.1099 36.5901C68.1999 34.2901 68.2899 31.9701 67.9799 29.6801ZM56.0798 45.1001C56.0798 47.8301 54.3098 49.6201 51.5898 49.6201C45.8198 49.6301 40.0499 49.6201 34.2799 49.6201C28.5699 49.6201 22.8699 49.5601 17.1599 49.6501C14.2899 49.6901 12.4098 47.5501 12.4398 44.9001C12.5198 37.7001 12.4598 30.4901 12.4698 23.2901C12.4698 21.1501 13.6998 19.5401 15.6898 18.9901C16.1198 18.8701 16.5599 18.8701 16.9999 18.8701C28.5199 18.8701 40.0399 18.8701 51.5599 18.8701C54.3199 18.8701 56.0898 20.6501 56.0898 23.4201C56.0898 30.6501 56.0898 37.8701 56.0798 45.1001Z" fill="#DF6939"/>
<path d="M33.2197 68.0899C33.4797 67.8899 33.7498 67.8899 34.0098 68.0899C33.7498 68.0899 33.4797 68.0899 33.2197 68.0899Z" fill="#101010"/>
<path d="M34.54 68.0901C34.76 67.9001 34.98 67.8901 35.2 68.0901C34.98 68.0901 34.76 68.0901 34.54 68.0901Z" fill="#101010"/>
<path d="M32.2901 67.9701C32.4401 67.9501 32.6 67.91 32.69 68.08C32.56 68.08 32.4301 68.08 32.2901 68.08C32.2501 68.06 32.23 68.0301 32.25 68.0101C32.26 67.9901 32.2701 67.9701 32.2901 67.9701Z" fill="#5D5D5D"/>
<path d="M35.8599 68.0903C35.9599 67.9203 36.1099 67.9603 36.2599 67.9803C36.2999 68.0103 36.3099 68.0303 36.2999 68.0603C36.2899 68.0803 36.2699 68.1003 36.2599 68.1003C36.1299 68.0903 35.9899 68.0903 35.8599 68.0903Z" fill="#5D5D5D"/>
<path d="M32.29 67.9703C32.3 68.0103 32.3 68.0503 32.3 68.0803C32.21 68.0803 32.12 68.0803 32.04 68.0803C32.06 67.9203 32.18 67.9603 32.29 67.9703Z" fill="#828282"/>
<path d="M36.2598 68.09C36.2598 68.05 36.2598 68.01 36.2698 67.98C36.3798 67.97 36.4998 67.93 36.5298 68.09C36.4398 68.09 36.3498 68.09 36.2598 68.09Z" fill="#828282"/>
<path d="M19.7 22.6299C19.63 22.5799 19.58 22.5099 19.46 22.3999H49.13C47.05 24.0499 45.0599 25.6399 43.0699 27.2199C40.2799 29.4399 37.48 31.6499 34.7 33.8799C34.38 34.1299 34.19 34.1399 33.87 33.8899C29.15 30.1199 24.43 26.3799 19.7 22.6299Z" fill="#FDFDFD"/>
<path d="M52.5801 24.1602V25.6801C52.5801 32.0701 52.5801 38.4501 52.5801 44.8401C52.5801 45.9901 52.4301 46.1402 51.2901 46.1402H17.2601C16.1201 46.1402 15.9701 45.9902 15.9601 44.8502C15.9601 38.2002 15.9601 31.5501 15.9601 24.9001C15.9601 24.6901 15.9001 24.4701 16.0501 24.2101C17.5801 25.4201 19.0901 26.6102 20.6001 27.8102C24.7001 31.0702 28.8001 34.3301 32.9001 37.5801C33.9101 38.3901 34.6101 38.3901 35.6201 37.5901C41.1201 33.2301 46.6201 28.8601 52.1101 24.4901C52.2401 24.4101 52.3601 24.3202 52.5801 24.1602Z" fill="#FDFDFD"/>
<path d="M52.5801 24.1602V25.6801C52.5801 32.0701 52.5801 38.4501 52.5801 44.8401C52.5801 45.9901 52.4301 46.1402 51.2901 46.1402H17.2601C16.1201 46.1402 15.9701 45.9902 15.9601 44.8502C15.9601 38.2002 15.9601 31.5501 15.9601 24.9001C15.9601 24.6901 15.9001 24.4701 16.0501 24.2101C17.5801 25.4201 19.0901 26.6102 20.6001 27.8102C24.7001 31.0702 28.8001 34.3301 32.9001 37.5801C33.9101 38.3901 34.6101 38.3901 35.6201 37.5901C41.1201 33.2301 46.6201 28.8601 52.1101 24.4901C52.2401 24.4101 52.3601 24.3202 52.5801 24.1602Z" fill="#DF6939"/>
<path d="M49.1298 22.3999C47.0498 24.0499 45.0597 25.6399 43.0697 27.2199C40.2797 29.4399 37.4797 31.6499 34.6997 33.8799C34.3797 34.1299 34.1898 34.1399 33.8698 33.8899C29.1598 30.1299 24.4297 26.3799 19.7097 22.6299C19.6397 22.5799 19.5897 22.5099 19.4697 22.3999H49.1298Z" fill="#DF6939"/>
</svg>
