<svg width="69" height="69" viewBox="0 0 69 69" fill="none" xmlns="http://www.w3.org/2000/svg">
<path d="M32.3102 0.180176C32.8402 0.180176 33.3702 0.180176 33.9102 0.180176C34.2602 0.390176 34.6201 0.390176 34.9701 0.180176C35.3201 0.180176 35.6802 0.180176 36.0302 0.180176C38.4702 0.480176 40.9501 0.430188 43.3601 1.13019C53.4101 4.04019 60.7401 10.1202 65.4401 19.5002C68.3201 25.2602 68.8701 31.3102 68.5001 37.6002C67.9901 46.1902 64.2901 53.2902 58.2401 59.1602C53.2301 64.0202 47.2201 67.1602 40.2301 68.1702C38.6201 68.4002 38.3301 68.1602 38.3201 66.5302C38.3001 58.6402 38.3001 50.7502 38.3201 42.8602C38.3201 41.3402 38.6201 41.0702 40.1201 41.0402C41.7101 41.0002 43.3102 41.0002 44.9102 41.0402C45.9802 41.0702 46.5401 40.7202 46.6501 39.5802C46.8601 37.6002 47.1601 35.6302 47.3701 33.6402C47.5101 32.3002 47.4402 32.2402 46.0302 32.2202C44.0802 32.2002 42.1302 32.2402 40.1802 32.2102C38.6002 32.1802 38.3401 31.9202 38.3201 30.3202C38.2901 28.5502 38.2701 26.7702 38.3301 25.0002C38.4001 22.7502 39.5001 21.5002 41.6901 21.0302C43.2701 20.6902 44.8701 20.8202 46.4601 20.8302C47.4701 20.8402 47.9201 20.4802 47.8901 19.4402C47.8501 17.7602 47.8601 16.0702 47.8801 14.3902C47.8901 13.5302 47.5702 13.1002 46.6702 13.0202C43.7102 12.7402 40.7302 12.5102 37.8102 13.1602C32.6002 14.3102 29.2601 18.5402 29.2301 23.8902C29.2201 26.0602 29.2501 28.2302 29.2201 30.4102C29.2001 31.9402 28.9302 32.2002 27.4302 32.2302C25.7502 32.2602 24.0601 32.2702 22.3801 32.2302C21.3301 32.2002 20.9601 32.6402 20.9801 33.6502C21.0101 35.6402 21.0301 37.6402 20.9701 39.6302C20.9401 40.7602 21.4301 41.1002 22.4901 41.0602C24.0801 41.0102 25.6802 41.0202 27.2802 41.0602C28.8402 41.1002 29.2201 41.4702 29.2201 43.0902C29.2401 50.8502 29.2501 58.6002 29.2201 66.3602C29.2101 67.9702 28.6901 68.3402 26.9901 67.9502C21.6701 66.7402 16.8801 64.4602 12.6501 60.9902C6.84015 56.2202 3.08009 50.1602 1.09009 42.9402C0.640088 41.3002 0.770137 39.6102 0.390137 37.9802C0.390137 36.3002 0.390137 34.6102 0.390137 32.9302C0.560137 32.7502 0.560137 32.5802 0.390137 32.4002C0.390137 31.7802 0.390137 31.1602 0.390137 30.5402C0.720137 27.6902 1.21017 24.8902 2.30017 22.2002C6.21017 12.5202 12.9501 5.78018 22.7401 2.08018C25.8501 0.880185 29.0502 0.450176 32.3102 0.180176Z" fill="#DF6939"/>
</svg>
