<svg width="21" height="17" viewBox="0 0 21 17" fill="none" xmlns="http://www.w3.org/2000/svg">
<path d="M19.4869 13.6698C19.3822 13.6433 19.2717 13.6504 19.1676 13.6504C15.8563 13.6433 12.5515 13.6433 9.24027 13.6504C9.0909 13.6504 9.0321 13.6304 9.00623 13.4551C8.90861 12.7001 8.30352 12.1861 7.53612 12.1797C7.06098 12.1732 6.58584 12.1732 6.11129 12.1797C5.33684 12.1797 4.72527 12.7065 4.62766 13.4681C4.60825 13.6368 4.55004 13.6504 4.40655 13.6504C3.56742 13.6433 2.72181 13.6633 1.88267 13.6368C1.42694 13.6304 1.11469 13.7803 0.939453 14.1966V14.5671C1.11469 14.9834 1.42694 15.1334 1.88267 15.1205C2.72828 15.1011 3.58035 15.1205 4.43302 15.114C4.55004 15.114 4.60825 15.1205 4.62766 15.2763C4.71881 16.0507 5.33037 16.5776 6.11129 16.5841C6.58584 16.5906 7.06098 16.5906 7.53612 16.5841C8.29058 16.5776 8.88921 16.0766 9.00623 15.3286C9.0321 15.1399 9.09091 15.114 9.26614 15.114C12.5515 15.1205 15.8369 15.1205 19.1223 15.1205C19.2005 15.1205 19.2782 15.1205 19.3564 15.114C19.721 15.0946 20.0267 14.8082 20.0591 14.4501C20.0914 14.0861 19.8444 13.748 19.4869 13.6698ZM7.50966 15.0811C7.38617 15.1987 7.07392 15.1205 6.84635 15.114C6.59937 15.1075 6.26712 15.2245 6.12423 15.0681C6.00074 14.9382 6.09835 14.6065 6.09835 14.366C6.10482 14.1314 5.98075 13.8191 6.1307 13.6827C6.25419 13.5657 6.56644 13.6433 6.79401 13.6504C7.04158 13.6568 7.37323 13.5398 7.51613 13.6956C7.6402 13.8256 7.55552 14.1578 7.55552 14.3983C7.54906 14.6324 7.65314 14.9446 7.50966 15.0811Z" fill="white"/>
<path d="M19.2852 7.76949C17.8863 7.76302 16.4938 7.76302 15.1019 7.76949C14.9719 7.76949 14.9131 7.7495 14.8937 7.59367C14.7961 6.82568 14.191 6.30527 13.4171 6.2988C12.942 6.29233 12.4669 6.29233 11.9923 6.2988C11.2308 6.30527 10.6192 6.81275 10.5157 7.56779C10.4893 7.75597 10.4175 7.76949 10.2682 7.76949C7.47085 7.76302 4.67353 7.77596 1.88267 7.75597C1.42694 7.75597 1.11469 7.89945 0.939453 8.31579V8.68625C1.11469 9.10317 1.434 9.24607 1.88267 9.24607C4.68646 9.23313 7.49025 9.2396 10.2876 9.23313C10.4311 9.23313 10.4893 9.24607 10.5157 9.41542C10.6063 10.1764 11.2243 10.6968 11.9988 10.7032C12.4733 10.7097 12.9485 10.7097 13.4236 10.7032C14.1845 10.6968 14.7896 10.1828 14.8937 9.42836C14.9131 9.25254 14.9784 9.23313 15.1278 9.23313C16.5073 9.2396 17.8863 9.23313 19.2588 9.2396C19.6039 9.2396 19.8574 9.09612 20.0003 8.79092C20.222 8.29638 19.8509 7.76949 19.2852 7.76949ZM13.3907 9.2002C13.2607 9.31781 12.9291 9.22666 12.6815 9.22666C12.4475 9.21373 12.1352 9.33722 12.0052 9.19373C11.8882 9.06378 11.9664 8.75799 11.9723 8.53042C11.9794 8.27639 11.8618 7.94473 12.0182 7.80183C12.1481 7.67835 12.4804 7.76302 12.7209 7.76949C12.9614 7.76949 13.2737 7.66541 13.4042 7.8083C13.5212 7.93826 13.443 8.24404 13.4365 8.47808C13.4301 8.72565 13.5471 9.05731 13.3907 9.2002Z" fill="white"/>
<path d="M19.5387 1.92003C19.4152 1.88122 19.2911 1.88769 19.1741 1.88769H9.31848C9.27261 1.88769 9.22733 1.88122 9.18205 1.88769C9.07091 1.90063 9.02563 1.86769 9.01916 1.74421C8.99329 1.43842 8.8698 1.17204 8.67457 0.930942C8.43994 0.651622 8.12122 0.514607 7.7831 0.416992H5.81198C5.14866 0.50167 4.77114 0.905068 4.59532 1.5231C4.51711 1.81595 4.52416 1.81595 4.21132 1.81595C3.37866 1.82242 2.54599 1.81595 1.71979 1.82242C1.27758 1.82242 1.03707 2.02411 0.939453 2.43398V2.80503C1.11469 3.22137 1.42694 3.37073 1.88267 3.36426C2.72828 3.33839 3.58035 3.3578 4.43302 3.35133C4.55004 3.35133 4.60825 3.3578 4.62766 3.51363C4.71881 4.28808 5.33037 4.82143 6.11129 4.82143C6.58584 4.8279 7.06098 4.8279 7.53612 4.82143C8.29058 4.81497 8.88921 4.31395 9.00623 3.57243C9.0321 3.38367 9.0909 3.35133 9.26614 3.35133C12.558 3.3578 15.8499 3.3578 19.1417 3.3578C19.2199 3.3578 19.2982 3.3578 19.3758 3.35133C19.721 3.32545 20.0067 3.05201 20.0526 2.71389C20.0979 2.36224 19.8833 2.03058 19.5387 1.92003ZM7.50966 3.3184C7.37323 3.44247 7.04157 3.34486 6.80106 3.34486C6.56644 3.33192 6.24772 3.46188 6.11776 3.30546C6.00074 3.1755 6.07895 2.86972 6.08542 2.64215C6.09188 2.39517 5.97486 2.06292 6.1307 1.92003C6.26712 1.79654 6.59937 1.88122 6.83988 1.88769C7.07392 1.89416 7.39264 1.7836 7.52259 1.93297C7.6402 2.06292 7.56199 2.36871 7.55552 2.59628C7.54906 2.84385 7.66608 3.18197 7.50966 3.3184Z" fill="white"/>
</svg>
