<svg width="16" height="16" viewBox="0 0 16 16" fill="none" xmlns="http://www.w3.org/2000/svg">
<path d="M15.5037 1.52747C15.5151 2.42319 14.8032 3.08925 13.8156 3.08925C11.7944 3.08925 9.77332 3.08925 7.7522 3.08925C5.69663 3.08925 3.64106 3.08925 1.58549 3.08925C0.827572 3.08925 0.207471 2.59545 0.0581835 1.89495C-0.102587 1.17148 0.241911 0.459491 0.907962 0.149433C1.14912 0.0345965 1.41326 0.000148777 1.67738 0.000148777C5.73111 0.000148777 9.78483 0.000148777 13.8386 0.000148777C14.7917 -0.0113349 15.4922 0.64323 15.5037 1.52747Z" fill="#F9F9F9"/>
<path d="M14.8839 15.1584C14.5854 15.3881 14.2408 15.48 13.8619 15.48C9.78518 15.48 5.7085 15.48 1.63181 15.48C0.701631 15.48 0.00111351 14.8024 0.00111351 13.9412C-0.0103701 13.0569 0.701618 12.3909 1.65476 12.3794C3.69885 12.3794 5.74293 12.3794 7.78702 12.3794C9.83111 12.3794 11.8752 12.3794 13.9193 12.3794C14.6198 12.3794 15.194 12.8043 15.4122 13.4359C15.6189 14.0675 15.4122 14.745 14.8839 15.1584Z" fill="#F9F9F9"/>
<path d="M14.0227 9.26682C13.0006 9.28979 11.9671 9.2783 10.9336 9.2783C9.8656 9.2783 8.79763 9.2783 7.74113 9.2783C5.69704 9.2783 3.65293 9.28978 1.60884 9.2783C0.368605 9.26682 -0.389282 8.03807 0.207867 6.99306C0.506442 6.46481 0.965755 6.20068 1.57439 6.20068C2.56198 6.20068 3.56109 6.20068 4.54868 6.20068C7.64926 6.20068 10.7498 6.20068 13.8389 6.20068C14.7117 6.20068 15.3089 6.683 15.4581 7.4524C15.6419 8.37109 14.9758 9.24385 14.0227 9.26682Z" fill="#F9F9F9"/>
</svg>
