<svg width="68" height="69" viewBox="0 0 68 69" fill="none" xmlns="http://www.w3.org/2000/svg">
<path d="M44.2498 51.95C44.1598 51.95 44.0597 51.9599 43.9697 51.9599C43.9797 51.9499 43.9998 51.9499 44.0098 51.9399C44.0898 51.9499 44.1698 51.95 44.2498 51.95Z" fill="black"/>
<path d="M31.7898 28.47L31.7798 28.46H31.7898V28.47Z" fill="black"/>
<path d="M44.8898 52.1196C44.8298 52.1696 44.7697 52.2096 44.6997 52.2396C44.8597 52.1696 45.0197 52.1096 45.1897 52.0996C45.0997 52.0996 44.9998 52.1096 44.8898 52.1196ZM44.8898 52.1196C44.8298 52.1696 44.7697 52.2096 44.6997 52.2396C44.8597 52.1696 45.0197 52.1096 45.1897 52.0996C45.0997 52.0996 44.9998 52.1096 44.8898 52.1196ZM44.8898 52.1196C44.8298 52.1696 44.7697 52.2096 44.6997 52.2396C44.8597 52.1696 45.0197 52.1096 45.1897 52.0996C45.0997 52.0996 44.9998 52.1096 44.8898 52.1196ZM44.8898 52.1196C44.8298 52.1696 44.7697 52.2096 44.6997 52.2396C44.8597 52.1696 45.0197 52.1096 45.1897 52.0996C45.0997 52.0996 44.9998 52.1096 44.8898 52.1196ZM44.8898 52.1196C44.8298 52.1696 44.7697 52.2096 44.6997 52.2396C44.8597 52.1696 45.0197 52.1096 45.1897 52.0996C45.0997 52.0996 44.9998 52.1096 44.8898 52.1196ZM44.8898 52.1196C44.8298 52.1696 44.7697 52.2096 44.6997 52.2396C44.8597 52.1696 45.0197 52.1096 45.1897 52.0996C45.0997 52.0996 44.9998 52.1096 44.8898 52.1196ZM44.8898 52.1196C44.8298 52.1696 44.7697 52.2096 44.6997 52.2396C44.8597 52.1696 45.0197 52.1096 45.1897 52.0996C45.0997 52.0996 44.9998 52.1096 44.8898 52.1196ZM44.8898 52.1196C44.8298 52.1696 44.7697 52.2096 44.6997 52.2396C44.8597 52.1696 45.0197 52.1096 45.1897 52.0996C45.0997 52.0996 44.9998 52.1096 44.8898 52.1196ZM44.8898 52.1196C44.8298 52.1696 44.7697 52.2096 44.6997 52.2396C44.8597 52.1696 45.0197 52.1096 45.1897 52.0996C45.0997 52.0996 44.9998 52.1096 44.8898 52.1196ZM44.8898 52.1196C44.8298 52.1696 44.7697 52.2096 44.6997 52.2396C44.8597 52.1696 45.0197 52.1096 45.1897 52.0996C45.0997 52.0996 44.9998 52.1096 44.8898 52.1196ZM44.8898 52.1196C44.8298 52.1696 44.7697 52.2096 44.6997 52.2396C44.8597 52.1696 45.0197 52.1096 45.1897 52.0996C45.0997 52.0996 44.9998 52.1096 44.8898 52.1196ZM44.8898 52.1196C44.8298 52.1696 44.7697 52.2096 44.6997 52.2396C44.8597 52.1696 45.0197 52.1096 45.1897 52.0996C45.0997 52.0996 44.9998 52.1096 44.8898 52.1196ZM44.8898 52.1196C44.8298 52.1696 44.7697 52.2096 44.6997 52.2396C44.8597 52.1696 45.0197 52.1096 45.1897 52.0996C45.0997 52.0996 44.9998 52.1096 44.8898 52.1196ZM44.8898 52.1196C44.8298 52.1696 44.7697 52.2096 44.6997 52.2396C44.8597 52.1696 45.0197 52.1096 45.1897 52.0996C45.0997 52.0996 44.9998 52.1096 44.8898 52.1196ZM44.8898 52.1196C44.8298 52.1696 44.7697 52.2096 44.6997 52.2396C44.8597 52.1696 45.0197 52.1096 45.1897 52.0996C45.0997 52.0996 44.9998 52.1096 44.8898 52.1196ZM44.8898 52.1196C44.8298 52.1696 44.7697 52.2096 44.6997 52.2396C44.8597 52.1696 45.0197 52.1096 45.1897 52.0996C45.0997 52.0996 44.9998 52.1096 44.8898 52.1196ZM44.8898 52.1196C44.8298 52.1696 44.7697 52.2096 44.6997 52.2396C44.8597 52.1696 45.0197 52.1096 45.1897 52.0996C45.0997 52.0996 44.9998 52.1096 44.8898 52.1196ZM44.8898 52.1196C44.8298 52.1696 44.7697 52.2096 44.6997 52.2396C44.8597 52.1696 45.0197 52.1096 45.1897 52.0996C45.0997 52.0996 44.9998 52.1096 44.8898 52.1196ZM44.8898 52.1196C44.8298 52.1696 44.7697 52.2096 44.6997 52.2396C44.8597 52.1696 45.0197 52.1096 45.1897 52.0996C45.0997 52.0996 44.9998 52.1096 44.8898 52.1196ZM44.8898 52.1196C44.8298 52.1696 44.7697 52.2096 44.6997 52.2396C44.8597 52.1696 45.0197 52.1096 45.1897 52.0996C45.0997 52.0996 44.9998 52.1096 44.8898 52.1196ZM44.8898 52.1196C44.8298 52.1696 44.7697 52.2096 44.6997 52.2396C44.8597 52.1696 45.0197 52.1096 45.1897 52.0996C45.0997 52.0996 44.9998 52.1096 44.8898 52.1196Z" fill="black"/>
<path d="M67.6599 30.5598C64.9699 5.02978 35.9398 -8.48022 14.4898 6.50978C9.80982 9.77978 6.32982 14.0998 3.61982 19.0698C3.37982 19.1998 3.46978 19.4898 3.32978 19.6698C1.56978 23.8298 0.379879 28.1198 0.179879 32.6698C-0.0601213 38.2598 1.12978 43.5498 3.32978 48.6398C3.46978 48.8198 3.37982 49.1098 3.61982 49.2398C3.80982 49.5598 4.01978 49.8698 4.19978 50.1998C7.80978 56.7098 12.8698 61.7798 19.6898 64.8098C31.5498 70.0898 43.0898 69.2198 53.6498 61.6598C64.1898 54.1098 69.0199 43.5098 67.6599 30.5598ZM56.0399 26.4798C55.8899 32.0198 56.0098 37.5798 55.9998 43.1198C55.9898 50.8298 50.5598 56.2698 42.8498 56.2898C37.2598 56.3098 31.6599 56.2998 26.0599 56.2898C18.3299 56.2898 13.8698 52.7598 12.0998 45.2498C12.0998 45.2398 12.0898 45.2198 12.0898 45.2098C11.8598 44.5798 12.0198 43.9298 12.0098 43.2798C11.9998 36.7598 11.9998 30.2498 11.9998 23.7298C11.9998 23.4898 11.9998 23.2598 12.1198 23.0398C12.7198 20.5898 13.5598 18.2498 15.4398 16.4498C16.3198 15.3498 17.3798 14.4798 18.6898 13.9298C20.5298 12.7098 22.6198 12.3198 24.7598 12.2998C30.9198 12.2598 37.0698 12.2898 43.2198 12.2798C45.8998 12.2798 48.3198 13.1298 50.5898 14.4798C51.0598 14.8598 51.5298 15.2398 51.9998 15.6198C54.9598 18.6598 56.1499 22.2698 56.0399 26.4798Z" fill="#DF6939"/>
<path d="M44.2498 51.95C44.1598 51.95 44.0597 51.9599 43.9697 51.9599C43.9797 51.9499 43.9998 51.9499 44.0098 51.9399C44.0898 51.9499 44.1698 51.95 44.2498 51.95Z" fill="#FDFDFD"/>
<path d="M31.7898 28.47L31.7798 28.46H31.7898V28.47Z" fill="#FDFDFD"/>
<path d="M44.8898 52.1196C44.8298 52.1696 44.7697 52.2096 44.6997 52.2396C44.8597 52.1696 45.0197 52.1096 45.1897 52.0996C45.0997 52.0996 44.9998 52.1096 44.8898 52.1196Z" fill="#FDFDFD"/>
<path d="M44.8898 52.1196C44.8298 52.1696 44.7697 52.2096 44.6997 52.2396C44.8597 52.1696 45.0197 52.1096 45.1897 52.0996C45.0997 52.0996 44.9998 52.1096 44.8898 52.1196Z" fill="#060606"/>
<path d="M44.2498 51.95C44.1598 51.95 44.0597 51.9599 43.9697 51.9599C43.9797 51.9499 43.9998 51.9499 44.0098 51.9399C44.0898 51.9499 44.1698 51.95 44.2498 51.95Z" fill="black"/>
<path d="M31.7898 28.47L31.7798 28.46H31.7898V28.47Z" fill="black"/>
<path d="M44.2498 51.95C44.1598 51.95 44.0597 51.9599 43.9697 51.9599C43.9797 51.9499 43.9998 51.9499 44.0098 51.9399C44.0898 51.9499 44.1698 51.95 44.2498 51.95Z" fill="#060606"/>
<path d="M31.7898 28.47L31.7798 28.46H31.7898V28.47Z" fill="#FDFDFD"/>
<path d="M52.0199 24.48C51.0299 19.37 48.1 16.55 43.55 16.51C37.15 16.46 30.7499 16.46 24.3499 16.52C19.9799 16.56 16.26 20.05 16.17 24.39C16.04 31.07 16.05 37.76 16.17 44.44C16.24 48.41 19.4599 51.73 23.2299 52.13C23.5999 52.42 24.0499 52.34 24.4599 52.34C30.8599 52.35 37.2599 52.35 43.6499 52.34C43.8299 52.34 44.0099 52.35 44.1899 52.35C44.2199 52.35 44.26 52.35 44.29 52.34C44.43 52.33 44.5599 52.3 44.6899 52.24C44.6899 52.24 44.6899 52.24 44.6999 52.24C44.7599 52.21 44.8299 52.17 44.8899 52.12C44.9899 52.11 45.0999 52.1 45.1999 52.09C45.2599 52.09 45.3099 52.08 45.3699 52.08C45.4699 52.07 45.58 52.06 45.67 52.04C45.74 52.03 45.7999 52.01 45.8599 51.99C49.7899 50.69 51.6999 47.86 52.0199 43.83C52.0199 37.38 52.0199 30.93 52.0199 24.48ZM43.9699 51.96C43.9799 51.95 43.9999 51.95 44.0099 51.94C44.0899 51.94 44.1699 51.95 44.2499 51.95C44.1599 51.95 44.0599 51.96 43.9699 51.96ZM43.9799 39.99C40.9299 45.52 33.9599 47.46 28.4999 44.4C22.9599 41.3 20.9999 34.34 24.1099 28.78C27.1399 23.34 34.1099 21.41 39.6299 24.47C40.0399 24.7 40.4499 24.95 40.8599 25.18C41.6199 25.92 42.3899 26.66 43.1499 27.39C45.8099 31.44 46.3699 35.65 43.9799 39.99ZM45.8499 25.27C44.4399 25.29 43.22 24.11 43.16 22.68C43.11 21.16 44.28 19.93 45.79 19.92C47.21 19.9 48.4399 21.07 48.4999 22.48C48.5599 23.93 47.2999 25.25 45.8499 25.27Z" fill="#DF6939"/>
<path d="M39.3897 29.35C36.9497 26.74 33.1297 26.29 30.0897 28.26C29.6897 28.4 29.3697 28.64 29.1397 29.01C26.1297 31.71 25.8597 35.3099 28.3797 39.2699C28.7597 39.6299 29.1497 39.9999 29.5297 40.3599C29.9897 40.5999 30.4297 40.8699 30.8997 41.0899C34.1097 42.6199 37.9197 41.6299 40.0097 38.7499C42.1097 35.8299 41.8497 31.97 39.3897 29.35ZM31.7797 28.4599C31.7897 28.4599 31.7897 28.4599 31.7897 28.4699C31.7897 28.4699 31.7797 28.4699 31.7797 28.4599Z" fill="#DF6939"/>
</svg>
