<svg width="40" height="31" viewBox="0 0 40 31" fill="none" xmlns="http://www.w3.org/2000/svg">
<path d="M38.8294 14.72C37.6694 12.25 36.5094 9.79004 35.3494 7.32004C34.4294 5.36004 33.5094 3.40004 32.5894 1.44004C32.2494 0.720035 31.5994 0.410046 30.8994 0.670046C29.9494 1.02005 29.0094 1.39004 28.0694 1.79004C27.3994 2.08004 27.1294 2.80004 27.3994 3.48004C27.4894 3.70004 27.5794 3.91002 27.6994 4.11002C27.8194 4.31002 27.7394 4.40004 27.5494 4.45004C26.8994 4.61004 26.2494 4.67004 25.5894 4.57004C24.4994 4.41004 23.4594 4.04002 22.4094 3.74002C21.5094 3.48002 20.6094 3.30004 19.6994 3.57004C18.7094 3.86004 17.7394 4.18003 16.7594 4.50003C16.3494 4.63003 15.9794 4.84004 15.6394 5.10004C15.5494 5.17004 15.4794 5.28004 15.3194 5.23004C14.5494 4.96004 13.7594 4.98004 12.9594 5.04004C12.9694 4.83004 13.0894 4.69003 13.1694 4.53003C13.5994 3.69003 13.4194 3.03004 12.6094 2.54004C11.8994 2.10004 11.1794 1.67002 10.4594 1.24002C9.51938 0.670023 8.7994 0.870039 8.2894 1.85004C6.0094 6.20004 3.73938 10.54 1.45938 14.89C1.36938 15.06 1.25939 15.22 1.24939 15.42C1.19939 15.57 1.2394 15.73 1.2294 15.88C1.2294 15.9 1.2294 15.92 1.2294 15.94C1.2194 16.39 1.44938 16.7 1.82938 16.92C2.67938 17.41 3.5094 17.91 4.3794 18.34C5.1094 18.7 5.8394 18.48 6.2894 17.81C6.4194 17.62 6.4194 17.25 6.6994 17.26C6.9294 17.26 7.0994 17.52 7.2894 17.68C7.2994 17.69 7.29939 17.69 7.30939 17.69L7.3194 17.7C7.6994 18.03 7.7094 18.04 7.4094 18.46C6.9494 19.09 6.47939 19.72 6.02939 20.36C5.49939 21.12 5.39939 21.91 5.83939 22.72C6.27939 23.54 6.9894 24 7.93939 24.01C8.24939 24.01 8.38939 24.11 8.49939 24.41C8.85939 25.42 9.79939 26.07 10.8694 26.07C11.0994 26.07 11.1994 26.14 11.2794 26.36C11.6394 27.41 12.5094 28.03 13.6094 28.05C13.8594 28.05 14.0094 28.12 14.0994 28.38C14.3994 29.27 15.0194 29.81 15.9394 30.01H16.7694C17.2994 29.84 17.7894 29.62 18.1194 29.15C18.2994 28.89 18.4994 28.65 18.6694 28.38C18.7894 28.18 18.8794 28.2 19.0494 28.34C19.3794 28.62 19.7294 28.9 20.0794 29.16C20.7094 29.62 21.4094 29.75 22.1494 29.53C23.2294 29.21 23.7794 28.43 23.9094 27.32C23.9694 27.34 24.0194 27.35 24.0694 27.36C25.6194 27.76 26.8694 26.99 27.1794 25.41C27.2394 25.12 27.3694 25.2 27.5394 25.24C28.7894 25.55 30.0294 24.88 30.4194 23.67C30.4794 23.48 30.5194 23.28 30.5694 23.08C31.8694 23.59 33.0994 23.22 33.7494 22.13C34.3794 21.07 34.1094 19.88 33.0594 18.98C32.8794 18.82 32.6994 18.66 32.4894 18.49C33.0494 18.13 33.4994 17.73 33.8894 17.25C34.5094 18.05 34.9994 18.18 35.9094 17.79C36.6094 17.49 37.3194 17.18 38.0194 16.88C39.0594 16.43 39.3194 15.77 38.8294 14.72ZM5.42939 17.05C5.19939 17.48 5.0994 17.51 4.6594 17.27C3.9494 16.88 3.2494 16.48 2.5394 16.08C2.1194 15.84 2.0894 15.76 2.3194 15.33C4.5994 10.97 6.88941 6.61003 9.16941 2.25003C9.37941 1.84003 9.4894 1.81004 9.8794 2.04004C10.6194 2.48004 11.3594 2.93004 12.0994 3.38004C12.2394 3.47004 12.3894 3.55003 12.3894 3.75003C12.3994 3.88003 12.3194 3.98003 12.2594 4.09003C9.9794 8.41003 7.70938 12.73 5.42939 17.05ZM8.91941 22.42C8.67941 22.75 8.36938 22.95 7.85938 22.95C7.41938 22.91 7.0094 22.65 6.7594 22.19C6.5294 21.76 6.6294 21.35 6.9094 20.96C7.7894 19.75 8.6594 18.54 9.5394 17.33C10.0194 16.68 10.6294 16.59 11.2794 17.07C11.8994 17.52 11.9994 18.14 11.5294 18.78C10.6694 20 9.78941 21.21 8.91941 22.42ZM11.7294 24.45C11.4894 24.78 11.1794 24.98 10.7194 24.99C10.2494 24.93 9.8494 24.69 9.5994 24.25C9.3594 23.83 9.42939 23.4 9.71939 23.01C10.3694 22.11 11.0194 21.2 11.6794 20.31C12.1394 19.69 12.7594 19.62 13.3994 20.09C14.0194 20.54 14.1194 21.14 13.6694 21.77C13.0194 22.67 12.3694 23.56 11.7294 24.45ZM14.5294 26.5C14.2994 26.82 13.9994 27.01 13.4594 27C13.0594 26.97 12.6494 26.7 12.3994 26.25C12.1694 25.83 12.2594 25.41 12.5494 25.02C12.9994 24.4 13.4394 23.77 13.8994 23.16C14.3594 22.54 14.9894 22.47 15.6194 22.93C16.2394 23.38 16.3494 23.98 15.9094 24.61C15.4494 25.24 14.9794 25.87 14.5294 26.5ZM18.1294 27.44C17.8694 27.81 17.6094 28.18 17.3294 28.54C16.8794 29.13 16.2694 29.2 15.6394 28.74C15.0394 28.3 14.9194 27.7 15.3294 27.1C15.5994 26.7 15.8894 26.32 16.1694 25.93C16.3994 25.63 16.6994 25.46 17.2594 25.48C17.5994 25.52 17.9994 25.77 18.2494 26.21C18.4994 26.64 18.3994 27.05 18.1294 27.44ZM32.4994 19.85C33.2294 20.49 33.2494 21.39 32.5694 22C32.0194 22.49 31.2594 22.49 30.6594 21.97C29.5294 21.01 28.4094 20.03 27.2794 19.07C27.1994 19 27.1194 18.92 27.0294 18.85C26.7794 18.66 26.5094 18.63 26.2994 18.89C26.0894 19.15 26.1494 19.4 26.3994 19.61C27.1394 20.25 27.8794 20.89 28.6194 21.52C28.7494 21.64 28.8894 21.75 29.0194 21.87C29.6294 22.44 29.6994 23.26 29.1894 23.86C28.6794 24.46 27.7994 24.51 27.1594 23.97C26.3494 23.29 25.5594 22.59 24.7494 21.9C24.6894 21.85 24.6294 21.79 24.5594 21.74C24.2994 21.53 24.0294 21.48 23.7994 21.76C23.5794 22.02 23.6594 22.27 23.8994 22.48C24.4594 22.97 25.0194 23.45 25.5894 23.93C26.2894 24.53 26.3994 25.37 25.8694 26C25.3394 26.63 24.4694 26.66 23.7794 26.07C23.2194 25.6 22.6694 25.12 22.1194 24.65C21.8594 24.42 21.5994 24.33 21.3194 24.61C21.0994 24.83 21.1494 25.12 21.4594 25.39C21.7594 25.66 22.0694 25.91 22.3594 26.17C22.9494 26.7 23.0294 27.55 22.5494 28.13C22.0694 28.72 21.2294 28.81 20.5894 28.35C20.3994 28.21 20.2294 28.05 20.0394 27.92C19.5894 27.6 19.2794 27.31 19.3194 26.62C19.3794 25.58 18.4194 24.65 17.3294 24.5C17.1794 24.48 17.0494 24.51 17.0894 24.26C17.2594 23 16.4494 21.91 15.1994 21.69C14.9294 21.64 14.8294 21.6 14.8794 21.27C15.0394 20.18 14.1894 19.11 12.9794 18.85C12.7594 18.8 12.6694 18.8 12.7394 18.51C12.9894 17.43 12.4194 16.44 11.3294 15.96C10.3994 15.55 9.37938 15.85 8.73938 16.71C8.37938 17.2 8.37938 17.2 7.92939 16.82C7.72939 16.65 7.5394 16.46 7.3194 16.32C7.0394 16.14 7.07938 15.98 7.20938 15.72C8.80938 12.71 10.3994 9.69004 11.9794 6.66004C12.1694 6.29004 12.3994 6.09003 12.8094 6.06003C13.0994 6.04003 13.3794 6.00003 13.6194 5.97003C13.9694 6.00003 14.3794 5.89003 14.5394 6.09003C14.6994 6.29003 14.3594 6.57004 14.2494 6.82004C13.4594 8.69004 12.7594 10.59 12.1694 12.53C12.0394 12.95 12.1194 13.13 12.5194 13.31C14.9794 14.45 17.7294 12.93 18.0994 10.22C18.1394 9.96003 18.1994 9.71003 18.2994 9.47003C18.6394 8.69003 19.0094 8.55002 19.8194 8.74002C20.7194 8.95002 21.4394 9.40003 22.0894 10.06C23.7994 11.79 25.5594 13.47 27.2794 15.2C28.9494 16.86 30.7594 18.32 32.4994 19.85ZM33.2294 16.46C32.8794 16.95 32.4494 17.34 31.9494 17.66C31.7494 17.78 31.6194 17.78 31.4194 17.62C29.3694 15.94 27.5594 14.02 25.6694 12.18C24.6194 11.15 23.5494 10.14 22.5294 9.08002C21.6694 8.18002 20.5594 7.86005 19.4094 7.64005C18.8094 7.53005 18.2894 7.85004 17.8994 8.32004C17.4794 8.83004 17.2294 9.42004 17.1494 10.07C16.9394 11.86 15.2894 13.03 13.5694 12.62C13.3194 12.56 13.2494 12.5 13.3294 12.21C13.8594 10.51 14.4994 8.85002 15.1894 7.21002C15.5694 6.31002 16.2194 5.70003 17.1494 5.40003C18.0394 5.11003 18.9194 4.83003 19.8094 4.56003C20.4194 4.38003 21.0194 4.41004 21.6394 4.57004C22.9094 4.90004 24.1494 5.37002 25.4594 5.55002C26.3094 5.67002 27.1594 5.63004 27.9794 5.32004C28.2994 5.20004 28.2994 5.43002 28.3694 5.58002C29.7194 8.43002 31.0694 11.28 32.4094 14.12C32.6894 14.71 32.9694 15.31 33.2494 15.9C33.2894 15.99 33.3294 16.07 33.3794 16.18C33.3394 16.28 33.2894 16.37 33.2294 16.46ZM37.6194 15.97C36.8794 16.29 36.1294 16.6 35.3894 16.93C35.0594 17.08 34.8694 17 34.7094 16.67C32.6094 12.21 30.4894 7.76002 28.3894 3.30002C28.1994 2.89002 28.2394 2.77002 28.6494 2.61002C29.4494 2.29002 30.2494 1.97004 31.0494 1.66004C31.1394 1.63004 31.2294 1.60002 31.2994 1.58002C31.5794 1.60002 31.6494 1.80002 31.7394 1.99002C32.5594 3.74002 33.3794 5.48004 34.1994 7.23004C35.4394 9.87004 36.6794 12.51 37.9194 15.15C38.1794 15.67 38.1494 15.75 37.6194 15.97Z" fill="#EC6228" stroke="#EC6228" stroke-miterlimit="10"/>
<path d="M1.21942 15.9299C1.19942 15.9199 1.17941 15.9199 1.14941 15.9099C1.14941 15.7399 1.14941 15.5799 1.14941 15.4099L1.17941 15.3799L1.21942 15.3899C1.21942 15.5799 1.21942 15.7599 1.21942 15.9299Z" fill="#EC6228" stroke="#EC6228" stroke-miterlimit="10"/>
<path d="M32.5693 22.0001C32.0193 22.4901 31.2593 22.4901 30.6593 21.9701C29.5293 21.0101 28.4093 20.0301 27.2793 19.0701C27.1993 19.0001 27.1193 18.9201 27.0293 18.8501C26.7793 18.6601 26.5093 18.6301 26.2993 18.8901C26.0893 19.1501 26.1493 19.4001 26.3993 19.6101C27.1393 20.2501 27.8793 20.8901 28.6193 21.5201C28.7493 21.6401 28.8893 21.7501 29.0193 21.8701C29.6293 22.4401 29.6993 23.2601 29.1893 23.8601C28.6793 24.4601 27.7993 24.5101 27.1593 23.9701C26.3493 23.2901 25.5593 22.5901 24.7493 21.9001C24.6893 21.8501 24.6293 21.7901 24.5593 21.7401C24.2993 21.5301 24.0293 21.4801 23.7993 21.7601C23.5793 22.0201 23.6593 22.2701 23.8993 22.4801C24.4593 22.9701 25.0193 23.4501 25.5893 23.9301C26.2893 24.5301 26.3993 25.3701 25.8693 26.0001C25.3393 26.6301 24.4693 26.6601 23.7793 26.0701C23.2193 25.6001 22.6693 25.1201 22.1193 24.6501C21.8593 24.4201 21.5993 24.3301 21.3193 24.6101C21.0993 24.8301 21.1493 25.1201 21.4593 25.3901C21.7593 25.6601 22.0693 25.9101 22.3593 26.1701C22.9493 26.7001 23.0293 27.5501 22.5493 28.1301C22.0693 28.7201 21.2293 28.8101 20.5893 28.3501C20.3993 28.2101 20.2293 28.0501 20.0393 27.9201C19.5893 27.6001 19.2793 27.3101 19.3193 26.6201C19.3793 25.5801 18.4193 24.6501 17.3293 24.5001C17.1793 24.4801 17.0493 24.5101 17.0893 24.2601C17.2593 23.0001 16.4493 21.9101 15.1993 21.6901C14.9293 21.6401 14.8293 21.6001 14.8793 21.2701C15.0393 20.1801 14.1893 19.1101 12.9793 18.8501C12.7593 18.8001 12.6693 18.8001 12.7393 18.5101C12.9893 17.4301 12.4193 16.4401 11.3293 15.9601C10.3993 15.5501 9.37926 15.8501 8.73926 16.7101C8.37926 17.2001 8.37926 17.2001 7.92926 16.8201C7.72926 16.6501 7.53927 16.4601 7.31927 16.3201C7.03927 16.1401 7.07926 15.9801 7.20926 15.7201C8.80926 12.7101 10.3993 9.69012 11.9793 6.66012C12.1693 6.29012 12.3993 6.09011 12.8093 6.06011C13.0993 6.04011 13.3793 6.00012 13.6193 5.97012C13.9693 6.00012 14.3793 5.89011 14.5393 6.09011C14.6993 6.29011 14.3593 6.57012 14.2493 6.82012C13.4593 8.69012 12.7593 10.5901 12.1693 12.5301C12.0393 12.9501 12.1193 13.1301 12.5193 13.3101C14.9793 14.4501 17.7293 12.9301 18.0993 10.2201C18.1393 9.96012 18.1993 9.71012 18.2993 9.47012C18.6393 8.69012 19.0093 8.55011 19.8193 8.74011C20.7193 8.95011 21.4393 9.40011 22.0893 10.0601C23.7993 11.7901 25.5593 13.4701 27.2793 15.2001C28.9193 16.8501 30.7193 18.3101 32.4693 19.8401C33.2293 20.4901 33.2593 21.3901 32.5693 22.0001Z" stroke="#EC6228" stroke-miterlimit="10"/>
<path d="M33.3893 16.1902C33.3393 16.2702 33.2893 16.3702 33.2293 16.4502C32.8793 16.9402 32.4493 17.3302 31.9493 17.6502C31.7493 17.7702 31.6193 17.7702 31.4193 17.6102C29.3693 15.9302 27.5593 14.0102 25.6693 12.1702C24.6193 11.1402 23.5493 10.1302 22.5293 9.0702C21.6693 8.1702 20.5593 7.8502 19.4093 7.6302C18.8093 7.5202 18.2893 7.84019 17.8993 8.31019C17.4793 8.82019 17.2293 9.41019 17.1493 10.0602C16.9393 11.8502 15.2893 13.0202 13.5693 12.6102C13.3193 12.5502 13.2493 12.4902 13.3293 12.2002C13.8593 10.5002 14.4993 8.84021 15.1893 7.20021C15.5693 6.30021 16.2193 5.69021 17.1493 5.39021C18.0393 5.10021 18.9193 4.82018 19.8093 4.55018C20.4193 4.37018 21.0193 4.40019 21.6393 4.56019C22.9093 4.89019 24.1493 5.3602 25.4593 5.5402C26.3093 5.6602 27.1593 5.62019 27.9793 5.31019C28.2993 5.19019 28.2993 5.4202 28.3693 5.5702C29.7193 8.4202 31.0693 11.2702 32.4093 14.1102C32.6893 14.7002 32.9693 15.3002 33.2493 15.8902C33.2993 16.0002 33.3393 16.0802 33.3893 16.1902Z" stroke="#EC6228" stroke-miterlimit="10"/>
<path d="M12.2496 4.10002C9.97963 8.42002 7.69963 12.74 5.42963 17.05C5.19963 17.48 5.09964 17.51 4.65964 17.27C3.94964 16.88 3.24964 16.48 2.53964 16.08C2.11964 15.84 2.08964 15.76 2.31964 15.33C4.59964 10.97 6.88965 6.61002 9.16965 2.25002C9.37965 1.84002 9.48964 1.81003 9.87964 2.04003C10.6196 2.48003 11.3596 2.93002 12.0996 3.38002C12.2396 3.47002 12.3896 3.55002 12.3896 3.75002C12.3896 3.89002 12.3096 3.99002 12.2496 4.10002Z" stroke="#EC6228" stroke-miterlimit="10"/>
<path d="M37.6196 15.9701C36.8796 16.2901 36.1296 16.6001 35.3896 16.9301C35.0596 17.0801 34.8696 17.0001 34.7096 16.6701C32.6096 12.2101 30.4896 7.76008 28.3896 3.30008C28.1996 2.89008 28.2396 2.77008 28.6496 2.61008C29.4496 2.29008 30.2496 1.9701 31.0496 1.6601C31.1396 1.6301 31.2296 1.60008 31.2996 1.58008C31.5796 1.60008 31.6496 1.80008 31.7396 1.99008C32.5596 3.74008 33.3796 5.4801 34.1996 7.2301C35.4396 9.8701 36.6796 12.5101 37.9196 15.1501C38.1796 15.6701 38.1496 15.7501 37.6196 15.9701Z" stroke="#EC6228" stroke-miterlimit="10"/>
<path d="M11.5393 18.7903C10.6693 20.0103 9.78932 21.2103 8.91932 22.4303C8.67932 22.7603 8.36929 22.9603 7.85929 22.9603C7.41929 22.9203 7.00931 22.6603 6.75931 22.2003C6.52931 21.7703 6.62931 21.3603 6.90931 20.9703C7.78931 19.7603 8.65931 18.5503 9.53931 17.3403C10.0193 16.6903 10.6293 16.6003 11.2793 17.0803C11.9093 17.5203 12.0093 18.1403 11.5393 18.7903Z" stroke="#EC6228" stroke-miterlimit="10"/>
<path d="M13.6592 21.7802C13.0192 22.6802 12.3692 23.5602 11.7292 24.4502C11.4892 24.7802 11.1792 24.9802 10.7192 24.9902C10.2492 24.9302 9.84918 24.6902 9.59918 24.2502C9.35918 23.8302 9.42917 23.4002 9.71917 23.0102C10.3692 22.1102 11.0192 21.2002 11.6792 20.3102C12.1392 19.6902 12.7592 19.6202 13.3992 20.0902C14.0092 20.5502 14.1092 21.1502 13.6592 21.7802Z" stroke="#EC6228" stroke-miterlimit="10"/>
<path d="M15.8997 24.6002C15.4497 25.2402 14.9897 25.8701 14.5297 26.5001C14.2997 26.8201 13.9997 27.0101 13.4597 27.0001C13.0597 26.9701 12.6497 26.7001 12.3997 26.2501C12.1697 25.8301 12.2597 25.4101 12.5497 25.0201C12.9997 24.4001 13.4397 23.7702 13.8997 23.1602C14.3597 22.5402 14.9897 22.4701 15.6197 22.9301C16.2297 23.3801 16.3397 23.9802 15.8997 24.6002Z" stroke="#EC6228" stroke-miterlimit="10"/>
<path d="M18.1297 27.4401C17.8697 27.8101 17.6097 28.1801 17.3297 28.5401C16.8797 29.1301 16.2697 29.2001 15.6397 28.7401C15.0397 28.3001 14.9197 27.7001 15.3297 27.1001C15.5997 26.7001 15.8897 26.3201 16.1697 25.9301C16.3997 25.6301 16.6997 25.4601 17.2597 25.4801C17.5997 25.5201 17.9997 25.7701 18.2497 26.2101C18.4997 26.6401 18.3997 27.0501 18.1297 27.4401Z" stroke="#EC6228" stroke-miterlimit="10"/>
</svg>
