<svg width="38" height="29" viewBox="0 0 38 29" fill="none" xmlns="http://www.w3.org/2000/svg">
<path d="M36.9898 8.56003C36.3598 7.51003 35.4398 6.96005 34.2198 6.92005C33.6398 6.90005 33.1298 7.39003 33.0298 7.97003C32.9498 8.48003 33.2998 9.05002 33.8198 9.24002C33.9798 9.30002 34.1498 9.32002 34.3098 9.36002C34.7198 9.46002 34.8898 9.67003 34.9298 10.09C34.9398 10.23 34.9398 10.38 34.9398 10.52V24.07C34.9398 24.21 34.9398 24.36 34.9298 24.5C34.8298 25.86 33.3198 26.74 32.0998 26.15C31.2798 25.76 30.9198 25.09 30.9198 24.18C30.9298 17.56 30.9198 10.94 30.9298 4.32004C30.9298 3.96004 30.9098 3.61003 30.8698 3.25003C30.6698 1.60003 29.4098 0.470034 27.7598 0.470034C19.6898 0.470034 11.6198 0.480024 3.54981 0.460024C2.15981 0.450024 0.499811 1.63003 0.509811 3.47003C0.529811 10.89 0.519805 18.31 0.519805 25.73C0.519805 26.11 0.539808 26.49 0.709808 26.85C1.26981 28.03 2.15981 28.68 3.48981 28.68C3.48981 28.67 3.48981 28.66 3.48981 28.66C3.55981 28.66 3.62981 28.65 3.69981 28.65H32.8398C32.9098 28.65 32.9798 28.66 33.0498 28.66C33.0498 28.67 33.0498 28.68 33.0498 28.69C33.7698 28.7 34.4598 28.57 35.0898 28.19C36.3398 27.44 37.1398 26.4 37.2798 24.92V9.72003C37.1998 9.34003 37.1998 8.93003 36.9898 8.56003ZM28.6898 26.46C20.4298 26.46 12.1698 26.46 3.89981 26.46C2.99981 26.46 2.73981 26.21 2.73981 25.32C2.73981 18.17 2.73981 11.03 2.73981 3.88004C2.73981 3.74004 2.73981 3.59004 2.75981 3.45004C2.80981 3.08004 3.06981 2.82002 3.43981 2.77002C3.58981 2.75002 3.74981 2.75003 3.89981 2.75003C11.7298 2.75003 19.5598 2.75003 27.3898 2.75003C28.3298 2.75003 28.5698 3.00004 28.5698 3.94004C28.5698 10.45 28.5698 16.96 28.5698 23.48C28.5698 24.49 28.5798 25.49 29.1498 26.46H28.6898Z" fill="#EC6228"/>
<path d="M33.0397 28.67C33.0397 28.68 33.0397 28.69 33.0397 28.7C32.9997 28.7 32.9597 28.7 32.9197 28.7H3.46973C3.46973 28.69 3.46973 28.68 3.46973 28.68C3.53973 28.68 3.60973 28.67 3.67973 28.67H32.8197C32.8897 28.66 32.9597 28.67 33.0397 28.67Z" fill="#020203"/>
<path d="M33.0397 28.6702C33.0397 28.6802 33.0397 28.6902 33.0397 28.7002C33.0397 28.7102 33.0397 28.7202 33.0397 28.7302H3.46973C3.46973 28.7202 3.46973 28.7102 3.46973 28.6902C3.46973 28.6802 3.46973 28.6702 3.46973 28.6702C3.53973 28.6702 3.60973 28.6602 3.67973 28.6602H32.8197C32.8897 28.6602 32.9597 28.6702 33.0397 28.6702Z" fill="#EB6227"/>
<path d="M23.6702 17.4398C23.5402 17.4698 23.4102 17.4698 23.2802 17.4698C18.2702 17.4698 13.2602 17.4698 8.25021 17.4698C7.58021 17.4698 7.14021 17.1898 7.00021 16.6698C6.79021 15.9298 7.3202 15.2698 8.1302 15.2598C9.4602 15.2498 10.7802 15.2598 12.1102 15.2598H15.7702C18.2902 15.2598 20.8202 15.2598 23.3402 15.2598C24.0302 15.2598 24.5202 15.6498 24.5802 16.2498C24.6202 16.8298 24.2502 17.3298 23.6702 17.4398Z" fill="#EC6228"/>
<path d="M24.5596 22.02C24.4796 22.53 24.0596 22.92 23.5196 22.93C22.4396 22.94 21.3697 22.94 20.2897 22.94C18.7697 22.94 17.2496 22.94 15.7396 22.94C13.2096 22.94 10.6697 22.94 8.13965 22.94C7.35965 22.94 6.85965 22.37 6.97965 21.65C7.05965 21.19 7.41965 20.83 7.88965 20.77C8.02965 20.75 8.17965 20.75 8.31965 20.75C13.2897 20.75 18.2596 20.75 23.2396 20.75C23.4496 20.75 23.6696 20.75 23.8796 20.82C24.3596 21.01 24.6396 21.5 24.5596 22.02Z" fill="#EC6228"/>
<path d="M13.3198 10.8503C13.3098 11.5403 12.8798 11.9603 12.1898 11.9703C11.4598 11.9803 10.7298 11.9703 9.99978 11.9703V11.9603C9.24978 11.9603 8.48978 11.9803 7.73978 11.9503C7.19978 11.9303 6.80978 11.5203 6.74978 10.9903C6.68978 10.4603 6.98978 9.99029 7.48978 9.82029C7.65978 9.76029 7.83978 9.77027 8.01978 9.77027C8.94978 9.77027 9.87978 9.76028 10.8198 9.78028C11.0798 9.78028 11.1398 9.70027 11.1298 9.46027C11.1198 8.44027 11.1198 7.43028 11.1398 6.41028C11.1498 5.95028 11.4798 5.55027 11.8998 5.43027C12.3498 5.30027 12.8298 5.46027 13.1098 5.84027C13.2598 6.04027 13.3198 6.27029 13.3198 6.51029C13.3198 7.96029 13.3298 9.41028 13.3198 10.8503Z" fill="#EC6228"/>
<path d="M23.8299 11.9201C23.6499 11.9801 23.4499 11.9801 23.2599 11.9801C22.1799 11.9801 21.1099 11.9801 20.0299 11.9801C18.9099 11.9801 17.7799 11.9901 16.6599 11.9801C15.8099 11.9701 15.2799 11.1801 15.6099 10.4501C15.8199 9.99011 16.1999 9.79011 16.6999 9.79011C17.9199 9.80011 19.1399 9.79011 20.3599 9.79011C21.4199 9.79011 22.4899 9.78009 23.5499 9.80009C24.0799 9.81009 24.4999 10.2301 24.5599 10.7401C24.6199 11.2701 24.3199 11.7501 23.8299 11.9201Z" fill="#EC6228"/>
</svg>
