<svg width="23" height="21" viewBox="0 0 23 21" fill="none" xmlns="http://www.w3.org/2000/svg">
<path d="M22.4601 11.8701C21.7201 11.1301 20.6901 11.0101 19.7401 11.5901C19.5901 11.6801 19.5201 11.6801 19.4301 11.5201C19.0801 10.9201 18.6201 10.4001 18.0901 9.95007C17.2501 9.24007 16.2801 8.82007 15.2001 8.63007C15.0201 8.60007 14.9201 8.53008 14.9301 8.33008C14.9401 8.09008 14.9301 7.84009 14.9301 7.59009C14.9301 7.34009 14.9501 7.32008 15.2001 7.33008C15.6201 7.34008 16.0301 7.33007 16.4401 7.26007C18.3101 6.95007 19.7401 5.98006 20.7401 4.37006C21.3101 3.45006 21.5901 2.43009 21.6101 1.34009C21.6201 0.900088 21.4701 0.700068 21.0601 0.570068H19.1901C19.1001 0.620068 19.0101 0.580088 18.9201 0.590088C18.0801 0.580088 17.3301 0.880081 16.6201 1.27008C15.6001 1.83008 14.8101 2.63009 14.2301 3.65009C14.1101 3.87009 14.1101 3.92004 13.9101 3.67004C13.0901 2.65004 12.0301 2.05008 10.7301 1.89008C10.1201 1.82008 9.51008 1.86005 8.90008 1.86005C8.41008 1.86005 8.11008 2.17003 8.11008 2.66003C8.11008 3.40003 8.29008 4.11007 8.64008 4.76007C9.43008 6.22007 10.6601 7.08005 12.3201 7.30005C12.6201 7.34005 12.9101 7.33008 13.2101 7.33008C13.3901 7.33008 13.4701 7.39008 13.4601 7.58008C13.4501 7.82008 13.4601 8.06004 13.4601 8.29004C13.4601 8.59004 13.4601 8.59008 13.1601 8.64008C12.3501 8.79008 11.5901 9.08009 10.8901 9.53009C10.4001 9.85009 9.98008 10.24 9.58008 10.67C9.50008 10.75 9.42008 10.81 9.29008 10.8C8.94008 10.78 8.58008 10.7601 8.22008 10.7801C7.53008 10.8101 6.86008 10.9401 6.22008 11.1901C5.30008 11.5501 4.44008 12.05 3.55008 12.48C3.36008 12.57 3.18008 12.62 2.97008 12.61C2.26008 12.6 1.56007 12.61 0.850075 12.61C0.400075 12.61 0.210078 12.75 0.0800781 13.16V18.8201C0.120078 18.9501 0.140076 19.0801 0.250076 19.1801C0.410076 19.3301 0.610078 19.3801 0.830078 19.3801C1.66008 19.3801 2.48008 19.3901 3.31008 19.3801C4.41008 19.3701 5.47008 19.5701 6.48008 20.0001C7.61008 20.4701 8.77008 20.7001 10.0001 20.6901C12.4801 20.6701 14.9501 20.6801 17.4301 20.6901C17.7801 20.6901 18.0301 20.57 18.2401 20.29C19.1201 19.12 20.0101 17.95 20.8901 16.79C21.4801 16.01 22.0801 15.2301 22.6601 14.4401C23.1101 13.8401 23.1201 12.5301 22.4601 11.8701ZM20.1801 1.94006C19.8001 4.46006 17.5301 6.18004 14.9501 5.92004C15.2001 3.80004 17.2201 1.63006 20.1801 1.94006ZM13.3801 5.93005C12.0901 6.00005 11.0001 5.63007 10.1901 4.57007C9.90008 4.18007 9.70008 3.75008 9.61008 3.27008C11.0401 3.16008 12.2101 3.59006 13.0201 4.81006C13.2201 5.11006 13.3501 5.44009 13.4401 5.78009C13.4601 5.84009 13.5201 5.93005 13.3801 5.93005ZM11.3101 10.9601C13.6801 9.07008 17.2301 9.93006 18.4801 12.6901C18.5401 12.8301 18.5401 12.9101 18.4301 13.0201C18.1101 13.3401 17.8101 13.68 17.4801 14.04C17.3401 13.66 17.1501 13.3601 16.8701 13.1201C16.5001 12.8101 16.0701 12.6301 15.5901 12.6301C14.8801 12.6301 14.1801 12.6301 13.4701 12.6301C13.2601 12.6301 13.0801 12.5801 12.9201 12.4401C12.3501 11.9401 11.7101 11.5601 11.0001 11.2801C11.0701 11.1301 11.2001 11.0501 11.3101 10.9601ZM21.4301 13.7701C20.4501 15.0601 19.4701 16.3501 18.5001 17.6401C18.1101 18.1501 17.7201 18.66 17.3401 19.17C17.2601 19.28 17.1801 19.3201 17.0501 19.3201C15.8201 19.3101 14.5801 19.3201 13.3501 19.3201C12.3201 19.3201 11.2801 19.3101 10.2501 19.3201C9.10008 19.3301 8.01008 19.12 6.96008 18.67C5.85008 18.2 4.69008 17.98 3.49008 17.98C2.88008 17.98 2.27008 17.98 1.66008 17.98C1.51008 17.98 1.46008 17.96 1.46008 17.79C1.47008 16.59 1.47008 15.4001 1.46008 14.2001C1.46008 14.0201 1.52007 14.0001 1.67007 14.0001C2.25007 14.0101 2.83008 14.0001 3.41008 14.0001C3.59008 14.0001 3.74008 13.9601 3.90008 13.8801C4.66008 13.4901 5.41007 13.1 6.19007 12.73C8.27007 11.75 10.2201 11.97 12.0201 13.41C12.4601 13.76 12.9301 13.9501 13.4901 13.9501C14.1601 13.9401 14.8301 13.9501 15.5001 13.9501C15.9301 13.9501 16.2301 14.2301 16.2401 14.6201C16.2401 15.0101 15.9501 15.29 15.5101 15.29C13.7401 15.29 11.9701 15.29 10.2001 15.29C9.70007 15.29 9.38008 15.6901 9.50008 16.1401C9.58008 16.4401 9.84008 16.6301 10.1901 16.6301C11.8901 16.6301 13.5801 16.6301 15.2801 16.6301C15.5001 16.6301 15.7301 16.6301 15.9501 16.6301C16.5901 16.6401 17.1201 16.4101 17.5501 15.9401C18.4901 14.9201 19.4401 13.9001 20.3901 12.8901C20.5901 12.6801 20.8301 12.5901 21.1101 12.6501C21.3701 12.7101 21.5401 12.8801 21.6101 13.1401C21.6701 13.3801 21.5801 13.5801 21.4301 13.7701Z" fill="white"/>
</svg>
