<svg width="19" height="20" viewBox="0 0 19 20" fill="none" xmlns="http://www.w3.org/2000/svg">
<path d="M18.9196 7.37012H18.9096C18.9096 7.45012 18.9096 7.53011 18.9096 7.61011C18.8196 7.87011 18.6596 7.9801 18.3596 7.9801C17.4396 7.9801 16.5096 7.9901 15.5896 7.9801C15.3996 7.9801 15.3396 8.01009 15.3396 8.22009C15.3496 11.7901 15.3396 15.3602 15.3496 18.9302C15.3496 19.1302 15.3296 19.3201 15.1496 19.4501C15.0596 19.5201 14.9596 19.5502 14.8496 19.5502C13.2996 19.5502 11.7396 19.5502 10.1896 19.5502C10.1796 19.5502 10.1696 19.5402 10.1796 19.5502C12.9396 17.5502 14.0296 14.9201 13.0496 11.5901C12.5996 10.0501 11.6096 8.87012 10.2596 8.00012C8.91961 7.14012 7.43961 6.82009 5.84961 6.97009C5.84961 6.89009 5.90961 6.86007 5.93961 6.82007C7.87961 4.67007 9.82961 2.53013 11.7696 0.380127C11.8696 0.270127 11.9796 0.180117 12.1096 0.120117H12.3396C12.5196 0.140117 12.6396 0.250137 12.7496 0.390137C13.0396 0.730137 13.3496 1.05014 13.6496 1.39014C14.0896 1.89014 14.5496 2.38013 14.9996 2.88013C15.4196 3.34013 15.8396 3.81014 16.2596 4.27014C16.6996 4.75014 17.1296 5.23009 17.5696 5.72009C17.9696 6.16009 18.3696 6.60016 18.7596 7.04016C18.8496 7.13016 18.9196 7.23012 18.9196 7.37012Z" fill="white"/>
<path d="M6.61982 7.92019C3.40982 7.93019 0.829824 10.4801 0.819824 13.7201C0.819824 16.9701 3.43983 19.5102 6.60983 19.5202C9.79983 19.5302 12.4098 16.9201 12.4098 13.7301C12.4198 10.5301 9.80982 7.91019 6.61982 7.92019ZM7.01982 11.2001C7.02982 11.6701 7.01982 12.1401 7.01982 12.6001C7.01982 13.0201 7.01982 13.0302 7.42982 13.0202C7.83982 13.0102 8.20982 13.1102 8.56982 13.3102C9.55982 13.8702 9.84982 15.3101 9.13982 16.2101C8.67982 16.8001 8.07982 17.0502 7.33982 17.0302C7.01982 17.0202 7.00982 17.0301 7.01982 17.3501C7.01982 17.5901 7.01983 17.8201 6.78983 17.9701C6.48983 18.1801 6.06982 17.9902 6.02982 17.6302C6.01982 17.4902 6.00982 17.3501 6.01982 17.2101C6.02983 17.0701 5.98982 17.0202 5.83982 17.0202C5.25982 17.0302 4.67982 17.0202 4.09982 17.0202C3.99982 17.0202 3.89982 17.0201 3.79982 16.9801C3.58982 16.8901 3.45982 16.6601 3.49982 16.4401C3.53982 16.2201 3.72982 16.0402 3.95982 16.0302C4.28982 16.0202 4.61983 16.0302 4.94983 16.0302C5.25983 16.0302 5.56983 16.0202 5.87983 16.0302C5.99983 16.0302 6.02982 15.9902 6.02982 15.8802C6.01982 15.3002 6.01982 14.7202 6.02982 14.1402C6.02982 14.0102 5.97982 14.0002 5.86982 14.0002C5.61982 14.0002 5.36983 14.0101 5.10983 13.9701C3.81983 13.7401 3.08983 12.2401 3.71983 11.0901C4.11983 10.3501 4.74982 10.0001 5.58982 9.99014C5.71982 9.99014 5.87982 10.0301 5.97982 9.97012C6.08982 9.90012 6.00982 9.73013 6.01982 9.60013C6.03982 9.33013 6.23983 9.13015 6.48983 9.12015C6.72983 9.11015 6.95982 9.30021 6.99982 9.56021C7.00982 9.60021 7.00983 9.65009 7.00983 9.69009C7.01983 10.0001 7.01982 10.0002 7.30982 10.0002C7.86982 10.0002 8.43982 10.0002 8.99982 10.0002C9.22982 10.0002 9.39982 10.1101 9.48982 10.3201C9.56982 10.5001 9.52983 10.6702 9.40983 10.8102C9.29983 10.9502 9.14983 10.9901 8.96983 10.9901C8.37983 10.9901 7.78982 11.0001 7.20982 10.9801C7.03982 10.9801 7.00982 11.0401 7.01982 11.2001Z" fill="white"/>
<path d="M5.86968 13.0302C5.49968 13.0302 5.12968 13.0402 4.83968 12.7702C4.52968 12.4802 4.40968 12.1202 4.54968 11.7102C4.67968 11.3102 4.95968 11.0702 5.38968 11.0202C6.02968 10.9402 6.03969 10.9502 6.03969 11.5802V12.0302C6.03969 12.3102 6.02969 12.6002 6.03969 12.8802C6.02969 13.0002 5.98968 13.0302 5.86968 13.0302Z" fill="white"/>
<path d="M8.55003 15.0003C8.56003 15.5403 8.18003 15.9703 7.62003 16.0303C7.46003 16.0503 7.30002 16.0403 7.15002 16.0503C7.04002 16.0603 7.02002 16.0103 7.02002 15.9203C7.02002 15.6203 7.02002 15.3303 7.02002 15.0303C7.02002 14.7403 7.02002 14.4503 7.02002 14.1603C7.02002 14.0603 7.04002 14.0103 7.15002 14.0203C7.29002 14.0303 7.44002 14.0203 7.59002 14.0303C8.13002 14.0603 8.54003 14.4803 8.55003 15.0003Z" fill="white"/>
</svg>
