<svg width="33" height="35" viewBox="0 0 33 35" fill="none" xmlns="http://www.w3.org/2000/svg">
<path d="M27.9797 34.7499C27.9797 34.7299 27.9697 34.7099 27.9697 34.6799C28.1697 34.4999 28.3697 34.4999 28.5597 34.6799C28.5597 34.6999 28.5597 34.7299 28.5597 34.7499C28.3697 34.7499 28.1797 34.7499 27.9797 34.7499Z" fill="#EC6228"/>
<path d="M31.27 27.9801C29.65 26.1001 28.03 24.2301 26.39 22.3701C26.18 22.1301 26.15 21.9801 26.33 21.7101C27.5 19.8401 28.19 17.7901 28.29 15.5801C28.51 10.8101 26.8 6.82009 23.18 3.73009C18.84 0.0200875 12.72 -0.569881 7.61 2.20012C2.41 5.01012 -0.40998 10.5801 0.35002 16.5001C0.79002 19.9701 2.41 22.8701 5.11 25.0801C9.52 28.7001 14.43 29.6401 19.8 27.4501C20.05 27.3501 20.16 27.4101 20.31 27.5801C21.94 29.4701 23.58 31.3401 25.21 33.2301C25.95 34.0801 26.86 34.5701 27.98 34.6901C28.18 34.6901 28.38 34.6901 28.57 34.6901C28.72 34.6701 28.88 34.6601 29.02 34.6301C32.16 33.9901 33.37 30.4101 31.27 27.9801ZM14.26 25.2301C8.41002 25.2201 3.52002 20.4401 3.60002 14.6401C3.70002 7.80012 8.73 3.91008 14.27 3.91008C19.81 3.91008 24.84 7.77011 24.95 14.6301C25.05 20.4501 20.13 25.2401 14.26 25.2301ZM17.27 16.5901C17.18 16.5401 17.05 16.5301 17.02 16.4101C19.69 14.6001 19.99 11.1001 18.05 8.90013C16.1 6.68013 12.72 6.61009 10.68 8.73009C8.68001 10.8001 8.70001 14.4301 11.56 16.4301C11.49 16.5501 11.36 16.5601 11.25 16.6201C9.51001 17.5601 8.36002 18.9701 7.82002 20.8801C7.75002 21.1301 7.79002 21.2801 7.98002 21.4601C11.52 24.6801 17.01 24.6801 20.58 21.4801C20.79 21.2901 20.83 21.1301 20.75 20.8701C20.19 18.9301 19.04 17.5101 17.27 16.5901ZM14.28 15.8701C12.21 15.8701 10.61 14.2601 10.62 12.1801C10.64 10.1101 12.22 8.52013 14.27 8.52013C16.33 8.52013 17.94 10.1501 17.93 12.2201C17.92 14.2901 16.34 15.8701 14.28 15.8701Z" fill="#EC6228"/>
<path d="M0.669586 7.36024C0.589586 7.20024 0.41957 7.31026 0.30957 7.25026C0.44957 7.19026 0.589584 7.13024 0.729584 7.23024C0.769584 7.26024 0.729586 7.33024 0.669586 7.36024Z" fill="#EC6228"/>
<path d="M28.25 7.25017C28.14 7.31017 27.9701 7.21015 27.8901 7.36015C27.8401 7.33015 27.79 7.26015 27.84 7.23015C27.96 7.13015 28.11 7.18017 28.25 7.25017Z" fill="#EC6228"/>
<path d="M20.7396 20.85C20.1896 18.93 19.0396 17.51 17.2596 16.58C17.1696 16.53 17.0396 16.52 17.0096 16.4C19.6796 14.59 19.9796 11.09 18.0396 8.89004C16.0896 6.67004 12.7096 6.59999 10.6696 8.71999C8.66958 10.79 8.68955 14.42 11.5496 16.42C11.4796 16.54 11.3496 16.55 11.2396 16.61C9.49956 17.55 8.34956 18.96 7.80956 20.87C7.73956 21.12 7.77957 21.27 7.96957 21.45C11.5096 24.67 16.9996 24.67 20.5696 21.47C20.7796 21.28 20.8196 21.12 20.7396 20.85ZM14.2796 15.87C12.2096 15.87 10.6096 14.26 10.6196 12.18C10.6396 10.11 12.2196 8.52004 14.2696 8.52004C16.3296 8.52004 17.9396 10.15 17.9296 12.22C17.9196 14.29 16.3396 15.87 14.2796 15.87Z" fill="#EC6228"/>
<path d="M20.7396 20.85C20.1896 18.93 19.0396 17.51 17.2596 16.58C17.1696 16.53 17.0396 16.52 17.0096 16.4C19.6796 14.59 19.9796 11.09 18.0396 8.89004C16.0896 6.67004 12.7096 6.59999 10.6696 8.71999C8.66958 10.79 8.68955 14.42 11.5496 16.42C11.4796 16.54 11.3496 16.55 11.2396 16.61C9.49956 17.55 8.34956 18.96 7.80956 20.87C7.73956 21.12 7.77957 21.27 7.96957 21.45C11.5096 24.67 16.9996 24.67 20.5696 21.47C20.7796 21.28 20.8196 21.12 20.7396 20.85ZM14.2796 15.87C12.2096 15.87 10.6096 14.26 10.6196 12.18C10.6396 10.11 12.2196 8.52004 14.2696 8.52004C16.3296 8.52004 17.9396 10.15 17.9296 12.22C17.9196 14.29 16.3396 15.87 14.2796 15.87Z" fill="#EC6228"/>
</svg>
