<svg width="24" height="23" viewBox="0 0 24 23" fill="none" xmlns="http://www.w3.org/2000/svg">
<path d="M23.5401 14.0098C23.5401 13.8898 23.4901 13.7798 23.4501 13.6698C22.9701 12.4698 21.3501 12.1298 20.3001 13.0298C19.2201 13.9498 18.1401 14.8798 17.0601 15.7998C16.9001 15.9398 16.7301 16.0798 16.5401 16.2398C16.9701 14.8098 15.8601 13.7498 14.5901 13.7798C12.4201 13.8298 10.2601 13.7998 8.0901 13.7898C6.9001 13.7898 5.8401 14.1398 4.9001 14.8498C3.5701 15.8498 2.2401 16.8598 0.900101 17.8598C0.690101 18.0198 0.600098 18.1998 0.600098 18.4498C0.610098 19.6898 0.610098 20.9198 0.600098 22.1598C0.600098 22.4498 0.690098 22.6698 0.960098 22.7998H6.2301C6.3201 22.7498 6.4301 22.7398 6.5101 22.6798C7.2201 22.1798 7.9501 21.7098 8.6601 21.2098C8.8401 21.0798 9.0301 21.0198 9.2601 21.0198C11.2701 21.0298 13.2801 21.0298 15.2901 21.0198C16.3301 21.0098 17.2501 20.6398 18.0301 19.9698C18.2201 19.8098 18.4101 19.6398 18.6001 19.4698C19.4301 18.7698 20.2401 18.0398 21.0601 17.3298C21.5901 16.8698 22.1201 16.4098 22.6501 15.9498C23.0801 15.5798 23.5301 15.2098 23.5601 14.5898V14.2398C23.5301 14.1698 23.5801 14.0798 23.5401 14.0098ZM22.2901 14.9098C20.8601 16.1598 19.4301 17.3998 18.0001 18.6398C17.8001 18.8098 17.6001 18.9898 17.4001 19.1598C16.7601 19.7198 16.0101 19.9998 15.1501 19.9898C13.0701 19.9898 10.9901 19.9898 8.9101 19.9898C8.7001 19.9898 8.5301 20.0398 8.3701 20.1598C7.6101 20.6898 6.8401 21.2098 6.0701 21.7298C5.9801 21.7998 5.8801 21.8298 5.7601 21.8298C4.4401 21.8198 3.1201 21.8198 1.8001 21.8298C1.6501 21.8298 1.6001 21.7998 1.6001 21.6398C1.6101 20.6698 1.6001 19.6898 1.6001 18.7198C1.6001 18.5998 1.6301 18.5198 1.7301 18.4498C3.0201 17.4898 4.3001 16.5098 5.5901 15.5498C6.3001 15.0198 7.1201 14.7598 8.0201 14.7498H11.2801C12.4601 14.7498 13.6301 14.7498 14.8201 14.7498C15.2401 14.7498 15.5901 15.0498 15.6601 15.4398C15.7301 15.8598 15.5001 16.2598 15.1001 16.3998C14.9601 16.4498 14.8101 16.4598 14.6601 16.4598H10.2501C10.1701 16.4598 10.1001 16.4598 10.0201 16.4598C9.8001 16.4798 9.6201 16.6498 9.5901 16.8698C9.5601 17.0798 9.6801 17.2998 9.8901 17.3798C9.9901 17.4198 10.1001 17.4198 10.2001 17.4198C12.1001 17.4198 14.0001 17.4198 15.9001 17.4198C16.4401 17.4198 16.9001 17.2398 17.3101 16.8898C18.5201 15.8498 19.7401 14.8098 20.9501 13.7598C21.2001 13.5498 21.4801 13.4398 21.8101 13.4898C22.1701 13.5398 22.4301 13.7098 22.5501 14.0398C22.6601 14.3898 22.5601 14.6698 22.2901 14.9098Z" fill="white"/>
<path d="M23.5803 14.24C23.5103 14.17 23.5303 14.09 23.5403 14.01C23.5503 14.01 23.5703 14.02 23.5803 14.02C23.5803 14.09 23.5803 14.17 23.5803 14.24Z" fill="white"/>
<path d="M17.15 9.91992C17.03 8.48992 16.37 7.3499 15.23 6.4599C14.86 6.1699 14.44 5.9599 14.01 5.7699C15.53 4.5099 15.49 2.51989 14.28 1.32989C13.1 0.159893 11.1 0.159893 9.91998 1.32989C8.71997 2.51989 8.66997 4.5099 10.2 5.7699C10.15 5.7899 10.12 5.79991 10.1 5.81991C9.29998 6.14991 8.62998 6.6499 8.08998 7.3099C7.23998 8.3599 6.96998 9.5699 7.02998 10.8699C7.04998 11.2099 7.24998 11.3899 7.61998 11.3899H16.6C16.98 11.3899 17.18 11.1999 17.19 10.8199C17.18 10.5299 17.18 10.2199 17.15 9.91992ZM10.02 3.41992C10.02 2.29992 10.95 1.39991 12.11 1.40991C13.25 1.40991 14.17 2.3199 14.17 3.4299C14.17 4.5499 13.25 5.4299 12.09 5.4299C10.94 5.4299 10.02 4.53992 10.02 3.41992ZM16.13 10.3499C16.12 10.3599 16.1 10.3799 16.08 10.3899C16.06 10.3999 16.04 10.4099 16.01 10.4199C15.92 10.4399 15.77 10.4399 15.56 10.4399H10.32C10.01 10.4399 9.69998 10.4399 9.39998 10.4399C9.01998 10.4399 8.63998 10.4399 8.24998 10.4399C8.17998 10.4399 8.12998 10.4299 8.08998 10.4099C8.07998 10.3999 8.05998 10.3999 8.05998 10.3899C8.01998 10.3599 7.99998 10.2899 8.00998 10.1899C8.01998 10.0599 8.02998 9.9299 8.03998 9.8099C8.05998 9.6799 8.07998 9.55991 8.10998 9.43991C8.13998 9.31991 8.16998 9.1999 8.20998 9.0899C8.22998 9.0299 8.24998 8.97992 8.26998 8.91992C8.30998 8.80992 8.35998 8.6999 8.41998 8.5899C8.44998 8.5399 8.47998 8.4799 8.49998 8.4299C8.60998 8.2199 8.74998 8.02991 8.89998 7.84991C8.97998 7.75991 9.04998 7.6699 9.13998 7.5899C9.66998 7.0499 10.36 6.66991 11.1 6.49991C11.27 6.45991 11.44 6.42991 11.62 6.40991C12.41 6.33991 13.14 6.43992 13.8 6.72992C13.86 6.75992 13.91 6.7799 13.97 6.8099C14.08 6.8699 14.2 6.92991 14.31 6.99991C14.53 7.13991 14.74 7.29992 14.94 7.47992C15.03 7.55992 15.11 7.63992 15.19 7.72992C15.27 7.81992 15.34 7.8999 15.41 7.9899C15.48 8.0799 15.54 8.16992 15.6 8.25992C15.78 8.53992 15.92 8.83991 16.01 9.15991C16.04 9.26991 16.07 9.3699 16.09 9.4899C16.11 9.5999 16.13 9.71989 16.14 9.82989C16.18 10.1199 16.19 10.2699 16.13 10.3499Z" fill="white"/>
<path d="M15.5701 10.4398H12.0801C10.8001 10.4398 9.53007 10.4398 8.25007 10.4398C8.05007 10.4398 7.99007 10.3798 8.00007 10.1898C8.08007 8.1298 9.73007 6.58981 11.6201 6.41981C12.8901 6.29981 14.0101 6.62979 14.9401 7.48979C15.6301 8.12979 16.0401 8.91979 16.1401 9.83979C16.2101 10.4398 16.2001 10.4398 15.5701 10.4398Z" fill="white"/>
</svg>
