<svg width="19" height="22" viewBox="0 0 19 22" fill="none" xmlns="http://www.w3.org/2000/svg">
<path d="M14.4299 11.81C14.0799 11.52 13.5799 11.55 13.2799 11.93C12.6599 12.7 11.9299 13.34 11.2399 14.03C10.7099 14.56 10.1899 15.11 9.92994 15.84C9.88994 15.94 9.82995 15.93 9.75995 15.93C8.59995 15.93 7.43994 15.93 6.26994 15.93C6.14994 15.93 6.09994 15.88 6.06994 15.78C5.98994 15.54 5.85995 15.3199 5.71995 15.1099C5.43995 14.6799 5.07994 14.3099 4.70994 13.9599C4.10994 13.3699 3.47994 12.82 2.93994 12.17C2.13994 11.21 1.67994 10.1199 1.63994 8.85994C1.58994 7.03994 2.19994 5.46995 3.47994 4.17995C4.27994 3.36995 5.22995 2.81996 6.32995 2.52996C6.88995 2.37996 7.46995 2.31996 8.04995 2.30996C8.45995 2.29996 8.78994 1.99994 8.83994 1.60994C8.88994 1.22994 8.66995 0.85996 8.29995 0.71996C8.25995 0.70996 8.22995 0.689972 8.18995 0.669972H7.73994C7.69994 0.669972 7.65995 0.659972 7.61995 0.669972C7.55995 0.669972 7.50994 0.669972 7.45994 0.669972L7.22995 0.699971C7.18995 0.719971 7.14995 0.70996 7.11995 0.71996C6.89995 0.75996 6.66994 0.779966 6.44994 0.819966C5.43994 1.01997 4.48995 1.39995 3.62995 1.95995C2.68995 2.57995 1.89994 3.35995 1.27994 4.29995C0.499943 5.48995 0.0799428 6.79996 0.00994275 8.21996C-0.0600572 9.59996 0.219943 10.8999 0.919943 12.1099C1.39994 12.9499 2.04994 13.65 2.72994 14.32C3.21994 14.8 3.73994 15.2399 4.17994 15.7699C4.47994 16.1299 4.64994 16.52 4.63994 17C4.61994 17.71 4.62994 18.42 4.63994 19.13C4.64994 20.58 5.70994 21.65 7.16994 21.65C7.73994 21.65 8.29995 21.65 8.86995 21.65C10.3399 21.65 11.3999 20.58 11.4099 19.12C11.4099 18.39 11.4099 17.66 11.4099 16.93C11.4099 16.57 11.5099 16.25 11.7199 15.95C12.0299 15.52 12.4099 15.18 12.7799 14.82C13.3899 14.23 14.0199 13.65 14.5499 12.97C14.8299 12.59 14.7899 12.1 14.4299 11.81ZM9.74994 17.73C9.73994 18.2 9.74994 18.67 9.74994 19.14C9.74994 19.68 9.40995 20.0199 8.85995 20.0199C8.28995 20.0199 7.70994 20.0199 7.13994 20.0199C6.60994 20.0199 6.26995 19.68 6.25995 19.15C6.25995 18.67 6.26995 18.19 6.25995 17.72C6.25995 17.57 6.30995 17.56 6.43995 17.56C6.96995 17.57 7.48994 17.56 8.01994 17.56C8.53994 17.56 9.05995 17.56 9.57995 17.56C9.69995 17.56 9.75994 17.58 9.74994 17.73Z" fill="white"/>
<path d="M17.5697 4.9899C17.7597 4.8399 17.9497 4.67992 18.1497 4.53992C18.3597 4.38992 18.5097 4.20992 18.5297 3.94992V3.6199C18.4697 3.2599 18.2697 2.9499 18.0797 2.6499C17.8097 2.2399 17.4397 2.13991 16.9697 2.30991C16.8297 2.35991 16.6797 2.3899 16.5497 2.4599C16.2397 2.6299 15.9797 2.58991 15.6997 2.37991C15.5797 2.28991 15.4997 2.20991 15.4797 2.05991C15.4497 1.81991 15.3997 1.58989 15.3497 1.35989C15.2697 0.989894 15.0697 0.729922 14.6697 0.669922H13.5197C13.1497 0.819922 12.9197 1.06992 12.8697 1.47992C12.8497 1.69992 12.8097 1.9299 12.7797 2.1499C12.7597 2.2999 12.1597 2.7399 12.0097 2.7099C11.9597 2.6999 11.9197 2.67992 11.8697 2.66992C11.6297 2.58992 11.3897 2.50991 11.1497 2.43991C10.7097 2.31991 10.3497 2.4699 10.1397 2.8699C10.0197 3.0899 9.91972 3.30991 9.80972 3.52991C9.59972 3.96991 9.69972 4.35992 10.0997 4.63992C10.2997 4.77992 10.5097 4.91991 10.7097 5.05991C10.8797 5.17991 10.8897 5.5199 10.7297 5.6499C10.5097 5.8299 10.2797 5.99991 10.0597 6.18991C9.72972 6.46991 9.65972 6.8599 9.85972 7.2399C9.97972 7.4599 10.0997 7.6699 10.2297 7.8699C10.4697 8.2499 10.8297 8.37992 11.2497 8.22992C11.4997 8.14992 11.7497 8.0499 11.9997 7.9599C12.0597 7.9399 12.1097 7.89992 12.1697 7.94992C12.3397 8.06992 12.5097 8.17992 12.6997 8.25992C12.7697 8.28992 12.7697 8.34991 12.7797 8.40991C12.8297 8.69991 12.8797 8.98991 12.9397 9.27991C13.0197 9.66991 13.3297 9.9199 13.7297 9.9299C13.9797 9.9399 14.2397 9.9399 14.4897 9.9299C14.8897 9.9199 15.2097 9.65992 15.2797 9.25992C15.3197 9.07992 15.3597 8.8999 15.3697 8.7099C15.3897 8.4099 15.4897 8.19991 15.7997 8.09991C15.8997 8.06991 15.9897 7.98992 16.0697 7.91992C16.1597 7.83992 16.2497 7.8199 16.3697 7.8699C16.6097 7.9499 16.8497 8.0199 17.0897 8.0899C17.5597 8.2199 17.9097 8.06992 18.1297 7.63992C18.2597 7.37992 18.3897 7.11989 18.5297 6.85989V6.4899C18.4897 6.2199 18.3497 6.03992 18.1297 5.88992C17.9397 5.75992 17.7497 5.62992 17.5697 5.47992C17.3697 5.32992 17.3697 5.1399 17.5697 4.9899ZM15.7497 5.35989C15.6997 6.29989 14.9397 6.98991 14.0197 6.93991C13.1397 6.88991 12.4397 6.11991 12.4797 5.24991C12.5197 4.31991 13.2897 3.61992 14.2097 3.66992C15.0897 3.70992 15.7997 4.47989 15.7497 5.35989Z" fill="white"/>
<path d="M7.61998 4.84992C7.61998 5.18992 7.42998 5.47991 7.07998 5.61991C6.71998 5.75991 6.36998 5.90991 6.06998 6.14991C5.28998 6.76991 4.90998 7.57992 4.86998 8.55992C4.84998 8.95992 4.64998 9.2499 4.30998 9.3599C3.76998 9.5399 3.22998 9.14992 3.22998 8.55992C3.23998 7.52992 3.53998 6.58993 4.15998 5.75993C4.75998 4.95993 5.53998 4.40992 6.48998 4.09992C7.06998 3.89992 7.60998 4.26992 7.61998 4.84992Z" fill="white"/>
<path d="M6.34996 11.2199C6.34996 11.6699 5.96996 12.0399 5.51996 12.0299C5.06996 12.0299 4.70996 11.6499 4.70996 11.1999C4.70996 10.7499 5.08996 10.3899 5.53996 10.3899C5.97996 10.3899 6.34996 10.7699 6.34996 11.2199Z" fill="white"/>
</svg>
