<svg width="57" height="56" viewBox="0 0 57 56" fill="none" xmlns="http://www.w3.org/2000/svg">
<path d="M56.5699 25.82C56.5599 23.63 56.0599 21.54 55.3899 19.48C53.7599 14.55 50.9698 10.38 47.0498 6.96998C44.2898 4.56998 41.1698 2.81 37.7298 1.61C34.2198 0.389997 30.5998 0.100022 26.9098 0.260022C24.5598 0.360022 22.2999 0.800041 20.0899 1.53004C15.1499 3.15004 10.9899 5.95001 7.57986 9.87001C5.19986 12.62 3.43985 15.72 2.24985 19.15C1.01985 22.66 0.72986 26.28 0.88986 29.97C0.98986 32.33 1.42982 34.61 2.15982 36.84C3.78982 41.77 6.57986 45.94 10.5199 49.34C14.4999 52.78 19.0999 54.9 24.2799 55.78C25.0099 55.9 25.7498 55.87 26.4798 56H27.0199C27.0999 55.92 27.1899 55.95 27.2799 55.94C27.4099 55.96 27.5598 55.89 27.6798 56H29.7498C29.8398 55.91 29.9498 55.95 30.0598 55.94H30.2599C30.3499 55.95 30.4399 55.92 30.5099 56H30.8299C31.6499 55.88 32.4898 55.91 33.3098 55.77C39.9498 54.61 45.4998 51.5 49.9298 46.42C53.3698 42.47 55.4899 37.89 56.3899 32.73C56.5199 31.97 56.4798 31.19 56.6198 30.43V25.96C56.5898 25.92 56.5699 25.87 56.5699 25.82ZM28.6999 50.11C16.5899 50.02 6.71983 40.09 6.79983 28.07C6.87983 15.97 16.8299 6.07999 28.8399 6.16999C40.9399 6.25999 50.8098 16.2 50.7298 28.21C50.6498 40.31 40.6999 50.2 28.6999 50.11Z" fill="white"/>
<path d="M33.3193 43.6799C33.3193 44.9399 32.6293 45.64 31.3793 45.65C29.6393 45.66 27.8993 45.66 26.1593 45.65C24.9093 45.65 24.2193 44.9499 24.2193 43.6899C24.2093 40.9699 24.2193 38.25 24.2193 35.53C24.2193 32.87 24.2193 30.1999 24.2193 27.5399C24.2193 26.0899 24.8693 25.4399 26.2993 25.4399C27.9893 25.4399 29.6693 25.4399 31.3593 25.4399C32.6493 25.4399 33.3293 26.1299 33.3293 27.4299C33.3193 32.8399 33.3193 38.2599 33.3193 43.6799Z" fill="white"/>
<path d="M33.7904 15.6601C33.8104 18.4201 31.5104 20.7301 28.7604 20.7201C26.0104 20.7101 23.7604 18.4502 23.7404 15.7002C23.7204 12.9402 26.0204 10.6302 28.7704 10.6402C31.5104 10.6402 33.7704 12.9001 33.7904 15.6601Z" fill="white"/>
</svg>
