<svg width="34" height="34" viewBox="0 0 34 34" fill="none" xmlns="http://www.w3.org/2000/svg">
<path d="M33.1498 15.9699V15.7799C33.0798 15.4299 33.1098 15.0699 33.0598 14.7199C32.4498 10.6899 30.5898 7.34986 27.5098 4.68986C25.3598 2.81986 22.8598 1.63986 20.0598 1.06986C19.4498 0.949862 18.8298 0.939863 18.2198 0.859863H18.0898C18.0798 0.939863 18.0198 0.919863 17.9698 0.909863C17.9298 0.909863 17.8898 0.909863 17.8398 0.909863C17.7798 0.909863 17.7098 0.909863 17.6498 0.909863C17.5998 0.919863 17.5498 0.909863 17.5198 0.859863H16.3798C16.3498 0.919863 16.2998 0.919863 16.2498 0.909863C16.1898 0.909863 16.1298 0.909863 16.0598 0.909863C16.0198 0.909863 15.9798 0.909863 15.9298 0.909863C15.8798 0.919863 15.8198 0.939863 15.8098 0.859863H15.5598C15.5298 0.889863 15.4898 0.889862 15.4398 0.889862C14.2798 0.919862 13.1598 1.16986 12.0698 1.51986C9.46982 2.35986 7.19982 3.74986 5.28982 5.71986C3.90982 7.13986 2.82982 8.73986 2.03982 10.5399C1.28982 12.2499 0.809818 14.0299 0.759818 15.9199C0.729818 17.1399 0.689813 18.3599 0.879813 19.5699C1.25981 22.0299 2.16981 24.2699 3.59981 26.3099C4.85981 28.1199 6.42982 29.6199 8.28982 30.7999C10.0698 31.9299 12.0098 32.6799 14.0798 33.0599C15.4298 33.2999 16.7798 33.2799 18.1398 33.2299C20.1098 33.1599 21.9598 32.6299 23.7398 31.8199C25.9098 30.8299 27.7598 29.4099 29.3098 27.5999C31.0098 25.6099 32.1698 23.3399 32.7898 20.7999C32.9798 19.9999 33.0798 19.1899 33.1398 18.3699V18.0499C33.0698 18.0299 33.0798 17.9799 33.0898 17.9299C33.0798 17.8599 33.0598 17.7799 33.1398 17.7399V17.5499C33.0398 17.4199 33.0398 17.2999 33.1398 17.1699V16.9199C33.0398 16.7899 33.0398 16.6699 33.1398 16.5399V16.3499C33.0798 16.3199 33.0798 16.2799 33.0898 16.2199C33.0898 16.1799 33.0898 16.1399 33.0898 16.0899C33.0898 16.0399 33.0698 15.9799 33.1498 15.9699ZM23.1698 23.5099C22.9098 23.7099 22.6098 23.7899 22.2798 23.7899C18.7298 23.7899 15.1798 23.7899 11.6298 23.7899C10.8198 23.7899 10.2098 23.1999 10.2098 22.4499C10.1998 21.6799 10.8198 21.0999 11.6498 21.0899C13.4298 21.0899 15.2098 21.0899 16.9898 21.0899C18.7698 21.0899 20.5498 21.0899 22.3298 21.0899C22.9398 21.0899 23.4398 21.4599 23.6298 22.0099C23.8098 22.5599 23.6298 23.1499 23.1698 23.5099ZM10.3798 16.3899C10.6398 15.9299 11.0398 15.6999 11.5698 15.6999C12.4298 15.6999 13.2998 15.6999 14.1598 15.6999C16.8598 15.6999 19.5598 15.6999 22.2498 15.6999C23.0098 15.6999 23.5298 16.1199 23.6598 16.7899C23.8098 17.5999 23.2298 18.3499 22.4098 18.3799C21.5198 18.3999 20.6198 18.3899 19.7198 18.3899C18.7898 18.3899 17.8598 18.3899 16.9398 18.3899C15.1598 18.3899 13.3798 18.3999 11.5998 18.3899C10.5298 18.3799 9.86981 17.3099 10.3798 16.3899ZM22.2398 12.9999C20.4798 12.9999 18.7198 12.9999 16.9598 12.9999C15.1698 12.9999 13.3798 12.9999 11.5898 12.9999C10.9298 12.9999 10.3898 12.5699 10.2598 11.9599C10.1198 11.3299 10.4198 10.7099 10.9998 10.4399C11.2098 10.3399 11.4398 10.3099 11.6698 10.3099C15.1998 10.3099 18.7298 10.3099 22.2598 10.3099C23.0898 10.3099 23.7098 10.8899 23.7098 11.6499C23.7098 12.4199 23.0898 12.9899 22.2398 12.9999Z" fill="#E06939"/>
</svg>
