<svg width="30" height="31" viewBox="0 0 30 31" fill="none" xmlns="http://www.w3.org/2000/svg">
<path d="M30 3.48155C30.0222 5.21478 28.6445 6.50359 26.7335 6.50359C22.8226 6.50359 18.9117 6.50359 15.0008 6.50359C11.0233 6.50359 7.04575 6.50359 3.0682 6.50359C1.60162 6.50359 0.401719 5.54809 0.112847 4.19261C-0.198246 2.7927 0.46836 1.415 1.75717 0.815033C2.22381 0.592823 2.73492 0.526167 3.24601 0.526167C11.09 0.526167 18.934 0.526167 26.778 0.526167C28.6223 0.503946 29.9777 1.77053 30 3.48155Z" fill="#F9F9F9"/>
<path d="M28.7996 29.8579C28.2219 30.3023 27.5552 30.4801 26.8219 30.4801C18.9335 30.4801 11.0451 30.4801 3.15664 30.4801C1.35675 30.4801 0.00124156 29.1691 0.00124156 27.5025C-0.0209794 25.7915 1.35672 24.5027 3.20106 24.4805C7.15639 24.4805 11.1117 24.4805 15.067 24.4805C19.0224 24.4805 22.9777 24.4805 26.933 24.4805C28.2885 24.4805 29.3996 25.3026 29.8218 26.5248C30.2217 27.7469 29.8218 29.058 28.7996 29.8579Z" fill="#F9F9F9"/>
<path d="M27.134 18.4579C25.1563 18.5023 23.1564 18.4801 21.1566 18.4801C19.09 18.4801 17.0235 18.4801 14.9791 18.4801C11.0238 18.4801 7.06844 18.5023 3.11311 18.4801C0.713253 18.4579 -0.753264 16.0803 0.402225 14.0582C0.979969 13.036 1.86874 12.5249 3.04645 12.5249C4.95745 12.5249 6.89073 12.5249 8.80173 12.5249C14.8014 12.5249 20.801 12.5249 26.7785 12.5249C28.4672 12.5249 29.6227 13.4582 29.9116 14.947C30.2671 16.7247 28.9783 18.4135 27.134 18.4579Z" fill="#F9F9F9"/>
</svg>
