<svg width="14" height="14" viewBox="0 0 14 14" fill="none" xmlns="http://www.w3.org/2000/svg">
<path d="M13.5007 1.33013C13.5107 2.11013 12.8907 2.69013 12.0307 2.69013C10.2707 2.69013 8.51067 2.69013 6.75067 2.69013C4.96067 2.69013 3.17067 2.69013 1.38067 2.69013C0.720672 2.69013 0.180685 2.26013 0.0506853 1.65013C-0.0893147 1.02013 0.210676 0.400127 0.790676 0.130127C1.00068 0.0301268 1.23069 0.000129555 1.46069 0.000129555C4.99069 0.000129555 8.52068 0.000129555 12.0507 0.000129555C12.8807 -0.00987044 13.4907 0.560128 13.5007 1.33013Z" fill="#F9F9F9"/>
<path d="M12.9606 13.2003C12.7006 13.4003 12.4006 13.4803 12.0706 13.4803C8.52061 13.4803 4.97062 13.4803 1.42062 13.4803C0.610621 13.4803 0.000607539 12.8903 0.000607539 12.1403C-0.00939246 11.3703 0.61061 10.7903 1.44061 10.7803C3.22061 10.7803 5.00061 10.7803 6.78061 10.7803C8.56061 10.7803 10.3406 10.7803 12.1206 10.7803C12.7306 10.7803 13.2306 11.1503 13.4206 11.7003C13.6006 12.2503 13.4206 12.8403 12.9606 13.2003Z" fill="#F9F9F9"/>
<path d="M12.211 8.0699C11.321 8.0899 10.421 8.0799 9.52101 8.0799C8.59101 8.0799 7.66101 8.0799 6.74101 8.0799C4.96101 8.0799 3.18098 8.0899 1.40098 8.0799C0.320982 8.0699 -0.338988 6.9999 0.181012 6.0899C0.441012 5.6299 0.840984 5.3999 1.37098 5.3999C2.23098 5.3999 3.10101 5.3999 3.96101 5.3999C6.66101 5.3999 9.36101 5.3999 12.051 5.3999C12.811 5.3999 13.331 5.8199 13.461 6.4899C13.621 7.2899 13.041 8.0499 12.211 8.0699Z" fill="#F9F9F9"/>
</svg>
