<svg width="39" height="39" viewBox="0 0 39 39" fill="none" xmlns="http://www.w3.org/2000/svg">
<path d="M38.7708 35.0199C38.7808 34.0399 38.4408 33.2599 37.7108 32.5399C35.8308 30.7099 33.9608 28.8799 32.0908 27.0399C31.2108 26.1799 30.3908 25.2599 29.4608 24.4599C28.8608 23.9399 28.8308 23.8199 29.2308 23.1199C29.8608 22.0299 30.4208 20.8999 30.7708 19.6799C31.3208 17.7699 31.5108 15.8299 31.3208 13.8399C31.1408 11.8799 30.6108 10.0299 29.7008 8.28992C28.3808 5.74992 26.5108 3.70992 24.0708 2.19992C22.4208 1.17992 20.6708 0.429921 18.7208 0.199921C18.1508 0.129921 17.5708 0.139935 17.0008 0.0899353C16.8008 0.0699353 16.6108 0.0599365 16.4108 0.0599365C16.1008 0.0799365 15.8808 0.0699353 15.6208 0.0899353L15.1908 0.0999146C14.1308 0.149915 13.0708 0.119912 12.0408 0.409912C8.6208 1.35991 5.8008 3.23991 3.6808 6.09991C1.9508 8.42991 0.830806 10.9999 0.780806 13.9599C0.750806 15.4399 0.660794 16.9299 0.940794 18.3899C1.53079 21.4099 2.97081 23.9999 5.14081 26.1699C6.52081 27.5499 8.11081 28.6499 9.9208 29.4199C12.7808 30.6499 15.7308 30.9599 18.7908 30.4399C20.6008 30.1299 22.2608 29.4499 23.8308 28.5299C24.5208 28.1199 24.5808 28.1299 25.1608 28.6999C25.6608 29.1999 26.1708 29.6999 26.6708 30.2099C29.0508 32.5899 31.4208 34.9599 33.8008 37.3399C34.1208 37.6599 34.4408 37.9699 34.9408 38.0399C35.6508 38.1299 36.3708 38.1699 37.0708 38.0299C38.0108 37.8499 38.6908 37.3699 38.7208 36.3499C38.7308 36.0799 38.7708 35.7999 38.7808 35.5299L38.7908 35.2599C38.7808 35.1799 38.7708 35.1099 38.7708 35.0199ZM16.2008 26.6899C9.9108 26.5899 4.7908 21.5399 4.8108 15.2799C4.8308 9.01994 9.95079 3.90991 16.1908 3.90991C22.4708 3.90991 27.5108 9.07992 27.5908 15.3599C27.6508 21.3699 22.0008 26.7799 16.2008 26.6899Z" fill="white"/>
</svg>
