<svg width="20" height="20" viewBox="0 0 20 20" fill="none" xmlns="http://www.w3.org/2000/svg">
<path d="M20 18.3649C20 17.8555 19.8344 17.4352 19.4396 17.0659C18.459 16.1107 17.4657 15.1428 16.4851 14.1749C16.0266 13.7164 15.5936 13.2452 15.0969 12.8249C14.7785 12.5574 14.7658 12.4937 14.9823 12.1244C15.3134 11.5513 15.6063 10.9527 15.7846 10.3159C16.0775 9.30982 16.1667 8.29096 16.0775 7.24663C15.9756 6.21504 15.7082 5.24712 15.2243 4.33015C14.5366 2.9929 13.5432 1.92309 12.2697 1.13348C11.4037 0.598578 10.4868 0.203773 9.45521 0.0764161C9.14957 0.0382089 8.85667 0.0509456 8.55102 0.0127384C8.44914 2.72093e-06 8.34723 0 8.24535 0C8.07979 0.0127357 7.96519 2.72093e-06 7.8251 0.0127384L7.59588 0.025472C7.03553 0.0509435 6.47515 0.0382091 5.94027 0.191038C4.1446 0.687731 2.66734 1.68112 1.54663 3.18393C0.64243 4.40656 0.0438578 5.75655 0.0183873 7.31031C0.00565209 8.08719 -0.0452796 8.8768 0.107543 9.64094C0.413189 11.2329 1.17728 12.5956 2.31072 13.7291C3.03663 14.4551 3.87715 15.0282 4.81956 15.4357C6.32232 16.0852 7.87603 16.2508 9.48067 15.9706C10.4231 15.805 11.3018 15.4484 12.1296 14.9645C12.4862 14.748 12.5244 14.748 12.83 15.0536C13.0975 15.3211 13.3522 15.5758 13.6196 15.8432C14.8677 17.0913 16.1157 18.3394 17.3638 19.5875C17.5294 19.7531 17.7076 19.9187 17.9624 19.9569C18.3317 20.0078 18.7137 20.0206 19.0831 19.9569C19.5797 19.8677 19.9363 19.613 19.949 19.0781C19.949 18.938 19.9745 18.7852 19.9745 18.6451V18.505C20 18.4413 20 18.4031 20 18.3649ZM8.13074 13.9838C4.83231 13.9329 2.13246 11.2711 2.14519 7.9853C2.15793 4.69948 4.84504 2.01225 8.13074 2.01225C11.4292 2.01225 14.0781 4.72496 14.1163 8.03624C14.1545 11.182 11.1872 14.0348 8.13074 13.9838Z" fill="white"/>
</svg>
