<svg width="22" height="22" viewBox="0 0 22 22" fill="none" xmlns="http://www.w3.org/2000/svg">
<path d="M22 20.2014C22 19.641 21.8179 19.1787 21.3836 18.7725C20.3049 17.7218 19.2122 16.6571 18.1336 15.5924C17.6292 15.088 17.153 14.5697 16.6066 14.1074C16.2564 13.8132 16.2424 13.7431 16.4805 13.3369C16.8448 12.7064 17.167 12.048 17.3631 11.3475C17.6853 10.2408 17.7833 9.12006 17.6853 7.97129C17.5732 6.83654 17.279 5.77183 16.7467 4.76316C15.9902 3.29219 14.8975 2.1154 13.4967 1.24683C12.5441 0.658436 11.5354 0.224151 10.4007 0.0840577C10.0645 0.0420298 9.74233 0.0560402 9.40612 0.0140123C9.29405 2.99302e-06 9.18195 0 9.06988 0C8.88777 0.0140093 8.76171 2.99302e-06 8.60761 0.0140123L8.35547 0.0280192C7.73908 0.0560378 7.12267 0.04203 6.5343 0.210142C4.55906 0.756504 2.93407 1.84923 1.7013 3.50232C0.706673 4.84722 0.0482436 6.33221 0.0202261 8.04134C0.0062173 8.89591 -0.0498075 9.76448 0.118298 10.605C0.454508 12.3562 1.29501 13.8552 2.54179 15.102C3.34029 15.9006 4.26487 16.531 5.30152 16.9793C6.95456 17.6937 8.66363 17.8759 10.4287 17.5677C11.4654 17.3855 12.432 16.9933 13.3426 16.4609C13.7348 16.2228 13.7768 16.2228 14.1131 16.559C14.4072 16.8532 14.6874 17.1334 14.9816 17.4276C16.3544 18.8005 17.7273 20.1734 19.1002 21.5463C19.2823 21.7284 19.4784 21.9105 19.7586 21.9526C20.1648 22.0086 20.5851 22.0226 20.9914 21.9526C21.5377 21.8545 21.9299 21.5743 21.944 20.9859C21.944 20.8318 21.972 20.6637 21.972 20.5096V20.3555C22 20.2855 22 20.2434 22 20.2014ZM8.94381 15.3822C5.31554 15.3262 2.3457 12.3982 2.35971 8.78383C2.37372 5.16943 5.32955 2.21347 8.94381 2.21347C12.5721 2.21347 15.4859 5.19745 15.528 8.83987C15.57 12.3002 12.3059 15.4382 8.94381 15.3822Z" fill="white"/>
</svg>
