<svg width="17" height="16" viewBox="0 0 17 16" fill="none" xmlns="http://www.w3.org/2000/svg">
<path d="M16.6898 14.63C16.6898 14.23 16.5598 13.9 16.2498 13.61C15.4798 12.86 14.6998 12.1 13.9298 11.34C13.5698 10.98 13.2298 10.61 12.8398 10.28C12.5898 10.07 12.5798 10.02 12.7498 9.72996C13.0098 9.27996 13.2398 8.80996 13.3798 8.30996C13.6098 7.51996 13.6798 6.71996 13.6098 5.89996C13.5298 5.08996 13.3198 4.32996 12.9398 3.60996C12.3998 2.55996 11.6198 1.71996 10.6198 1.09996C9.93978 0.67996 9.21979 0.369962 8.40979 0.269962C8.16979 0.239962 7.9398 0.249963 7.6998 0.219963C7.6198 0.209963 7.53978 0.209961 7.45978 0.209961C7.32978 0.219961 7.23979 0.209963 7.12979 0.219963L6.9498 0.229961C6.5098 0.249961 6.06978 0.239962 5.64978 0.359962C4.23978 0.749962 3.0798 1.52996 2.1998 2.70996C1.4898 3.66996 1.01979 4.72996 0.99979 5.94996C0.98979 6.55996 0.949797 7.17996 1.0698 7.77996C1.3098 9.02996 1.90978 10.1 2.79978 10.99C3.36978 11.56 4.02978 12.01 4.76978 12.33C5.94978 12.84 7.16978 12.97 8.42978 12.75C9.16978 12.62 9.8598 12.34 10.5098 11.96C10.7898 11.79 10.8198 11.79 11.0598 12.03C11.2698 12.24 11.4698 12.44 11.6798 12.65C12.6598 13.63 13.6398 14.61 14.6198 15.59C14.7498 15.72 14.8898 15.85 15.0898 15.88C15.3798 15.92 15.6798 15.93 15.9698 15.88C16.3598 15.81 16.6398 15.61 16.6498 15.19C16.6498 15.08 16.6698 14.96 16.6698 14.85V14.74C16.6898 14.69 16.6898 14.66 16.6898 14.63ZM7.36978 11.19C4.77978 11.15 2.6598 9.05996 2.6698 6.47996C2.6798 3.89996 4.78978 1.78996 7.36978 1.78996C9.95978 1.78996 12.0398 3.91996 12.0698 6.51996C12.0998 8.98996 9.76978 11.23 7.36978 11.19Z" fill="white"/>
</svg>
