<svg width="30" height="30" viewBox="0 0 30 30" fill="none" xmlns="http://www.w3.org/2000/svg">
<path d="M29.9842 27.5553C29.9921 26.7829 29.724 26.1681 29.1484 25.6006C27.6661 24.1582 26.1916 22.7158 24.7172 21.2655C24.0233 20.5877 23.3768 19.8625 22.6435 19.232C22.1704 18.8221 22.1467 18.7275 22.4621 18.1758C22.9589 17.3167 23.4004 16.426 23.6764 15.4644C24.11 13.9589 24.2599 12.4298 24.11 10.8613C23.9681 9.31647 23.5502 7.8583 22.8327 6.48684C21.7919 4.48482 20.3174 2.8769 18.3936 1.68673C17.0926 0.882767 15.7127 0.29162 14.1752 0.110335C13.7257 0.0551612 13.2684 0.0630547 12.819 0.0236449C12.6613 0.007881 12.5115 0 12.3538 0C12.1094 0.0157639 11.9359 0.007881 11.7309 0.0236449L11.3918 0.0315105C10.556 0.0709203 9.72026 0.0472725 8.90812 0.275849C6.21151 1.02464 3.988 2.50645 2.31642 4.76069C0.952343 6.59718 0.0692482 8.62286 0.0298241 10.9559C0.00616969 12.1224 -0.0648028 13.2969 0.155972 14.4476C0.621176 16.828 1.7566 18.8694 3.4676 20.5798C4.55571 21.6675 5.80939 22.5345 7.23654 23.1414C9.4916 24.1109 11.8176 24.3552 14.2304 23.9454C15.6575 23.701 16.9664 23.1651 18.2043 22.4399C18.7484 22.1168 18.7957 22.1246 19.253 22.5739C19.6472 22.968 20.0494 23.3621 20.4436 23.7641C22.3202 25.64 24.1889 27.508 26.0655 29.3839C26.3178 29.6362 26.5701 29.8805 26.9643 29.9357C27.5242 30.0066 28.0919 30.0381 28.6438 29.9278C29.385 29.7859 29.9211 29.4076 29.9448 28.6036C29.9527 28.3908 29.9842 28.1701 29.9921 27.9573L30 27.7445C29.9921 27.6814 29.9842 27.6263 29.9842 27.5553ZM12.1882 20.9896C7.22866 20.9108 3.19163 16.9304 3.2074 11.9963C3.22317 7.06224 7.26019 3.03454 12.1803 3.03454C17.132 3.03454 21.1059 7.10952 21.169 12.0594C21.2163 16.7964 16.7614 21.0606 12.1882 20.9896Z" fill="white"/>
</svg>
